<?xml version="1.0" encoding="UTF-8" standalone="no"?>
<svg xmlns:xlink="http://www.w3.org/1999/xlink" height="44.0px" width="44.0px" xmlns="http://www.w3.org/2000/svg">
  <g transform="matrix(1.0, 0.0, 0.0, 1.0, 0.0, 0.0)">
    <use height="44.0" transform="matrix(1.0, 0.0, 0.0, 1.0, 0.0, 0.0)" width="44.0" xlink:href="#shape0"/>
    <use height="8.6" transform="matrix(1.2077, 0.0, 0.0, 1.2077, 0.8085, 0.9)" width="35.05" xlink:href="#sprite0"/>
    <use height="32.15" transform="matrix(1.0, 0.0, 0.0, 1.0, 5.95, 7.05)" width="32.25" xlink:href="#shape2"/>
  </g>
  <defs>
    <g id="shape0" transform="matrix(1.0, 0.0, 0.0, 1.0, 0.0, 0.0)">
      <path d="M41.8 41.7 Q39.55 44.0 36.45 44.0 L7.6 44.0 Q4.5 44.0 2.25 41.7 0.0 39.5 0.0 36.4 L0.0 7.5 Q0.0 4.45 2.25 2.2 4.5 0.0 7.6 0.0 L36.45 0.0 Q39.6 0.0 41.8 2.2 44.0 4.45 44.0 7.5 L44.0 36.4 Q44.0 39.5 41.8 41.7" fill="url(#gradient0)" fill-rule="evenodd" stroke="none"/>
    </g>
    <linearGradient gradientTransform="matrix(0.0, 0.0199, -0.0269, 0.0, 22.0, 25.55)" gradientUnits="userSpaceOnUse" id="gradient0" spreadMethod="pad" x1="-819.2" x2="819.2">
      <stop offset="0.0" stop-color="#8db3e2"/>
      <stop offset="1.0" stop-color="#8db3e2"/>
    </linearGradient>
    <g id="sprite0" transform="matrix(1.0, 0.0, 0.0, 1.0, 0.2, 0.0)">
      <use height="8.6" transform="matrix(1.0, 0.0, 0.0, 1.0, -0.2, 0.0)" width="35.05" xlink:href="#shape1"/>
    </g>
    <g id="shape1" transform="matrix(1.0, 0.0, 0.0, 1.0, 0.2, 0.0)">
      <path d="M34.4 4.4 Q34.85 5.8 34.85 7.65 L34.85 8.6 Q34.8 6.95 34.4 5.7 33.0 1.3 27.2 1.3 L7.45 1.3 Q0.05 1.3 -0.2 8.5 L-0.2 7.65 Q-0.2 0.0 7.45 0.0 L27.2 0.0 Q33.0 0.0 34.4 4.4" fill="#e7deda" fill-rule="evenodd" stroke="none"/>
    </g>
    <g id="shape2" transform="matrix(1.0, 0.0, 0.0, 1.0, -5.95, -7.05)">
      <path d="M37.15 8.1 L37.0 8.05 36.75 8.1 35.4 8.2 34.1 8.5 Q30.8 9.2 27.95 11.25 L24.9 13.75 18.55 20.2 14.15 25.2 13.4 24.45 9.55 23.25 14.0 27.85 10.3 31.85 10.2 31.8 10.25 31.9 9.6 32.5 Q8.45 32.4 7.7 33.15 6.95 33.8 6.95 35.0 7.15 36.15 8.0 37.15 8.85 38.1 10.15 38.15 11.3 38.4 12.1 37.5 12.8 36.85 12.7 35.6 L17.25 31.1 22.0 35.8 20.85 31.8 20.1 31.1 Q23.2 28.85 25.55 26.0 L33.35 17.75 35.4 14.05 36.05 12.45 36.1 12.2 36.55 10.75 Q37.05 9.55 37.2 8.15 L37.15 8.05 37.15 8.1 Z" fill="none" stroke="#302725" stroke-linecap="round" stroke-linejoin="round" stroke-width="2.0"/>
      <path d="M18.55 29.55 L18.45 29.55 18.35 29.3 18.55 29.55" fill="#62a3ac" fill-rule="evenodd" stroke="none"/>
      <path d="M37.05 8.1 L37.1 8.05 37.1 8.1 36.5 10.75 36.05 12.15 36.0 12.45 35.35 14.1 33.2 17.8 25.55 26.05 Q23.05 28.85 20.15 31.15 L18.55 29.55 18.35 29.3 Q19.05 28.9 19.25 28.05 19.45 27.3 19.05 26.6 L18.75 26.2 22.25 22.65 21.9 22.95 37.05 8.1" fill="#acb9b9" fill-rule="evenodd" stroke="none"/>
      <path d="M14.0 25.15 L18.4 20.3 18.45 20.2 24.85 13.8 27.85 11.3 Q30.65 9.15 34.0 8.45 L35.3 8.25 36.6 8.1 36.9 8.05 37.05 8.1 21.9 22.95 22.25 22.65 18.75 26.2 Q18.4 25.8 17.8 25.55 16.95 25.3 16.2 25.85 15.7 26.05 15.55 26.55 L14.0 25.15" fill="#ffffff" fill-rule="evenodd" stroke="none"/>
      <path d="M17.15 31.15 L12.65 35.65 12.65 35.25 9.5 32.45 11.4 33.15 11.8 33.1 11.6 31.55 12.7 32.5 Q13.95 32.5 14.3 31.35 L14.8 30.1 13.25 28.55 13.95 27.85 17.15 31.15" fill="#24160f" fill-rule="evenodd" stroke="none"/>
      <path d="M9.5 32.45 L10.2 31.9 10.15 31.85 10.2 31.85 13.25 28.55 14.8 30.1 14.3 31.35 Q13.95 32.5 12.7 32.5 L11.6 31.55 11.8 33.1 11.4 33.15 9.5 32.45" fill="#6b4825" fill-rule="evenodd" stroke="none"/>
      <path d="M21.45 34.35 L21.9 35.8 17.15 31.15 13.95 27.85 10.55 24.4 12.3 24.85 15.0 27.85 16.1 29.0 17.3 30.1 21.45 34.35 M10.9 34.05 L11.65 34.9 11.75 35.6 Q11.8 36.5 11.4 36.9 10.75 37.55 9.9 37.4 9.1 37.3 8.45 36.65 L7.75 35.3 Q7.6 34.45 8.4 33.9 L8.4 34.05 Q8.4 34.7 8.8 34.95 9.3 35.5 9.8 35.35 L10.55 35.25 Q11.05 34.8 10.9 34.35 L10.9 34.05" fill="#000000" fill-rule="evenodd" stroke="none"/>
      <path d="M9.5 33.1 Q9.9 33.2 10.15 33.45 L10.5 33.75 10.55 34.1 10.35 34.6 Q10.15 34.9 9.7 34.8 9.35 34.9 9.0 34.6 L8.75 33.9 8.8 33.7 Q8.65 33.45 8.95 33.3 L9.5 33.1" fill="#6f6f6f" fill-rule="evenodd" stroke="none"/>
      <path d="M20.15 31.15 L20.05 31.15 20.75 31.75 21.45 34.35 17.3 30.1 16.1 29.0 15.0 27.85 12.3 24.85 10.55 24.4 9.45 23.25 13.35 24.4 14.0 25.15 15.55 26.55 Q15.7 26.05 16.2 25.85 16.95 25.3 17.8 25.55 18.4 25.8 18.75 26.2 L19.05 26.6 Q19.45 27.3 19.25 28.05 19.05 28.9 18.35 29.3 L18.45 29.55 18.55 29.55 20.15 31.15 M12.65 35.65 Q12.65 36.85 12.0 37.45 11.25 38.35 10.05 38.2 8.75 38.1 7.95 37.1 7.0 36.15 6.95 34.95 6.85 33.75 7.6 33.1 8.4 32.3 9.5 32.45 L12.65 35.25 12.65 35.65 M9.5 33.1 L8.95 33.3 Q8.65 33.45 8.8 33.7 L8.75 33.9 9.0 34.6 Q9.35 34.9 9.7 34.8 10.15 34.9 10.35 34.6 L10.55 34.1 10.5 33.75 10.15 33.45 Q9.9 33.2 9.5 33.1 M10.9 34.05 L10.9 34.35 Q11.05 34.8 10.55 35.25 L9.8 35.35 Q9.3 35.5 8.8 34.95 8.4 34.7 8.4 34.05 L8.4 33.9 Q7.6 34.45 7.75 35.3 L8.45 36.65 Q9.1 37.3 9.9 37.4 10.75 37.55 11.4 36.9 11.8 36.5 11.75 35.6 L11.65 34.9 10.9 34.05" fill="#2d2f39" fill-rule="evenodd" stroke="none"/>
    </g>
  </defs>
</svg>
