<?xml version="1.0" encoding="UTF-8" standalone="no"?>
<svg xmlns:xlink="http://www.w3.org/1999/xlink" height="43.0px" width="44.0px" xmlns="http://www.w3.org/2000/svg">
  <g transform="matrix(1.0, 0.0, 0.0, 1.0, 0.0, 0.0)">
    <use height="44.0" transform="matrix(1.0, 0.0, 0.0, 1.0, 0.05, -0.05)" width="44.0" xlink:href="#shape0"/>
    <use height="0.0" transform="matrix(1.2125, 0.0, 0.0, 1.2125, 1.15, 0.85)" width="0.0" xlink:href="#sprite0"/>
    <use height="20.15" transform="matrix(1.1549, 0.0, 0.0, 1.1549, 5.8, 5.35)" width="28.2" xlink:href="#sprite1"/>
    <use height="8.6" transform="matrix(1.2125, 0.0, 0.0, 1.2125, 0.7575, 0.75)" width="35.05" xlink:href="#sprite2"/>
  </g>
  <defs>
    <g id="shape0" transform="matrix(1.0, 0.0, 0.0, 1.0, -0.05, 0.05)">
      <path d="M41.85 2.2 Q44.05 4.4 44.05 7.55 L44.05 36.35 Q44.05 39.55 41.85 41.75 39.65 43.95 36.45 43.95 L7.65 43.95 Q4.5 43.95 2.3 41.75 0.05 39.55 0.05 36.35 L0.05 7.55 Q0.05 4.4 2.3 2.2 4.5 -0.05 7.65 -0.05 L36.45 -0.05 Q39.6 -0.05 41.85 2.2" fill="url(#gradient0)" fill-rule="evenodd" stroke="none"/>
      <path d="M21.7 4.25 Q29.2 4.25 34.5 9.5 39.8 14.8 39.8 22.3 39.8 29.8 34.5 35.1 29.2 40.35 21.7 40.35 14.25 40.35 8.95 35.1 3.65 29.8 3.65 22.3 3.65 14.8 8.95 9.5 14.25 4.25 21.7 4.25" fill="url(#gradient1)" fill-rule="evenodd" stroke="none"/>
      <path d="M12.55 20.65 L20.65 20.65 20.65 34.75 Q13.45 27.75 12.55 20.65 M12.5 17.9 Q15.45 11.9 20.75 9.7 L20.75 17.9 12.5 17.9 M31.4 20.65 Q30.55 27.75 23.3 34.75 L23.3 20.65 31.4 20.65 M23.2 17.9 L23.2 9.7 Q28.5 11.9 31.45 17.9 L23.2 17.9" fill="#92300b" fill-rule="evenodd" stroke="none"/>
      <path d="M12.55 20.65 Q13.45 27.75 20.65 34.75 L20.65 20.65 12.55 20.65 M12.5 17.9 Q15.45 11.9 20.75 9.7 L20.75 17.9 12.5 17.9 M31.4 20.65 Q30.55 27.75 23.3 34.75 L23.3 20.65 31.4 20.65 M23.2 17.9 L23.2 9.7 Q28.5 11.9 31.45 17.9 L23.2 17.9 M30.8 11.75 Q32.2 14.55 34.55 15.9 M35.05 26.85 Q31.8 28.6 30.8 31.5 M8.95 26.85 Q12.15 28.6 13.15 31.5 M13.15 11.75 Q11.75 14.55 9.4 15.9" fill="none" stroke="#92300b" stroke-linecap="round" stroke-linejoin="round" stroke-width="1.0"/>
      <path d="M21.9 5.35 Q15.0 5.4 10.15 10.3 5.25 15.1 5.2 22.0 5.25 28.95 10.15 33.8 15.0 38.7 21.9 38.7 28.8 38.7 33.75 33.8 38.55 28.95 38.55 22.0 38.55 15.1 33.75 10.3 28.8 5.4 21.9 5.35 M40.9 22.0 Q40.9 29.85 35.3 35.4 29.8 41.05 21.9 41.05 13.95 41.05 8.45 35.4 2.9 29.85 2.9 22.0 2.9 14.05 8.45 8.55 13.95 2.95 21.9 2.95 29.8 2.95 35.3 8.55 40.9 14.05 40.9 22.0" fill="url(#gradient2)" fill-rule="evenodd" stroke="none"/>
      <path d="M1.0 36.1 L0.95 35.7 Q0.95 34.7 1.65 34.0 2.4 33.3 3.35 33.3 4.3 33.3 5.0 34.0 5.7 34.7 5.7 35.7 L5.7 36.0 Q3.2 33.15 1.0 36.1" fill="#494136" fill-rule="evenodd" stroke="none"/>
      <path d="M5.7 36.0 Q5.6 36.75 5.0 37.35 4.3 38.05 3.35 38.05 2.4 38.05 1.65 37.35 L1.0 36.1 Q3.2 33.15 5.7 36.0" fill="#625748" fill-rule="evenodd" stroke="none"/>
      <path d="M6.05 37.95 L6.0 37.7 Q6.0 37.1 6.45 36.65 6.85 36.25 7.45 36.25 8.05 36.25 8.45 36.65 8.9 37.1 8.9 37.7 L8.9 37.9 6.05 37.95" fill="#494136" fill-rule="evenodd" stroke="none"/>
      <path d="M8.9 37.9 L8.45 38.7 Q8.05 39.1 7.45 39.1 6.85 39.1 6.45 38.7 6.1 38.35 6.05 37.95 L8.9 37.9" fill="#625748" fill-rule="evenodd" stroke="none"/>
      <path d="M3.05 40.85 L3.0 40.6 Q3.0 40.0 3.45 39.55 3.85 39.15 4.45 39.15 5.05 39.15 5.45 39.55 5.9 40.0 5.9 40.6 L5.9 40.8 3.05 40.85" fill="#494136" fill-rule="evenodd" stroke="none"/>
      <path d="M5.9 40.8 L5.45 41.6 Q5.05 42.0 4.45 42.0 3.85 42.0 3.45 41.6 L3.05 40.85 5.9 40.8" fill="#625748" fill-rule="evenodd" stroke="none"/>
      <path d="M7.75 41.5 L7.75 41.35 Q7.75 40.9 8.05 40.55 8.4 40.25 8.85 40.25 9.25 40.25 9.6 40.55 9.95 40.9 9.95 41.35 L9.95 41.5 Q8.75 40.15 7.75 41.5" fill="#494136" fill-rule="evenodd" stroke="none"/>
      <path d="M9.95 41.5 L9.6 42.1 8.85 42.45 Q8.4 42.45 8.05 42.1 L7.75 41.5 Q8.75 40.15 9.95 41.5" fill="#625748" fill-rule="evenodd" stroke="none"/>
      <path d="M42.4 36.1 L42.45 35.7 Q42.45 34.7 41.75 34.0 41.0 33.3 40.05 33.3 39.1 33.3 38.4 34.0 37.7 34.7 37.7 35.7 L37.7 36.0 Q40.2 33.15 42.4 36.1" fill="#494136" fill-rule="evenodd" stroke="none"/>
      <path d="M37.7 36.0 Q37.8 36.75 38.4 37.35 39.1 38.05 40.05 38.05 41.0 38.05 41.75 37.35 L42.4 36.1 Q40.2 33.15 37.7 36.0" fill="#625748" fill-rule="evenodd" stroke="none"/>
      <path d="M37.35 37.95 L37.4 37.7 Q37.4 37.1 36.95 36.65 36.55 36.25 35.95 36.25 35.35 36.25 34.95 36.65 34.5 37.1 34.5 37.7 L34.5 37.9 37.35 37.95" fill="#494136" fill-rule="evenodd" stroke="none"/>
      <path d="M34.5 37.9 L34.95 38.7 Q35.35 39.1 35.95 39.1 36.55 39.1 36.95 38.7 L37.35 37.95 34.5 37.9" fill="#625748" fill-rule="evenodd" stroke="none"/>
      <path d="M40.35 40.85 L40.4 40.6 Q40.4 40.0 39.95 39.55 39.55 39.15 38.95 39.15 38.35 39.15 37.95 39.55 37.5 40.0 37.5 40.6 L37.5 40.8 40.35 40.85" fill="#494136" fill-rule="evenodd" stroke="none"/>
      <path d="M37.5 40.8 L37.95 41.6 Q38.35 42.0 38.95 42.0 39.55 42.0 39.95 41.6 L40.35 40.85 37.5 40.8" fill="#625748" fill-rule="evenodd" stroke="none"/>
      <path d="M35.65 41.5 L35.65 41.35 35.35 40.55 Q35.0 40.25 34.55 40.25 L33.8 40.55 Q33.45 40.9 33.45 41.35 L33.45 41.5 Q34.65 40.15 35.65 41.5" fill="#494136" fill-rule="evenodd" stroke="none"/>
      <path d="M33.45 41.5 L33.8 42.1 Q34.15 42.45 34.55 42.45 35.0 42.45 35.35 42.1 L35.65 41.5 Q34.65 40.15 33.45 41.5" fill="#625748" fill-rule="evenodd" stroke="none"/>
    </g>
    <linearGradient gradientTransform="matrix(0.0, -0.0551, -0.0551, 0.0, 22.1, 18.4)" gradientUnits="userSpaceOnUse" id="gradient0" spreadMethod="pad" x1="-819.2" x2="819.2">
      <stop offset="0.011764705882352941" stop-color="#bcb0a0"/>
      <stop offset="1.0" stop-color="#453e3a"/>
    </linearGradient>
    <linearGradient gradientTransform="matrix(0.0, -0.0169, -0.0169, 0.0, 21.7, 18.8)" gradientUnits="userSpaceOnUse" id="gradient1" spreadMethod="pad" x1="-819.2" x2="819.2">
      <stop offset="0.011764705882352941" stop-color="#f9cfb3"/>
      <stop offset="1.0" stop-color="#ff5b79"/>
    </linearGradient>
    <linearGradient gradientTransform="matrix(1.0E-4, 0.0223, -0.0232, 1.0E-4, 21.95, 22.3)" gradientUnits="userSpaceOnUse" id="gradient2" spreadMethod="pad" x1="-819.2" x2="819.2">
      <stop offset="0.011764705882352941" stop-color="#494136"/>
      <stop offset="1.0" stop-color="#dbccbd"/>
    </linearGradient>
    <g id="sprite1" transform="matrix(1.0, 0.0, 0.0, 1.0, 0.0, 0.0)">
      <use height="20.15" transform="matrix(1.0, 0.0, 0.0, 1.0, 0.0, 0.0)" width="28.2" xlink:href="#shape1"/>
    </g>
    <g id="shape1" transform="matrix(1.0, 0.0, 0.0, 1.0, 0.0, 0.0)">
      <path d="M27.65 18.45 L27.4 18.95 Q26.2 20.8 23.4 19.8 19.6 18.5 17.35 14.05 14.8 9.1 9.75 7.4 4.1 5.65 0.0 10.3 1.0 6.85 3.7 4.15 7.2 0.65 11.9 0.05 L14.8 0.05 18.4 0.65 Q21.55 1.65 24.05 4.15 28.2 8.3 28.2 14.25 28.2 16.45 27.65 18.45" fill="#ffffff" fill-opacity="0.19607843" fill-rule="evenodd" stroke="none"/>
    </g>
    <g id="sprite2" transform="matrix(1.0, 0.0, 0.0, 1.0, 0.2, 0.0)">
      <use height="8.6" transform="matrix(1.0, 0.0, 0.0, 1.0, -0.2, 0.0)" width="35.05" xlink:href="#shape2"/>
    </g>
    <g id="shape2" transform="matrix(1.0, 0.0, 0.0, 1.0, 0.2, 0.0)">
      <path d="M34.4 4.4 Q34.85 5.8 34.85 7.65 L34.85 8.6 Q34.8 6.95 34.4 5.7 33.0 1.3 27.2 1.3 L7.45 1.3 Q0.05 1.3 -0.2 8.5 L-0.2 7.65 Q-0.2 0.0 7.45 0.0 L27.2 0.0 Q33.0 0.0 34.4 4.4" fill="#e7deda" fill-rule="evenodd" stroke="none"/>
    </g>
  </defs>
</svg>
