<?xml version="1.0" encoding="UTF-8" standalone="no"?>
<svg xmlns:xlink="http://www.w3.org/1999/xlink" height="44.0px" width="44.0px" xmlns="http://www.w3.org/2000/svg">
  <g transform="matrix(1.0, 0.0, 0.0, 1.0, 0.0, 0.0)">
    <use height="44.0" transform="matrix(1.0, 0.0, 0.0, 1.0, 0.0, 0.0)" width="44.0" xlink:href="#shape0"/>
    <use height="0.0" transform="matrix(1.2109, 0.0, 0.0, 1.2109, 1.05, 0.8)" width="0.0" xlink:href="#sprite0"/>
    <use height="8.6" transform="matrix(1.2077, 0.0, 0.0, 1.2066, 0.9085, 0.8)" width="35.05" xlink:href="#sprite1"/>
    <use height="20.15" transform="matrix(1.1594, 0.0, 0.0, 1.1605, 6.0, 5.3)" width="28.2" xlink:href="#sprite2"/>
  </g>
  <defs>
    <g id="shape0" transform="matrix(1.0, 0.0, 0.0, 1.0, 0.0, 0.0)">
      <path d="M36.25 0.0 Q39.45 0.0 41.65 2.2 43.85 4.4 43.85 7.5 L43.85 36.05 Q43.85 39.15 41.65 41.35 39.45 43.55 36.25 43.55 L7.75 43.55 Q4.6 43.55 2.4 41.35 0.2 39.15 0.2 36.05 L0.2 7.5 Q0.2 4.4 2.4 2.2 4.6 0.0 7.75 0.0 L36.25 0.0" fill="url(#gradient0)" fill-rule="evenodd" stroke="none"/>
      <path d="M35.3 8.5 Q40.5 13.75 40.5 21.1 40.5 28.5 35.3 33.8 30.1 39.0 22.7 39.0 15.25 39.0 10.05 33.8 4.85 28.5 4.85 21.1 4.85 13.75 10.05 8.5 15.35 3.25 22.7 3.25 30.1 3.25 35.3 8.5" fill="url(#gradient1)" fill-rule="evenodd" stroke="none"/>
      <path d="M43.9 20.35 L44.0 20.25 43.8 24.35 Q43.8 26.4 40.2 34.55 L40.05 34.35 42.0 29.7 Q43.8 25.2 43.8 23.8 L43.9 20.35 M42.7 38.4 L42.7 39.05 37.45 34.55 37.75 34.55 37.95 34.3 42.7 38.4 M28.75 43.05 L36.7 42.65 37.45 41.9 38.0 41.9 36.7 43.25 Q34.95 44.15 26.9 43.45 L27.05 43.3 27.85 43.05 28.05 43.15 28.75 43.05 M34.35 41.7 L33.95 41.7 36.9 37.4 37.65 37.85 38.0 38.1 38.9 38.9 39.15 39.35 39.45 39.95 39.65 40.45 39.65 41.3 Q39.6 40.4 38.9 39.5 38.0 38.5 36.9 37.95 L34.35 41.7 M39.75 42.75 Q41.5 41.7 42.2 40.4 L42.45 40.4 Q41.8 42.35 38.9 44.0 L39.35 43.1 39.75 42.9 39.75 42.75 M6.5 34.55 L1.25 39.05 1.25 38.4 6.0 34.3 6.25 34.55 6.5 34.55 M3.75 34.55 Q0.15 26.4 0.15 24.35 L0.0 20.25 0.05 20.35 0.15 23.8 Q0.15 25.2 1.95 29.7 L3.9 34.35 3.75 34.55 M1.75 40.4 Q2.45 41.7 4.2 42.75 L4.2 42.9 4.6 43.1 5.05 44.0 Q2.2 42.35 1.5 40.4 L1.75 40.4 M6.3 37.85 L7.05 37.4 10.0 41.7 9.6 41.7 7.05 37.95 Q5.95 38.5 5.05 39.5 4.4 40.4 4.3 41.3 L4.3 40.45 4.5 39.95 4.8 39.35 5.05 38.9 5.95 38.1 6.3 37.85 M6.5 41.9 L7.25 42.65 15.2 43.05 15.9 43.15 16.15 43.05 16.9 43.3 17.05 43.45 Q9.0 44.15 7.25 43.25 L5.95 41.9 6.5 41.9" fill="#0b000a" fill-rule="evenodd" stroke="none"/>
      <path d="M37.45 34.55 L37.4 34.45 37.3 34.35 37.25 33.8 37.65 33.7 37.3 33.8 37.55 34.0 37.6 34.0 37.95 34.3 37.75 34.55 37.45 34.55 M27.25 42.7 L27.15 42.7 27.2 42.65 27.25 42.7 M26.9 42.8 L27.2 42.9 28.75 43.05 28.05 43.15 27.85 43.05 27.05 43.3 26.9 43.45 26.9 42.8 M37.45 41.9 L38.05 41.25 38.25 41.4 38.25 41.85 38.0 41.9 37.45 41.9 M42.2 40.4 L42.55 39.65 42.65 40.15 42.55 40.4 42.45 40.4 42.2 40.4 M6.3 33.7 L6.7 33.8 6.65 34.35 6.6 34.45 6.5 34.55 6.25 34.55 6.0 34.3 6.35 34.0 6.4 34.0 6.65 33.8 6.3 33.7 M1.45 39.65 L1.75 40.4 1.5 40.4 1.45 40.4 1.3 40.15 Q1.3 39.75 1.45 39.65 M5.9 41.25 L6.5 41.9 5.95 41.9 5.7 41.85 5.7 41.4 Q5.75 41.25 5.9 41.25 M15.2 43.05 L16.75 42.9 17.05 42.8 17.05 43.45 16.9 43.3 16.15 43.05 15.9 43.15 15.2 43.05 M16.85 42.7 L16.7 42.7 16.75 42.65 16.85 42.7" fill="#000000" fill-rule="evenodd" stroke="none"/>
      <path d="M43.8 20.4 L44.0 19.6 43.9 20.35 43.8 23.8 Q43.8 25.2 42.0 29.7 L40.05 34.35 40.2 34.55 40.7 35.0 40.7 35.2 40.75 35.65 41.35 35.7 41.45 35.65 42.15 31.8 42.0 31.95 42.55 29.95 42.7 38.4 37.95 34.3 37.6 34.0 38.0 33.9 Q39.25 33.85 39.8 33.0 L40.95 30.95 Q42.15 28.6 42.55 26.65 L43.7 22.25 43.8 20.4 M37.65 33.7 L38.15 33.6 37.3 33.8 37.65 33.7 M28.4 42.3 L29.2 42.35 Q31.9 42.35 34.65 38.65 L36.55 36.2 37.2 35.3 37.15 35.25 42.45 39.65 42.55 39.65 42.2 40.4 Q41.5 41.7 39.75 42.75 L39.85 41.3 Q39.85 40.4 39.5 39.45 39.0 37.8 37.85 37.8 L37.65 37.85 36.9 37.4 33.95 41.7 34.35 41.7 35.0 41.7 38.25 41.05 38.05 41.25 37.45 41.9 36.7 42.65 28.75 43.05 27.2 42.9 26.9 42.8 26.85 42.8 27.15 42.7 27.25 42.7 28.4 42.3 M5.85 33.6 L6.3 33.7 6.65 33.8 5.85 33.6 M1.25 38.4 L1.45 29.95 1.95 31.95 1.85 31.8 2.55 35.65 2.6 35.7 3.2 35.65 3.3 35.2 3.3 35.0 3.75 34.55 3.9 34.35 1.95 29.7 Q0.15 25.2 0.15 23.8 L0.05 20.35 0.0 19.6 0.15 20.4 0.25 22.25 1.45 26.65 Q1.85 28.6 3.0 30.95 L4.15 33.0 Q4.75 33.85 5.95 33.9 L6.35 34.0 6.0 34.3 1.25 38.4 M6.8 35.25 L6.75 35.3 7.4 36.2 9.3 38.65 Q12.1 42.35 14.75 42.35 L15.55 42.3 15.4 42.25 16.7 42.7 16.85 42.7 17.1 42.8 17.05 42.8 16.75 42.9 15.2 43.05 7.25 42.65 6.5 41.9 5.9 41.25 5.7 41.05 8.95 41.7 9.6 41.7 10.0 41.7 7.05 37.4 6.3 37.85 6.1 37.8 Q4.95 37.8 4.45 39.45 4.1 40.4 4.1 41.3 L4.2 42.75 Q2.45 41.7 1.75 40.4 L1.45 39.65 1.5 39.65 6.8 35.25" fill="#4a3355" fill-rule="evenodd" stroke="none"/>
      <path d="M38.15 33.6 L38.95 33.5 Q40.95 31.4 42.7 25.3 L43.8 20.35 43.8 20.4 43.7 22.25 42.55 26.65 Q42.15 28.6 40.95 30.95 L39.8 33.0 Q39.25 33.85 38.0 33.9 L37.6 34.0 37.55 34.0 37.3 33.8 38.15 33.6 M40.7 35.0 L41.2 35.55 42.0 32.05 42.0 31.95 42.15 31.8 41.45 35.65 41.35 35.7 40.75 35.65 40.7 35.2 40.7 35.0 M37.15 35.25 L37.2 35.3 36.55 36.2 34.65 38.65 Q31.9 42.35 29.2 42.35 L28.4 42.3 28.6 42.25 28.85 42.15 29.85 41.8 30.9 41.45 Q32.55 40.9 35.0 38.0 L37.15 35.25 M37.65 37.85 L37.85 37.8 Q39.0 37.8 39.5 39.45 39.85 40.4 39.85 41.3 L39.75 42.75 39.75 42.9 39.35 43.1 38.9 43.3 38.95 43.15 39.4 42.25 39.5 41.95 39.6 41.6 39.6 41.55 39.6 41.5 39.65 41.3 39.65 40.45 39.45 39.95 39.15 39.35 38.9 38.9 38.0 38.1 37.65 37.85 M0.15 20.4 L0.15 20.35 1.25 25.3 Q3.0 31.4 5.0 33.5 L5.85 33.6 6.65 33.8 6.4 34.0 6.35 34.0 5.95 33.9 Q4.75 33.85 4.15 33.0 L3.0 30.95 Q1.85 28.6 1.45 26.65 L0.25 22.25 0.15 20.4 M1.95 31.95 L1.95 32.05 2.75 35.55 3.3 35.0 3.3 35.2 3.2 35.65 2.6 35.7 2.55 35.65 1.85 31.8 1.95 31.95 M15.4 42.25 L15.55 42.3 14.75 42.35 Q12.1 42.35 9.3 38.65 L7.4 36.2 6.75 35.3 6.8 35.25 8.95 38.0 Q11.4 40.9 13.05 41.45 L14.1 41.8 15.1 42.15 15.4 42.25 M4.2 42.75 L4.1 41.3 Q4.1 40.4 4.45 39.45 4.95 37.8 6.1 37.8 L6.3 37.85 5.95 38.1 5.05 38.9 4.8 39.35 4.5 39.95 4.3 40.45 4.3 41.3 4.4 41.5 4.4 41.55 4.4 41.6 4.45 41.95 4.55 42.25 5.0 43.15 5.05 43.3 4.6 43.1 4.2 42.9 4.2 42.75" fill="#c8a6c1" fill-rule="evenodd" stroke="none"/>
      <path d="M27.1 22.9 Q27.6 23.2 27.6 23.9 27.55 24.6 27.1 25.3 L26.15 26.35 25.1 26.45 Q24.65 26.2 24.65 25.45 24.65 24.75 25.05 24.05 25.45 23.35 26.1 23.05 26.65 22.7 27.1 22.9 M25.95 4.45 L27.6 4.95 27.95 4.95 Q27.65 11.4 29.6 11.7 32.2 12.25 32.8 14.25 33.3 16.15 31.25 16.85 30.9 14.75 28.85 13.95 26.75 13.15 26.3 16.65 L25.55 20.85 Q25.5 22.2 24.3 22.45 23.0 22.5 22.9 21.15 L24.05 15.85 19.9 20.95 Q17.55 21.85 16.55 19.8 18.4 19.3 21.05 16.6 15.0 19.2 14.35 16.1 19.15 15.9 19.4 14.8 21.4 11.25 20.15 3.7 L24.25 3.9 25.95 4.45 M18.9 23.3 L19.95 23.45 Q20.6 23.8 21.0 24.45 L21.35 25.85 Q21.4 26.6 20.95 26.85 L19.85 26.75 Q19.25 26.4 18.85 25.7 18.45 25.0 18.45 24.3 18.5 23.6 18.9 23.3 M17.65 28.3 Q17.95 27.7 18.5 27.7 19.0 27.7 19.35 28.3 19.7 28.95 19.7 29.75 19.7 30.55 19.35 31.15 19.0 31.75 18.5 31.75 17.95 31.75 17.65 31.15 17.3 30.55 17.3 29.75 17.3 28.95 17.65 28.3 M15.65 37.55 Q16.55 35.15 19.6 35.75 19.7 34.25 22.35 34.35 25.0 34.45 25.45 35.95 27.85 35.95 28.5 37.25 L28.5 38.2 24.55 38.55 21.35 39.0 Q19.15 39.0 17.45 38.25 L15.65 37.55 M21.35 30.3 Q21.8 29.8 22.3 29.85 22.8 29.95 23.0 30.6 23.25 31.3 23.15 32.1 23.0 32.95 22.55 33.4 22.1 33.95 21.6 33.85 21.1 33.8 20.85 33.1 20.65 32.5 20.75 31.7 20.85 30.9 21.35 30.3 M26.6 29.1 Q27.4 29.35 27.85 29.85 28.4 30.4 28.2 30.9 28.1 31.35 27.4 31.55 L25.95 31.5 Q25.2 31.3 24.65 30.8 24.25 30.25 24.35 29.8 24.5 29.3 25.1 29.1 25.85 28.95 26.6 29.1" fill="#4a3355" fill-rule="evenodd" stroke="none"/>
      <path d="M22.05 5.2 Q15.2 5.25 10.3 10.1 5.45 14.9 5.4 21.8 5.45 28.75 10.3 33.6 15.2 38.45 22.05 38.45 28.95 38.45 33.9 33.6 38.7 28.75 38.7 21.8 38.7 14.9 33.9 10.1 28.95 5.25 22.05 5.2 M35.45 8.35 Q41.05 13.85 41.05 21.8 41.05 29.65 35.45 35.15 29.95 40.85 22.05 40.85 14.15 40.85 8.65 35.15 3.1 29.65 3.1 21.8 3.1 13.85 8.65 8.35 14.15 2.8 22.05 2.8 29.95 2.8 35.45 8.35" fill="url(#gradient2)" fill-rule="evenodd" stroke="none"/>
    </g>
    <linearGradient gradientTransform="matrix(0.0, -0.0546, -0.0546, 0.0, 22.0, 18.15)" gradientUnits="userSpaceOnUse" id="gradient0" spreadMethod="pad" x1="-819.2" x2="819.2">
      <stop offset="0.011764705882352941" stop-color="#bf809f"/>
      <stop offset="1.0" stop-color="#543c7c"/>
    </linearGradient>
    <linearGradient gradientTransform="matrix(0.0, -0.0167, -0.0167, 0.0, 22.7, 17.75)" gradientUnits="userSpaceOnUse" id="gradient1" spreadMethod="pad" x1="-819.2" x2="819.2">
      <stop offset="0.011764705882352941" stop-color="#bcb9ae"/>
      <stop offset="1.0" stop-color="#9b5b79"/>
    </linearGradient>
    <linearGradient gradientTransform="matrix(0.0, 0.0226, -0.0232, 0.0, 22.05, 22.05)" gradientUnits="userSpaceOnUse" id="gradient2" spreadMethod="pad" x1="-819.2" x2="819.2">
      <stop offset="0.0" stop-color="#3d2945"/>
      <stop offset="1.0" stop-color="#cabad6"/>
    </linearGradient>
    <g id="sprite1" transform="matrix(1.0, 0.0, 0.0, 1.0, 0.2, 0.0)">
      <use height="8.6" transform="matrix(1.0, 0.0, 0.0, 1.0, -0.2, 0.0)" width="35.05" xlink:href="#shape1"/>
    </g>
    <g id="shape1" transform="matrix(1.0, 0.0, 0.0, 1.0, 0.2, 0.0)">
      <path d="M34.4 4.4 Q34.85 5.8 34.85 7.65 L34.85 8.6 Q34.8 6.95 34.4 5.7 33.0 1.3 27.2 1.3 L7.45 1.3 Q0.05 1.3 -0.2 8.5 L-0.2 7.65 Q-0.2 0.0 7.45 0.0 L27.2 0.0 Q33.0 0.0 34.4 4.4" fill="#e7deda" fill-rule="evenodd" stroke="none"/>
    </g>
    <g id="sprite2" transform="matrix(1.0, 0.0, 0.0, 1.0, 0.0, 0.0)">
      <use height="20.15" transform="matrix(1.0, 0.0, 0.0, 1.0, 0.0, 0.0)" width="28.2" xlink:href="#shape2"/>
    </g>
    <g id="shape2" transform="matrix(1.0, 0.0, 0.0, 1.0, 0.0, 0.0)">
      <path d="M27.65 18.45 L27.4 18.95 Q26.2 20.8 23.4 19.8 19.6 18.5 17.35 14.05 14.8 9.1 9.75 7.4 4.1 5.65 0.0 10.3 1.0 6.85 3.7 4.15 7.2 0.65 11.9 0.05 L14.8 0.05 18.4 0.65 Q21.55 1.65 24.05 4.15 28.2 8.3 28.2 14.25 28.2 16.45 27.65 18.45" fill="#ffffff" fill-opacity="0.19607843" fill-rule="evenodd" stroke="none"/>
    </g>
  </defs>
</svg>
