<?xml version="1.0" encoding="UTF-8" standalone="no"?>
<svg xmlns:xlink="http://www.w3.org/1999/xlink" height="43.0px" width="44.0px" xmlns="http://www.w3.org/2000/svg">
  <g transform="matrix(1.0, 0.0, 0.0, 1.0, 0.0, 1.0)">
    <use height="37.1" transform="matrix(1.0, 0.0, 0.0, 1.0, 3.4, 3.5)" width="37.2" xlink:href="#shape0"/>
    <use height="0.0" transform="matrix(1.2125, 0.0, 0.0, 1.2125, 1.1, 0.9)" width="0.0" xlink:href="#sprite0"/>
    <use height="43.9" transform="matrix(1.0, 0.0, 0.0, 1.0, 0.5, -1.0)" width="44.0" xlink:href="#shape1"/>
    <use height="20.15" transform="matrix(1.1594, 0.0, 0.0, 1.1605, 6.25, 4.8)" width="28.2" xlink:href="#sprite1"/>
    <use height="39.75" transform="matrix(1.0, 0.0, 0.0, 1.0, 2.25, 3.1)" width="40.55" xlink:href="#shape3"/>
    <use height="8.6" transform="matrix(1.2077, 0.0, 0.0, 1.2066, 1.1085, -0.45)" width="35.05" xlink:href="#sprite2"/>
  </g>
  <defs>
    <g id="shape0" transform="matrix(1.0, 0.0, 0.0, 1.0, -3.4, -3.5)">
      <path d="M22.05 40.6 Q14.3 40.6 8.85 35.2 3.4 29.75 3.4 22.05 3.4 14.35 8.85 8.95 14.3 3.5 22.05 3.5 29.75 3.5 35.2 8.95 40.6 14.4 40.6 22.05 40.6 29.75 35.2 35.2 29.75 40.6 22.05 40.6" fill="url(#gradient0)" fill-rule="evenodd" stroke="none"/>
      <path d="M21.8 23.3 L21.9 23.15 Q23.05 21.2 24.55 20.45 L24.6 20.45 25.9 18.25 26.5 20.05 27.6 20.25 Q28.2 20.4 28.6 20.75 L30.15 19.7 29.9 22.2 29.95 22.25 Q30.75 23.75 30.45 25.95 L30.45 26.15 30.3 26.95 29.95 27.6 29.9 27.65 Q29.3 28.3 28.35 28.35 L25.05 27.9 Q23.5 27.35 22.1 26.25 21.4 25.55 21.35 24.75 L21.45 24.2 21.55 24.05 22.0 24.25 21.55 24.05 Q21.6 23.7 21.8 23.3 L22.3 23.4 21.8 23.3 M18.8 13.8 L19.15 14.05 Q21.3 16.85 18.8 19.85 L18.75 19.85 Q17.0 21.5 16.7 22.85 16.45 23.95 17.35 24.75 L20.95 24.7 Q21.2 27.05 25.45 28.3 L25.9 28.45 26.0 28.65 26.05 28.85 26.05 31.15 25.9 31.55 25.8 31.6 37.2 31.6 35.9 33.15 33.45 36.45 Q28.3 40.4 21.6 40.4 16.85 40.4 12.85 38.45 L10.35 36.45 7.8 34.05 6.1 31.6 17.1 31.6 17.05 31.55 16.9 31.15 16.9 29.65 Q15.2 27.9 16.7 25.8 L16.55 25.7 Q15.15 24.35 15.6 22.55 15.9 21.0 17.95 19.05 L17.95 19.0 Q19.8 16.85 18.2 14.75 L18.1 14.3 18.35 13.9 18.8 13.8 M25.05 22.75 L24.55 23.75 Q24.3 24.4 24.35 24.95 24.3 25.4 24.55 25.45 L25.1 25.15 25.65 24.1 25.8 22.95 Q25.8 22.45 25.6 22.4 25.35 22.3 25.05 22.75 M21.75 24.85 L21.35 24.75 21.75 24.85 M29.9 26.85 L30.3 26.95 29.9 26.85 M25.1 31.6 L25.05 31.55 24.9 31.15 24.9 28.8 Q24.5 29.3 22.5 29.65 L22.5 31.15 22.35 31.55 22.3 31.6 25.1 31.6 M18.05 31.15 L17.9 31.55 17.8 31.6 21.6 31.6 21.55 31.55 21.35 31.15 21.35 29.65 Q19.75 30.1 18.05 29.65 L18.05 31.15 M27.8 23.15 Q27.55 23.0 27.25 23.4 L26.75 24.45 Q26.5 25.1 26.55 25.65 26.5 26.1 26.75 26.2 27.0 26.25 27.3 25.9 L27.85 24.85 28.0 23.7 Q28.0 23.2 27.8 23.15" fill="#372d2d" fill-rule="evenodd" stroke="none"/>
      <path d="M21.95 7.0 L21.95 9.1 M18.45 9.75 L17.65 8.1 M14.35 10.2 L15.4 11.55 M11.6 13.1 L12.85 14.25 M32.25 13.1 L31.05 14.25 M25.4 9.75 L26.2 8.1 M29.55 10.2 L28.5 11.55" fill="none" stroke="#372d2d" stroke-linecap="round" stroke-linejoin="round" stroke-width="1.0"/>
      <path d="M21.8 23.3 L22.3 23.4 M25.05 22.75 Q25.35 22.3 25.6 22.4 25.8 22.45 25.8 22.95 L25.65 24.1 25.1 25.15 24.55 25.45 Q24.3 25.4 24.35 24.95 24.3 24.4 24.55 23.75 L25.05 22.75 M21.35 24.75 L21.75 24.85 M21.55 24.05 L22.0 24.25 M21.55 24.05 L20.45 23.7 M21.8 23.3 L20.7 22.9 M20.2 24.35 L21.35 24.75 M29.9 27.65 L29.95 27.6 31.2 28.0 M30.3 26.95 L29.9 26.85 M27.8 23.15 Q28.0 23.2 28.0 23.7 L27.85 24.85 27.3 25.9 Q27.0 26.25 26.75 26.2 26.5 26.1 26.55 25.65 26.5 25.1 26.75 24.45 L27.25 23.4 Q27.55 23.0 27.8 23.15 M30.3 26.95 L31.45 27.35 M30.45 26.15 L31.75 26.55" fill="none" stroke="#372d2d" stroke-linecap="round" stroke-linejoin="round" stroke-width="0.25"/>
    </g>
    <linearGradient gradientTransform="matrix(0.0, -0.0173, -0.0173, 0.0, 22.05, 18.5)" gradientUnits="userSpaceOnUse" id="gradient0" spreadMethod="pad" x1="-819.2" x2="819.2">
      <stop offset="0.011764705882352941" stop-color="#c4bebb"/>
      <stop offset="1.0" stop-color="#9f8a82"/>
    </linearGradient>
    <g id="shape1" transform="matrix(1.0, 0.0, 0.0, 1.0, -0.5, 1.0)">
      <path d="M34.7 8.75 Q29.65 3.7 22.5 3.7 15.3 3.7 10.25 8.75 5.15 13.8 5.15 21.0 5.15 28.15 10.25 33.2 15.3 38.3 22.5 38.3 29.7 38.3 34.7 33.2 39.75 28.15 39.75 21.0 39.75 13.8 34.7 8.75 M2.7 1.25 Q4.95 -1.0 8.05 -1.0 L36.85 -1.0 Q40.05 -1.0 42.25 1.25 44.5 3.5 44.5 6.65 L44.5 35.35 Q44.5 38.45 42.25 40.7 40.05 42.9 36.85 42.9 L8.05 42.9 Q4.95 42.9 2.7 40.7 0.5 38.45 0.5 35.35 L0.5 6.65 Q0.5 3.5 2.7 1.25" fill="url(#gradient1)" fill-rule="evenodd" stroke="none"/>
      <path d="M22.45 4.55 Q15.5 4.6 10.7 9.45 5.8 14.3 5.8 21.15 5.8 28.1 10.7 33.0 15.5 37.8 22.45 37.8 29.25 37.8 34.15 33.0 39.05 28.1 39.05 21.15 39.05 14.3 34.15 9.45 29.3 4.6 22.45 4.55 M8.9 7.8 Q14.5 2.2 22.45 2.2 30.3 2.2 35.8 7.8 41.4 13.3 41.4 21.15 41.4 29.05 35.8 34.6 30.3 40.15 22.45 40.15 14.5 40.15 8.9 34.6 3.35 29.05 3.35 21.15 3.35 13.3 8.9 7.8" fill="url(#gradient2)" fill-rule="evenodd" stroke="none"/>
    </g>
    <linearGradient gradientTransform="matrix(0.0, -0.0275, -0.044, 0.0, 21.4, 21.15)" gradientUnits="userSpaceOnUse" id="gradient1" spreadMethod="pad" x1="-819.2" x2="819.2">
      <stop offset="0.0196078431372549" stop-color="#905a3d"/>
      <stop offset="0.9764705882352941" stop-color="#6a412d"/>
    </linearGradient>
    <linearGradient gradientTransform="matrix(0.0, -0.0168, -0.0168, 0.0, 22.45, 25.8)" gradientUnits="userSpaceOnUse" id="gradient2" spreadMethod="pad" x1="-819.2" x2="819.2">
      <stop offset="0.0196078431372549" stop-color="#a3704d"/>
      <stop offset="0.9803921568627451" stop-color="#492d20"/>
    </linearGradient>
    <g id="sprite1" transform="matrix(1.0, 0.0, 0.0, 1.0, 0.0, 0.0)">
      <use height="20.15" transform="matrix(1.0, 0.0, 0.0, 1.0, 0.0, 0.0)" width="28.2" xlink:href="#shape2"/>
    </g>
    <g id="shape2" transform="matrix(1.0, 0.0, 0.0, 1.0, 0.0, 0.0)">
      <path d="M27.65 18.45 L27.4 18.95 Q26.2 20.8 23.4 19.8 19.6 18.5 17.35 14.05 14.8 9.1 9.75 7.4 4.1 5.65 0.0 10.3 1.0 6.85 3.7 4.15 7.2 0.65 11.9 0.05 L14.8 0.05 18.4 0.65 Q21.55 1.65 24.05 4.15 28.2 8.3 28.2 14.25 28.2 16.45 27.65 18.45" fill="#ffffff" fill-opacity="0.19607843" fill-rule="evenodd" stroke="none"/>
    </g>
    <g id="shape3" transform="matrix(1.0, 0.0, 0.0, 1.0, -2.25, -3.1)">
      <path d="M16.75 39.4 Q13.3 38.4 10.05 36.75 11.35 33.5 13.7 33.0 14.45 36.65 16.75 39.4 M30.75 33.0 Q33.1 33.5 34.4 36.8 31.2 38.55 27.85 39.4 29.45 37.4 30.3 34.8 L30.75 33.0" fill="url(#gradient3)" fill-rule="evenodd" stroke="none"/>
      <path d="M13.7 33.0 Q15.2 36.0 18.4 37.45 L16.75 39.4 Q14.45 36.65 13.7 33.0 M27.85 39.4 L26.05 37.45 Q29.25 36.0 30.75 33.0 L30.3 34.8 Q29.45 37.4 27.85 39.4" fill="#6d4a34" fill-rule="evenodd" stroke="none"/>
      <path d="M31.55 4.85 L30.95 3.1 Q34.4 4.85 37.25 7.8 L37.3 7.9 Q36.5 11.95 32.7 13.15 32.75 9.9 32.0 6.45 L31.55 4.85 M12.25 13.15 Q8.45 11.95 7.65 7.95 L7.85 7.8 Q10.65 4.9 13.95 3.3 13.75 3.7 13.65 4.25 12.1 8.9 12.25 13.15" fill="url(#gradient4)" fill-rule="evenodd" stroke="none"/>
      <path d="M32.7 13.15 Q32.2 8.75 29.6 6.05 L31.3 4.25 31.55 4.85 32.0 6.45 Q32.75 9.9 32.7 13.15 M12.25 13.15 Q12.1 8.9 13.65 4.25 L15.4 6.05 Q12.8 8.75 12.25 13.15" fill="#492d20" fill-rule="evenodd" stroke="none"/>
      <path d="M2.35 32.4 L2.35 35.15 Q2.35 36.1 2.9 36.75 3.45 37.4 4.3 37.4 5.1 37.4 5.75 36.75 6.3 36.1 6.3 35.15 L6.3 33.85 M42.7 32.4 L42.7 35.15 Q42.7 36.1 42.1 36.75 41.6 37.4 40.75 37.4 39.9 37.4 39.3 36.75 38.7 36.1 38.7 35.15 L38.7 33.85" fill="none" stroke="#6a402d" stroke-linecap="round" stroke-linejoin="round" stroke-width="0.25"/>
      <path d="M5.05 10.1 L4.5 9.35 Q4.25 8.5 4.25 7.25 4.25 6.05 4.5 5.2 4.75 4.6 5.05 4.45 L5.5 5.2 Q5.85 6.05 5.85 7.25 5.85 8.5 5.5 9.35 L5.05 10.1 M39.9 10.1 L39.45 9.35 Q39.1 8.5 39.1 7.25 39.1 6.05 39.45 5.2 39.65 4.6 39.9 4.45 L40.45 5.2 40.75 7.25 40.45 9.35 39.9 10.1" fill="#331d16" fill-rule="evenodd" stroke="none"/>
      <path d="M5.05 4.45 Q4.75 4.6 4.5 5.2 4.25 6.05 4.25 7.25 4.25 8.5 4.5 9.35 L5.05 10.1 4.7 10.2 Q4.2 10.2 3.85 9.35 3.55 8.5 3.55 7.25 3.55 6.05 3.85 5.2 4.2 4.3 4.7 4.3 4.85 4.3 5.05 4.45 M39.9 4.45 Q40.1 4.3 40.25 4.3 40.8 4.3 41.15 5.2 L41.4 7.25 41.15 9.35 Q40.8 10.2 40.25 10.2 L39.9 10.1 40.45 9.35 40.75 7.25 40.45 5.2 39.9 4.45" fill="#1a0d09" fill-rule="evenodd" stroke="none"/>
      <path d="M5.05 10.1 L5.5 9.35 Q5.85 8.5 5.85 7.25 5.85 6.05 5.5 5.2 L5.05 4.45 Q4.85 4.3 4.7 4.3 4.2 4.3 3.85 5.2 3.55 6.05 3.55 7.25 3.55 8.5 3.85 9.35 4.2 10.2 4.7 10.2 L5.05 10.1 M39.9 10.1 L39.45 9.35 Q39.1 8.5 39.1 7.25 39.1 6.05 39.45 5.2 39.65 4.6 39.9 4.45 40.1 4.3 40.25 4.3 40.8 4.3 41.15 5.2 L41.4 7.25 41.15 9.35 Q40.8 10.2 40.25 10.2 L39.9 10.1" fill="none" stroke="#6a402d" stroke-linecap="round" stroke-linejoin="round" stroke-width="0.05"/>
      <path d="M32.4 42.85 L12.6 42.85 Q13.35 42.5 15.0 42.1 L22.5 41.55 30.0 42.1 32.4 42.85" fill="#6c432e" fill-rule="evenodd" stroke="none"/>
    </g>
    <linearGradient gradientTransform="matrix(0.0, -0.0275, -0.044, 0.0, 21.4, 21.15)" gradientUnits="userSpaceOnUse" id="gradient3" spreadMethod="pad" x1="-819.2" x2="819.2">
      <stop offset="0.0196078431372549" stop-color="#905a3d"/>
      <stop offset="0.9764705882352941" stop-color="#6a412d"/>
    </linearGradient>
    <linearGradient gradientTransform="matrix(0.0, -0.0275, -0.044, 0.0, 21.4, 21.15)" gradientUnits="userSpaceOnUse" id="gradient4" spreadMethod="pad" x1="-819.2" x2="819.2">
      <stop offset="0.0196078431372549" stop-color="#905a3d"/>
      <stop offset="0.9764705882352941" stop-color="#6a412d"/>
    </linearGradient>
    <g id="sprite2" transform="matrix(1.0, 0.0, 0.0, 1.0, 0.2, 0.0)">
      <use height="8.6" transform="matrix(1.0, 0.0, 0.0, 1.0, -0.2, 0.0)" width="35.05" xlink:href="#shape4"/>
    </g>
    <g id="shape4" transform="matrix(1.0, 0.0, 0.0, 1.0, 0.2, 0.0)">
      <path d="M34.4 4.4 Q34.85 5.8 34.85 7.65 L34.85 8.6 Q34.8 6.95 34.4 5.7 33.0 1.3 27.2 1.3 L7.45 1.3 Q0.05 1.3 -0.2 8.5 L-0.2 7.65 Q-0.2 0.0 7.45 0.0 L27.2 0.0 Q33.0 0.0 34.4 4.4" fill="#e7deda" fill-rule="evenodd" stroke="none"/>
    </g>
  </defs>
</svg>
