<?xml version="1.0" encoding="UTF-8" standalone="no"?>
<svg xmlns:xlink="http://www.w3.org/1999/xlink" height="44.0px" width="44.0px" xmlns="http://www.w3.org/2000/svg">
  <g transform="matrix(1.0, 0.0, 0.0, 1.0, 0.0, 0.0)">
    <use height="44.0" transform="matrix(1.0, 0.0, 0.0, 1.0, 0.05, 0.05)" width="44.0" xlink:href="#shape0"/>
    <use height="0.0" transform="matrix(1.2125, 0.0, 0.0, 1.2125, 1.15, 0.95)" width="0.0" xlink:href="#sprite0"/>
    <use height="20.15" transform="matrix(1.1594, 0.0, 0.0, 1.1605, 5.8, 5.4)" width="28.2" xlink:href="#sprite1"/>
    <use height="8.6" transform="matrix(1.2077, 0.0, 0.0, 1.2066, 1.0085, 0.6)" width="35.05" xlink:href="#sprite2"/>
  </g>
  <defs>
    <g id="shape0" transform="matrix(1.0, 0.0, 0.0, 1.0, -0.05, -0.05)">
      <path d="M41.85 2.3 Q44.05 4.5 44.05 7.65 L44.05 36.45 Q44.05 39.65 41.85 41.85 39.65 44.05 36.45 44.05 L7.65 44.05 Q4.5 44.05 2.3 41.85 0.05 39.65 0.05 36.45 L0.05 7.65 Q0.05 4.5 2.3 2.3 4.5 0.05 7.65 0.05 L36.45 0.05 Q39.6 0.05 41.85 2.3" fill="url(#gradient0)" fill-rule="evenodd" stroke="none"/>
      <path d="M22.1 40.65 Q14.35 40.65 8.9 35.25 3.45 29.8 3.45 22.1 3.45 14.4 8.9 9.0 14.35 3.55 22.1 3.55 29.8 3.55 35.25 9.0 40.65 14.45 40.65 22.1 40.65 29.8 35.25 35.25 29.8 40.65 22.1 40.65" fill="url(#gradient1)" fill-rule="evenodd" stroke="none"/>
      <path d="M26.55 8.45 Q29.75 8.5 30.4 10.1 30.65 10.95 30.25 11.85 29.75 12.9 28.9 13.75 L28.75 13.85 28.7 14.0 Q26.45 16.2 22.65 17.65 18.8 19.15 15.55 19.0 12.55 18.9 11.85 17.4 L11.8 17.3 Q11.15 15.65 13.4 13.45 L14.45 12.6 Q15.9 11.45 17.75 10.6 18.6 10.15 19.6 9.75 23.4 8.3 26.55 8.45 M22.65 10.95 L20.8 12.65 17.7 12.45 Q17.45 12.45 17.3 12.6 17.05 12.7 17.05 13.0 L17.2 13.4 Q17.35 13.6 17.6 13.6 L19.65 13.75 17.8 15.45 17.6 15.85 17.8 16.25 18.2 16.4 18.6 16.25 21.2 13.8 24.8 14.05 25.2 13.95 25.35 13.55 25.25 13.1 24.85 12.9 22.4 12.8 23.45 11.8 23.65 11.4 23.5 10.95 23.1 10.75 22.65 10.95 M30.9 11.6 L31.35 12.65 Q31.9 14.2 29.55 16.4 27.3 18.6 23.5 20.05 19.65 21.6 16.4 21.5 13.4 21.4 12.7 19.9 L12.35 18.9 Q13.45 19.6 15.5 19.6 18.85 19.75 22.75 18.2 26.75 16.7 29.1 14.45 L29.1 14.4 29.15 14.35 29.3 14.3 30.8 12.15 30.8 12.1 30.9 11.6" fill="#372d2d" fill-rule="evenodd" stroke="none"/>
      <path d="M36.15 13.55 Q36.4 15.3 35.5 16.95 M33.65 12.8 Q34.5 15.55 32.4 17.05 M9.85 19.0 Q10.1 21.45 11.65 23.0 M7.9 21.05 Q8.4 22.75 9.15 23.45" fill="none" stroke="#372d2d" stroke-linecap="round" stroke-linejoin="round" stroke-width="1.0"/>
      <path d="M23.15 39.2 Q26.8 34.15 24.6 30.15 22.8 32.3 20.85 32.1 18.85 31.85 18.6 29.15 18.55 27.3 20.55 27.4 22.6 27.7 24.6 30.15 25.9 28.5 25.75 26.9 25.7 25.4 24.3 23.2" fill="none" stroke="#372d2d" stroke-linecap="round" stroke-linejoin="round" stroke-width="1.5"/>
      <path d="M21.9 41.15 Q13.95 41.15 8.45 35.5 2.9 29.95 2.9 22.1 2.9 14.15 8.45 8.65 13.95 3.05 21.9 3.05 29.8 3.05 35.3 8.65 40.9 14.15 40.9 22.1 40.9 29.95 35.3 35.5 29.8 41.15 21.9 41.15 M21.9 5.45 Q15.0 5.5 10.15 10.4 5.25 15.2 5.2 22.1 5.25 29.05 10.15 33.9 15.0 38.8 21.9 38.8 28.8 38.8 33.75 33.9 38.55 29.05 38.55 22.1 38.55 15.2 33.75 10.4 28.8 5.5 21.9 5.45" fill="url(#gradient2)" fill-rule="evenodd" stroke="none"/>
      <path d="M1.0 36.2 L0.95 35.8 Q0.95 34.8 1.65 34.1 2.4 33.4 3.35 33.4 4.3 33.4 5.0 34.1 5.7 34.8 5.7 35.8 L5.7 36.1 Q3.2 33.25 1.0 36.2" fill="#494136" fill-rule="evenodd" stroke="none"/>
      <path d="M5.7 36.1 Q5.6 36.85 5.0 37.45 4.3 38.15 3.35 38.15 2.4 38.15 1.65 37.45 L1.0 36.2 Q3.2 33.25 5.7 36.1" fill="#625748" fill-rule="evenodd" stroke="none"/>
      <path d="M6.05 38.05 L6.0 37.8 Q6.0 37.2 6.45 36.75 6.85 36.35 7.45 36.35 8.05 36.35 8.45 36.75 8.9 37.2 8.9 37.8 L8.9 38.0 6.05 38.05" fill="#494136" fill-rule="evenodd" stroke="none"/>
      <path d="M8.9 38.0 L8.45 38.8 Q8.05 39.2 7.45 39.2 6.85 39.2 6.45 38.8 6.1 38.45 6.05 38.05 L8.9 38.0" fill="#625748" fill-rule="evenodd" stroke="none"/>
      <path d="M3.05 40.95 L3.0 40.7 Q3.0 40.1 3.45 39.65 3.85 39.25 4.45 39.25 5.05 39.25 5.45 39.65 5.9 40.1 5.9 40.7 L5.9 40.9 3.05 40.95" fill="#494136" fill-rule="evenodd" stroke="none"/>
      <path d="M5.9 40.9 L5.45 41.7 Q5.05 42.1 4.45 42.1 3.85 42.1 3.45 41.7 L3.05 40.95 5.9 40.9" fill="#625748" fill-rule="evenodd" stroke="none"/>
      <path d="M7.75 41.6 L7.75 41.45 Q7.75 41.0 8.05 40.65 8.4 40.35 8.85 40.35 9.25 40.35 9.6 40.65 9.95 41.0 9.95 41.45 L9.95 41.6 Q8.75 40.25 7.75 41.6" fill="#494136" fill-rule="evenodd" stroke="none"/>
      <path d="M9.95 41.6 L9.6 42.2 8.85 42.55 Q8.4 42.55 8.05 42.2 L7.75 41.6 Q8.75 40.25 9.95 41.6" fill="#625748" fill-rule="evenodd" stroke="none"/>
      <path d="M42.4 36.2 L42.45 35.8 Q42.45 34.8 41.75 34.1 41.0 33.4 40.05 33.4 39.1 33.4 38.4 34.1 37.7 34.8 37.7 35.8 L37.7 36.1 Q40.2 33.25 42.4 36.2" fill="#494136" fill-rule="evenodd" stroke="none"/>
      <path d="M37.7 36.1 Q37.8 36.85 38.4 37.45 39.1 38.15 40.05 38.15 41.0 38.15 41.75 37.45 L42.4 36.2 Q40.2 33.25 37.7 36.1" fill="#625748" fill-rule="evenodd" stroke="none"/>
      <path d="M37.35 38.05 L37.4 37.8 Q37.4 37.2 36.95 36.75 36.55 36.35 35.95 36.35 35.35 36.35 34.95 36.75 34.5 37.2 34.5 37.8 L34.5 38.0 37.35 38.05" fill="#494136" fill-rule="evenodd" stroke="none"/>
      <path d="M34.5 38.0 L34.95 38.8 Q35.35 39.2 35.95 39.2 36.55 39.2 36.95 38.8 L37.35 38.05 34.5 38.0" fill="#625748" fill-rule="evenodd" stroke="none"/>
      <path d="M40.35 40.95 L40.4 40.7 Q40.4 40.1 39.95 39.65 39.55 39.25 38.95 39.25 38.35 39.25 37.95 39.65 37.5 40.1 37.5 40.7 L37.5 40.9 40.35 40.95" fill="#494136" fill-rule="evenodd" stroke="none"/>
      <path d="M37.5 40.9 L37.95 41.7 Q38.35 42.1 38.95 42.1 39.55 42.1 39.95 41.7 L40.35 40.95 37.5 40.9" fill="#625748" fill-rule="evenodd" stroke="none"/>
      <path d="M35.65 41.6 L35.65 41.45 35.35 40.65 Q35.0 40.35 34.55 40.35 L33.8 40.65 Q33.45 41.0 33.45 41.45 L33.45 41.6 Q34.65 40.25 35.65 41.6" fill="#494136" fill-rule="evenodd" stroke="none"/>
      <path d="M33.45 41.6 L33.8 42.2 Q34.15 42.55 34.55 42.55 35.0 42.55 35.35 42.2 L35.65 41.6 Q34.65 40.25 33.45 41.6" fill="#625748" fill-rule="evenodd" stroke="none"/>
    </g>
    <linearGradient gradientTransform="matrix(0.0, -0.0551, -0.0551, 0.0, 22.1, 18.5)" gradientUnits="userSpaceOnUse" id="gradient0" spreadMethod="pad" x1="-819.2" x2="819.2">
      <stop offset="0.011764705882352941" stop-color="#bcb0a0"/>
      <stop offset="1.0" stop-color="#453e3a"/>
    </linearGradient>
    <linearGradient gradientTransform="matrix(0.0, -0.0173, -0.0173, 0.0, 22.1, 18.55)" gradientUnits="userSpaceOnUse" id="gradient1" spreadMethod="pad" x1="-819.2" x2="819.2">
      <stop offset="0.011764705882352941" stop-color="#c4bebb"/>
      <stop offset="1.0" stop-color="#9f8a82"/>
    </linearGradient>
    <linearGradient gradientTransform="matrix(1.0E-4, 0.0223, -0.0232, 1.0E-4, 21.95, 22.4)" gradientUnits="userSpaceOnUse" id="gradient2" spreadMethod="pad" x1="-819.2" x2="819.2">
      <stop offset="0.011764705882352941" stop-color="#494136"/>
      <stop offset="1.0" stop-color="#dbccbd"/>
    </linearGradient>
    <g id="sprite1" transform="matrix(1.0, 0.0, 0.0, 1.0, 0.0, 0.0)">
      <use height="20.15" transform="matrix(1.0, 0.0, 0.0, 1.0, 0.0, 0.0)" width="28.2" xlink:href="#shape1"/>
    </g>
    <g id="shape1" transform="matrix(1.0, 0.0, 0.0, 1.0, 0.0, 0.0)">
      <path d="M27.65 18.45 L27.4 18.95 Q26.2 20.8 23.4 19.8 19.6 18.5 17.35 14.05 14.8 9.1 9.75 7.4 4.1 5.65 0.0 10.3 1.0 6.85 3.7 4.15 7.2 0.65 11.9 0.05 L14.8 0.05 18.4 0.65 Q21.55 1.65 24.05 4.15 28.2 8.3 28.2 14.25 28.2 16.45 27.65 18.45" fill="#ffffff" fill-opacity="0.19607843" fill-rule="evenodd" stroke="none"/>
    </g>
    <g id="sprite2" transform="matrix(1.0, 0.0, 0.0, 1.0, 0.2, 0.0)">
      <use height="8.6" transform="matrix(1.0, 0.0, 0.0, 1.0, -0.2, 0.0)" width="35.05" xlink:href="#shape2"/>
    </g>
    <g id="shape2" transform="matrix(1.0, 0.0, 0.0, 1.0, 0.2, 0.0)">
      <path d="M34.4 4.4 Q34.85 5.8 34.85 7.65 L34.85 8.6 Q34.8 6.95 34.4 5.7 33.0 1.3 27.2 1.3 L7.45 1.3 Q0.05 1.3 -0.2 8.5 L-0.2 7.65 Q-0.2 0.0 7.45 0.0 L27.2 0.0 Q33.0 0.0 34.4 4.4" fill="#e7deda" fill-rule="evenodd" stroke="none"/>
    </g>
  </defs>
</svg>
