<?xml version="1.0" encoding="UTF-8" standalone="no"?>
<svg xmlns:xlink="http://www.w3.org/1999/xlink" height="44.0px" width="44.0px" xmlns="http://www.w3.org/2000/svg">
  <g transform="matrix(1.0, 0.0, 0.0, 1.0, 0.0, 0.0)">
    <use height="44.0" transform="matrix(1.0, 0.0, 0.0, 1.0, 0.0, 0.0)" width="44.0" xlink:href="#shape0"/>
    <use height="0.0" transform="matrix(1.2125, 0.0, 0.0, 1.2125, 1.1, 0.9)" width="0.0" xlink:href="#sprite0"/>
    <use height="20.15" transform="matrix(1.1549, 0.0, 0.0, 1.1549, 5.9, 5.45)" width="28.2" xlink:href="#sprite1"/>
    <use height="8.6" transform="matrix(1.2077, 0.0, 0.0, 1.2066, 0.9585, 0.9)" width="35.05" xlink:href="#sprite2"/>
  </g>
  <defs>
    <g id="shape0" transform="matrix(1.0, 0.0, 0.0, 1.0, 0.0, 0.0)">
      <path d="M41.8 2.25 Q44.0 4.45 44.0 7.6 L44.0 36.4 Q44.0 39.6 41.8 41.8 39.6 44.0 36.4 44.0 L7.6 44.0 Q4.45 44.0 2.25 41.8 0.0 39.6 0.0 36.4 L0.0 7.6 Q0.0 4.45 2.25 2.25 4.45 0.0 7.6 0.0 L36.4 0.0 Q39.55 0.0 41.8 2.25" fill="url(#gradient0)" fill-rule="evenodd" stroke="none"/>
      <path d="M9.25 9.55 Q14.55 4.3 21.9 4.3 29.3 4.3 34.5 9.55 39.7 14.8 39.7 22.15 39.7 29.55 34.5 34.85 29.3 40.05 21.9 40.05 14.45 40.05 9.25 34.85 4.05 29.55 4.05 22.15 4.05 14.8 9.25 9.55" fill="url(#gradient1)" fill-rule="evenodd" stroke="none"/>
      <path d="M23.05 16.55 Q22.5 16.85 22.4 17.15 L23.0 17.45 Q23.1 17.25 24.1 16.7 24.85 16.35 25.05 15.9 L24.4 16.35 23.05 16.55 M24.45 11.05 L25.15 10.3 25.7 9.3 25.7 8.95 25.0 9.9 24.0 11.0 24.45 11.05 M26.35 7.3 L26.25 7.85 26.3 9.5 25.85 10.45 25.0 11.0 Q25.35 11.05 25.55 11.45 25.8 11.9 25.5 12.45 25.25 13.1 24.55 13.35 L23.5 13.2 23.2 12.8 Q23.3 13.1 24.05 12.8 L24.45 12.35 24.35 11.85 23.8 11.75 22.95 12.45 Q22.5 13.0 22.5 13.85 L22.65 14.35 22.6 14.55 Q23.1 13.9 24.5 13.8 L25.85 13.35 26.4 12.85 26.4 12.9 Q26.2 12.95 26.1 13.65 L25.9 16.2 Q25.8 16.95 25.15 17.4 L23.8 17.7 24.45 18.7 Q24.75 19.5 24.3 20.15 23.85 20.95 22.75 20.95 21.8 21.0 21.3 20.15 L21.0 19.45 Q21.1 19.85 22.15 19.85 L22.85 19.45 22.7 18.6 Q22.35 18.15 22.0 18.1 21.45 18.0 20.65 18.7 19.85 19.35 19.75 20.85 19.65 21.9 20.0 22.75 20.2 23.35 21.3 23.6 L22.95 23.65 23.95 22.75 24.55 21.6 Q24.7 22.65 24.45 23.45 L25.1 23.35 Q26.55 23.35 27.4 24.45 28.05 25.3 28.05 26.25 28.05 26.95 27.45 27.7 26.85 28.5 26.3 28.5 L25.5 28.3 Q25.15 28.1 25.15 27.75 25.15 27.4 25.7 27.05 L25.7 27.1 Q25.55 27.3 25.55 27.5 L25.6 27.75 25.85 27.85 25.9 27.8 Q26.6 27.4 26.15 26.1 24.65 25.5 24.15 26.55 23.7 27.4 24.8 28.6 27.4 30.4 27.3 33.4 26.35 37.7 21.85 37.15 18.2 35.85 19.35 32.5 19.5 33.25 19.95 33.95 20.5 34.85 21.1 35.1 L23.15 35.35 Q24.55 35.2 24.95 34.6 25.55 33.7 25.65 32.4 25.75 30.8 24.85 29.85 23.95 28.95 23.25 28.95 22.75 28.95 22.25 29.45 21.85 29.85 21.95 30.35 22.1 30.9 22.75 30.95 24.1 31.1 24.3 30.65 L23.8 31.35 Q22.95 32.25 21.75 32.1 20.4 31.9 19.95 30.95 19.5 30.1 20.0 29.25 20.4 28.5 21.05 28.25 20.15 28.2 19.5 27.7 18.95 28.2 18.0 28.5 15.45 28.65 15.0 26.25 L15.8 27.0 Q16.45 27.4 16.9 27.4 L18.15 27.0 18.7 26.7 18.6 26.2 18.7 24.75 18.6 24.55 Q18.2 23.5 17.4 23.15 L16.15 22.95 Q15.85 23.1 15.7 23.6 15.65 23.95 15.85 24.2 L16.5 24.35 Q17.35 24.1 17.3 23.75 L17.25 24.4 Q17.05 25.15 16.3 25.35 L14.85 25.1 Q14.3 24.7 14.3 24.05 14.3 23.45 14.6 23.1 L13.45 23.2 12.5 22.5 11.65 20.6 11.25 20.0 13.0 20.3 14.7 20.45 14.6 20.3 Q14.45 20.0 14.75 19.55 L15.3 19.0 17.05 19.05 18.05 20.05 18.15 21.15 Q18.1 21.8 17.75 21.95 L17.2 22.0 16.85 21.75 Q16.7 21.55 16.9 21.15 L16.9 21.2 17.0 21.5 17.1 21.6 17.25 21.6 17.3 21.6 Q17.55 21.15 16.9 20.45 15.8 20.45 15.85 21.25 15.85 21.9 16.9 22.4 17.9 22.6 18.65 23.15 L18.35 21.5 Q18.6 18.9 20.85 17.65 21.85 16.7 21.6 15.9 21.4 14.95 20.1 15.35 19.6 16.4 20.1 16.8 L20.15 16.8 20.35 16.8 20.45 16.6 20.4 16.25 20.4 16.2 Q20.75 16.55 20.7 16.85 L20.4 17.25 19.7 17.35 Q19.3 17.3 18.9 16.55 18.55 15.8 18.65 15.2 18.75 14.35 19.35 13.75 20.15 12.9 21.3 13.05 L21.9 13.3 Q22.25 12.4 23.0 11.65 23.6 10.9 23.4 10.4 23.15 9.9 22.35 10.4 22.05 11.2 22.45 11.35 L22.6 11.3 22.6 11.15 22.55 10.95 22.6 10.9 22.8 11.2 22.65 11.6 22.2 11.8 Q21.9 11.9 21.6 11.5 L21.35 10.75 Q21.35 10.2 21.7 9.6 22.15 8.85 22.95 8.65 L23.6 8.75 Q23.95 8.9 23.95 9.15 L23.95 9.3 Q24.2 8.75 25.2 8.35 25.85 8.05 26.35 7.25 L26.35 7.3 M14.1 22.4 L15.1 22.75 15.55 22.35 14.0 21.95 Q13.05 21.8 12.8 21.35 L12.95 21.8 Q13.2 22.3 14.1 22.4 M20.15 26.45 L20.85 27.05 22.05 28.05 22.95 27.85 Q22.75 27.25 21.1 26.35 20.45 26.05 20.15 25.7 L20.15 26.45" fill="#4a3355" fill-rule="evenodd" stroke="none"/>
      <path d="M40.85 22.05 Q40.85 29.9 35.25 35.45 29.75 41.1 21.85 41.1 13.9 41.1 8.4 35.45 2.85 29.9 2.85 22.05 2.85 14.1 8.4 8.6 13.9 3.0 21.85 3.0 29.75 3.0 35.25 8.6 40.85 14.1 40.85 22.05 M21.85 5.4 Q14.95 5.45 10.1 10.35 5.2 15.15 5.15 22.05 5.2 29.0 10.1 33.85 14.95 38.75 21.85 38.75 28.75 38.75 33.7 33.85 38.5 29.0 38.5 22.05 38.5 15.15 33.7 10.35 28.75 5.45 21.85 5.4" fill="url(#gradient2)" fill-rule="evenodd" stroke="none"/>
      <path d="M0.95 36.15 L0.9 35.75 Q0.9 34.75 1.6 34.05 2.35 33.35 3.3 33.35 4.25 33.35 4.95 34.05 5.65 34.75 5.65 35.75 L5.65 36.05 Q3.15 33.2 0.95 36.15" fill="#494136" fill-rule="evenodd" stroke="none"/>
      <path d="M5.65 36.05 Q5.55 36.8 4.95 37.4 4.25 38.1 3.3 38.1 2.35 38.1 1.6 37.4 1.05 36.8 0.95 36.15 3.15 33.2 5.65 36.05" fill="#625748" fill-rule="evenodd" stroke="none"/>
      <path d="M6.0 38.0 L5.95 37.75 Q5.95 37.15 6.4 36.7 6.8 36.3 7.4 36.3 8.0 36.3 8.4 36.7 8.85 37.15 8.85 37.75 L8.85 37.95 6.0 38.0" fill="#494136" fill-rule="evenodd" stroke="none"/>
      <path d="M8.85 37.95 L8.4 38.75 Q8.0 39.15 7.4 39.15 6.8 39.15 6.4 38.75 L6.0 38.0 8.85 37.95" fill="#625748" fill-rule="evenodd" stroke="none"/>
      <path d="M3.0 40.9 L2.95 40.65 Q2.95 40.05 3.4 39.6 3.8 39.2 4.4 39.2 5.0 39.2 5.4 39.6 5.85 40.05 5.85 40.65 L5.85 40.85 3.0 40.9" fill="#494136" fill-rule="evenodd" stroke="none"/>
      <path d="M5.85 40.85 L5.4 41.65 Q5.0 42.05 4.4 42.05 3.8 42.05 3.4 41.65 3.05 41.3 3.0 40.9 L5.85 40.85" fill="#625748" fill-rule="evenodd" stroke="none"/>
      <path d="M7.7 41.55 L7.7 41.4 Q7.7 40.95 8.0 40.6 8.35 40.3 8.8 40.3 9.2 40.3 9.55 40.6 L9.9 41.4 9.9 41.55 Q8.7 40.2 7.7 41.55" fill="#494136" fill-rule="evenodd" stroke="none"/>
      <path d="M9.9 41.55 L9.55 42.15 Q9.2 42.5 8.8 42.5 8.35 42.5 8.0 42.15 L7.7 41.55 Q8.7 40.2 9.9 41.55" fill="#625748" fill-rule="evenodd" stroke="none"/>
      <path d="M42.35 36.15 L42.4 35.75 Q42.4 34.75 41.7 34.05 40.95 33.35 40.0 33.35 39.05 33.35 38.35 34.05 37.65 34.75 37.65 35.75 L37.65 36.05 Q40.15 33.2 42.35 36.15" fill="#494136" fill-rule="evenodd" stroke="none"/>
      <path d="M37.65 36.05 Q37.75 36.8 38.35 37.4 39.05 38.1 40.0 38.1 40.95 38.1 41.7 37.4 L42.35 36.15 Q40.15 33.2 37.65 36.05" fill="#625748" fill-rule="evenodd" stroke="none"/>
      <path d="M37.3 38.0 L37.35 37.75 Q37.35 37.15 36.9 36.7 36.5 36.3 35.9 36.3 35.3 36.3 34.9 36.7 34.45 37.15 34.45 37.75 L34.45 37.95 37.3 38.0" fill="#494136" fill-rule="evenodd" stroke="none"/>
      <path d="M34.45 37.95 L34.9 38.75 Q35.3 39.15 35.9 39.15 36.5 39.15 36.9 38.75 L37.3 38.0 34.45 37.95" fill="#625748" fill-rule="evenodd" stroke="none"/>
      <path d="M40.3 40.9 L40.35 40.65 Q40.35 40.05 39.9 39.6 39.5 39.2 38.9 39.2 38.3 39.2 37.9 39.6 37.45 40.05 37.45 40.65 L37.45 40.85 40.3 40.9" fill="#494136" fill-rule="evenodd" stroke="none"/>
      <path d="M37.45 40.85 L37.9 41.65 Q38.3 42.05 38.9 42.05 39.5 42.05 39.9 41.65 L40.3 40.9 37.45 40.85" fill="#625748" fill-rule="evenodd" stroke="none"/>
      <path d="M35.6 41.55 L35.6 41.4 35.3 40.6 Q34.95 40.3 34.5 40.3 34.1 40.3 33.75 40.6 33.4 40.95 33.4 41.4 L33.4 41.55 Q34.6 40.2 35.6 41.55" fill="#494136" fill-rule="evenodd" stroke="none"/>
      <path d="M33.4 41.55 L33.75 42.15 Q34.1 42.5 34.5 42.5 34.95 42.5 35.3 42.15 L35.6 41.55 Q34.6 40.2 33.4 41.55" fill="#625748" fill-rule="evenodd" stroke="none"/>
    </g>
    <linearGradient gradientTransform="matrix(0.0, -0.0551, -0.0551, 0.0, 22.05, 18.45)" gradientUnits="userSpaceOnUse" id="gradient0" spreadMethod="pad" x1="-819.2" x2="819.2">
      <stop offset="0.011764705882352941" stop-color="#bcb0a0"/>
      <stop offset="1.0" stop-color="#453e3a"/>
    </linearGradient>
    <linearGradient gradientTransform="matrix(0.0, -0.0167, -0.0167, 0.0, 21.9, 18.8)" gradientUnits="userSpaceOnUse" id="gradient1" spreadMethod="pad" x1="-819.2" x2="819.2">
      <stop offset="0.011764705882352941" stop-color="#bcb9ae"/>
      <stop offset="1.0" stop-color="#9b5b79"/>
    </linearGradient>
    <linearGradient gradientTransform="matrix(1.0E-4, 0.0223, -0.0232, 1.0E-4, 21.9, 22.35)" gradientUnits="userSpaceOnUse" id="gradient2" spreadMethod="pad" x1="-819.2" x2="819.2">
      <stop offset="0.011764705882352941" stop-color="#494136"/>
      <stop offset="1.0" stop-color="#dbccbd"/>
    </linearGradient>
    <g id="sprite1" transform="matrix(1.0, 0.0, 0.0, 1.0, 0.0, 0.0)">
      <use height="20.15" transform="matrix(1.0, 0.0, 0.0, 1.0, 0.0, 0.0)" width="28.2" xlink:href="#shape1"/>
    </g>
    <g id="shape1" transform="matrix(1.0, 0.0, 0.0, 1.0, 0.0, 0.0)">
      <path d="M27.65 18.45 L27.4 18.95 Q26.2 20.8 23.4 19.8 19.6 18.5 17.35 14.05 14.8 9.1 9.75 7.4 4.1 5.65 0.0 10.3 1.0 6.85 3.7 4.15 7.2 0.65 11.9 0.05 L14.8 0.05 18.4 0.65 Q21.55 1.65 24.05 4.15 28.2 8.3 28.2 14.25 28.2 16.45 27.65 18.45" fill="#ffffff" fill-opacity="0.19607843" fill-rule="evenodd" stroke="none"/>
    </g>
    <g id="sprite2" transform="matrix(1.0, 0.0, 0.0, 1.0, 0.2, 0.0)">
      <use height="8.6" transform="matrix(1.0, 0.0, 0.0, 1.0, -0.2, 0.0)" width="35.05" xlink:href="#shape2"/>
    </g>
    <g id="shape2" transform="matrix(1.0, 0.0, 0.0, 1.0, 0.2, 0.0)">
      <path d="M34.4 4.4 Q34.85 5.8 34.85 7.65 L34.85 8.6 Q34.8 6.95 34.4 5.7 33.0 1.3 27.2 1.3 L7.45 1.3 Q0.05 1.3 -0.2 8.5 L-0.2 7.65 Q-0.2 0.0 7.45 0.0 L27.2 0.0 Q33.0 0.0 34.4 4.4" fill="#e7deda" fill-rule="evenodd" stroke="none"/>
    </g>
  </defs>
</svg>
