<?xml version="1.0" encoding="UTF-8" standalone="no"?>
<svg xmlns:xlink="http://www.w3.org/1999/xlink" height="44.0px" width="44.05px" xmlns="http://www.w3.org/2000/svg">
  <g transform="matrix(1.0, 0.0, 0.0, 1.0, 0.05, 0.0)">
    <use height="37.1" transform="matrix(1.0, 0.0, 0.0, 1.0, 3.75, 3.15)" width="37.2" xlink:href="#shape0"/>
    <use height="20.15" transform="matrix(1.1594, 0.0, 0.0, 1.1594, 6.15, 4.9)" width="28.2" xlink:href="#sprite0"/>
    <use height="37.1" transform="matrix(1.0, 0.0, 0.0, 1.0, 3.9, 2.75)" width="37.2" xlink:href="#shape2"/>
    <use height="20.15" transform="matrix(1.1594, 0.0, 0.0, 1.1594, 6.15, 4.9)" width="28.2" xlink:href="#sprite0"/>
    <use height="44.0" transform="matrix(1.0, 0.0, 0.0, 1.0, 0.0, 0.0)" width="44.0" xlink:href="#shape3"/>
    <use height="8.6" transform="matrix(1.2125, 0.0, 0.0, 1.2125, 0.8575, 0.95)" width="35.05" xlink:href="#sprite1"/>
    <use height="17.95" transform="matrix(1.0, 0.0, 0.0, 1.0, 0.0, 26.05)" width="43.95" xlink:href="#shape5"/>
  </g>
  <defs>
    <g id="shape0" transform="matrix(1.0, 0.0, 0.0, 1.0, -3.75, -3.15)">
      <path d="M3.75 21.7 Q3.75 14.0 9.2 8.6 14.65 3.15 22.4 3.15 30.1 3.15 35.55 8.6 40.95 14.05 40.95 21.7 40.95 29.4 35.55 34.85 30.1 40.25 22.4 40.25 14.65 40.25 9.2 34.85 3.75 29.4 3.75 21.7" fill="url(#gradient0)" fill-rule="evenodd" stroke="none"/>
    </g>
    <linearGradient gradientTransform="matrix(0.0, -0.017, -0.0173, 0.0, 21.4, 26.65)" gradientUnits="userSpaceOnUse" id="gradient0" spreadMethod="pad" x1="-819.2" x2="819.2">
      <stop offset="0.011764705882352941" stop-color="#dad67d"/>
      <stop offset="1.0" stop-color="#cfa451"/>
    </linearGradient>
    <g id="sprite0" transform="matrix(1.0, 0.0, 0.0, 1.0, 0.0, 0.0)">
      <use height="20.15" transform="matrix(1.0, 0.0, 0.0, 1.0, 0.0, 0.0)" width="28.2" xlink:href="#shape1"/>
    </g>
    <g id="shape1" transform="matrix(1.0, 0.0, 0.0, 1.0, 0.0, 0.0)">
      <path d="M27.65 18.45 L27.4 18.95 Q26.2 20.8 23.4 19.8 19.6 18.5 17.35 14.05 14.8 9.1 9.75 7.4 4.1 5.65 0.0 10.3 1.0 6.85 3.7 4.15 7.2 0.65 11.9 0.05 L14.8 0.05 18.4 0.65 Q21.55 1.65 24.05 4.15 28.2 8.3 28.2 14.25 28.2 16.45 27.65 18.45" fill="#ffffff" fill-opacity="0.19607843" fill-rule="evenodd" stroke="none"/>
    </g>
    <g id="shape2" transform="matrix(1.0, 0.0, 0.0, 1.0, -3.9, -2.75)">
      <path d="M35.7 34.45 Q30.25 39.85 22.55 39.85 14.8 39.85 9.35 34.45 3.9 29.0 3.9 21.3 3.9 13.6 9.35 8.2 14.8 2.75 22.55 2.75 30.25 2.75 35.7 8.2 41.1 13.65 41.1 21.3 41.1 29.0 35.7 34.45" fill="url(#gradient1)" fill-rule="evenodd" stroke="none"/>
      <path d="M21.7 7.55 Q23.25 7.55 24.3 8.6 25.4 9.65 25.4 11.1 25.4 12.55 24.3 13.6 23.25 14.65 21.7 14.65 20.15 14.65 19.05 13.6 18.0 12.55 18.0 11.1 18.0 9.65 19.05 8.6 20.15 7.55 21.7 7.55 M16.25 20.65 L16.25 20.5 16.25 19.9 16.25 19.4 16.25 18.05 27.15 18.05 27.15 19.4 27.15 19.9 27.15 20.5 27.15 21.2 27.15 21.7 27.15 26.3 16.25 26.3 16.25 20.65 M16.6 16.15 L17.1 15.45 26.3 15.45 26.8 16.15 16.6 16.15 M15.85 19.0 Q4.85 19.7 10.35 11.2 L15.95 15.8 15.85 19.0 M15.75 24.95 Q12.6 22.85 12.6 19.6 L15.75 19.6 15.75 24.95 M22.55 36.6 L20.85 36.5 20.55 36.5 Q19.45 36.45 19.25 35.75 L24.25 35.75 23.4 36.5 22.55 36.6 M19.2 35.15 L19.2 35.0 19.2 29.55 24.25 29.55 24.25 35.15 19.2 35.15 M27.15 26.95 L26.65 27.7 17.0 27.7 Q16.4 27.45 16.35 26.95 L27.15 26.95 M24.25 28.2 L24.25 29.0 19.2 29.0 19.2 28.2 24.25 28.2 M27.75 19.3 L30.8 19.3 Q30.8 22.55 27.75 24.65 L27.75 19.3 M27.7 18.75 L27.55 15.55 33.3 10.9 Q38.8 19.4 27.7 18.75 M16.25 17.5 Q16.25 17.1 16.4 16.75 L27.05 16.75 27.15 17.5 16.25 17.5" fill="#664411" fill-rule="evenodd" stroke="none"/>
    </g>
    <linearGradient gradientTransform="matrix(0.0056, 0.0, 0.0, 0.0043, -24.05, 41.0)" gradientUnits="userSpaceOnUse" id="gradient1" spreadMethod="pad" x1="-819.2" x2="819.2">
      <stop offset="0.011764705882352941" stop-color="#c79829"/>
      <stop offset="1.0" stop-color="#be7d1e"/>
    </linearGradient>
    <g id="shape3" transform="matrix(1.0, 0.0, 0.0, 1.0, 0.0, 0.0)">
      <path d="M41.8 2.3 Q44.0 4.5 44.0 7.6 L44.0 36.4 Q44.0 39.6 41.8 41.8 39.6 44.0 36.4 44.0 L7.6 44.0 Q4.45 44.0 2.25 41.8 0.0 39.6 0.0 36.4 L0.0 7.6 Q0.0 4.5 2.25 2.3 4.45 0.0 7.6 0.0 L36.4 0.0 Q39.55 0.0 41.8 2.3 M40.85 22.05 Q40.85 14.1 35.25 8.6 29.75 3.05 21.85 3.05 13.9 3.05 8.4 8.6 2.85 14.1 2.85 22.05 2.85 29.95 8.4 35.45 13.9 41.1 21.85 41.1 29.75 41.1 35.25 35.45 40.85 29.95 40.85 22.05" fill="url(#gradient2)" fill-rule="evenodd" stroke="none"/>
      <path d="M40.85 22.05 Q40.85 29.95 35.25 35.45 29.75 41.1 21.85 41.1 13.9 41.1 8.4 35.45 2.85 29.95 2.85 22.05 2.85 14.1 8.4 8.6 13.9 3.05 21.85 3.05 29.75 3.05 35.25 8.6 40.85 14.1 40.85 22.05 M33.7 10.35 Q28.75 5.45 21.85 5.4 14.95 5.45 10.1 10.35 5.2 15.15 5.15 22.05 5.2 29.0 10.1 33.85 14.95 38.75 21.85 38.75 28.75 38.75 33.7 33.85 38.5 29.0 38.5 22.05 38.5 15.15 33.7 10.35" fill="url(#gradient3)" fill-rule="evenodd" stroke="none"/>
    </g>
    <linearGradient gradientTransform="matrix(0.0, -0.0258, -0.0551, 0.0, 21.85, 21.85)" gradientUnits="userSpaceOnUse" id="gradient2" spreadMethod="pad" x1="-819.2" x2="819.2">
      <stop offset="0.011764705882352941" stop-color="#dad67d"/>
      <stop offset="1.0" stop-color="#cfa451"/>
    </linearGradient>
    <linearGradient gradientTransform="matrix(0.0, 0.0059, -0.0232, 0.0, 21.85, 18.4)" gradientUnits="userSpaceOnUse" id="gradient3" spreadMethod="pad" x1="-819.2" x2="819.2">
      <stop offset="0.011764705882352941" stop-color="#8d5910"/>
      <stop offset="1.0" stop-color="#d9d597"/>
    </linearGradient>
    <g id="sprite1" transform="matrix(1.0, 0.0, 0.0, 1.0, 0.2, 0.0)">
      <use height="8.6" transform="matrix(1.0, 0.0, 0.0, 1.0, -0.2, 0.0)" width="35.05" xlink:href="#shape4"/>
    </g>
    <g id="shape4" transform="matrix(1.0, 0.0, 0.0, 1.0, 0.2, 0.0)">
      <path d="M34.4 4.4 Q34.85 5.8 34.85 7.65 L34.85 8.6 Q34.8 6.95 34.4 5.7 33.0 1.3 27.2 1.3 L7.45 1.3 Q0.05 1.3 -0.2 8.5 L-0.2 7.65 Q-0.2 0.0 7.45 0.0 L27.2 0.0 Q33.0 0.0 34.4 4.4" fill="#e7deda" fill-rule="evenodd" stroke="none"/>
    </g>
    <g id="shape5" transform="matrix(1.0, 0.0, 0.0, 1.0, -0.05, -26.1)">
      <path d="M39.7 29.2 L38.1 29.2 38.0 29.4 39.35 30.35 38.8 32.05 38.95 32.2 40.45 31.15 41.85 32.2 42.1 32.05 41.55 30.35 42.85 29.4 42.7 29.2 41.15 29.2 40.55 27.65 40.3 27.65 39.7 29.2 M38.9 28.0 L39.35 26.85 39.75 26.35 Q40.1 26.1 40.45 26.1 L41.1 26.35 41.55 26.9 41.95 28.0 43.1 28.0 Q43.55 28.0 43.8 28.25 L44.0 28.4 44.0 30.0 43.75 30.15 42.9 30.8 43.3 32.15 43.3 32.85 42.85 33.4 42.15 33.6 41.5 33.35 41.25 33.2 41.2 35.75 43.6 36.7 44.0 36.95 43.65 38.85 43.45 38.9 40.9 39.55 40.7 42.5 40.55 42.8 39.3 43.55 39.05 43.5 38.55 43.05 37.05 40.5 34.25 41.25 33.9 41.25 33.05 41.85 33.45 43.2 33.45 43.9 33.35 44.05 31.2 44.05 30.6 43.65 29.95 44.05 27.75 44.05 27.7 43.85 27.7 43.15 28.1 41.85 27.2 41.25 26.8 40.65 Q26.65 40.25 26.8 39.9 L27.2 39.3 27.9 39.1 29.05 39.1 29.5 37.95 29.9 37.4 30.6 37.2 31.25 37.4 31.7 38.0 32.1 39.1 33.25 39.1 34.9 37.1 33.6 34.9 33.45 34.2 33.75 33.5 Q33.95 33.25 34.3 33.2 L35.0 33.25 37.4 34.2 38.1 33.45 37.95 33.35 37.55 32.75 37.55 32.05 37.95 30.8 37.05 30.15 36.65 29.6 Q36.5 29.2 36.65 28.85 L37.05 28.25 Q37.35 28.0 37.75 28.0 L38.9 28.0 M37.75 35.55 L34.6 34.3 36.35 37.25 33.95 40.05 37.6 39.15 39.55 42.4 39.8 38.65 43.2 37.75 40.05 36.5 40.1 33.05 37.75 35.55 M30.7 38.75 L30.45 38.75 29.85 40.25 28.25 40.25 28.15 40.5 29.5 41.4 28.9 43.15 29.1 43.25 30.6 42.2 32.0 43.25 32.25 43.15 31.7 41.4 32.85 40.55 32.8 40.25 31.3 40.25 30.7 38.75" fill="#d1ae5a" fill-rule="evenodd" stroke="none"/>
      <path d="M38.6 29.8 L37.75 29.2 39.7 29.2 40.45 27.25 41.15 29.2 43.1 29.2 42.25 29.8 41.15 29.8 40.45 27.9 39.7 29.8 38.6 29.8 M41.55 30.35 L42.2 32.4 41.9 32.25 41.55 30.95 41.55 30.35 M38.95 32.25 L38.65 32.4 39.35 30.35 39.35 30.95 38.95 32.25 M40.05 36.5 L43.2 37.75 42.2 38.05 40.05 37.1 40.05 36.5 M34.6 39.9 L33.95 40.05 36.35 37.25 36.35 37.85 34.6 39.9 M35.05 35.15 L34.6 34.3 37.75 35.55 40.1 33.05 40.1 33.7 37.75 36.2 35.05 35.15 M32.4 40.9 L31.3 40.9 30.6 38.95 29.85 40.9 28.75 40.9 27.9 40.25 29.85 40.25 30.6 38.35 31.3 40.25 33.25 40.25 32.4 40.9 M29.5 41.4 L29.5 42.05 29.1 43.3 28.8 43.5 29.5 41.4 M32.05 43.3 L31.7 42.05 31.7 41.4 32.35 43.5 32.05 43.3" fill="#674512" fill-rule="evenodd" stroke="none"/>
      <path d="M42.25 29.8 L41.55 30.35 41.55 30.95 41.9 32.25 40.45 31.15 38.95 32.25 39.35 30.95 39.35 30.35 38.6 29.8 39.7 29.8 40.45 27.9 41.15 29.8 42.25 29.8 M40.05 36.5 L40.05 37.1 42.2 38.05 39.8 38.65 39.55 42.4 37.6 39.15 34.6 39.9 36.35 37.85 36.35 37.25 35.05 35.15 37.75 36.2 40.1 33.7 40.05 36.5 M28.75 40.9 L29.85 40.9 30.6 38.95 31.3 40.9 32.4 40.9 31.7 41.4 31.7 42.05 32.05 43.3 30.6 42.2 29.1 43.3 29.5 42.05 29.5 41.4 28.75 40.9" fill="#815815" fill-rule="evenodd" stroke="none"/>
      <path d="M10.3 33.5 L10.6 34.2 10.45 34.9 9.15 37.1 10.8 39.1 11.95 39.1 12.35 38.0 12.8 37.4 13.45 37.2 14.15 37.4 14.55 37.95 15.0 39.1 16.15 39.1 16.85 39.3 17.25 39.9 17.25 40.65 16.85 41.25 15.95 41.85 16.35 43.15 16.35 43.85 16.3 44.05 14.1 44.05 13.45 43.65 12.85 44.05 10.7 44.05 10.6 43.9 10.6 43.2 11.0 41.85 10.15 41.25 9.8 41.25 7.0 40.5 5.5 43.05 5.0 43.5 4.75 43.55 Q4.05 43.25 3.5 42.8 L3.35 42.5 3.15 39.55 0.6 38.9 0.4 38.85 0.05 36.95 Q0.25 36.75 0.45 36.7 L2.85 35.75 2.8 33.2 2.55 33.35 1.9 33.6 1.2 33.4 0.75 32.85 0.75 32.15 1.15 30.8 0.3 30.15 0.05 30.0 0.05 28.4 0.25 28.25 Q0.5 28.0 0.95 28.0 L2.1 28.0 2.5 26.9 2.95 26.35 Q3.25 26.1 3.6 26.1 L4.3 26.35 4.7 26.85 5.15 28.0 6.3 28.0 Q6.7 28.0 7.0 28.25 L7.4 28.85 7.4 29.6 7.0 30.15 6.1 30.8 6.5 32.05 6.5 32.75 6.1 33.35 5.95 33.45 6.65 34.2 9.05 33.25 9.75 33.2 10.3 33.5 M11.2 40.55 L12.35 41.4 11.8 43.15 12.05 43.25 13.45 42.2 14.95 43.25 15.15 43.15 14.55 41.4 15.9 40.5 15.8 40.25 14.2 40.25 13.6 38.75 13.35 38.75 12.75 40.25 11.25 40.25 11.2 40.55 M3.75 27.65 L3.5 27.65 2.9 29.2 1.35 29.2 1.2 29.4 2.5 30.35 1.95 32.05 2.2 32.2 3.6 31.15 5.1 32.2 5.25 32.05 4.7 30.35 6.05 29.4 5.95 29.2 4.35 29.2 3.75 27.65 M4.25 38.65 L4.5 42.4 6.45 39.15 10.1 40.05 7.7 37.25 9.45 34.3 6.3 35.55 3.95 33.05 4.0 36.5 0.85 37.75 4.25 38.65" fill="#d1ae5a" fill-rule="evenodd" stroke="none"/>
      <path d="M12.35 41.4 L12.35 42.05 12.0 43.3 11.7 43.5 12.35 41.4 M14.95 43.3 L14.55 42.05 14.55 41.4 15.25 43.5 14.95 43.3 M15.3 40.9 L14.2 40.9 13.45 38.95 12.75 40.9 11.65 40.9 10.8 40.25 12.75 40.25 13.45 38.35 14.2 40.25 16.15 40.25 15.3 40.9 M1.8 29.8 L0.95 29.2 2.9 29.2 3.6 27.25 4.35 29.2 6.3 29.2 5.45 29.8 4.35 29.8 3.6 27.9 2.9 29.8 1.8 29.8 M4.7 30.35 L5.4 32.4 5.1 32.25 4.7 30.95 4.7 30.35 M2.15 32.25 L1.85 32.4 2.5 30.35 2.5 30.95 2.15 32.25 M3.95 33.7 L3.95 33.05 6.3 35.55 9.45 34.3 9.0 35.15 6.3 36.2 3.95 33.7 M7.7 37.25 L10.1 40.05 9.45 39.9 7.7 37.85 7.7 37.25 M1.85 38.05 L0.85 37.75 4.0 36.5 4.0 37.1 1.85 38.05" fill="#674512" fill-rule="evenodd" stroke="none"/>
      <path d="M12.35 41.4 L11.65 40.9 12.75 40.9 13.45 38.95 14.2 40.9 15.3 40.9 14.55 41.4 14.55 42.05 14.95 43.3 13.45 42.2 12.0 43.3 12.35 42.05 12.35 41.4 M1.8 29.8 L2.9 29.8 3.6 27.9 4.35 29.8 5.45 29.8 4.7 30.35 4.7 30.95 5.1 32.25 3.6 31.15 2.15 32.25 2.5 30.95 2.5 30.35 1.8 29.8 M9.0 35.15 L7.7 37.25 7.7 37.85 9.45 39.9 6.45 39.15 4.5 42.4 4.25 38.65 1.85 38.05 4.0 37.1 4.0 36.5 3.95 33.7 6.3 36.2 9.0 35.15" fill="#815815" fill-rule="evenodd" stroke="none"/>
    </g>
  </defs>
</svg>
