<?xml version="1.0" encoding="UTF-8" standalone="no"?>
<svg xmlns:xlink="http://www.w3.org/1999/xlink" height="44.0px" width="44.0px" xmlns="http://www.w3.org/2000/svg">
  <g transform="matrix(1.0, 0.0, 0.0, 1.0, 0.0, 0.0)">
    <use height="44.0" transform="matrix(1.0, 0.0, 0.0, 1.0, 0.0, 0.05)" width="44.0" xlink:href="#shape0"/>
    <use height="0.0" transform="matrix(1.2125, 0.0, 0.0, 1.2125, 1.1, 0.95)" width="0.0" xlink:href="#sprite0"/>
    <use height="20.15" transform="matrix(1.1549, 0.0, 0.0, 1.1549, 5.65, 5.55)" width="28.2" xlink:href="#sprite1"/>
    <use height="8.6" transform="matrix(1.2077, 0.0, 0.0, 1.2066, 0.9585, 0.95)" width="35.05" xlink:href="#sprite2"/>
  </g>
  <defs>
    <g id="shape0" transform="matrix(1.0, 0.0, 0.0, 1.0, 0.0, -0.05)">
      <path d="M7.6 0.05 L36.4 0.05 Q39.55 0.05 41.8 2.3 44.0 4.5 44.0 7.65 L44.0 36.45 Q44.0 39.65 41.8 41.85 39.6 44.05 36.4 44.05 L7.6 44.05 Q4.45 44.05 2.25 41.85 0.0 39.65 0.0 36.45 L0.0 7.65 Q0.0 4.5 2.25 2.3 4.45 0.05 7.6 0.05" fill="url(#gradient0)" fill-rule="evenodd" stroke="none"/>
      <path d="M34.9 8.85 Q40.1 14.1 40.1 21.45 40.1 28.85 34.9 34.15 29.7 39.35 22.3 39.35 14.85 39.35 9.65 34.15 4.45 28.85 4.45 21.45 4.45 14.1 9.65 8.85 14.95 3.6 22.3 3.6 29.7 3.6 34.9 8.85" fill="url(#gradient1)" fill-rule="evenodd" stroke="none"/>
      <path d="M21.85 5.45 Q14.95 5.5 10.1 10.4 5.2 15.2 5.15 22.1 5.2 29.05 10.1 33.9 14.95 38.8 21.85 38.8 28.75 38.8 33.7 33.9 38.5 29.05 38.5 22.1 38.5 15.2 33.7 10.4 28.75 5.5 21.85 5.45 M40.85 22.1 Q40.85 29.95 35.25 35.5 29.75 41.15 21.85 41.15 13.9 41.15 8.4 35.5 2.85 29.95 2.85 22.1 2.85 14.15 8.4 8.65 13.9 3.05 21.85 3.05 29.75 3.05 35.25 8.65 40.85 14.15 40.85 22.1" fill="url(#gradient2)" fill-rule="evenodd" stroke="none"/>
      <path d="M0.95 36.2 L0.9 35.8 Q0.9 34.8 1.6 34.1 2.35 33.4 3.3 33.4 4.25 33.4 4.95 34.1 5.65 34.8 5.65 35.8 L5.65 36.1 Q3.15 33.25 0.95 36.2" fill="#494136" fill-rule="evenodd" stroke="none"/>
      <path d="M5.65 36.1 Q5.55 36.85 4.95 37.45 4.25 38.15 3.3 38.15 2.35 38.15 1.6 37.45 1.05 36.85 0.95 36.2 3.15 33.25 5.65 36.1" fill="#625748" fill-rule="evenodd" stroke="none"/>
      <path d="M6.0 38.05 L5.95 37.8 Q5.95 37.2 6.4 36.75 6.8 36.35 7.4 36.35 8.0 36.35 8.4 36.75 8.85 37.2 8.85 37.8 L8.85 38.0 6.0 38.05" fill="#494136" fill-rule="evenodd" stroke="none"/>
      <path d="M8.85 38.0 L8.4 38.8 Q8.0 39.2 7.4 39.2 6.8 39.2 6.4 38.8 L6.0 38.05 8.85 38.0" fill="#625748" fill-rule="evenodd" stroke="none"/>
      <path d="M3.0 40.95 L2.95 40.7 Q2.95 40.1 3.4 39.65 3.8 39.25 4.4 39.25 5.0 39.25 5.4 39.65 5.85 40.1 5.85 40.7 L5.85 40.9 3.0 40.95" fill="#494136" fill-rule="evenodd" stroke="none"/>
      <path d="M5.85 40.9 L5.4 41.7 Q5.0 42.1 4.4 42.1 3.8 42.1 3.4 41.7 3.05 41.35 3.0 40.95 L5.85 40.9" fill="#625748" fill-rule="evenodd" stroke="none"/>
      <path d="M7.7 41.6 L7.7 41.45 Q7.7 41.0 8.0 40.65 8.35 40.35 8.8 40.35 9.2 40.35 9.55 40.65 L9.9 41.45 9.9 41.6 Q8.7 40.25 7.7 41.6" fill="#494136" fill-rule="evenodd" stroke="none"/>
      <path d="M9.9 41.6 L9.55 42.2 Q9.2 42.55 8.8 42.55 8.35 42.55 8.0 42.2 L7.7 41.6 Q8.7 40.25 9.9 41.6" fill="#625748" fill-rule="evenodd" stroke="none"/>
      <path d="M34.35 13.15 L34.35 14.6 Q27.4 21.95 20.0 14.6 15.0 9.95 10.05 14.6 L10.15 13.05 Q15.1 8.4 20.1 13.05 27.4 20.35 34.35 13.15 M34.85 18.2 Q27.9 25.6 20.55 18.2 15.55 13.55 10.6 18.2 L10.65 16.65 Q15.6 12.0 20.6 16.65 27.9 23.95 34.85 16.8 L34.85 18.2 M10.05 31.0 L10.15 29.45 Q15.1 24.75 20.1 29.45 27.4 36.75 34.35 29.55 L34.35 31.0 Q27.4 38.35 20.0 31.0 15.0 26.35 10.05 31.0 M19.5 27.35 Q14.5 22.7 9.55 27.35 L9.6 25.8 Q14.55 21.15 19.55 25.8 26.85 33.1 33.8 25.9 L33.8 27.35 Q26.85 34.7 19.5 27.35" fill="#4a3355" fill-rule="evenodd" stroke="none"/>
      <path d="M42.35 36.2 L42.4 35.8 Q42.4 34.8 41.7 34.1 40.95 33.4 40.0 33.4 39.05 33.4 38.35 34.1 37.65 34.8 37.65 35.8 L37.65 36.1 Q40.15 33.25 42.35 36.2" fill="#494136" fill-rule="evenodd" stroke="none"/>
      <path d="M37.65 36.1 Q37.75 36.85 38.35 37.45 39.05 38.15 40.0 38.15 40.95 38.15 41.7 37.45 L42.35 36.2 Q40.15 33.25 37.65 36.1" fill="#625748" fill-rule="evenodd" stroke="none"/>
      <path d="M37.3 38.05 L37.35 37.8 Q37.35 37.2 36.9 36.75 36.5 36.35 35.9 36.35 35.3 36.35 34.9 36.75 34.45 37.2 34.45 37.8 L34.45 38.0 37.3 38.05" fill="#494136" fill-rule="evenodd" stroke="none"/>
      <path d="M34.45 38.0 L34.9 38.8 Q35.3 39.2 35.9 39.2 36.5 39.2 36.9 38.8 L37.3 38.05 34.45 38.0" fill="#625748" fill-rule="evenodd" stroke="none"/>
      <path d="M40.3 40.95 L40.35 40.7 Q40.35 40.1 39.9 39.65 39.5 39.25 38.9 39.25 38.3 39.25 37.9 39.65 37.45 40.1 37.45 40.7 L37.45 40.9 40.3 40.95" fill="#494136" fill-rule="evenodd" stroke="none"/>
      <path d="M37.45 40.9 L37.9 41.7 Q38.3 42.1 38.9 42.1 39.5 42.1 39.9 41.7 L40.3 40.95 37.45 40.9" fill="#625748" fill-rule="evenodd" stroke="none"/>
      <path d="M35.6 41.6 L35.6 41.45 35.3 40.65 Q34.95 40.35 34.5 40.35 34.1 40.35 33.75 40.65 33.4 41.0 33.4 41.45 L33.4 41.6 Q34.6 40.25 35.6 41.6" fill="#494136" fill-rule="evenodd" stroke="none"/>
      <path d="M33.4 41.6 L33.75 42.2 Q34.1 42.55 34.5 42.55 34.95 42.55 35.3 42.2 L35.6 41.6 Q34.6 40.25 33.4 41.6" fill="#625748" fill-rule="evenodd" stroke="none"/>
    </g>
    <linearGradient gradientTransform="matrix(0.0, -0.0551, -0.0551, 0.0, 22.05, 18.5)" gradientUnits="userSpaceOnUse" id="gradient0" spreadMethod="pad" x1="-819.2" x2="819.2">
      <stop offset="0.011764705882352941" stop-color="#bcb0a0"/>
      <stop offset="1.0" stop-color="#453e3a"/>
    </linearGradient>
    <linearGradient gradientTransform="matrix(0.0, -0.0167, -0.0167, 0.0, 22.3, 18.1)" gradientUnits="userSpaceOnUse" id="gradient1" spreadMethod="pad" x1="-819.2" x2="819.2">
      <stop offset="0.011764705882352941" stop-color="#bcb9ae"/>
      <stop offset="1.0" stop-color="#9b5b79"/>
    </linearGradient>
    <linearGradient gradientTransform="matrix(1.0E-4, 0.0223, -0.0232, 1.0E-4, 21.9, 22.4)" gradientUnits="userSpaceOnUse" id="gradient2" spreadMethod="pad" x1="-819.2" x2="819.2">
      <stop offset="0.011764705882352941" stop-color="#494136"/>
      <stop offset="1.0" stop-color="#dbccbd"/>
    </linearGradient>
    <g id="sprite1" transform="matrix(1.0, 0.0, 0.0, 1.0, 0.0, 0.0)">
      <use height="20.15" transform="matrix(1.0, 0.0, 0.0, 1.0, 0.0, 0.0)" width="28.2" xlink:href="#shape1"/>
    </g>
    <g id="shape1" transform="matrix(1.0, 0.0, 0.0, 1.0, 0.0, 0.0)">
      <path d="M27.65 18.45 L27.4 18.95 Q26.2 20.8 23.4 19.8 19.6 18.5 17.35 14.05 14.8 9.1 9.75 7.4 4.1 5.65 0.0 10.3 1.0 6.85 3.7 4.15 7.2 0.65 11.9 0.05 L14.8 0.05 18.4 0.65 Q21.55 1.65 24.05 4.15 28.2 8.3 28.2 14.25 28.2 16.45 27.65 18.45" fill="#ffffff" fill-opacity="0.19607843" fill-rule="evenodd" stroke="none"/>
    </g>
    <g id="sprite2" transform="matrix(1.0, 0.0, 0.0, 1.0, 0.2, 0.0)">
      <use height="8.6" transform="matrix(1.0, 0.0, 0.0, 1.0, -0.2, 0.0)" width="35.05" xlink:href="#shape2"/>
    </g>
    <g id="shape2" transform="matrix(1.0, 0.0, 0.0, 1.0, 0.2, 0.0)">
      <path d="M34.4 4.4 Q34.85 5.8 34.85 7.65 L34.85 8.6 Q34.8 6.95 34.4 5.7 33.0 1.3 27.2 1.3 L7.45 1.3 Q0.05 1.3 -0.2 8.5 L-0.2 7.65 Q-0.2 0.0 7.45 0.0 L27.2 0.0 Q33.0 0.0 34.4 4.4" fill="#e7deda" fill-rule="evenodd" stroke="none"/>
    </g>
  </defs>
</svg>
