<?xml version="1.0" encoding="UTF-8" standalone="no"?>
<svg xmlns:xlink="http://www.w3.org/1999/xlink" height="44.0px" width="44.0px" xmlns="http://www.w3.org/2000/svg">
  <g transform="matrix(1.0, 0.0, 0.0, 1.0, 0.0, 0.0)">
    <use height="43.55" transform="matrix(1.0, 0.0, 0.0, 1.0, 0.2, 0.0)" width="43.65" xlink:href="#shape0"/>
    <use height="20.15" transform="matrix(1.1594, 0.0, 0.0, 1.1605, 6.2, 4.95)" width="28.2" xlink:href="#sprite0"/>
    <use height="41.2" transform="matrix(1.0, 0.0, 0.0, 1.0, 0.0, 3.3)" width="44.0" xlink:href="#shape2"/>
    <use height="8.6" transform="matrix(1.2077, 0.0, 0.0, 1.2066, 0.8085, 1.05)" width="35.05" xlink:href="#sprite1"/>
  </g>
  <defs>
    <g id="shape0" transform="matrix(1.0, 0.0, 0.0, 1.0, -0.2, 0.0)">
      <path d="M2.4 2.2 Q4.6 0.0 7.75 0.0 L36.25 0.0 Q39.45 0.0 41.65 2.2 43.85 4.4 43.85 7.5 L43.85 36.05 Q43.85 39.15 41.65 41.35 39.45 43.55 36.25 43.55 L7.75 43.55 Q4.6 43.55 2.4 41.35 0.2 39.15 0.2 36.05 L0.2 7.5 Q0.2 4.4 2.4 2.2" fill="url(#gradient0)" fill-rule="evenodd" stroke="none"/>
      <path d="M34.45 9.7 Q39.6 14.85 39.6 22.15 39.6 29.45 34.45 34.55 29.3 39.7 22.0 39.7 14.75 39.7 9.65 34.55 4.45 29.45 4.45 22.15 4.45 14.85 9.65 9.7 14.75 4.6 22.0 4.6 29.3 4.6 34.45 9.7" fill="url(#gradient1)" fill-rule="evenodd" stroke="none"/>
      <path d="M20.75 15.3 L21.8 20.15 28.65 20.25 Q30.8 19.95 30.4 18.5 L30.05 17.9 29.3 17.5 Q29.05 17.5 29.05 17.7 L29.3 18.1 Q29.3 18.4 28.65 18.4 L27.9 18.1 Q27.6 17.75 27.6 17.3 27.6 16.5 29.0 16.5 29.85 16.5 30.55 17.1 31.2 17.7 31.2 18.45 31.2 20.1 28.6 20.95 L23.8 22.0 23.7 28.8 Q23.95 30.95 25.4 30.55 L26.05 30.25 Q26.45 29.85 26.45 29.45 26.45 29.2 26.25 29.2 L25.85 29.45 Q25.5 29.45 25.5 28.8 25.5 28.35 25.85 28.05 26.2 27.75 26.65 27.75 27.45 27.75 27.45 29.15 27.45 30.05 26.85 30.7 26.25 31.35 25.45 31.35 23.85 31.35 23.0 28.75 L21.95 23.9 15.15 23.9 Q13.05 24.2 13.4 25.65 L13.75 26.25 Q14.15 26.65 14.55 26.65 L14.8 26.45 14.55 26.05 Q14.55 25.75 15.15 25.75 15.65 25.75 15.95 26.05 L16.25 26.85 Q16.25 27.65 14.8 27.65 13.95 27.65 13.3 27.05 12.65 26.45 12.65 25.7 12.65 24.05 15.2 23.2 L20.05 22.15 20.05 15.25 Q19.75 13.15 18.3 13.55 18.0 13.55 17.7 13.85 17.3 14.25 17.3 14.65 L17.5 14.9 17.85 14.65 Q18.2 14.65 18.2 15.25 18.2 15.75 17.85 16.05 L17.1 16.35 Q16.3 16.35 16.3 14.95 16.3 14.05 16.9 13.4 17.5 12.75 18.25 12.75 19.9 12.75 20.75 15.3 M28.05 11.05 Q28.05 11.6 27.2 11.9 26.4 12.3 25.75 13.35 24.4 15.7 24.3 16.9 L24.15 18.8 Q23.45 12.8 26.55 10.55 27.65 9.75 28.05 11.05 M33.4 13.9 L33.1 13.75 31.5 13.5 Q29.35 13.55 27.25 15.3 26.1 16.25 25.5 17.35 L25.4 17.3 Q26.1 15.7 27.5 14.4 29.65 12.4 31.8 12.3 L34.2 12.7 Q35.55 13.2 35.55 14.4 35.6 16.0 34.0 16.05 32.8 16.1 32.8 14.95 32.75 14.15 33.4 13.9 M16.0 10.25 Q16.0 11.45 14.85 11.45 14.0 11.45 13.8 10.8 L13.65 11.05 Q13.35 11.75 13.35 12.65 13.35 14.85 15.05 17.0 15.95 18.15 17.0 18.8 L16.95 18.9 Q15.35 18.15 14.1 16.7 12.2 14.5 12.2 12.35 12.2 10.9 12.6 9.9 13.2 8.65 14.35 8.65 16.0 8.65 16.0 10.25 M13.05 18.45 Q15.3 19.85 16.55 20.0 L18.4 20.2 Q12.4 20.7 10.25 17.55 9.45 16.45 10.8 16.05 11.3 16.1 11.65 16.95 12.0 17.75 13.05 18.45 M10.0 27.75 Q11.2 27.7 11.2 28.85 11.25 29.65 10.6 29.9 L10.9 30.05 12.5 30.3 Q14.65 30.25 16.75 28.5 17.9 27.55 18.5 26.45 L18.6 26.5 Q17.9 28.1 16.5 29.4 14.35 31.4 12.2 31.5 L9.8 31.1 Q8.45 30.6 8.45 29.4 8.4 27.8 10.0 27.75 M16.8 31.9 L18.25 30.45 Q19.6 28.1 19.7 26.9 L19.85 25.0 Q20.55 31.0 17.45 33.25 16.35 34.05 15.95 32.75 15.95 32.2 16.8 31.9 M30.6 25.8 Q28.35 24.4 27.1 24.25 L25.25 24.05 Q31.25 23.55 33.4 26.7 34.2 27.8 32.85 28.2 32.35 28.15 32.0 27.3 31.65 26.5 30.6 25.8 M26.7 25.35 Q28.3 26.1 29.55 27.55 31.45 29.75 31.45 31.9 31.45 33.35 31.05 34.35 30.45 35.6 29.3 35.6 27.65 35.6 27.65 34.0 27.65 32.8 28.8 32.8 29.65 32.8 29.85 33.45 L30.0 33.2 30.3 31.6 Q30.3 29.4 28.6 27.25 27.7 26.1 26.65 25.45 L26.7 25.35" fill="#92300b" fill-rule="evenodd" stroke="none"/>
    </g>
    <linearGradient gradientTransform="matrix(0.0, -0.0546, -0.0546, 0.0, 22.0, 18.15)" gradientUnits="userSpaceOnUse" id="gradient0" spreadMethod="pad" x1="-819.2" x2="819.2">
      <stop offset="0.011764705882352941" stop-color="#bf809f"/>
      <stop offset="1.0" stop-color="#543c7c"/>
    </linearGradient>
    <linearGradient gradientTransform="matrix(0.0, -0.0164, -0.0164, 0.0, 22.0, 18.75)" gradientUnits="userSpaceOnUse" id="gradient1" spreadMethod="pad" x1="-819.2" x2="819.2">
      <stop offset="0.011764705882352941" stop-color="#f9cfb3"/>
      <stop offset="1.0" stop-color="#ff5b79"/>
    </linearGradient>
    <g id="sprite0" transform="matrix(1.0, 0.0, 0.0, 1.0, 0.0, 0.0)">
      <use height="20.15" transform="matrix(1.0, 0.0, 0.0, 1.0, 0.0, 0.0)" width="28.2" xlink:href="#shape1"/>
    </g>
    <g id="shape1" transform="matrix(1.0, 0.0, 0.0, 1.0, 0.0, 0.0)">
      <path d="M27.65 18.45 L27.4 18.95 Q26.2 20.8 23.4 19.8 19.6 18.5 17.35 14.05 14.8 9.1 9.75 7.4 4.1 5.65 0.0 10.3 1.0 6.85 3.7 4.15 7.2 0.65 11.9 0.05 L14.8 0.05 18.4 0.65 Q21.55 1.65 24.05 4.15 28.2 8.3 28.2 14.25 28.2 16.45 27.65 18.45" fill="#ffffff" fill-opacity="0.19607843" fill-rule="evenodd" stroke="none"/>
    </g>
    <g id="shape2" transform="matrix(1.0, 0.0, 0.0, 1.0, 0.0, -3.3)">
      <path d="M43.9 20.85 L44.0 20.75 43.8 24.85 Q43.8 26.9 40.2 35.05 L40.05 34.85 42.0 30.2 Q43.8 25.7 43.8 24.3 L43.9 20.85 M42.7 38.9 L42.7 39.55 37.45 35.05 37.75 35.05 37.95 34.8 42.7 38.9 M28.75 43.55 L36.7 43.15 37.45 42.4 38.0 42.4 36.7 43.75 Q34.95 44.65 26.9 43.95 L27.05 43.8 27.85 43.55 28.05 43.65 28.75 43.55 M34.35 42.2 L33.95 42.2 36.9 37.9 37.65 38.35 38.0 38.6 38.9 39.4 39.15 39.85 39.45 40.45 39.65 40.95 39.65 41.8 Q39.6 40.9 38.9 40.0 38.0 39.0 36.9 38.45 L34.35 42.2 M39.75 43.25 Q41.5 42.2 42.2 40.9 L42.45 40.9 Q41.8 42.85 38.9 44.5 L39.35 43.6 39.75 43.4 39.75 43.25 M6.5 35.05 L1.25 39.55 1.25 38.9 6.0 34.8 6.25 35.05 6.5 35.05 M3.75 35.05 Q0.15 26.9 0.15 24.85 L0.0 20.75 0.05 20.85 0.15 24.3 Q0.15 25.7 1.95 30.2 L3.9 34.85 3.75 35.05 M1.75 40.9 Q2.45 42.2 4.2 43.25 L4.2 43.4 4.6 43.6 5.05 44.5 Q2.2 42.85 1.5 40.9 L1.75 40.9 M6.3 38.35 L7.05 37.9 10.0 42.2 9.6 42.2 7.05 38.45 Q5.95 39.0 5.05 40.0 4.4 40.9 4.3 41.8 L4.3 40.95 4.5 40.45 4.8 39.85 5.05 39.4 5.95 38.6 6.3 38.35 M6.5 42.4 L7.25 43.15 15.2 43.55 15.9 43.65 16.15 43.55 16.9 43.8 17.05 43.95 Q9.0 44.65 7.25 43.75 L5.95 42.4 6.5 42.4" fill="#0b000a" fill-rule="evenodd" stroke="none"/>
      <path d="M37.45 35.05 L37.4 34.95 37.3 34.85 37.25 34.3 37.65 34.2 37.3 34.3 37.55 34.5 37.6 34.5 37.95 34.8 37.75 35.05 37.45 35.05 M27.25 43.2 L27.15 43.2 27.2 43.15 27.25 43.2 M26.9 43.3 L27.2 43.4 28.75 43.55 28.05 43.65 27.85 43.55 27.05 43.8 26.9 43.95 26.9 43.3 M37.45 42.4 L38.05 41.75 38.25 41.9 38.25 42.35 38.0 42.4 37.45 42.4 M42.2 40.9 L42.55 40.15 42.65 40.65 42.55 40.9 42.45 40.9 42.2 40.9 M6.3 34.2 L6.7 34.3 6.65 34.85 6.6 34.95 6.5 35.05 6.25 35.05 6.0 34.8 6.35 34.5 6.4 34.5 6.65 34.3 6.3 34.2 M1.45 40.15 L1.75 40.9 1.5 40.9 1.45 40.9 1.3 40.65 Q1.3 40.25 1.45 40.15 M5.9 41.75 L6.5 42.4 5.95 42.4 5.7 42.35 5.7 41.9 Q5.75 41.75 5.9 41.75 M15.2 43.55 L16.75 43.4 17.05 43.3 17.05 43.95 16.9 43.8 16.15 43.55 15.9 43.65 15.2 43.55 M16.85 43.2 L16.7 43.2 16.75 43.15 16.85 43.2" fill="#000000" fill-rule="evenodd" stroke="none"/>
      <path d="M40.2 35.05 L40.7 35.5 40.7 35.7 40.75 36.15 41.35 36.2 41.45 36.15 42.15 32.3 42.0 32.45 42.55 30.45 42.7 38.9 37.95 34.8 37.6 34.5 38.0 34.4 Q39.25 34.35 39.8 33.5 L40.95 31.45 Q42.15 29.1 42.55 27.15 L43.7 22.75 43.8 20.9 44.0 20.1 43.9 20.85 43.8 24.3 Q43.8 25.7 42.0 30.2 L40.05 34.85 40.2 35.05 M37.65 34.2 L38.15 34.1 37.3 34.3 37.65 34.2 M28.4 42.8 L29.2 42.85 Q31.9 42.85 34.65 39.15 L36.55 36.7 37.2 35.8 37.15 35.75 42.45 40.15 42.55 40.15 42.2 40.9 Q41.5 42.2 39.75 43.25 L39.85 41.8 Q39.85 40.9 39.5 39.95 39.0 38.3 37.85 38.3 L37.65 38.35 36.9 37.9 33.95 42.2 34.35 42.2 35.0 42.2 38.25 41.55 38.05 41.75 37.45 42.4 36.7 43.15 28.75 43.55 27.2 43.4 26.9 43.3 26.85 43.3 27.15 43.2 27.25 43.2 28.4 42.8 M0.05 20.85 L0.0 20.1 0.15 20.9 0.25 22.75 1.45 27.15 Q1.85 29.1 3.0 31.45 L4.15 33.5 Q4.75 34.35 5.95 34.4 L6.35 34.5 6.0 34.8 1.25 38.9 1.45 30.45 1.95 32.45 1.85 32.3 2.55 36.15 2.6 36.2 3.2 36.15 3.3 35.7 3.3 35.5 3.75 35.05 3.9 34.85 1.95 30.2 Q0.15 25.7 0.15 24.3 L0.05 20.85 M5.85 34.1 L6.3 34.2 6.65 34.3 5.85 34.1 M6.8 35.75 L6.75 35.8 7.4 36.7 9.3 39.15 Q12.1 42.85 14.75 42.85 L15.55 42.8 15.4 42.75 16.7 43.2 16.85 43.2 17.1 43.3 17.05 43.3 16.75 43.4 15.2 43.55 7.25 43.15 6.5 42.4 5.9 41.75 5.7 41.55 8.95 42.2 9.6 42.2 10.0 42.2 7.05 37.9 6.3 38.35 6.1 38.3 Q4.95 38.3 4.45 39.95 4.1 40.9 4.1 41.8 L4.2 43.25 Q2.45 42.2 1.75 40.9 L1.45 40.15 1.5 40.15 6.8 35.75" fill="#4a3355" fill-rule="evenodd" stroke="none"/>
      <path d="M40.7 35.5 L41.2 36.05 42.0 32.55 42.0 32.45 42.15 32.3 41.45 36.15 41.35 36.2 40.75 36.15 40.7 35.7 40.7 35.5 M38.15 34.1 L38.95 34.0 Q40.95 31.9 42.7 25.8 L43.8 20.85 43.8 20.9 43.7 22.75 42.55 27.15 Q42.15 29.1 40.95 31.45 L39.8 33.5 Q39.25 34.35 38.0 34.4 L37.6 34.5 37.55 34.5 37.3 34.3 38.15 34.1 M37.15 35.75 L37.2 35.8 36.55 36.7 34.65 39.15 Q31.9 42.85 29.2 42.85 L28.4 42.8 28.6 42.75 28.85 42.65 29.85 42.3 30.9 41.95 Q32.55 41.4 35.0 38.5 L37.15 35.75 M37.65 38.35 L37.85 38.3 Q39.0 38.3 39.5 39.95 39.85 40.9 39.85 41.8 L39.75 43.25 39.75 43.4 39.35 43.6 38.9 43.8 38.95 43.65 39.4 42.75 39.5 42.45 39.6 42.1 39.6 42.05 39.6 42.0 39.65 41.8 39.65 40.95 39.45 40.45 39.15 39.85 38.9 39.4 38.0 38.6 37.65 38.35 M0.15 20.9 L0.15 20.85 1.25 25.8 Q3.0 31.9 5.0 34.0 L5.85 34.1 6.65 34.3 6.4 34.5 6.35 34.5 5.95 34.4 Q4.75 34.35 4.15 33.5 L3.0 31.45 Q1.85 29.1 1.45 27.15 L0.25 22.75 0.15 20.9 M1.95 32.45 L1.95 32.55 2.75 36.05 3.3 35.5 3.3 35.7 3.2 36.15 2.6 36.2 2.55 36.15 1.85 32.3 1.95 32.45 M15.4 42.75 L15.55 42.8 14.75 42.85 Q12.1 42.85 9.3 39.15 L7.4 36.7 6.75 35.8 6.8 35.75 8.95 38.5 Q11.4 41.4 13.05 41.95 L14.1 42.3 15.1 42.65 15.4 42.75 M4.2 43.25 L4.1 41.8 Q4.1 40.9 4.45 39.95 4.95 38.3 6.1 38.3 L6.3 38.35 5.95 38.6 5.05 39.4 4.8 39.85 4.5 40.45 4.3 40.95 4.3 41.8 4.4 42.0 4.4 42.05 4.4 42.1 4.45 42.45 4.55 42.75 5.0 43.65 5.05 43.8 4.6 43.6 4.2 43.4 4.2 43.25" fill="#c8a6c1" fill-rule="evenodd" stroke="none"/>
      <path d="M33.9 10.6 Q28.95 5.75 22.05 5.7 15.2 5.75 10.3 10.6 5.45 15.4 5.4 22.3 5.45 29.25 10.3 34.1 15.2 38.95 22.05 38.95 28.95 38.95 33.9 34.1 38.7 29.25 38.7 22.3 38.7 15.4 33.9 10.6 M41.05 22.3 Q41.05 30.15 35.45 35.65 29.95 41.35 22.05 41.35 14.15 41.35 8.65 35.65 3.1 30.15 3.1 22.3 3.1 14.35 8.65 8.85 14.15 3.3 22.05 3.3 29.95 3.3 35.45 8.85 41.05 14.35 41.05 22.3" fill="url(#gradient2)" fill-rule="evenodd" stroke="none"/>
    </g>
    <linearGradient gradientTransform="matrix(0.0, 0.0226, -0.0232, 0.0, 22.05, 22.55)" gradientUnits="userSpaceOnUse" id="gradient2" spreadMethod="pad" x1="-819.2" x2="819.2">
      <stop offset="0.0" stop-color="#3d2945"/>
      <stop offset="1.0" stop-color="#cabad6"/>
    </linearGradient>
    <g id="sprite1" transform="matrix(1.0, 0.0, 0.0, 1.0, 0.2, 0.0)">
      <use height="8.6" transform="matrix(1.0, 0.0, 0.0, 1.0, -0.2, 0.0)" width="35.05" xlink:href="#shape3"/>
    </g>
    <g id="shape3" transform="matrix(1.0, 0.0, 0.0, 1.0, 0.2, 0.0)">
      <path d="M34.4 4.4 Q34.85 5.8 34.85 7.65 L34.85 8.6 Q34.8 6.95 34.4 5.7 33.0 1.3 27.2 1.3 L7.45 1.3 Q0.05 1.3 -0.2 8.5 L-0.2 7.65 Q-0.2 0.0 7.45 0.0 L27.2 0.0 Q33.0 0.0 34.4 4.4" fill="#e7deda" fill-rule="evenodd" stroke="none"/>
    </g>
  </defs>
</svg>
