<?xml version="1.0" encoding="UTF-8" standalone="no"?>
<svg xmlns:xlink="http://www.w3.org/1999/xlink" height="44.0px" width="44.0px" xmlns="http://www.w3.org/2000/svg">
  <g transform="matrix(1.0, 0.0, 0.0, 1.0, 0.0, 0.0)">
    <use height="44.0" transform="matrix(1.0, 0.0, 0.0, 1.0, 0.0, 0.0)" width="44.0" xlink:href="#shape0"/>
    <use height="0.0" transform="matrix(1.2125, 0.0, 0.0, 1.2125, 1.0, 0.95)" width="0.0" xlink:href="#sprite0"/>
    <use height="20.8" transform="matrix(1.0, 0.0, 0.0, 1.0, 0.7, 23.15)" width="42.65" xlink:href="#shape1"/>
    <use height="8.6" transform="matrix(1.2077, 0.0, 0.0, 1.2066, 0.7085, 0.7)" width="35.05" xlink:href="#sprite1"/>
    <use height="20.15" transform="matrix(1.1594, 0.0, 0.0, 1.1605, 5.75, 5.3)" width="28.2" xlink:href="#sprite2"/>
  </g>
  <defs>
    <g id="shape0" transform="matrix(1.0, 0.0, 0.0, 1.0, 0.0, 0.0)">
      <path d="M41.8 2.25 Q44.0 4.45 44.0 7.6 L44.0 36.4 Q44.0 39.6 41.8 41.8 39.6 44.0 36.4 44.0 L7.6 44.0 Q4.45 44.0 2.25 41.8 0.0 39.6 0.0 36.4 L0.0 7.6 Q0.0 4.45 2.25 2.25 4.45 0.0 7.6 0.0 L36.4 0.0 Q39.55 0.0 41.8 2.25" fill="url(#gradient0)" fill-rule="evenodd" stroke="none"/>
      <path d="M8.85 8.95 Q14.3 3.5 22.05 3.5 29.75 3.5 35.2 8.95 40.6 14.4 40.6 22.05 40.6 29.75 35.2 35.2 29.75 40.6 22.05 40.6 14.3 40.6 8.85 35.2 3.4 29.75 3.4 22.05 3.4 14.3 8.85 8.95" fill="url(#gradient1)" fill-rule="evenodd" stroke="none"/>
      <path d="M40.85 22.05 Q40.85 29.9 35.25 35.4 29.75 41.1 21.85 41.1 13.9 41.1 8.4 35.4 2.85 29.9 2.85 22.05 2.85 14.1 8.4 8.6 13.9 3.0 21.85 3.0 29.75 3.0 35.25 8.6 40.85 14.1 40.85 22.05 M33.7 10.3 Q28.75 5.45 21.85 5.4 14.95 5.45 10.1 10.3 5.2 15.15 5.15 22.05 5.2 29.0 10.1 33.85 14.95 38.75 21.85 38.75 28.75 38.75 33.7 33.85 38.5 29.0 38.5 22.05 38.5 15.15 33.7 10.3" fill="url(#gradient2)" fill-rule="evenodd" stroke="none"/>
      <path d="M8.05 19.05 L8.05 19.0 Q7.9 14.3 10.4 13.3 12.7 12.2 15.35 12.35 16.65 12.4 19.1 13.65 L20.9 15.1 Q21.7 14.2 22.75 13.65 L22.8 13.65 Q25.2 12.4 26.5 12.35 L27.9 12.4 24.0 14.15 Q23.65 14.3 23.5 14.55 L23.3 14.65 Q22.25 15.2 21.55 16.1 L21.4 16.2 21.2 16.4 20.85 16.45 20.55 16.3 20.4 16.15 20.35 16.1 Q19.6 15.2 18.55 14.65 L18.6 14.65 Q16.4 13.5 15.3 13.45 12.9 13.35 10.85 14.3 9.05 15.15 9.15 19.0 9.2 22.5 12.4 25.9 L12.25 25.95 Q11.8 26.0 11.6 26.4 L11.45 26.55 Q8.1 22.9 8.05 19.05 M28.3 17.95 L20.9 25.35 19.8 28.65 18.85 27.75 17.7 32.25 16.65 31.15 14.6 36.55 13.6 31.1 8.15 30.0 13.6 28.1 12.45 27.0 17.0 25.85 16.05 24.9 19.35 23.8 26.75 16.4 24.4 15.15 33.7 11.0 29.5 20.2 28.3 17.95 M32.2 17.05 L32.95 15.5 Q33.65 17.4 33.6 21.0 33.6 27.15 22.1 33.65 L21.7 33.85 21.25 34.15 21.05 34.25 20.75 34.15 19.9 33.75 19.8 33.65 18.65 32.8 18.8 32.5 19.05 31.65 20.4 32.75 21.0 33.05 21.25 32.85 21.5 32.75 Q32.3 26.65 32.5 21.0 L32.2 17.05" fill="#496125" fill-rule="evenodd" stroke="none"/>
    </g>
    <linearGradient gradientTransform="matrix(0.0, -0.0283, -0.0551, 0.0, 22.6, 21.95)" gradientUnits="userSpaceOnUse" id="gradient0" spreadMethod="pad" x1="-819.2" x2="819.2">
      <stop offset="0.011764705882352941" stop-color="#9dae7c"/>
      <stop offset="1.0" stop-color="#7e8f45"/>
    </linearGradient>
    <linearGradient gradientTransform="matrix(0.0, -0.0173, -0.0173, 0.0, 22.05, 18.5)" gradientUnits="userSpaceOnUse" id="gradient1" spreadMethod="pad" x1="-819.2" x2="819.2">
      <stop offset="0.011764705882352941" stop-color="#d3d4b5"/>
      <stop offset="1.0" stop-color="#71a26f"/>
    </linearGradient>
    <linearGradient gradientTransform="matrix(1.0E-4, 0.0223, -0.0232, 1.0E-4, 21.9, 22.3)" gradientUnits="userSpaceOnUse" id="gradient2" spreadMethod="pad" x1="-819.2" x2="819.2">
      <stop offset="0.011764705882352941" stop-color="#516537"/>
      <stop offset="1.0" stop-color="#a8ce99"/>
    </linearGradient>
    <g id="shape1" transform="matrix(1.0, 0.0, 0.0, 1.0, -0.7, -23.15)">
      <path d="M2.4 33.35 L2.45 33.05 2.55 33.35 2.4 33.35" fill="#00632e" fill-rule="evenodd" stroke="none"/>
      <path d="M3.95 39.1 L3.9 38.95 4.05 38.85 4.1 39.05 3.95 39.1" fill="#ccbf38" fill-rule="evenodd" stroke="none"/>
      <path d="M2.55 33.35 L2.6 34.65 Q2.95 36.4 3.8 37.55 L3.9 36.95 Q4.6 34.95 7.3 34.4 L9.2 34.85 10.25 35.65 Q11.15 36.6 11.2 38.45 L10.0 36.65 Q8.5 35.1 7.0 36.05 5.55 36.95 5.6 38.7 L5.7 39.9 5.7 39.95 6.7 39.8 Q8.05 39.35 8.25 38.4 L8.2 37.55 Q9.15 38.85 7.9 39.85 6.85 40.75 5.75 40.55 4.9 40.4 4.3 39.65 L4.05 39.15 3.95 39.1 4.25 39.55 Q3.55 39.05 3.0 38.1 1.85 36.15 2.4 33.35 L2.55 33.35 M3.95 39.1 L4.1 39.05 4.05 38.85 3.9 38.95 3.95 39.1" fill="#c0d6b1" fill-rule="evenodd" stroke="none"/>
      <path d="M0.85 32.85 Q1.15 30.5 2.4 29.3 L2.8 27.65 Q2.95 26.6 2.7 25.55 L2.4 24.5 1.75 23.15 2.8 24.25 3.65 25.5 3.95 26.85 Q4.05 27.75 3.35 29.55 2.7 31.15 2.55 33.35 L2.45 33.05 2.4 33.35 Q1.85 36.15 3.0 38.1 3.55 39.05 4.25 39.55 L3.95 39.1 4.05 39.15 4.3 39.65 Q4.9 40.4 5.75 40.55 6.85 40.75 7.9 39.85 9.15 38.85 8.2 37.55 L8.25 38.4 Q8.05 39.35 6.7 39.8 L5.7 39.95 5.7 39.9 5.6 38.7 Q5.55 36.95 7.0 36.05 8.5 35.1 10.0 36.65 L11.2 38.45 Q11.15 36.6 10.25 35.65 L10.4 35.8 Q11.1 36.55 11.4 37.5 L11.35 37.5 11.5 37.9 11.8 38.75 11.85 39.9 Q10.45 42.8 8.65 42.8 9.95 42.6 10.05 41.4 7.15 42.65 3.7 40.95 1.2 39.0 0.85 32.85" fill="#9ec087" fill-rule="evenodd" stroke="none"/>
      <path d="M11.85 39.9 Q11.75 41.0 11.1 42.1 10.1 43.9 7.0 43.95 L4.1 43.7 5.6 43.2 7.8 42.95 6.55 43.05 Q4.4 43.0 2.85 41.5 0.95 39.45 0.75 35.35 0.65 33.95 0.85 32.85 1.2 39.0 3.7 40.95 7.15 42.65 10.05 41.4 9.95 42.6 8.65 42.8 10.45 42.8 11.85 39.9" fill="#648a4a" fill-rule="evenodd" stroke="none"/>
      <path d="M11.4 37.5 L11.5 37.9 11.35 37.5 11.4 37.5" fill="url(#gradient3)" fill-rule="evenodd" stroke="none"/>
      <path d="M41.65 33.35 L41.6 33.05 41.5 33.35 41.65 33.35" fill="#00632e" fill-rule="evenodd" stroke="none"/>
      <path d="M40.1 39.1 L40.15 38.95 40.0 38.85 39.95 39.05 40.1 39.1" fill="#ccbf38" fill-rule="evenodd" stroke="none"/>
      <path d="M41.5 33.35 L41.45 34.65 Q41.1 36.4 40.25 37.55 L40.15 36.95 Q39.45 34.95 36.75 34.4 L34.85 34.85 33.8 35.65 Q32.9 36.6 32.85 38.45 33.3 37.5 34.05 36.65 35.55 35.1 37.05 36.05 38.5 36.95 38.45 38.7 L38.35 39.9 38.35 39.95 37.35 39.8 Q36.0 39.35 35.8 38.4 L35.85 37.55 Q34.9 38.85 36.15 39.85 37.2 40.75 38.3 40.55 39.15 40.4 39.75 39.65 L40.0 39.15 40.1 39.1 39.8 39.55 41.05 38.1 Q42.2 36.15 41.65 33.35 L41.5 33.35 M40.1 39.1 L39.95 39.05 40.0 38.85 40.15 38.95 40.1 39.1" fill="#c0d6b1" fill-rule="evenodd" stroke="none"/>
      <path d="M43.2 32.85 Q42.9 30.5 41.65 29.3 L41.25 27.65 Q41.1 26.6 41.35 25.55 L41.65 24.5 42.3 23.15 41.25 24.25 40.4 25.5 40.1 26.85 Q40.0 27.75 40.7 29.55 41.35 31.15 41.5 33.35 L41.6 33.05 41.65 33.35 Q42.2 36.15 41.05 38.1 L39.8 39.55 40.1 39.1 40.0 39.15 39.75 39.65 Q39.15 40.4 38.3 40.55 37.2 40.75 36.15 39.85 34.9 38.85 35.85 37.55 L35.8 38.4 Q36.0 39.35 37.35 39.8 L38.35 39.95 38.35 39.9 38.45 38.7 Q38.5 36.95 37.05 36.05 35.55 35.1 34.05 36.65 33.3 37.5 32.85 38.45 32.9 36.6 33.8 35.65 L33.65 35.8 Q32.95 36.55 32.65 37.5 L32.7 37.5 32.55 37.9 32.25 38.75 Q32.15 39.35 32.2 39.9 33.6 42.8 35.4 42.8 34.1 42.6 34.0 41.4 36.9 42.65 40.35 40.95 42.85 39.0 43.2 32.85" fill="#9ec087" fill-rule="evenodd" stroke="none"/>
      <path d="M32.2 39.9 Q32.3 41.0 32.95 42.1 33.95 43.9 37.05 43.95 L39.95 43.7 38.45 43.2 36.25 42.95 37.5 43.05 Q39.65 43.0 41.2 41.5 43.1 39.45 43.3 35.35 L43.2 32.85 Q42.85 39.0 40.35 40.95 36.9 42.65 34.0 41.4 34.1 42.6 35.4 42.8 33.6 42.8 32.2 39.9" fill="#648a4a" fill-rule="evenodd" stroke="none"/>
      <path d="M32.65 37.5 L32.55 37.9 32.7 37.5 32.65 37.5" fill="url(#gradient4)" fill-rule="evenodd" stroke="none"/>
    </g>
    <linearGradient gradientTransform="matrix(0.0, -0.025, -0.025, 0.0, 6.1, 31.45)" gradientUnits="userSpaceOnUse" id="gradient3" spreadMethod="pad" x1="-819.2" x2="819.2">
      <stop offset="0.011764705882352941" stop-color="#bed9a5"/>
      <stop offset="1.0" stop-color="#739416"/>
    </linearGradient>
    <linearGradient gradientTransform="matrix(0.0, -0.025, 0.025, 0.0, 37.95, 31.45)" gradientUnits="userSpaceOnUse" id="gradient4" spreadMethod="pad" x1="-819.2" x2="819.2">
      <stop offset="0.011764705882352941" stop-color="#bed9a5"/>
      <stop offset="1.0" stop-color="#739416"/>
    </linearGradient>
    <g id="sprite1" transform="matrix(1.0, 0.0, 0.0, 1.0, 0.2, 0.0)">
      <use height="8.6" transform="matrix(1.0, 0.0, 0.0, 1.0, -0.2, 0.0)" width="35.05" xlink:href="#shape2"/>
    </g>
    <g id="shape2" transform="matrix(1.0, 0.0, 0.0, 1.0, 0.2, 0.0)">
      <path d="M34.4 4.4 Q34.85 5.8 34.85 7.65 L34.85 8.6 Q34.8 6.95 34.4 5.7 33.0 1.3 27.2 1.3 L7.45 1.3 Q0.05 1.3 -0.2 8.5 L-0.2 7.65 Q-0.2 0.0 7.45 0.0 L27.2 0.0 Q33.0 0.0 34.4 4.4" fill="#e7deda" fill-rule="evenodd" stroke="none"/>
    </g>
    <g id="sprite2" transform="matrix(1.0, 0.0, 0.0, 1.0, 0.0, 0.0)">
      <use height="20.15" transform="matrix(1.0, 0.0, 0.0, 1.0, 0.0, 0.0)" width="28.2" xlink:href="#shape3"/>
    </g>
    <g id="shape3" transform="matrix(1.0, 0.0, 0.0, 1.0, 0.0, 0.0)">
      <path d="M27.65 18.45 L27.4 18.95 Q26.2 20.8 23.4 19.8 19.6 18.5 17.35 14.05 14.8 9.1 9.75 7.4 4.1 5.65 0.0 10.3 1.0 6.85 3.7 4.15 7.2 0.65 11.9 0.05 L14.8 0.05 18.4 0.65 Q21.55 1.65 24.05 4.15 28.2 8.3 28.2 14.25 28.2 16.45 27.65 18.45" fill="#ffffff" fill-opacity="0.19607843" fill-rule="evenodd" stroke="none"/>
    </g>
  </defs>
</svg>
