<?xml version="1.0" encoding="UTF-8" standalone="no"?>
<svg xmlns:xlink="http://www.w3.org/1999/xlink" height="43.0px" width="43.0px" xmlns="http://www.w3.org/2000/svg">
  <g transform="matrix(1.0, 0.0, 0.0, 1.0, 0.0, 0.0)">
    <use height="37.1" transform="matrix(1.0, 0.0, 0.0, 1.0, 3.4, 3.5)" width="37.2" xlink:href="#shape0"/>
    <use height="0.0" transform="matrix(1.2125, 0.0, 0.0, 1.2125, 1.1, 0.9)" width="0.0" xlink:href="#sprite0"/>
    <use height="44.0" transform="matrix(1.0, 0.0, 0.0, 1.0, -0.15, -0.75)" width="44.0" xlink:href="#shape1"/>
    <use height="8.6" transform="matrix(1.2077, 0.0, 0.0, 1.2093, 0.3585, 0.0)" width="35.05" xlink:href="#sprite1"/>
    <use height="20.15" transform="matrix(1.1549, 0.0, 0.0, 1.1564, 6.15, 4.9)" width="28.2" xlink:href="#sprite2"/>
    <use height="39.85" transform="matrix(1.0, 0.0, 0.0, 1.0, 1.6, 3.35)" width="40.55" xlink:href="#shape4"/>
  </g>
  <defs>
    <g id="shape0" transform="matrix(1.0, 0.0, 0.0, 1.0, -3.4, -3.5)">
      <path d="M22.05 40.6 Q14.3 40.6 8.85 35.2 3.4 29.75 3.4 22.05 3.4 14.35 8.85 8.95 14.3 3.5 22.05 3.5 29.75 3.5 35.2 8.95 40.6 14.4 40.6 22.05 40.6 29.75 35.2 35.2 29.75 40.6 22.05 40.6" fill="url(#gradient0)" fill-rule="evenodd" stroke="none"/>
      <path d="M27.35 24.2 L27.1 23.55 26.5 22.9 27.05 22.3 27.35 21.7 27.05 21.1 26.5 20.85 Q26.1 20.85 25.8 21.1 L25.25 21.7 24.65 21.1 Q24.4 20.85 24.05 20.85 L23.4 21.0 Q23.1 21.25 23.1 21.7 L23.35 22.25 24.05 22.9 23.35 23.55 Q23.1 23.75 23.1 24.15 L23.35 24.75 24.05 25.0 24.6 24.75 25.25 24.15 25.8 24.7 Q26.05 25.0 26.4 25.0 L27.05 24.75 27.35 24.2 M30.9 12.75 L31.4 14.4 34.2 13.35 33.05 16.2 34.6 16.6 31.4 18.0 32.3 18.95 29.0 19.5 28.55 19.85 Q29.5 21.15 29.5 22.65 29.5 25.2 27.3 26.95 25.15 28.65 22.05 28.75 L21.95 28.75 21.85 28.75 21.7 28.75 21.65 28.75 Q18.6 28.65 16.45 26.95 14.2 25.2 14.2 22.65 14.2 21.15 15.15 19.85 L14.75 19.5 11.4 18.95 12.35 18.0 9.1 16.6 10.65 16.2 9.45 13.35 12.35 14.4 12.85 12.75 14.25 16.05 15.3 15.1 15.75 18.4 16.15 18.75 16.25 18.55 16.45 18.4 Q18.6 16.75 21.65 16.65 L21.7 16.65 21.85 16.65 21.95 16.65 22.05 16.65 Q25.15 16.75 27.3 18.4 L27.45 18.55 27.6 18.75 27.95 18.4 28.45 15.1 29.4 16.05 30.9 12.75 M20.35 23.55 L19.7 22.9 20.35 22.25 20.55 21.7 20.3 21.0 19.7 20.85 Q19.25 20.85 19.05 21.1 L18.45 21.7 17.9 21.1 17.25 20.85 Q16.85 20.85 16.7 21.1 16.4 21.35 16.4 21.7 16.4 22.05 16.7 22.3 L17.25 22.9 16.65 23.55 Q16.4 23.75 16.4 24.2 L16.7 24.75 17.3 25.0 17.9 24.7 18.45 24.15 19.15 24.75 19.7 25.0 20.35 24.75 20.55 24.15 20.35 23.55 M19.45 30.55 Q19.5 29.75 19.8 29.05 L20.1 29.15 20.2 29.15 21.6 29.3 21.7 29.3 21.85 29.3 21.9 29.3 22.0 29.3 23.55 29.1 23.85 29.05 24.3 30.55 19.45 30.55 24.3 30.55 24.3 30.95 Q24.3 32.3 23.55 33.25 22.8 34.25 21.85 34.25 20.85 34.25 20.1 33.25 19.45 32.3 19.45 30.95 L19.45 30.55 M23.55 31.05 L23.55 33.25 23.55 31.05 M20.1 31.05 L20.1 33.25 20.1 31.05" fill="#372d2d" fill-rule="evenodd" stroke="none"/>
      <path d="M24.3 30.55 L25.7 30.55 M19.45 30.55 L17.8 30.55 M19.45 30.55 L24.3 30.55 M23.55 33.25 L23.55 35.05 M20.1 33.25 L20.1 35.05 M20.1 33.25 L20.1 31.05 M23.55 33.25 L23.55 31.05" fill="none" stroke="#372d2d" stroke-linecap="round" stroke-linejoin="round" stroke-width="1.5"/>
    </g>
    <linearGradient gradientTransform="matrix(0.0, -0.0173, -0.0173, 0.0, 22.05, 18.5)" gradientUnits="userSpaceOnUse" id="gradient0" spreadMethod="pad" x1="-819.2" x2="819.2">
      <stop offset="0.011764705882352941" stop-color="#c4bebb"/>
      <stop offset="1.0" stop-color="#9f8a82"/>
    </linearGradient>
    <g id="shape1" transform="matrix(1.0, 0.0, 0.0, 1.0, 0.15, 0.75)">
      <path d="M34.05 9.05 Q29.0 3.95 21.85 3.95 14.65 3.95 9.6 9.05 4.5 14.05 4.5 21.3 4.5 28.45 9.6 33.55 14.65 38.65 21.85 38.65 29.05 38.65 34.05 33.55 39.1 28.45 39.1 21.3 39.1 14.05 34.05 9.05 M2.05 1.5 Q4.3 -0.75 7.4 -0.75 L36.2 -0.75 Q39.4 -0.75 41.6 1.5 43.85 3.8 43.85 6.9 L43.85 35.7 Q43.85 38.8 41.6 41.05 39.4 43.25 36.2 43.25 L7.4 43.25 Q4.3 43.25 2.05 41.05 -0.15 38.8 -0.15 35.7 L-0.15 6.9 Q-0.15 3.8 2.05 1.5" fill="url(#gradient1)" fill-rule="evenodd" stroke="none"/>
      <path d="M21.8 4.8 Q14.85 4.85 10.05 9.75 5.15 14.6 5.15 21.45 5.15 28.4 10.05 33.3 14.85 38.1 21.8 38.1 28.6 38.1 33.5 33.3 38.4 28.4 38.4 21.45 38.4 14.6 33.5 9.75 28.65 4.85 21.8 4.8 M8.25 8.05 Q13.85 2.45 21.8 2.45 29.65 2.45 35.15 8.05 40.75 13.6 40.75 21.45 40.75 29.4 35.15 34.95 29.65 40.5 21.8 40.5 13.85 40.5 8.25 34.95 2.7 29.4 2.7 21.45 2.7 13.6 8.25 8.05" fill="url(#gradient2)" fill-rule="evenodd" stroke="none"/>
    </g>
    <linearGradient gradientTransform="matrix(0.0, -0.0275, -0.044, 0.0, 20.75, 21.45)" gradientUnits="userSpaceOnUse" id="gradient1" spreadMethod="pad" x1="-819.2" x2="819.2">
      <stop offset="0.0196078431372549" stop-color="#905a3d"/>
      <stop offset="0.9764705882352941" stop-color="#6a412d"/>
    </linearGradient>
    <linearGradient gradientTransform="matrix(0.0, -0.0168, -0.0168, 0.0, 21.8, 26.1)" gradientUnits="userSpaceOnUse" id="gradient2" spreadMethod="pad" x1="-819.2" x2="819.2">
      <stop offset="0.0196078431372549" stop-color="#a3704d"/>
      <stop offset="0.9803921568627451" stop-color="#492d20"/>
    </linearGradient>
    <g id="sprite1" transform="matrix(1.0, 0.0, 0.0, 1.0, 0.2, 0.0)">
      <use height="8.6" transform="matrix(1.0, 0.0, 0.0, 1.0, -0.2, 0.0)" width="35.05" xlink:href="#shape2"/>
    </g>
    <g id="shape2" transform="matrix(1.0, 0.0, 0.0, 1.0, 0.2, 0.0)">
      <path d="M34.4 4.4 Q34.85 5.8 34.85 7.65 L34.85 8.6 Q34.8 6.95 34.4 5.7 33.0 1.3 27.2 1.3 L7.45 1.3 Q0.05 1.3 -0.2 8.5 L-0.2 7.65 Q-0.2 0.0 7.45 0.0 L27.2 0.0 Q33.0 0.0 34.4 4.4" fill="#e7deda" fill-rule="evenodd" stroke="none"/>
    </g>
    <g id="sprite2" transform="matrix(1.0, 0.0, 0.0, 1.0, 0.0, 0.0)">
      <use height="20.15" transform="matrix(1.0, 0.0, 0.0, 1.0, 0.0, 0.0)" width="28.2" xlink:href="#shape3"/>
    </g>
    <g id="shape3" transform="matrix(1.0, 0.0, 0.0, 1.0, 0.0, 0.0)">
      <path d="M27.65 18.45 L27.4 18.95 Q26.2 20.8 23.4 19.8 19.6 18.5 17.35 14.05 14.8 9.1 9.75 7.4 4.1 5.65 0.0 10.3 1.0 6.85 3.7 4.15 7.2 0.65 11.9 0.05 L14.8 0.05 18.4 0.65 Q21.55 1.65 24.05 4.15 28.2 8.3 28.2 14.25 28.2 16.45 27.65 18.45" fill="#ffffff" fill-opacity="0.19607843" fill-rule="evenodd" stroke="none"/>
    </g>
    <g id="shape4" transform="matrix(1.0, 0.0, 0.0, 1.0, -1.6, -3.35)">
      <path d="M16.1 39.75 Q12.65 38.75 9.4 37.1 10.7 33.85 13.05 33.3 13.8 36.95 16.1 39.75 M30.1 33.3 Q32.45 33.85 33.75 37.15 30.55 38.85 27.2 39.75 28.8 37.7 29.65 35.1 L30.1 33.3" fill="url(#gradient3)" fill-rule="evenodd" stroke="none"/>
      <path d="M13.05 33.3 Q14.55 36.35 17.75 37.75 L16.1 39.75 Q13.8 36.95 13.05 33.3 M27.2 39.75 L25.4 37.75 Q28.6 36.35 30.1 33.3 L29.65 35.1 Q28.8 37.7 27.2 39.75" fill="#6d4a34" fill-rule="evenodd" stroke="none"/>
      <path d="M30.9 5.1 L30.3 3.35 Q33.75 5.1 36.6 8.05 L36.65 8.15 Q35.85 12.2 32.05 13.45 32.1 10.2 31.35 6.7 L30.9 5.1 M11.6 13.45 Q7.8 12.2 7.0 8.25 L7.2 8.05 Q10.0 5.15 13.3 3.55 L13.0 4.55 Q11.45 9.15 11.6 13.45" fill="url(#gradient4)" fill-rule="evenodd" stroke="none"/>
      <path d="M32.05 13.45 Q31.55 9.05 28.95 6.3 L30.65 4.55 30.9 5.1 31.35 6.7 Q32.1 10.2 32.05 13.45 M11.6 13.45 Q11.45 9.15 13.0 4.55 L14.75 6.3 Q12.15 9.05 11.6 13.45" fill="#492d20" fill-rule="evenodd" stroke="none"/>
      <path d="M1.7 32.75 L1.7 35.45 Q1.7 36.45 2.25 37.1 2.8 37.7 3.65 37.7 4.45 37.7 5.1 37.1 5.65 36.45 5.65 35.45 L5.65 34.2 M42.05 32.75 L42.05 35.45 Q42.05 36.45 41.45 37.1 40.95 37.7 40.1 37.7 39.25 37.7 38.65 37.1 38.05 36.45 38.05 35.45 L38.05 34.2" fill="none" stroke="#6a402d" stroke-linecap="round" stroke-linejoin="round" stroke-width="0.25"/>
      <path d="M4.4 10.35 L3.85 9.6 Q3.6 8.75 3.6 7.55 3.6 6.3 3.85 5.45 L4.4 4.7 4.85 5.45 Q5.2 6.3 5.2 7.55 5.2 8.75 4.85 9.6 L4.4 10.35 M39.25 10.35 L38.8 9.6 Q38.45 8.75 38.45 7.55 38.45 6.3 38.8 5.45 L39.25 4.7 39.8 5.45 40.1 7.55 39.8 9.6 39.25 10.35" fill="#331d16" fill-rule="evenodd" stroke="none"/>
      <path d="M4.4 4.7 L3.85 5.45 Q3.6 6.3 3.6 7.55 3.6 8.75 3.85 9.6 L4.4 10.35 4.05 10.5 Q3.55 10.5 3.2 9.6 2.9 8.75 2.9 7.55 2.9 6.3 3.2 5.45 3.55 4.6 4.05 4.6 L4.4 4.7 M39.25 4.7 L39.6 4.6 Q40.15 4.6 40.5 5.45 L40.75 7.55 40.5 9.6 Q40.15 10.5 39.6 10.5 L39.25 10.35 39.8 9.6 40.1 7.55 39.8 5.45 39.25 4.7" fill="#1a0d09" fill-rule="evenodd" stroke="none"/>
      <path d="M4.4 10.35 L4.85 9.6 Q5.2 8.75 5.2 7.55 5.2 6.3 4.85 5.45 L4.4 4.7 4.05 4.6 Q3.55 4.6 3.2 5.45 2.9 6.3 2.9 7.55 2.9 8.75 3.2 9.6 3.55 10.5 4.05 10.5 L4.4 10.35 M39.25 10.35 L38.8 9.6 Q38.45 8.75 38.45 7.55 38.45 6.3 38.8 5.45 L39.25 4.7 39.6 4.6 Q40.15 4.6 40.5 5.45 L40.75 7.55 40.5 9.6 Q40.15 10.5 39.6 10.5 L39.25 10.35" fill="none" stroke="#6a402d" stroke-linecap="round" stroke-linejoin="round" stroke-width="0.05"/>
      <path d="M31.75 43.2 L11.95 43.2 Q12.7 42.85 14.35 42.45 L21.85 41.9 29.35 42.45 Q31.0 42.85 31.75 43.2" fill="#6c432e" fill-rule="evenodd" stroke="none"/>
    </g>
    <linearGradient gradientTransform="matrix(0.0, -0.0275, -0.044, 0.0, 20.75, 21.45)" gradientUnits="userSpaceOnUse" id="gradient3" spreadMethod="pad" x1="-819.2" x2="819.2">
      <stop offset="0.0196078431372549" stop-color="#905a3d"/>
      <stop offset="0.9764705882352941" stop-color="#6a412d"/>
    </linearGradient>
    <linearGradient gradientTransform="matrix(0.0, -0.0275, -0.044, 0.0, 20.75, 21.45)" gradientUnits="userSpaceOnUse" id="gradient4" spreadMethod="pad" x1="-819.2" x2="819.2">
      <stop offset="0.0196078431372549" stop-color="#905a3d"/>
      <stop offset="0.9764705882352941" stop-color="#6a412d"/>
    </linearGradient>
  </defs>
</svg>
