<?xml version="1.0" encoding="UTF-8" standalone="no"?>
<svg xmlns:xlink="http://www.w3.org/1999/xlink" height="44.0px" width="44.0px" xmlns="http://www.w3.org/2000/svg">
  <g transform="matrix(1.0, 0.0, 0.0, 1.0, 0.0, 0.0)">
    <use height="37.1" transform="matrix(1.0, 0.0, 0.0, 1.0, 3.05, 4.15)" width="37.2" xlink:href="#shape0"/>
    <use height="0.0" transform="matrix(1.2125, 0.0, 0.0, 1.2125, 0.95, 2.45)" width="0.0" xlink:href="#sprite0"/>
    <use height="44.0" transform="matrix(1.0, 0.0, 0.0, 1.0, 0.0, 0.05)" width="44.0" xlink:href="#shape1"/>
    <use height="8.6" transform="matrix(1.2077, 0.0, 0.0, 1.2093, 0.5085, 0.8)" width="35.05" xlink:href="#sprite1"/>
    <use height="20.15" transform="matrix(1.1549, 0.0, 0.0, 1.1564, 6.3, 5.7)" width="28.2" xlink:href="#sprite2"/>
    <use height="39.85" transform="matrix(1.0, 0.0, 0.0, 1.0, 1.75, 4.15)" width="40.55" xlink:href="#shape4"/>
  </g>
  <defs>
    <g id="shape0" transform="matrix(1.0, 0.0, 0.0, 1.0, -3.05, -4.15)">
      <path d="M21.7 41.25 Q13.95 41.25 8.5 35.85 3.05 30.4 3.05 22.7 3.05 15.0 8.5 9.6 13.95 4.15 21.7 4.15 29.4 4.15 34.85 9.6 40.25 15.05 40.25 22.7 40.25 30.4 34.85 35.85 29.4 41.25 21.7 41.25" fill="url(#gradient0)" fill-rule="evenodd" stroke="none"/>
      <path d="M36.75 32.65 L36.5 33.05 Q34.8 35.15 32.4 37.0 L30.65 38.5 28.9 39.4 Q27.95 39.95 26.8 40.35 24.5 41.15 21.95 41.15 L21.1 41.05 20.3 40.95 19.9 40.95 18.55 40.45 15.4 39.2 12.3 37.75 8.4 34.5 6.55 32.75 6.5 32.65 12.15 32.65 12.15 29.45 11.8 29.45 11.8 31.75 11.5 31.75 10.8 31.75 10.8 28.6 10.8 27.75 12.15 27.4 12.15 27.25 11.65 26.9 11.55 26.85 11.5 26.85 Q10.95 26.3 10.95 25.6 10.95 24.95 11.5 24.4 L11.55 24.4 Q12.15 23.9 12.7 23.9 L12.9 23.9 13.0 23.9 Q13.75 23.9 14.2 24.4 14.8 24.95 14.8 25.6 14.8 26.3 14.2 26.85 L13.8 27.2 13.7 27.25 13.7 27.4 15.05 27.75 15.05 28.6 15.05 31.75 14.3 31.75 13.95 31.75 13.95 29.45 13.7 29.45 13.7 32.65 18.65 32.65 Q19.95 30.05 20.15 25.85 19.85 22.95 16.55 21.1 L13.7 20.5 13.7 20.15 Q12.85 20.6 11.85 19.35 13.2 18.6 14.0 19.9 L16.6 20.5 20.25 22.95 17.65 19.65 17.65 17.5 15.85 16.0 13.7 15.9 Q14.75 14.9 15.75 15.7 L15.75 15.3 15.85 15.4 Q15.2 14.5 16.55 13.4 17.25 14.85 16.0 15.55 L18.35 17.4 18.35 19.3 18.55 19.55 Q18.45 18.65 19.8 18.1 20.1 19.6 18.9 19.95 L21.3 22.55 23.3 17.7 26.3 15.8 26.3 14.5 26.7 14.5 Q26.7 13.75 27.9 13.15 28.25 14.8 26.8 15.15 L26.8 16.1 23.9 18.2 22.55 23.7 25.35 21.8 28.35 23.0 27.9 23.55 25.45 22.45 23.15 24.7 Q22.75 29.0 24.65 32.25 L24.9 32.65 36.75 32.65 M13.55 22.05 Q14.0 20.5 15.4 20.95 15.3 22.2 13.55 22.05 M24.2 14.5 Q25.7 14.95 25.3 16.4 24.0 16.3 24.2 14.5 M29.3 21.45 Q28.75 22.95 27.4 22.55 27.45 21.25 29.3 21.45" fill="#372d2d" fill-rule="evenodd" stroke="none"/>
      <path d="M29.3 10.5 L28.25 11.8 M25.2 10.05 L26.0 8.4 M14.1 10.5 L15.15 11.8 M21.7 7.3 L21.7 9.4 M18.2 10.05 L17.4 8.4 M32.0 13.4 L30.8 14.55 M11.4 13.4 L12.6 14.55" fill="none" stroke="#372d2d" stroke-linecap="round" stroke-linejoin="round" stroke-width="1.0"/>
    </g>
    <linearGradient gradientTransform="matrix(0.0, -0.0173, -0.0173, 0.0, 21.7, 19.15)" gradientUnits="userSpaceOnUse" id="gradient0" spreadMethod="pad" x1="-819.2" x2="819.2">
      <stop offset="0.011764705882352941" stop-color="#c4bebb"/>
      <stop offset="1.0" stop-color="#9f8a82"/>
    </linearGradient>
    <g id="shape1" transform="matrix(1.0, 0.0, 0.0, 1.0, 0.0, -0.05)">
      <path d="M34.2 9.85 Q29.15 4.75 22.0 4.75 14.8 4.75 9.75 9.85 4.65 14.85 4.65 22.1 4.65 29.25 9.75 34.35 14.8 39.45 22.0 39.45 29.2 39.45 34.2 34.35 39.25 29.25 39.25 22.1 39.25 14.85 34.2 9.85 M2.2 2.3 Q4.45 0.05 7.55 0.05 L36.35 0.05 Q39.55 0.05 41.75 2.3 44.0 4.6 44.0 7.7 L44.0 36.5 Q44.0 39.6 41.75 41.85 39.55 44.05 36.35 44.05 L7.55 44.05 Q4.45 44.05 2.2 41.85 0.0 39.6 0.0 36.5 L0.0 7.7 Q0.0 4.6 2.2 2.3" fill="url(#gradient1)" fill-rule="evenodd" stroke="none"/>
      <path d="M21.95 5.6 Q15.0 5.65 10.2 10.55 5.3 15.4 5.3 22.25 5.3 29.2 10.2 34.1 15.0 38.9 21.95 38.9 28.75 38.9 33.65 34.1 38.55 29.2 38.55 22.25 38.55 15.4 33.65 10.55 28.8 5.65 21.95 5.6 M8.4 8.85 Q14.0 3.25 21.95 3.25 29.8 3.25 35.3 8.85 40.9 14.4 40.9 22.25 40.9 30.2 35.3 35.75 29.8 41.3 21.95 41.3 14.0 41.3 8.4 35.75 2.85 30.2 2.85 22.25 2.85 14.4 8.4 8.85" fill="url(#gradient2)" fill-rule="evenodd" stroke="none"/>
    </g>
    <linearGradient gradientTransform="matrix(0.0, -0.0275, -0.044, 0.0, 20.9, 22.25)" gradientUnits="userSpaceOnUse" id="gradient1" spreadMethod="pad" x1="-819.2" x2="819.2">
      <stop offset="0.0196078431372549" stop-color="#905a3d"/>
      <stop offset="0.9764705882352941" stop-color="#6a412d"/>
    </linearGradient>
    <linearGradient gradientTransform="matrix(0.0, -0.0168, -0.0168, 0.0, 21.95, 26.9)" gradientUnits="userSpaceOnUse" id="gradient2" spreadMethod="pad" x1="-819.2" x2="819.2">
      <stop offset="0.0196078431372549" stop-color="#a3704d"/>
      <stop offset="0.9803921568627451" stop-color="#492d20"/>
    </linearGradient>
    <g id="sprite1" transform="matrix(1.0, 0.0, 0.0, 1.0, 0.2, 0.0)">
      <use height="8.6" transform="matrix(1.0, 0.0, 0.0, 1.0, -0.2, 0.0)" width="35.05" xlink:href="#shape2"/>
    </g>
    <g id="shape2" transform="matrix(1.0, 0.0, 0.0, 1.0, 0.2, 0.0)">
      <path d="M34.4 4.4 Q34.85 5.8 34.85 7.65 L34.85 8.6 Q34.8 6.95 34.4 5.7 33.0 1.3 27.2 1.3 L7.45 1.3 Q0.05 1.3 -0.2 8.5 L-0.2 7.65 Q-0.2 0.0 7.45 0.0 L27.2 0.0 Q33.0 0.0 34.4 4.4" fill="#e7deda" fill-rule="evenodd" stroke="none"/>
    </g>
    <g id="sprite2" transform="matrix(1.0, 0.0, 0.0, 1.0, 0.0, 0.0)">
      <use height="20.15" transform="matrix(1.0, 0.0, 0.0, 1.0, 0.0, 0.0)" width="28.2" xlink:href="#shape3"/>
    </g>
    <g id="shape3" transform="matrix(1.0, 0.0, 0.0, 1.0, 0.0, 0.0)">
      <path d="M27.65 18.45 L27.4 18.95 Q26.2 20.8 23.4 19.8 19.6 18.5 17.35 14.05 14.8 9.1 9.75 7.4 4.1 5.65 0.0 10.3 1.0 6.85 3.7 4.15 7.2 0.65 11.9 0.05 L14.8 0.05 18.4 0.65 Q21.55 1.65 24.05 4.15 28.2 8.3 28.2 14.25 28.2 16.45 27.65 18.45" fill="#ffffff" fill-opacity="0.19607843" fill-rule="evenodd" stroke="none"/>
    </g>
    <g id="shape4" transform="matrix(1.0, 0.0, 0.0, 1.0, -1.75, -4.15)">
      <path d="M16.25 40.55 Q12.8 39.55 9.55 37.9 10.85 34.65 13.2 34.1 13.95 37.75 16.25 40.55 M30.25 34.1 Q32.6 34.65 33.9 37.95 30.7 39.65 27.35 40.55 28.95 38.5 29.8 35.9 L30.25 34.1" fill="url(#gradient3)" fill-rule="evenodd" stroke="none"/>
      <path d="M13.2 34.1 Q14.7 37.15 17.9 38.55 L16.25 40.55 Q13.95 37.75 13.2 34.1 M27.35 40.55 L25.55 38.55 Q28.75 37.15 30.25 34.1 L29.8 35.9 Q28.95 38.5 27.35 40.55" fill="#6d4a34" fill-rule="evenodd" stroke="none"/>
      <path d="M31.05 5.9 L30.45 4.15 Q33.9 5.9 36.75 8.85 L36.8 8.95 Q36.0 13.0 32.2 14.25 32.25 11.0 31.5 7.5 L31.05 5.9 M11.75 14.25 Q7.95 13.0 7.15 9.05 L7.35 8.85 Q10.15 5.95 13.45 4.35 L13.15 5.35 Q11.6 9.95 11.75 14.25" fill="url(#gradient4)" fill-rule="evenodd" stroke="none"/>
      <path d="M32.2 14.25 Q31.7 9.85 29.1 7.1 L30.8 5.35 31.05 5.9 31.5 7.5 Q32.25 11.0 32.2 14.25 M11.75 14.25 Q11.6 9.95 13.15 5.35 L14.9 7.1 Q12.3 9.85 11.75 14.25" fill="#492d20" fill-rule="evenodd" stroke="none"/>
      <path d="M1.85 33.55 L1.85 36.25 Q1.85 37.25 2.4 37.9 2.95 38.5 3.8 38.5 4.6 38.5 5.25 37.9 5.8 37.25 5.8 36.25 L5.8 35.0 M42.2 33.55 L42.2 36.25 Q42.2 37.25 41.6 37.9 41.1 38.5 40.25 38.5 39.4 38.5 38.8 37.9 38.2 37.25 38.2 36.25 L38.2 35.0" fill="none" stroke="#6a402d" stroke-linecap="round" stroke-linejoin="round" stroke-width="0.25"/>
      <path d="M4.55 11.15 L4.0 10.4 Q3.75 9.55 3.75 8.35 3.75 7.1 4.0 6.25 L4.55 5.5 5.0 6.25 Q5.35 7.1 5.35 8.35 5.35 9.55 5.0 10.4 L4.55 11.15 M39.4 11.15 L38.95 10.4 Q38.6 9.55 38.6 8.35 38.6 7.1 38.95 6.25 L39.4 5.5 39.95 6.25 40.25 8.35 39.95 10.4 39.4 11.15" fill="#331d16" fill-rule="evenodd" stroke="none"/>
      <path d="M4.55 5.5 L4.0 6.25 Q3.75 7.1 3.75 8.35 3.75 9.55 4.0 10.4 L4.55 11.15 4.2 11.3 Q3.7 11.3 3.35 10.4 3.05 9.55 3.05 8.35 3.05 7.1 3.35 6.25 3.7 5.4 4.2 5.4 L4.55 5.5 M39.4 5.5 L39.75 5.4 Q40.3 5.4 40.65 6.25 L40.9 8.35 40.65 10.4 Q40.3 11.3 39.75 11.3 L39.4 11.15 39.95 10.4 40.25 8.35 39.95 6.25 39.4 5.5" fill="#1a0d09" fill-rule="evenodd" stroke="none"/>
      <path d="M4.55 11.15 L5.0 10.4 Q5.35 9.55 5.35 8.35 5.35 7.1 5.0 6.25 L4.55 5.5 4.2 5.4 Q3.7 5.4 3.35 6.25 3.05 7.1 3.05 8.35 3.05 9.55 3.35 10.4 3.7 11.3 4.2 11.3 L4.55 11.15 M39.4 11.15 L38.95 10.4 Q38.6 9.55 38.6 8.35 38.6 7.1 38.95 6.25 L39.4 5.5 39.75 5.4 Q40.3 5.4 40.65 6.25 L40.9 8.35 40.65 10.4 Q40.3 11.3 39.75 11.3 L39.4 11.15" fill="none" stroke="#6a402d" stroke-linecap="round" stroke-linejoin="round" stroke-width="0.05"/>
      <path d="M31.9 44.0 L12.1 44.0 Q12.85 43.65 14.5 43.25 L22.0 42.7 29.5 43.25 31.9 44.0" fill="#6c432e" fill-rule="evenodd" stroke="none"/>
    </g>
    <linearGradient gradientTransform="matrix(0.0, -0.0275, -0.044, 0.0, 20.9, 22.25)" gradientUnits="userSpaceOnUse" id="gradient3" spreadMethod="pad" x1="-819.2" x2="819.2">
      <stop offset="0.0196078431372549" stop-color="#905a3d"/>
      <stop offset="0.9764705882352941" stop-color="#6a412d"/>
    </linearGradient>
    <linearGradient gradientTransform="matrix(0.0, -0.0275, -0.044, 0.0, 20.9, 22.25)" gradientUnits="userSpaceOnUse" id="gradient4" spreadMethod="pad" x1="-819.2" x2="819.2">
      <stop offset="0.0196078431372549" stop-color="#905a3d"/>
      <stop offset="0.9764705882352941" stop-color="#6a412d"/>
    </linearGradient>
  </defs>
</svg>
