<?xml version="1.0" encoding="UTF-8" standalone="no"?>
<svg xmlns:xlink="http://www.w3.org/1999/xlink" height="44.0px" width="44.0px" xmlns="http://www.w3.org/2000/svg">
  <g transform="matrix(1.0, 0.0, 0.0, 1.0, 0.0, 0.0)">
    <use height="0.0" transform="matrix(1.2125, 0.0, 0.0, 1.2125, 0.95, 2.4)" width="0.0" xlink:href="#sprite0"/>
    <use height="44.0" transform="matrix(1.0, 0.0, 0.0, 1.0, 0.0, 0.0)" width="44.0" xlink:href="#shape0"/>
    <use height="8.6" transform="matrix(1.2077, 0.0, 0.0, 1.2093, 0.5085, 0.75)" width="35.05" xlink:href="#sprite1"/>
    <use height="20.15" transform="matrix(1.1549, 0.0, 0.0, 1.1564, 6.3, 5.65)" width="28.2" xlink:href="#sprite2"/>
    <use height="39.85" transform="matrix(1.0, 0.0, 0.0, 1.0, 1.75, 4.1)" width="40.55" xlink:href="#shape3"/>
  </g>
  <defs>
    <g id="shape0" transform="matrix(1.0, 0.0, 0.0, 1.0, 0.0, 0.0)">
      <path d="M21.7 40.35 Q14.25 40.35 9.05 35.15 3.85 29.85 3.85 22.45 3.85 15.1 9.05 9.85 14.35 4.6 21.7 4.6 29.1 4.6 34.3 9.85 39.5 15.1 39.5 22.45 39.5 29.85 34.3 35.15 29.1 40.35 21.7 40.35" fill="url(#gradient0)" fill-rule="evenodd" stroke="none"/>
      <path d="M25.0 12.6 Q28.65 13.15 30.3 16.15 34.35 17.6 36.55 21.7 37.3 20.15 39.75 19.75 40.1 21.7 39.7 24.0 38.8 25.1 37.1 26.0 36.55 27.05 35.55 26.35 31.5 26.65 30.55 22.55 30.25 24.75 28.85 26.6 29.7 27.85 29.75 29.3 33.1 30.2 35.15 33.3 32.55 36.7 28.1 38.65 L25.55 39.55 Q24.2 38.6 23.5 36.75 23.35 37.45 22.75 37.8 L21.6 37.95 20.55 37.8 Q19.95 37.5 19.75 36.75 19.05 38.6 17.7 39.55 L15.15 38.65 Q10.75 36.7 8.1 33.3 10.1 30.2 13.45 29.3 13.55 27.85 14.4 26.6 13.0 24.75 12.65 22.55 11.75 26.65 7.7 26.35 6.7 27.05 6.1 26.0 4.5 25.1 3.55 24.0 3.2 21.7 3.5 19.75 6.0 20.15 6.7 21.7 8.9 17.6 12.95 16.15 14.65 13.15 18.25 12.6 18.0 11.45 18.85 9.3 19.85 7.7 21.6 7.5 23.45 7.7 24.35 9.3 25.25 11.45 25.0 12.6 M26.4 23.8 L25.65 25.5 25.1 25.0 24.9 26.7 24.65 26.9 24.6 26.8 24.55 26.7 Q23.4 25.85 21.8 25.85 L21.6 25.85 Q20.0 25.85 18.85 26.7 L18.8 26.8 18.75 26.9 18.5 26.7 18.3 25.0 17.75 25.5 17.0 23.8 16.8 24.6 15.25 24.1 15.85 25.55 15.05 25.8 16.8 26.55 16.25 27.0 18.0 27.3 18.25 27.45 Q17.7 28.15 17.7 28.95 17.7 30.25 18.85 31.15 19.55 31.7 20.45 31.9 L19.6 32.2 Q19.25 32.2 19.05 32.5 18.75 32.75 18.75 33.1 18.75 33.45 19.05 33.7 L19.6 33.95 19.95 33.95 19.95 35.4 Q19.95 35.75 20.25 36.05 L20.85 36.25 21.45 36.05 21.7 35.4 22.0 36.05 22.55 36.25 23.2 36.05 23.45 35.4 23.45 33.95 23.75 33.95 24.35 33.7 24.6 33.1 24.35 32.5 Q24.1 32.2 23.75 32.2 L23.0 32.0 Q23.85 31.75 24.55 31.15 25.65 30.25 25.65 28.95 25.65 28.15 25.2 27.45 L25.4 27.3 27.15 27.0 26.65 26.55 28.35 25.8 27.5 25.55 28.15 24.1 26.65 24.6 26.4 23.8" fill="#4a3355" fill-rule="evenodd" stroke="none"/>
      <path d="M34.2 9.8 Q29.15 4.7 22.0 4.7 14.8 4.7 9.75 9.8 4.65 14.8 4.65 22.05 4.65 29.2 9.75 34.3 14.8 39.4 22.0 39.4 29.2 39.4 34.2 34.3 39.25 29.2 39.25 22.05 39.25 14.8 34.2 9.8 M2.2 2.25 Q4.45 0.0 7.55 0.0 L36.35 0.0 Q39.55 0.0 41.75 2.25 44.0 4.55 44.0 7.65 L44.0 36.45 Q44.0 39.55 41.75 41.8 39.55 44.0 36.35 44.0 L7.55 44.0 Q4.45 44.0 2.2 41.8 0.0 39.55 0.0 36.45 L0.0 7.65 Q0.0 4.55 2.2 2.25" fill="url(#gradient1)" fill-rule="evenodd" stroke="none"/>
      <path d="M21.95 5.55 Q15.0 5.6 10.2 10.5 5.3 15.35 5.3 22.2 5.3 29.15 10.2 34.05 15.0 38.85 21.95 38.85 28.75 38.85 33.65 34.05 38.55 29.15 38.55 22.2 38.55 15.35 33.65 10.5 28.8 5.6 21.95 5.55 M8.4 8.8 Q14.0 3.2 21.95 3.2 29.8 3.2 35.3 8.8 40.9 14.35 40.9 22.2 40.9 30.15 35.3 35.7 29.8 41.25 21.95 41.25 14.0 41.25 8.4 35.7 2.85 30.15 2.85 22.2 2.85 14.35 8.4 8.8" fill="url(#gradient2)" fill-rule="evenodd" stroke="none"/>
    </g>
    <linearGradient gradientTransform="matrix(0.0, -0.0167, -0.0167, 0.0, 21.7, 19.1)" gradientUnits="userSpaceOnUse" id="gradient0" spreadMethod="pad" x1="-819.2" x2="819.2">
      <stop offset="0.011764705882352941" stop-color="#bcb9ae"/>
      <stop offset="1.0" stop-color="#9b5b79"/>
    </linearGradient>
    <linearGradient gradientTransform="matrix(0.0, -0.0275, -0.044, 0.0, 20.9, 22.2)" gradientUnits="userSpaceOnUse" id="gradient1" spreadMethod="pad" x1="-819.2" x2="819.2">
      <stop offset="0.0196078431372549" stop-color="#905a3d"/>
      <stop offset="0.9764705882352941" stop-color="#6a412d"/>
    </linearGradient>
    <linearGradient gradientTransform="matrix(0.0, -0.0168, -0.0168, 0.0, 21.95, 26.85)" gradientUnits="userSpaceOnUse" id="gradient2" spreadMethod="pad" x1="-819.2" x2="819.2">
      <stop offset="0.0196078431372549" stop-color="#a3704d"/>
      <stop offset="0.9803921568627451" stop-color="#492d20"/>
    </linearGradient>
    <g id="sprite1" transform="matrix(1.0, 0.0, 0.0, 1.0, 0.2, 0.0)">
      <use height="8.6" transform="matrix(1.0, 0.0, 0.0, 1.0, -0.2, 0.0)" width="35.05" xlink:href="#shape1"/>
    </g>
    <g id="shape1" transform="matrix(1.0, 0.0, 0.0, 1.0, 0.2, 0.0)">
      <path d="M34.4 4.4 Q34.85 5.8 34.85 7.65 L34.85 8.6 Q34.8 6.95 34.4 5.7 33.0 1.3 27.2 1.3 L7.45 1.3 Q0.05 1.3 -0.2 8.5 L-0.2 7.65 Q-0.2 0.0 7.45 0.0 L27.2 0.0 Q33.0 0.0 34.4 4.4" fill="#e7deda" fill-rule="evenodd" stroke="none"/>
    </g>
    <g id="sprite2" transform="matrix(1.0, 0.0, 0.0, 1.0, 0.0, 0.0)">
      <use height="20.15" transform="matrix(1.0, 0.0, 0.0, 1.0, 0.0, 0.0)" width="28.2" xlink:href="#shape2"/>
    </g>
    <g id="shape2" transform="matrix(1.0, 0.0, 0.0, 1.0, 0.0, 0.0)">
      <path d="M27.65 18.45 L27.4 18.95 Q26.2 20.8 23.4 19.8 19.6 18.5 17.35 14.05 14.8 9.1 9.75 7.4 4.1 5.65 0.0 10.3 1.0 6.85 3.7 4.15 7.2 0.65 11.9 0.05 L14.8 0.05 18.4 0.65 Q21.55 1.65 24.05 4.15 28.2 8.3 28.2 14.25 28.2 16.45 27.65 18.45" fill="#ffffff" fill-opacity="0.19607843" fill-rule="evenodd" stroke="none"/>
    </g>
    <g id="shape3" transform="matrix(1.0, 0.0, 0.0, 1.0, -1.75, -4.1)">
      <path d="M16.25 40.5 Q12.8 39.5 9.55 37.85 10.85 34.6 13.2 34.05 13.95 37.7 16.25 40.5 M27.35 40.5 Q28.95 38.45 29.8 35.85 L30.25 34.05 Q32.6 34.6 33.9 37.9 30.7 39.6 27.35 40.5" fill="url(#gradient3)" fill-rule="evenodd" stroke="none"/>
      <path d="M13.2 34.05 Q14.7 37.1 17.9 38.5 L16.25 40.5 Q13.95 37.7 13.2 34.05 M30.25 34.05 L29.8 35.85 Q28.95 38.45 27.35 40.5 L25.55 38.5 Q28.75 37.1 30.25 34.05" fill="#6d4a34" fill-rule="evenodd" stroke="none"/>
      <path d="M31.05 5.85 L30.45 4.1 Q33.9 5.85 36.75 8.8 L36.8 8.9 Q36.0 12.95 32.2 14.2 32.25 10.95 31.5 7.45 L31.05 5.85 M13.15 5.3 Q11.6 9.9 11.75 14.2 7.95 12.95 7.15 9.0 L7.35 8.8 Q10.15 5.9 13.45 4.3 L13.15 5.3" fill="url(#gradient4)" fill-rule="evenodd" stroke="none"/>
      <path d="M32.2 14.2 Q31.7 9.8 29.1 7.05 L30.8 5.3 31.05 5.85 31.5 7.45 Q32.25 10.95 32.2 14.2 M11.75 14.2 Q11.6 9.9 13.15 5.3 L14.9 7.05 Q12.3 9.8 11.75 14.2" fill="#492d20" fill-rule="evenodd" stroke="none"/>
      <path d="M1.85 33.5 L1.85 36.2 Q1.85 37.2 2.4 37.85 2.95 38.45 3.8 38.45 4.6 38.45 5.25 37.85 5.8 37.2 5.8 36.2 L5.8 34.95 M42.2 33.5 L42.2 36.2 Q42.2 37.2 41.6 37.85 41.1 38.45 40.25 38.45 39.4 38.45 38.8 37.85 38.2 37.2 38.2 36.2 L38.2 34.95" fill="none" stroke="#6a402d" stroke-linecap="round" stroke-linejoin="round" stroke-width="0.25"/>
      <path d="M4.55 5.45 L5.0 6.2 Q5.35 7.05 5.35 8.3 5.35 9.5 5.0 10.35 L4.55 11.1 4.0 10.35 Q3.75 9.5 3.75 8.3 3.75 7.05 4.0 6.2 L4.55 5.45 M39.4 5.45 L39.95 6.2 40.25 8.3 39.95 10.35 39.4 11.1 38.95 10.35 Q38.6 9.5 38.6 8.3 38.6 7.05 38.95 6.2 L39.4 5.45" fill="#331d16" fill-rule="evenodd" stroke="none"/>
      <path d="M4.55 11.1 L4.2 11.25 Q3.7 11.25 3.35 10.35 3.05 9.5 3.05 8.3 3.05 7.05 3.35 6.2 3.7 5.35 4.2 5.35 L4.55 5.45 4.0 6.2 Q3.75 7.05 3.75 8.3 3.75 9.5 4.0 10.35 L4.55 11.1 M39.4 11.1 L39.95 10.35 40.25 8.3 39.95 6.2 39.4 5.45 39.75 5.35 Q40.3 5.35 40.65 6.2 L40.9 8.3 40.65 10.35 Q40.3 11.25 39.75 11.25 L39.4 11.1" fill="#1a0d09" fill-rule="evenodd" stroke="none"/>
      <path d="M4.55 11.1 L4.2 11.25 Q3.7 11.25 3.35 10.35 3.05 9.5 3.05 8.3 3.05 7.05 3.35 6.2 3.7 5.35 4.2 5.35 L4.55 5.45 5.0 6.2 Q5.35 7.05 5.35 8.3 5.35 9.5 5.0 10.35 L4.55 11.1 M39.4 11.1 L39.75 11.25 Q40.3 11.25 40.65 10.35 L40.9 8.3 40.65 6.2 Q40.3 5.35 39.75 5.35 L39.4 5.45 38.95 6.2 Q38.6 7.05 38.6 8.3 38.6 9.5 38.95 10.35 L39.4 11.1" fill="none" stroke="#6a402d" stroke-linecap="round" stroke-linejoin="round" stroke-width="0.05"/>
      <path d="M31.9 43.95 L12.1 43.95 Q12.85 43.6 14.5 43.2 L22.0 42.65 29.5 43.2 31.9 43.95" fill="#6c432e" fill-rule="evenodd" stroke="none"/>
    </g>
    <linearGradient gradientTransform="matrix(0.0, -0.0275, -0.044, 0.0, 20.9, 22.2)" gradientUnits="userSpaceOnUse" id="gradient3" spreadMethod="pad" x1="-819.2" x2="819.2">
      <stop offset="0.0196078431372549" stop-color="#905a3d"/>
      <stop offset="0.9764705882352941" stop-color="#6a412d"/>
    </linearGradient>
    <linearGradient gradientTransform="matrix(0.0, -0.0275, -0.044, 0.0, 20.9, 22.2)" gradientUnits="userSpaceOnUse" id="gradient4" spreadMethod="pad" x1="-819.2" x2="819.2">
      <stop offset="0.0196078431372549" stop-color="#905a3d"/>
      <stop offset="0.9764705882352941" stop-color="#6a412d"/>
    </linearGradient>
  </defs>
</svg>
