<?xml version="1.0" encoding="UTF-8" standalone="no"?>
<svg xmlns:xlink="http://www.w3.org/1999/xlink" height="44.0px" width="43.0px" xmlns="http://www.w3.org/2000/svg">
  <g transform="matrix(1.0, 0.0, 0.0, 1.0, 0.0, 0.0)">
    <use height="40.6" transform="matrix(1.0, 0.0, 0.0, 1.0, 3.4, 3.5)" width="37.2" xlink:href="#shape0"/>
    <use height="0.0" transform="matrix(1.2125, 0.0, 0.0, 1.2137, 1.0, 1.0)" width="0.0" xlink:href="#sprite0"/>
    <use height="44.0" transform="matrix(1.0, 0.0, 0.0, 1.0, -0.75, -0.25)" width="44.0" xlink:href="#shape1"/>
    <use height="8.6" transform="matrix(1.2077, 0.0, 0.0, 1.2093, -0.2415, 0.5)" width="35.05" xlink:href="#sprite1"/>
    <use height="20.15" transform="matrix(1.1549, 0.0, 0.0, 1.1564, 5.55, 5.4)" width="28.2" xlink:href="#sprite2"/>
    <use height="39.85" transform="matrix(1.0, 0.0, 0.0, 1.0, 1.0, 3.85)" width="40.55" xlink:href="#shape4"/>
  </g>
  <defs>
    <g id="shape0" transform="matrix(1.0, 0.0, 0.0, 1.0, -3.4, -3.5)">
      <path d="M16.35 43.05 Q17.95 44.05 20.05 44.1 L16.35 44.1 16.35 43.05" fill="url(#gradient0)" fill-rule="evenodd" stroke="none"/>
      <path d="M8.85 8.95 Q14.3 3.5 22.05 3.5 29.75 3.5 35.2 8.95 40.6 14.4 40.6 22.05 40.6 29.8 35.2 35.25 29.75 40.65 22.05 40.65 14.3 40.65 8.85 35.25 3.4 29.8 3.4 22.05 3.4 14.35 8.85 8.95" fill="url(#gradient1)" fill-rule="evenodd" stroke="none"/>
      <path d="M20.2 14.55 L18.25 12.3 19.7 12.25 18.25 9.25 19.75 9.9 21.05 7.15 22.45 9.75 24.2 9.05 22.6 12.25 24.25 12.25 22.3 14.65 Q25.7 14.85 28.2 16.5 L28.45 16.75 28.6 17.0 29.9 18.25 30.2 18.65 30.9 19.95 10.95 19.95 11.65 18.65 11.95 18.25 13.25 17.0 13.4 16.75 13.65 16.5 Q16.35 14.8 20.2 14.55 M30.4 25.15 L30.6 24.5 30.9 23.7 31.0 23.45 Q32.0 25.05 34.35 25.2 L33.1 27.05 Q32.05 26.9 31.55 26.4 L31.45 26.3 31.45 26.4 Q31.8 28.85 34.4 30.3 L32.75 32.15 Q31.55 31.4 30.75 30.3 29.55 28.85 29.3 26.8 L29.9 26.25 30.5 25.35 30.4 25.15 M29.5 26.45 L28.85 27.1 28.5 27.45 28.2 27.7 Q25.3 30.0 21.2 30.1 L21.05 30.1 20.85 30.1 20.75 30.1 20.65 30.1 Q16.55 30.0 13.65 27.7 L12.4 26.5 29.5 26.45 M21.05 20.95 Q21.95 20.95 22.6 21.6 23.35 22.4 23.35 23.25 23.35 24.3 22.6 24.95 21.95 25.6 21.05 25.6 20.05 25.6 19.35 24.95 18.75 24.3 18.75 23.25 18.75 22.4 19.35 21.6 20.05 20.95 21.05 20.95 M19.1 31.95 Q19.15 31.25 19.45 30.65 L19.7 30.8 19.75 30.8 20.9 30.85 21.05 30.85 21.15 30.85 21.3 30.85 22.65 30.75 22.6 30.75 22.8 30.65 Q23.15 31.25 23.15 31.95 L23.15 32.25 Q23.15 33.45 22.6 34.3 22.0 35.1 21.15 35.1 20.25 35.1 19.7 34.3 L19.7 32.45 19.7 34.3 Q19.1 33.45 19.1 32.25 L19.1 31.95 23.15 31.95 19.1 31.95 M22.6 32.45 L22.6 34.3 22.6 32.45" fill="#496125" fill-rule="evenodd" stroke="none"/>
      <path d="M20.2 14.55 Q16.35 14.8 13.65 16.5 L13.4 16.75 13.25 17.0 11.95 18.25 11.65 18.65 10.95 19.95 30.9 19.95 30.2 18.65 29.9 18.25 28.6 17.0 28.45 16.75 28.2 16.5 Q25.7 14.85 22.3 14.65 M30.4 25.15 L30.6 24.5 30.9 23.7 31.0 23.45 31.15 21.95 30.9 19.95 M30.4 25.15 L30.5 25.35 M29.5 26.45 L12.4 26.5 13.65 27.7 Q16.55 30.0 20.65 30.1 L20.75 30.1 20.85 30.1 21.05 30.1 21.2 30.1 Q25.3 30.0 28.2 27.7 L28.5 27.45 28.85 27.1 29.5 26.45 30.4 25.15 M10.95 19.95 Q10.65 20.95 10.65 21.95 L10.85 23.75 Q11.3 25.2 12.4 26.5" fill="none" stroke="#496125" stroke-linecap="round" stroke-linejoin="round" stroke-width="0.5"/>
      <path d="M23.15 31.95 L24.4 31.95 M22.6 34.3 L22.6 32.45 M22.6 34.3 L22.6 35.75 M19.7 34.3 L19.7 32.45 M19.1 31.95 L17.65 31.95 M19.7 34.3 L19.7 35.75 M23.15 31.95 L19.1 31.95" fill="none" stroke="#496125" stroke-linecap="round" stroke-linejoin="round" stroke-width="1.5"/>
    </g>
    <linearGradient gradientTransform="matrix(0.0, -0.0555, -0.0554, 0.0, 22.45, 18.4)" gradientUnits="userSpaceOnUse" id="gradient0" spreadMethod="pad" x1="-819.2" x2="819.2">
      <stop offset="0.011764705882352941" stop-color="#e8e1b7"/>
      <stop offset="1.0" stop-color="#eed731"/>
    </linearGradient>
    <linearGradient gradientTransform="matrix(0.0, -0.0173, -0.0173, 0.0, 22.05, 18.55)" gradientUnits="userSpaceOnUse" id="gradient1" spreadMethod="pad" x1="-819.2" x2="819.2">
      <stop offset="0.011764705882352941" stop-color="#d3d4b5"/>
      <stop offset="1.0" stop-color="#71a26f"/>
    </linearGradient>
    <g id="shape1" transform="matrix(1.0, 0.0, 0.0, 1.0, 0.75, 0.25)">
      <path d="M33.45 9.55 Q28.4 4.45 21.25 4.45 14.05 4.45 9.0 9.55 3.9 14.55 3.9 21.8 3.9 28.95 9.0 34.05 14.05 39.15 21.25 39.15 28.45 39.15 33.45 34.05 38.5 28.95 38.5 21.8 38.5 14.55 33.45 9.55 M1.45 2.0 Q3.7 -0.25 6.8 -0.25 L35.6 -0.25 Q38.8 -0.25 41.0 2.0 43.25 4.3 43.25 7.4 L43.25 36.2 Q43.25 39.3 41.0 41.55 38.8 43.75 35.6 43.75 L6.8 43.75 Q3.7 43.75 1.45 41.55 -0.75 39.3 -0.75 36.2 L-0.75 7.4 Q-0.75 4.3 1.45 2.0" fill="url(#gradient2)" fill-rule="evenodd" stroke="none"/>
      <path d="M21.2 5.3 Q14.25 5.35 9.45 10.25 4.55 15.1 4.55 21.95 4.55 28.9 9.45 33.8 14.25 38.6 21.2 38.6 28.0 38.6 32.9 33.8 37.8 28.9 37.8 21.95 37.8 15.1 32.9 10.25 28.05 5.35 21.2 5.3 M7.65 8.55 Q13.25 2.95 21.2 2.95 29.05 2.95 34.55 8.55 40.15 14.1 40.15 21.95 40.15 29.9 34.55 35.45 29.05 41.0 21.2 41.0 13.25 41.0 7.65 35.45 2.1 29.9 2.1 21.95 2.1 14.1 7.65 8.55" fill="url(#gradient3)" fill-rule="evenodd" stroke="none"/>
    </g>
    <linearGradient gradientTransform="matrix(0.0, -0.0275, -0.044, 0.0, 20.15, 21.95)" gradientUnits="userSpaceOnUse" id="gradient2" spreadMethod="pad" x1="-819.2" x2="819.2">
      <stop offset="0.0196078431372549" stop-color="#905a3d"/>
      <stop offset="0.9764705882352941" stop-color="#6a412d"/>
    </linearGradient>
    <linearGradient gradientTransform="matrix(0.0, -0.0168, -0.0168, 0.0, 21.2, 26.6)" gradientUnits="userSpaceOnUse" id="gradient3" spreadMethod="pad" x1="-819.2" x2="819.2">
      <stop offset="0.0196078431372549" stop-color="#a3704d"/>
      <stop offset="0.9803921568627451" stop-color="#492d20"/>
    </linearGradient>
    <g id="sprite1" transform="matrix(1.0, 0.0, 0.0, 1.0, 0.2, 0.0)">
      <use height="8.6" transform="matrix(1.0, 0.0, 0.0, 1.0, -0.2, 0.0)" width="35.05" xlink:href="#shape2"/>
    </g>
    <g id="shape2" transform="matrix(1.0, 0.0, 0.0, 1.0, 0.2, 0.0)">
      <path d="M34.4 4.4 Q34.85 5.8 34.85 7.65 L34.85 8.6 Q34.8 6.95 34.4 5.7 33.0 1.3 27.2 1.3 L7.45 1.3 Q0.05 1.3 -0.2 8.5 L-0.2 7.65 Q-0.2 0.0 7.45 0.0 L27.2 0.0 Q33.0 0.0 34.4 4.4" fill="#e7deda" fill-rule="evenodd" stroke="none"/>
    </g>
    <g id="sprite2" transform="matrix(1.0, 0.0, 0.0, 1.0, 0.0, 0.0)">
      <use height="20.15" transform="matrix(1.0, 0.0, 0.0, 1.0, 0.0, 0.0)" width="28.2" xlink:href="#shape3"/>
    </g>
    <g id="shape3" transform="matrix(1.0, 0.0, 0.0, 1.0, 0.0, 0.0)">
      <path d="M27.65 18.45 L27.4 18.95 Q26.2 20.8 23.4 19.8 19.6 18.5 17.35 14.05 14.8 9.1 9.75 7.4 4.1 5.65 0.0 10.3 1.0 6.85 3.7 4.15 7.2 0.65 11.9 0.05 L14.8 0.05 18.4 0.65 Q21.55 1.65 24.05 4.15 28.2 8.3 28.2 14.25 28.2 16.45 27.65 18.45" fill="#ffffff" fill-opacity="0.19607843" fill-rule="evenodd" stroke="none"/>
    </g>
    <g id="shape4" transform="matrix(1.0, 0.0, 0.0, 1.0, -1.0, -3.85)">
      <path d="M15.5 40.25 Q12.05 39.25 8.8 37.6 10.1 34.35 12.45 33.8 13.2 37.45 15.5 40.25 M29.5 33.8 Q31.85 34.35 33.15 37.65 29.95 39.35 26.6 40.25 28.2 38.2 29.05 35.6 L29.5 33.8" fill="url(#gradient4)" fill-rule="evenodd" stroke="none"/>
      <path d="M12.45 33.8 Q13.95 36.85 17.15 38.25 L15.5 40.25 Q13.2 37.45 12.45 33.8 M26.6 40.25 L24.8 38.25 Q28.0 36.85 29.5 33.8 L29.05 35.6 Q28.2 38.2 26.6 40.25" fill="#6d4a34" fill-rule="evenodd" stroke="none"/>
      <path d="M30.3 5.6 L29.7 3.85 Q33.15 5.6 36.0 8.55 L36.05 8.65 Q35.25 12.7 31.45 13.95 31.5 10.7 30.75 7.2 L30.3 5.6 M12.4 5.05 Q10.85 9.65 11.0 13.95 7.2 12.7 6.4 8.75 L6.6 8.55 Q9.4 5.65 12.7 4.05 L12.4 5.05" fill="url(#gradient5)" fill-rule="evenodd" stroke="none"/>
      <path d="M31.45 13.95 Q30.95 9.55 28.35 6.8 L30.05 5.05 30.3 5.6 30.75 7.2 Q31.5 10.7 31.45 13.95 M11.0 13.95 Q10.85 9.65 12.4 5.05 L14.15 6.8 Q11.55 9.55 11.0 13.95" fill="#492d20" fill-rule="evenodd" stroke="none"/>
      <path d="M1.1 33.25 L1.1 35.95 Q1.1 36.95 1.65 37.6 2.2 38.2 3.05 38.2 3.85 38.2 4.5 37.6 5.05 36.95 5.05 35.95 L5.05 34.7 M41.45 33.25 L41.45 35.95 Q41.45 36.95 40.85 37.6 40.35 38.2 39.5 38.2 38.65 38.2 38.05 37.6 37.45 36.95 37.45 35.95 L37.45 34.7" fill="none" stroke="#6a402d" stroke-linecap="round" stroke-linejoin="round" stroke-width="0.25"/>
      <path d="M3.8 5.2 L4.25 5.95 Q4.6 6.8 4.6 8.05 4.6 9.25 4.25 10.1 L3.8 10.85 3.25 10.1 Q3.0 9.25 3.0 8.05 3.0 6.8 3.25 5.95 3.5 5.35 3.8 5.2 M38.65 10.85 L38.2 10.1 Q37.85 9.25 37.85 8.05 37.85 6.8 38.2 5.95 L38.65 5.2 39.2 5.95 39.5 8.05 39.2 10.1 38.65 10.85" fill="#331d16" fill-rule="evenodd" stroke="none"/>
      <path d="M3.8 5.2 Q3.5 5.35 3.25 5.95 3.0 6.8 3.0 8.05 3.0 9.25 3.25 10.1 L3.8 10.85 3.45 11.0 Q2.95 11.0 2.6 10.1 2.3 9.25 2.3 8.05 2.3 6.8 2.6 5.95 2.95 5.1 3.45 5.1 L3.8 5.2 M38.65 5.2 L39.0 5.1 Q39.55 5.1 39.9 5.95 L40.15 8.05 39.9 10.1 Q39.55 11.0 39.0 11.0 L38.65 10.85 39.2 10.1 39.5 8.05 39.2 5.95 38.65 5.2" fill="#1a0d09" fill-rule="evenodd" stroke="none"/>
      <path d="M3.8 10.85 L4.25 10.1 Q4.6 9.25 4.6 8.05 4.6 6.8 4.25 5.95 L3.8 5.2 M3.8 10.85 L3.45 11.0 Q2.95 11.0 2.6 10.1 2.3 9.25 2.3 8.05 2.3 6.8 2.6 5.95 2.95 5.1 3.45 5.1 L3.8 5.2 M38.65 5.2 L39.0 5.1 Q39.55 5.1 39.9 5.95 L40.15 8.05 39.9 10.1 Q39.55 11.0 39.0 11.0 L38.65 10.85 38.2 10.1 Q37.85 9.25 37.85 8.05 37.85 6.8 38.2 5.95 L38.65 5.2" fill="none" stroke="#6a402d" stroke-linecap="round" stroke-linejoin="round" stroke-width="0.05"/>
      <path d="M31.15 43.7 L11.35 43.7 Q12.1 43.35 13.75 42.95 L21.25 42.4 28.75 42.95 31.15 43.7" fill="#6c432e" fill-rule="evenodd" stroke="none"/>
    </g>
    <linearGradient gradientTransform="matrix(0.0, -0.0275, -0.044, 0.0, 20.15, 21.95)" gradientUnits="userSpaceOnUse" id="gradient4" spreadMethod="pad" x1="-819.2" x2="819.2">
      <stop offset="0.0196078431372549" stop-color="#905a3d"/>
      <stop offset="0.9764705882352941" stop-color="#6a412d"/>
    </linearGradient>
    <linearGradient gradientTransform="matrix(0.0, -0.0275, -0.044, 0.0, 20.15, 21.95)" gradientUnits="userSpaceOnUse" id="gradient5" spreadMethod="pad" x1="-819.2" x2="819.2">
      <stop offset="0.0196078431372549" stop-color="#905a3d"/>
      <stop offset="0.9764705882352941" stop-color="#6a412d"/>
    </linearGradient>
  </defs>
</svg>
