<?xml version="1.0" encoding="UTF-8" standalone="no"?>
<svg xmlns:xlink="http://www.w3.org/1999/xlink" height="43.0px" width="44.0px" xmlns="http://www.w3.org/2000/svg">
  <g transform="matrix(1.0, 0.0, 0.0, 1.0, 0.0, 1.0)">
    <use height="40.3" transform="matrix(1.0, 0.0, 0.0, 1.0, 2.25, 0.9)" width="40.35" xlink:href="#shape0"/>
    <use height="0.0" transform="matrix(1.2125, 0.0, 0.0, 1.2125, 1.1, 0.9)" width="0.0" xlink:href="#sprite0"/>
    <use height="44.0" transform="matrix(1.0, 0.0, 0.0, 1.0, 0.15, -1.5)" width="44.0" xlink:href="#shape1"/>
    <use height="8.6" transform="matrix(1.2077, 0.0, 0.0, 1.2093, 0.6585, -0.75)" width="35.05" xlink:href="#sprite1"/>
    <use height="20.15" transform="matrix(1.1549, 0.0, 0.0, 1.1564, 6.45, 4.15)" width="28.2" xlink:href="#sprite2"/>
    <use height="39.85" transform="matrix(1.0, 0.0, 0.0, 1.0, 1.9, 2.6)" width="40.55" xlink:href="#shape4"/>
  </g>
  <defs>
    <g id="shape0" transform="matrix(1.0, 0.0, 0.0, 1.0, -2.25, -0.9)">
      <path d="M42.6 21.05 Q42.6 29.4 36.7 35.3 30.8 41.2 22.4 41.2 14.1 41.2 8.2 35.3 2.25 29.4 2.25 21.05 2.25 12.65 8.2 6.75 14.1 0.9 22.4 0.9 30.8 0.9 36.7 6.75 42.6 12.65 42.6 21.05" fill="url(#gradient0)" fill-rule="evenodd" stroke="none"/>
      <path d="M21.55 7.35 Q25.7 7.35 28.7 10.05 31.55 12.7 31.6 16.9 31.45 22.7 27.95 26.75 24.35 30.95 21.55 30.65 18.8 30.95 15.25 26.75 11.75 22.7 11.6 16.9 11.7 12.7 14.5 10.05 17.45 7.35 21.55 7.35 M20.4 22.85 L20.2 22.25 19.65 22.1 19.1 22.3 18.6 22.85 18.1 22.3 17.45 22.1 Q17.15 22.1 17.0 22.3 16.7 22.55 16.7 22.85 16.7 23.2 17.0 23.45 L17.45 23.95 16.95 24.5 Q16.7 24.7 16.7 25.15 L17.0 25.55 17.5 25.8 18.1 25.5 18.6 25.05 19.15 25.55 Q19.35 25.8 19.65 25.8 L20.3 25.55 20.4 25.05 20.3 24.5 19.65 23.95 20.3 23.35 20.4 22.85 M21.1 30.9 L22.3 30.9 22.1 31.2 21.9 31.4 22.0 31.45 22.75 33.1 Q22.15 33.75 21.65 33.65 21.15 33.75 20.65 33.1 L21.4 31.4 21.25 31.2 21.1 30.9 M25.1 22.3 L24.6 22.85 24.05 22.3 23.55 22.1 23.0 22.25 Q22.75 22.5 22.75 22.85 22.75 23.2 22.9 23.35 L23.55 23.95 Q23.25 24.25 22.9 24.5 22.75 24.7 22.75 25.05 22.75 25.4 22.9 25.55 L23.55 25.8 24.0 25.55 24.6 25.05 25.1 25.5 25.6 25.8 26.2 25.55 26.45 25.15 Q26.45 24.7 26.25 24.5 L25.7 23.95 26.2 23.45 26.45 22.85 26.2 22.3 25.7 22.1 25.1 22.3" fill="#92300b" fill-rule="evenodd" stroke="none"/>
      <path d="M22.0 31.45 Q24.2 32.1 23.95 34.6 23.6 37.1 24.85 37.3" fill="none" stroke="#92300b" stroke-linecap="round" stroke-linejoin="round" stroke-width="0.2"/>
    </g>
    <linearGradient gradientTransform="matrix(0.0, -0.0188, -0.0188, 0.0, 22.4, 17.15)" gradientUnits="userSpaceOnUse" id="gradient0" spreadMethod="pad" x1="-819.2" x2="819.2">
      <stop offset="0.011764705882352941" stop-color="#f9cfb3"/>
      <stop offset="1.0" stop-color="#ff5b79"/>
    </linearGradient>
    <g id="shape1" transform="matrix(1.0, 0.0, 0.0, 1.0, -0.15, 1.5)">
      <path d="M34.35 8.3 Q29.3 3.2 22.15 3.2 14.95 3.2 9.9 8.3 4.8 13.3 4.8 20.55 4.8 27.7 9.9 32.8 14.95 37.9 22.15 37.9 29.35 37.9 34.35 32.8 39.4 27.7 39.4 20.55 39.4 13.3 34.35 8.3 M2.35 0.75 Q4.6 -1.5 7.7 -1.5 L36.5 -1.5 Q39.7 -1.5 41.9 0.75 44.15 3.05 44.15 6.15 L44.15 34.95 Q44.15 38.05 41.9 40.3 39.7 42.5 36.5 42.5 L7.7 42.5 Q4.6 42.5 2.35 40.3 0.15 38.05 0.15 34.95 L0.15 6.15 Q0.15 3.05 2.35 0.75" fill="url(#gradient1)" fill-rule="evenodd" stroke="none"/>
      <path d="M22.1 4.05 Q15.15 4.1 10.35 9.0 5.45 13.85 5.45 20.7 5.45 27.65 10.35 32.55 15.15 37.35 22.1 37.35 28.9 37.35 33.8 32.55 38.7 27.65 38.7 20.7 38.7 13.85 33.8 9.0 28.95 4.1 22.1 4.05 M8.55 7.3 Q14.15 1.7 22.1 1.7 29.95 1.7 35.45 7.3 41.05 12.85 41.05 20.7 41.05 28.65 35.45 34.2 29.95 39.75 22.1 39.75 14.15 39.75 8.55 34.2 3.0 28.65 3.0 20.7 3.0 12.85 8.55 7.3" fill="url(#gradient2)" fill-rule="evenodd" stroke="none"/>
    </g>
    <linearGradient gradientTransform="matrix(0.0, -0.0275, -0.044, 0.0, 21.05, 20.7)" gradientUnits="userSpaceOnUse" id="gradient1" spreadMethod="pad" x1="-819.2" x2="819.2">
      <stop offset="0.0196078431372549" stop-color="#905a3d"/>
      <stop offset="0.9764705882352941" stop-color="#6a412d"/>
    </linearGradient>
    <linearGradient gradientTransform="matrix(0.0, -0.0168, -0.0168, 0.0, 22.1, 25.35)" gradientUnits="userSpaceOnUse" id="gradient2" spreadMethod="pad" x1="-819.2" x2="819.2">
      <stop offset="0.0196078431372549" stop-color="#a3704d"/>
      <stop offset="0.9803921568627451" stop-color="#492d20"/>
    </linearGradient>
    <g id="sprite1" transform="matrix(1.0, 0.0, 0.0, 1.0, 0.2, 0.0)">
      <use height="8.6" transform="matrix(1.0, 0.0, 0.0, 1.0, -0.2, 0.0)" width="35.05" xlink:href="#shape2"/>
    </g>
    <g id="shape2" transform="matrix(1.0, 0.0, 0.0, 1.0, 0.2, 0.0)">
      <path d="M34.4 4.4 Q34.85 5.8 34.85 7.65 L34.85 8.6 Q34.8 6.95 34.4 5.7 33.0 1.3 27.2 1.3 L7.45 1.3 Q0.05 1.3 -0.2 8.5 L-0.2 7.65 Q-0.2 0.0 7.45 0.0 L27.2 0.0 Q33.0 0.0 34.4 4.4" fill="#e7deda" fill-rule="evenodd" stroke="none"/>
    </g>
    <g id="sprite2" transform="matrix(1.0, 0.0, 0.0, 1.0, 0.0, 0.0)">
      <use height="20.15" transform="matrix(1.0, 0.0, 0.0, 1.0, 0.0, 0.0)" width="28.2" xlink:href="#shape3"/>
    </g>
    <g id="shape3" transform="matrix(1.0, 0.0, 0.0, 1.0, 0.0, 0.0)">
      <path d="M27.65 18.45 L27.4 18.95 Q26.2 20.8 23.4 19.8 19.6 18.5 17.35 14.05 14.8 9.1 9.75 7.4 4.1 5.65 0.0 10.3 1.0 6.85 3.7 4.15 7.2 0.65 11.9 0.05 L14.8 0.05 18.4 0.65 Q21.55 1.65 24.05 4.15 28.2 8.3 28.2 14.25 28.2 16.45 27.65 18.45" fill="#ffffff" fill-opacity="0.19607843" fill-rule="evenodd" stroke="none"/>
    </g>
    <g id="shape4" transform="matrix(1.0, 0.0, 0.0, 1.0, -1.9, -2.6)">
      <path d="M16.4 39.0 Q12.95 38.0 9.7 36.35 11.0 33.1 13.35 32.55 14.1 36.2 16.4 39.0 M27.5 39.0 Q29.1 36.95 29.95 34.35 L30.4 32.55 Q32.75 33.1 34.05 36.4 30.85 38.1 27.5 39.0" fill="url(#gradient3)" fill-rule="evenodd" stroke="none"/>
      <path d="M13.35 32.55 Q14.85 35.6 18.05 37.0 L16.4 39.0 Q14.1 36.2 13.35 32.55 M30.4 32.55 L29.95 34.35 Q29.1 36.95 27.5 39.0 L25.7 37.0 Q28.9 35.6 30.4 32.55" fill="#6d4a34" fill-rule="evenodd" stroke="none"/>
      <path d="M31.2 4.35 L30.6 2.6 Q34.05 4.35 36.9 7.3 L36.95 7.4 Q36.15 11.45 32.35 12.7 32.4 9.45 31.65 5.95 L31.2 4.35 M13.3 3.8 Q11.75 8.4 11.9 12.7 8.1 11.45 7.3 7.5 L7.5 7.3 Q10.3 4.4 13.6 2.8 L13.3 3.8" fill="url(#gradient4)" fill-rule="evenodd" stroke="none"/>
      <path d="M32.35 12.7 Q31.85 8.3 29.25 5.55 L30.95 3.8 31.2 4.35 31.65 5.95 Q32.4 9.45 32.35 12.7 M11.9 12.7 Q11.75 8.4 13.3 3.8 L15.05 5.55 Q12.45 8.3 11.9 12.7" fill="#492d20" fill-rule="evenodd" stroke="none"/>
      <path d="M2.0 32.0 L2.0 34.7 Q2.0 35.7 2.55 36.35 3.1 36.95 3.95 36.95 4.75 36.95 5.4 36.35 5.95 35.7 5.95 34.7 L5.95 33.45 M42.35 32.0 L42.35 34.7 Q42.35 35.7 41.75 36.35 41.25 36.95 40.4 36.95 39.55 36.95 38.95 36.35 38.35 35.7 38.35 34.7 L38.35 33.45" fill="none" stroke="#6a402d" stroke-linecap="round" stroke-linejoin="round" stroke-width="0.25"/>
      <path d="M4.7 3.95 Q5.0 4.1 5.15 4.7 5.5 5.55 5.5 6.8 5.5 8.0 5.15 8.85 L4.7 9.6 4.15 8.85 Q3.9 8.0 3.9 6.8 3.9 5.55 4.15 4.7 4.4 4.1 4.7 3.95 M39.55 3.95 L40.1 4.7 40.4 6.8 40.1 8.85 39.55 9.6 39.1 8.85 Q38.75 8.0 38.75 6.8 38.75 5.55 39.1 4.7 L39.55 3.95" fill="#331d16" fill-rule="evenodd" stroke="none"/>
      <path d="M4.7 9.6 L4.35 9.75 Q3.85 9.75 3.5 8.85 3.2 8.0 3.2 6.8 3.2 5.55 3.5 4.7 3.85 3.85 4.35 3.85 L4.7 3.95 Q4.4 4.1 4.15 4.7 3.9 5.55 3.9 6.8 3.9 8.0 4.15 8.85 L4.7 9.6 M39.55 9.6 L40.1 8.85 40.4 6.8 40.1 4.7 39.55 3.95 39.9 3.85 Q40.45 3.85 40.8 4.7 L41.05 6.8 40.8 8.85 Q40.45 9.75 39.9 9.75 L39.55 9.6" fill="#1a0d09" fill-rule="evenodd" stroke="none"/>
      <path d="M4.7 9.6 L4.35 9.75 Q3.85 9.75 3.5 8.85 3.2 8.0 3.2 6.8 3.2 5.55 3.5 4.7 3.85 3.85 4.35 3.85 L4.7 3.95 Q5.0 4.1 5.15 4.7 5.5 5.55 5.5 6.8 5.5 8.0 5.15 8.85 L4.7 9.6 M39.55 9.6 L39.9 9.75 Q40.45 9.75 40.8 8.85 L41.05 6.8 40.8 4.7 Q40.45 3.85 39.9 3.85 L39.55 3.95 39.1 4.7 Q38.75 5.55 38.75 6.8 38.75 8.0 39.1 8.85 L39.55 9.6" fill="none" stroke="#6a402d" stroke-linecap="round" stroke-linejoin="round" stroke-width="0.05"/>
      <path d="M32.05 42.45 L12.25 42.45 Q13.0 42.1 14.65 41.7 L22.15 41.15 29.65 41.7 Q31.3 42.1 32.05 42.45" fill="#6c432e" fill-rule="evenodd" stroke="none"/>
    </g>
    <linearGradient gradientTransform="matrix(0.0, -0.0275, -0.044, 0.0, 21.05, 20.7)" gradientUnits="userSpaceOnUse" id="gradient3" spreadMethod="pad" x1="-819.2" x2="819.2">
      <stop offset="0.0196078431372549" stop-color="#905a3d"/>
      <stop offset="0.9764705882352941" stop-color="#6a412d"/>
    </linearGradient>
    <linearGradient gradientTransform="matrix(0.0, -0.0275, -0.044, 0.0, 21.05, 20.7)" gradientUnits="userSpaceOnUse" id="gradient4" spreadMethod="pad" x1="-819.2" x2="819.2">
      <stop offset="0.0196078431372549" stop-color="#905a3d"/>
      <stop offset="0.9764705882352941" stop-color="#6a412d"/>
    </linearGradient>
  </defs>
</svg>
