<?xml version="1.0" encoding="UTF-8" standalone="no"?>
<svg xmlns:xlink="http://www.w3.org/1999/xlink" height="44.0px" width="43.0px" xmlns="http://www.w3.org/2000/svg">
  <g transform="matrix(1.0, 0.0, 0.0, 1.0, 0.0, 0.0)">
    <use height="44.0" transform="matrix(1.0, 0.0, 0.0, 1.0, -0.3, 0.5)" width="44.0" xlink:href="#shape0"/>
    <use height="8.6" transform="matrix(1.2077, 0.0, 0.0, 1.2093, 0.2085, 1.25)" width="35.05" xlink:href="#sprite0"/>
    <use height="20.15" transform="matrix(1.1549, 0.0, 0.0, 1.1564, 6.0, 6.15)" width="28.2" xlink:href="#sprite1"/>
    <use height="39.85" transform="matrix(1.0, 0.0, 0.0, 1.0, 1.45, 4.6)" width="40.55" xlink:href="#shape3"/>
  </g>
  <defs>
    <g id="shape0" transform="matrix(1.0, 0.0, 0.0, 1.0, 0.3, -0.5)">
      <path d="M35.25 8.75 Q40.65 14.2 40.65 21.85 40.65 29.55 35.25 35.0 29.8 40.4 22.1 40.4 14.35 40.4 8.9 35.0 3.45 29.55 3.45 21.85 3.45 14.15 8.9 8.75 14.35 3.3 22.1 3.3 29.8 3.3 35.25 8.75" fill="url(#gradient0)" fill-rule="evenodd" stroke="none"/>
      <path d="M12.75 23.2 L10.7 23.35 Q9.25 24.05 9.8 27.8 10.2 30.4 11.95 32.05 13.55 33.5 16.3 34.25 L16.1 34.05 Q15.25 33.4 15.2 32.25 15.1 31.3 15.6 30.75 16.1 30.25 16.9 30.2 17.75 30.1 18.3 30.65 18.85 31.1 18.9 32.05 18.9 32.8 18.3 33.2 17.65 33.6 17.35 33.4 16.9 33.15 16.9 32.8 16.9 32.45 17.3 32.2 17.55 31.9 17.2 31.8 L16.45 31.85 Q15.9 32.05 16.15 33.0 16.25 33.7 16.9 34.1 L17.95 34.6 19.6 34.8 19.25 34.85 18.55 34.85 Q12.5 34.85 9.7 31.8 7.5 29.35 7.2 24.85 7.0 21.25 8.35 19.15 9.65 17.2 12.0 16.9 14.4 16.85 15.85 18.65 17.4 20.5 17.55 23.95 17.65 26.8 15.8 28.55 14.1 30.1 13.2 29.3 11.95 28.25 11.95 26.95 11.95 25.55 13.1 24.8 13.75 23.5 12.75 23.2 M26.2 23.95 Q26.35 20.5 27.9 18.65 29.35 16.85 31.75 16.9 34.1 17.2 35.4 19.15 36.75 21.25 36.55 24.85 36.25 29.35 34.05 31.8 31.25 34.85 25.2 34.85 L24.5 34.85 24.15 34.8 25.8 34.6 26.85 34.1 Q27.5 33.7 27.6 33.0 27.85 32.05 27.3 31.85 L26.55 31.8 Q26.2 31.9 26.45 32.2 L26.85 32.8 26.4 33.4 Q26.1 33.6 25.45 33.2 24.85 32.8 24.85 32.05 24.9 31.1 25.45 30.65 26.0 30.1 26.85 30.2 27.65 30.25 28.15 30.75 28.65 31.3 28.55 32.25 28.5 33.4 27.65 34.05 L27.45 34.25 Q30.2 33.5 31.8 32.05 33.55 30.4 33.95 27.8 34.5 24.05 33.05 23.35 L31.0 23.2 Q30.0 23.5 30.65 24.8 31.8 25.55 31.8 26.95 31.8 28.25 30.55 29.3 29.65 30.1 27.95 28.55 26.1 26.8 26.2 23.95 M24.25 10.2 L24.3 10.2 Q25.1 11.1 25.1 12.25 25.1 13.4 24.3 14.3 L24.25 14.3 23.5 14.95 23.4 15.0 23.4 15.3 25.55 15.75 25.55 17.2 25.55 22.4 24.35 22.4 23.85 22.4 23.85 18.65 23.4 18.65 23.4 27.75 22.35 27.75 22.2 27.75 21.8 27.75 21.75 27.75 20.7 27.75 20.7 18.65 20.2 18.65 20.2 22.4 19.75 22.4 18.5 22.4 18.5 17.2 18.5 15.75 20.7 15.3 20.7 15.0 19.9 14.4 19.8 14.3 19.75 14.3 Q18.85 13.4 18.85 12.25 18.85 11.1 19.75 10.2 L19.8 10.2 Q20.65 9.35 21.75 9.35 L22.0 9.35 22.15 9.35 Q23.45 9.35 24.25 10.2" fill="#372d2d" fill-rule="evenodd" stroke="none"/>
      <path d="M33.9 10.3 Q28.85 5.2 21.7 5.2 14.5 5.2 9.45 10.3 4.35 15.3 4.35 22.55 4.35 29.7 9.45 34.8 14.5 39.9 21.7 39.9 28.9 39.9 33.9 34.8 38.95 29.7 38.95 22.55 38.95 15.3 33.9 10.3 M1.9 2.75 Q4.15 0.5 7.25 0.5 L36.05 0.5 Q39.25 0.5 41.45 2.75 43.7 5.05 43.7 8.15 L43.7 36.95 Q43.7 40.05 41.45 42.3 39.25 44.5 36.05 44.5 L7.25 44.5 Q4.15 44.5 1.9 42.3 -0.3 40.05 -0.3 36.95 L-0.3 8.15 Q-0.3 5.05 1.9 2.75" fill="url(#gradient1)" fill-rule="evenodd" stroke="none"/>
      <path d="M21.65 6.05 Q14.7 6.1 9.9 11.0 5.0 15.85 5.0 22.7 5.0 29.65 9.9 34.55 14.7 39.35 21.65 39.35 28.45 39.35 33.35 34.55 38.25 29.65 38.25 22.7 38.25 15.85 33.35 11.0 28.5 6.1 21.65 6.05 M8.1 9.3 Q13.7 3.7 21.65 3.7 29.5 3.7 35.0 9.3 40.6 14.85 40.6 22.7 40.6 30.65 35.0 36.2 29.5 41.75 21.65 41.75 13.7 41.75 8.1 36.2 2.55 30.65 2.55 22.7 2.55 14.85 8.1 9.3" fill="url(#gradient2)" fill-rule="evenodd" stroke="none"/>
    </g>
    <linearGradient gradientTransform="matrix(0.0, -0.0173, -0.0173, 0.0, 22.1, 18.3)" gradientUnits="userSpaceOnUse" id="gradient0" spreadMethod="pad" x1="-819.2" x2="819.2">
      <stop offset="0.011764705882352941" stop-color="#c4bebb"/>
      <stop offset="1.0" stop-color="#9f8a82"/>
    </linearGradient>
    <linearGradient gradientTransform="matrix(0.0, -0.0275, -0.044, 0.0, 20.6, 22.7)" gradientUnits="userSpaceOnUse" id="gradient1" spreadMethod="pad" x1="-819.2" x2="819.2">
      <stop offset="0.0196078431372549" stop-color="#905a3d"/>
      <stop offset="0.9764705882352941" stop-color="#6a412d"/>
    </linearGradient>
    <linearGradient gradientTransform="matrix(0.0, -0.0168, -0.0168, 0.0, 21.65, 27.35)" gradientUnits="userSpaceOnUse" id="gradient2" spreadMethod="pad" x1="-819.2" x2="819.2">
      <stop offset="0.0196078431372549" stop-color="#a3704d"/>
      <stop offset="0.9803921568627451" stop-color="#492d20"/>
    </linearGradient>
    <g id="sprite0" transform="matrix(1.0, 0.0, 0.0, 1.0, 0.2, 0.0)">
      <use height="8.6" transform="matrix(1.0, 0.0, 0.0, 1.0, -0.2, 0.0)" width="35.05" xlink:href="#shape1"/>
    </g>
    <g id="shape1" transform="matrix(1.0, 0.0, 0.0, 1.0, 0.2, 0.0)">
      <path d="M34.4 4.4 Q34.85 5.8 34.85 7.65 L34.85 8.6 Q34.8 6.95 34.4 5.7 33.0 1.3 27.2 1.3 L7.45 1.3 Q0.05 1.3 -0.2 8.5 L-0.2 7.65 Q-0.2 0.0 7.45 0.0 L27.2 0.0 Q33.0 0.0 34.4 4.4" fill="#e7deda" fill-rule="evenodd" stroke="none"/>
    </g>
    <g id="sprite1" transform="matrix(1.0, 0.0, 0.0, 1.0, 0.0, 0.0)">
      <use height="20.15" transform="matrix(1.0, 0.0, 0.0, 1.0, 0.0, 0.0)" width="28.2" xlink:href="#shape2"/>
    </g>
    <g id="shape2" transform="matrix(1.0, 0.0, 0.0, 1.0, 0.0, 0.0)">
      <path d="M27.65 18.45 L27.4 18.95 Q26.2 20.8 23.4 19.8 19.6 18.5 17.35 14.05 14.8 9.1 9.75 7.4 4.1 5.65 0.0 10.3 1.0 6.85 3.7 4.15 7.2 0.65 11.9 0.05 L14.8 0.05 18.4 0.65 Q21.55 1.65 24.05 4.15 28.2 8.3 28.2 14.25 28.2 16.45 27.65 18.45" fill="#ffffff" fill-opacity="0.19607843" fill-rule="evenodd" stroke="none"/>
    </g>
    <g id="shape3" transform="matrix(1.0, 0.0, 0.0, 1.0, -1.45, -4.6)">
      <path d="M15.95 41.0 Q12.5 40.0 9.25 38.35 10.55 35.1 12.9 34.55 13.65 38.2 15.95 41.0 M27.05 41.0 Q28.65 38.95 29.5 36.35 L29.95 34.55 Q32.3 35.1 33.6 38.4 30.4 40.1 27.05 41.0" fill="url(#gradient3)" fill-rule="evenodd" stroke="none"/>
      <path d="M12.9 34.55 Q14.4 37.6 17.6 39.0 L15.95 41.0 Q13.65 38.2 12.9 34.55 M27.05 41.0 L25.25 39.0 Q28.45 37.6 29.95 34.55 L29.5 36.35 Q28.65 38.95 27.05 41.0" fill="#6d4a34" fill-rule="evenodd" stroke="none"/>
      <path d="M30.75 6.35 L30.15 4.6 Q33.6 6.35 36.45 9.3 L36.5 9.4 Q35.7 13.45 31.9 14.7 31.95 11.45 31.2 7.95 L30.75 6.35 M12.85 5.8 Q11.3 10.4 11.45 14.7 7.65 13.45 6.85 9.5 L7.05 9.3 Q9.85 6.4 13.15 4.8 L12.85 5.8" fill="url(#gradient4)" fill-rule="evenodd" stroke="none"/>
      <path d="M31.9 14.7 Q31.4 10.3 28.8 7.55 L30.5 5.8 30.75 6.35 31.2 7.95 Q31.95 11.45 31.9 14.7 M11.45 14.7 Q11.3 10.4 12.85 5.8 L14.6 7.55 Q12.0 10.3 11.45 14.7" fill="#492d20" fill-rule="evenodd" stroke="none"/>
      <path d="M1.55 34.0 L1.55 36.7 Q1.55 37.7 2.1 38.35 2.65 38.95 3.5 38.95 4.3 38.95 4.95 38.35 5.5 37.7 5.5 36.7 L5.5 35.45 M41.9 34.0 L41.9 36.7 Q41.9 37.7 41.3 38.35 40.8 38.95 39.95 38.95 39.1 38.95 38.5 38.35 37.9 37.7 37.9 36.7 L37.9 35.45" fill="none" stroke="#6a402d" stroke-linecap="round" stroke-linejoin="round" stroke-width="0.25"/>
      <path d="M4.25 5.95 L4.7 6.7 Q5.05 7.55 5.05 8.8 5.05 10.0 4.7 10.85 L4.25 11.6 3.7 10.85 Q3.45 10.0 3.45 8.8 3.45 7.55 3.7 6.7 3.95 6.1 4.25 5.95 M39.1 5.95 L39.65 6.7 39.95 8.8 39.65 10.85 39.1 11.6 38.65 10.85 Q38.3 10.0 38.3 8.8 38.3 7.55 38.65 6.7 L39.1 5.95" fill="#331d16" fill-rule="evenodd" stroke="none"/>
      <path d="M4.25 11.6 L3.9 11.75 Q3.4 11.75 3.05 10.85 2.75 10.0 2.75 8.8 2.75 7.55 3.05 6.7 3.4 5.85 3.9 5.85 L4.25 5.95 Q3.95 6.1 3.7 6.7 3.45 7.55 3.45 8.8 3.45 10.0 3.7 10.85 L4.25 11.6 M39.1 5.95 L39.45 5.85 Q40.0 5.85 40.35 6.7 L40.6 8.8 40.35 10.85 Q40.0 11.75 39.45 11.75 L39.1 11.6 39.65 10.85 39.95 8.8 39.65 6.7 39.1 5.95" fill="#1a0d09" fill-rule="evenodd" stroke="none"/>
      <path d="M4.25 5.95 L4.7 6.7 Q5.05 7.55 5.05 8.8 5.05 10.0 4.7 10.85 L4.25 11.6 3.9 11.75 Q3.4 11.75 3.05 10.85 2.75 10.0 2.75 8.8 2.75 7.55 3.05 6.7 3.4 5.85 3.9 5.85 L4.25 5.95 M39.1 11.6 L39.45 11.75 Q40.0 11.75 40.35 10.85 L40.6 8.8 40.35 6.7 Q40.0 5.85 39.45 5.85 L39.1 5.95 M39.1 11.6 L38.65 10.85 Q38.3 10.0 38.3 8.8 38.3 7.55 38.65 6.7 L39.1 5.95" fill="none" stroke="#6a402d" stroke-linecap="round" stroke-linejoin="round" stroke-width="0.05"/>
      <path d="M31.6 44.45 L11.8 44.45 Q12.55 44.1 14.2 43.7 L21.7 43.15 29.2 43.7 31.6 44.45" fill="#6c432e" fill-rule="evenodd" stroke="none"/>
    </g>
    <linearGradient gradientTransform="matrix(0.0, -0.0275, -0.044, 0.0, 20.6, 22.7)" gradientUnits="userSpaceOnUse" id="gradient3" spreadMethod="pad" x1="-819.2" x2="819.2">
      <stop offset="0.0196078431372549" stop-color="#905a3d"/>
      <stop offset="0.9764705882352941" stop-color="#6a412d"/>
    </linearGradient>
    <linearGradient gradientTransform="matrix(0.0, -0.0275, -0.044, 0.0, 20.6, 22.7)" gradientUnits="userSpaceOnUse" id="gradient4" spreadMethod="pad" x1="-819.2" x2="819.2">
      <stop offset="0.0196078431372549" stop-color="#905a3d"/>
      <stop offset="0.9764705882352941" stop-color="#6a412d"/>
    </linearGradient>
  </defs>
</svg>
