<?xml version="1.0" encoding="UTF-8" standalone="no"?>
<svg xmlns:xlink="http://www.w3.org/1999/xlink" height="44.0px" width="43.0px" xmlns="http://www.w3.org/2000/svg">
  <g transform="matrix(1.0, 0.0, 0.0, 1.0, 0.0, 0.0)">
    <use height="37.1" transform="matrix(1.0, 0.0, 0.0, 1.0, 3.4, 3.5)" width="37.2" xlink:href="#shape0"/>
    <use height="0.0" transform="matrix(1.2125, 0.0, 0.0, 1.2125, 1.1, 0.9)" width="0.0" xlink:href="#sprite0"/>
    <use height="44.0" transform="matrix(1.0, 0.0, 0.0, 1.0, -0.4, 0.4)" width="44.0" xlink:href="#shape1"/>
    <use height="8.6" transform="matrix(1.2077, 0.0, 0.0, 1.2093, 0.1085, 1.15)" width="35.05" xlink:href="#sprite1"/>
    <use height="20.15" transform="matrix(1.1549, 0.0, 0.0, 1.1564, 5.9, 6.05)" width="28.2" xlink:href="#sprite2"/>
    <use height="39.85" transform="matrix(1.0, 0.0, 0.0, 1.0, 1.35, 4.5)" width="40.55" xlink:href="#shape4"/>
  </g>
  <defs>
    <g id="shape0" transform="matrix(1.0, 0.0, 0.0, 1.0, -3.4, -3.5)">
      <path d="M22.05 40.6 Q14.3 40.6 8.85 35.2 3.4 29.75 3.4 22.05 3.4 14.35 8.85 8.95 14.3 3.5 22.05 3.5 29.75 3.5 35.2 8.95 40.6 14.4 40.6 22.05 40.6 29.75 35.2 35.2 29.75 40.6 22.05 40.6" fill="url(#gradient0)" fill-rule="evenodd" stroke="none"/>
      <path d="M12.75 23.0 L12.25 23.0 Q11.5 23.0 10.95 22.4 10.35 21.8 10.4 21.05 10.4 20.3 11.0 19.75 11.6 19.25 12.4 19.25 L12.95 19.25 12.75 23.0 M21.7 8.5 L24.3 7.85 23.0 10.2 26.05 10.2 23.0 12.65 23.0 13.5 25.8 13.5 Q29.6 13.5 29.6 17.25 L30.25 30.2 Q30.25 34.0 26.45 34.0 L16.8 34.0 Q13.0 34.0 13.0 30.2 L13.65 17.25 Q13.65 13.5 17.45 13.5 L20.45 13.5 20.45 12.65 17.35 10.2 20.45 10.2 19.15 7.85 21.7 8.5 M30.5 19.25 L31.05 19.25 Q31.8 19.25 32.45 19.75 33.0 20.3 33.0 21.05 33.1 21.8 32.5 22.4 31.95 23.0 31.2 23.0 L30.7 23.0 30.5 19.25 M27.1 26.95 Q26.85 26.7 26.5 26.7 L25.8 26.95 25.25 27.55 24.6 26.95 Q24.35 26.7 24.0 26.7 L23.35 26.85 Q23.05 27.1 23.05 27.55 23.05 27.95 23.3 28.15 L24.0 28.8 23.3 29.45 Q23.05 29.7 23.05 30.1 L23.3 30.7 24.0 30.95 24.55 30.7 25.25 30.1 25.8 30.65 Q26.05 30.95 26.45 30.95 L27.1 30.7 27.4 30.15 27.15 29.45 26.5 28.8 27.1 28.2 27.4 27.55 27.1 26.95 M20.4 27.55 L20.15 26.85 19.5 26.7 Q19.05 26.7 18.9 26.95 L18.25 27.55 17.7 26.95 17.0 26.7 Q16.6 26.7 16.4 26.95 16.1 27.2 16.1 27.55 16.1 27.95 16.4 28.2 L17.0 28.8 16.35 29.45 Q16.1 29.7 16.1 30.15 16.1 30.55 16.4 30.7 L17.05 30.95 Q17.45 30.95 17.7 30.65 L18.25 30.1 18.95 30.7 19.5 30.95 20.2 30.7 20.4 30.1 20.2 29.45 19.5 28.8 20.2 28.15 20.4 27.55 M26.65 34.55 L26.65 35.15 Q26.65 35.9 26.05 36.45 25.5 37.05 24.75 37.05 24.0 37.05 23.4 36.45 22.85 35.9 22.85 35.15 L22.85 34.55 26.65 34.55 M16.05 34.55 L19.8 34.55 19.8 35.15 Q19.8 35.9 19.25 36.45 18.7 37.05 17.95 37.05 17.15 37.05 16.6 36.45 16.05 35.9 16.05 35.15 L16.05 34.55" fill="#372d2d" fill-rule="evenodd" stroke="none"/>
    </g>
    <linearGradient gradientTransform="matrix(0.0, -0.0173, -0.0173, 0.0, 22.05, 18.5)" gradientUnits="userSpaceOnUse" id="gradient0" spreadMethod="pad" x1="-819.2" x2="819.2">
      <stop offset="0.011764705882352941" stop-color="#c4bebb"/>
      <stop offset="1.0" stop-color="#9f8a82"/>
    </linearGradient>
    <g id="shape1" transform="matrix(1.0, 0.0, 0.0, 1.0, 0.4, -0.4)">
      <path d="M33.8 10.2 Q28.75 5.1 21.6 5.1 14.4 5.1 9.35 10.2 4.25 15.2 4.25 22.45 4.25 29.6 9.35 34.7 14.4 39.8 21.6 39.8 28.8 39.8 33.8 34.7 38.85 29.6 38.85 22.45 38.85 15.2 33.8 10.2 M1.8 2.65 Q4.05 0.4 7.15 0.4 L35.95 0.4 Q39.15 0.4 41.35 2.65 43.6 4.95 43.6 8.05 L43.6 36.85 Q43.6 39.95 41.35 42.2 39.15 44.4 35.95 44.4 L7.15 44.4 Q4.05 44.4 1.8 42.2 -0.4 39.95 -0.4 36.85 L-0.4 8.05 Q-0.4 4.95 1.8 2.65" fill="url(#gradient1)" fill-rule="evenodd" stroke="none"/>
      <path d="M21.55 5.95 Q14.6 6.0 9.8 10.9 4.9 15.75 4.9 22.6 4.9 29.55 9.8 34.45 14.6 39.25 21.55 39.25 28.35 39.25 33.25 34.45 38.15 29.55 38.15 22.6 38.15 15.75 33.25 10.9 28.4 6.0 21.55 5.95 M8.0 9.2 Q13.6 3.6 21.55 3.6 29.4 3.6 34.9 9.2 40.5 14.75 40.5 22.6 40.5 30.55 34.9 36.1 29.4 41.65 21.55 41.65 13.6 41.65 8.0 36.1 2.45 30.55 2.45 22.6 2.45 14.75 8.0 9.2" fill="url(#gradient2)" fill-rule="evenodd" stroke="none"/>
    </g>
    <linearGradient gradientTransform="matrix(0.0, -0.0275, -0.044, 0.0, 20.5, 22.6)" gradientUnits="userSpaceOnUse" id="gradient1" spreadMethod="pad" x1="-819.2" x2="819.2">
      <stop offset="0.0196078431372549" stop-color="#905a3d"/>
      <stop offset="0.9764705882352941" stop-color="#6a412d"/>
    </linearGradient>
    <linearGradient gradientTransform="matrix(0.0, -0.0168, -0.0168, 0.0, 21.55, 27.25)" gradientUnits="userSpaceOnUse" id="gradient2" spreadMethod="pad" x1="-819.2" x2="819.2">
      <stop offset="0.0196078431372549" stop-color="#a3704d"/>
      <stop offset="0.9803921568627451" stop-color="#492d20"/>
    </linearGradient>
    <g id="sprite1" transform="matrix(1.0, 0.0, 0.0, 1.0, 0.2, 0.0)">
      <use height="8.6" transform="matrix(1.0, 0.0, 0.0, 1.0, -0.2, 0.0)" width="35.05" xlink:href="#shape2"/>
    </g>
    <g id="shape2" transform="matrix(1.0, 0.0, 0.0, 1.0, 0.2, 0.0)">
      <path d="M34.4 4.4 Q34.85 5.8 34.85 7.65 L34.85 8.6 Q34.8 6.95 34.4 5.7 33.0 1.3 27.2 1.3 L7.45 1.3 Q0.05 1.3 -0.2 8.5 L-0.2 7.65 Q-0.2 0.0 7.45 0.0 L27.2 0.0 Q33.0 0.0 34.4 4.4" fill="#e7deda" fill-rule="evenodd" stroke="none"/>
    </g>
    <g id="sprite2" transform="matrix(1.0, 0.0, 0.0, 1.0, 0.0, 0.0)">
      <use height="20.15" transform="matrix(1.0, 0.0, 0.0, 1.0, 0.0, 0.0)" width="28.2" xlink:href="#shape3"/>
    </g>
    <g id="shape3" transform="matrix(1.0, 0.0, 0.0, 1.0, 0.0, 0.0)">
      <path d="M27.65 18.45 L27.4 18.95 Q26.2 20.8 23.4 19.8 19.6 18.5 17.35 14.05 14.8 9.1 9.75 7.4 4.1 5.65 0.0 10.3 1.0 6.85 3.7 4.15 7.2 0.65 11.9 0.05 L14.8 0.05 18.4 0.65 Q21.55 1.65 24.05 4.15 28.2 8.3 28.2 14.25 28.2 16.45 27.65 18.45" fill="#ffffff" fill-opacity="0.19607843" fill-rule="evenodd" stroke="none"/>
    </g>
    <g id="shape4" transform="matrix(1.0, 0.0, 0.0, 1.0, -1.35, -4.5)">
      <path d="M15.85 40.9 Q12.4 39.9 9.15 38.25 10.45 35.0 12.8 34.45 13.55 38.1 15.85 40.9 M29.85 34.45 Q32.2 35.0 33.5 38.3 30.3 40.0 26.95 40.9 28.55 38.85 29.4 36.25 L29.85 34.45" fill="url(#gradient3)" fill-rule="evenodd" stroke="none"/>
      <path d="M12.8 34.45 Q14.3 37.5 17.5 38.9 L15.85 40.9 Q13.55 38.1 12.8 34.45 M26.95 40.9 L25.15 38.9 Q28.35 37.5 29.85 34.45 L29.4 36.25 Q28.55 38.85 26.95 40.9" fill="#6d4a34" fill-rule="evenodd" stroke="none"/>
      <path d="M30.65 6.25 L30.05 4.5 Q33.5 6.25 36.35 9.2 L36.4 9.3 Q35.6 13.35 31.8 14.6 31.85 11.35 31.1 7.85 L30.65 6.25 M11.35 14.6 Q7.55 13.35 6.75 9.4 L6.95 9.2 Q9.75 6.3 13.05 4.7 L12.75 5.7 Q11.2 10.3 11.35 14.6" fill="url(#gradient4)" fill-rule="evenodd" stroke="none"/>
      <path d="M31.8 14.6 Q31.3 10.2 28.7 7.45 L30.4 5.7 30.65 6.25 31.1 7.85 Q31.85 11.35 31.8 14.6 M11.35 14.6 Q11.2 10.3 12.75 5.7 L14.5 7.45 Q11.9 10.2 11.35 14.6" fill="#492d20" fill-rule="evenodd" stroke="none"/>
      <path d="M1.45 33.9 L1.45 36.6 Q1.45 37.6 2.0 38.25 2.55 38.85 3.4 38.85 4.2 38.85 4.85 38.25 5.4 37.6 5.4 36.6 L5.4 35.35 M41.8 33.9 L41.8 36.6 Q41.8 37.6 41.2 38.25 40.7 38.85 39.85 38.85 39.0 38.85 38.4 38.25 37.8 37.6 37.8 36.6 L37.8 35.35" fill="none" stroke="#6a402d" stroke-linecap="round" stroke-linejoin="round" stroke-width="0.25"/>
      <path d="M4.15 11.5 L3.6 10.75 Q3.35 9.9 3.35 8.7 3.35 7.45 3.6 6.6 L4.15 5.85 Q4.45 6.0 4.6 6.6 4.95 7.45 4.95 8.7 4.95 9.9 4.6 10.75 L4.15 11.5 M39.0 11.5 L38.55 10.75 Q38.2 9.9 38.2 8.7 38.2 7.45 38.55 6.6 L39.0 5.85 39.55 6.6 39.85 8.7 39.55 10.75 39.0 11.5" fill="#331d16" fill-rule="evenodd" stroke="none"/>
      <path d="M4.15 5.85 L3.6 6.6 Q3.35 7.45 3.35 8.7 3.35 9.9 3.6 10.75 L4.15 11.5 3.8 11.65 Q3.3 11.65 2.95 10.75 2.65 9.9 2.65 8.7 2.65 7.45 2.95 6.6 3.3 5.75 3.8 5.75 L4.15 5.85 M39.0 5.85 L39.35 5.75 Q39.9 5.75 40.25 6.6 L40.5 8.7 40.25 10.75 Q39.9 11.65 39.35 11.65 L39.0 11.5 39.55 10.75 39.85 8.7 39.55 6.6 39.0 5.85" fill="#1a0d09" fill-rule="evenodd" stroke="none"/>
      <path d="M4.15 11.5 L4.6 10.75 Q4.95 9.9 4.95 8.7 4.95 7.45 4.6 6.6 4.45 6.0 4.15 5.85 L3.8 5.75 Q3.3 5.75 2.95 6.6 2.65 7.45 2.65 8.7 2.65 9.9 2.95 10.75 3.3 11.65 3.8 11.65 L4.15 11.5 M39.0 11.5 L38.55 10.75 Q38.2 9.9 38.2 8.7 38.2 7.45 38.55 6.6 L39.0 5.85 39.35 5.75 Q39.9 5.75 40.25 6.6 L40.5 8.7 40.25 10.75 Q39.9 11.65 39.35 11.65 L39.0 11.5" fill="none" stroke="#6a402d" stroke-linecap="round" stroke-linejoin="round" stroke-width="0.05"/>
      <path d="M31.5 44.35 L11.7 44.35 Q12.45 44.0 14.1 43.6 L21.6 43.05 29.1 43.6 31.5 44.35" fill="#6c432e" fill-rule="evenodd" stroke="none"/>
    </g>
    <linearGradient gradientTransform="matrix(0.0, -0.0275, -0.044, 0.0, 20.5, 22.6)" gradientUnits="userSpaceOnUse" id="gradient3" spreadMethod="pad" x1="-819.2" x2="819.2">
      <stop offset="0.0196078431372549" stop-color="#905a3d"/>
      <stop offset="0.9764705882352941" stop-color="#6a412d"/>
    </linearGradient>
    <linearGradient gradientTransform="matrix(0.0, -0.0275, -0.044, 0.0, 20.5, 22.6)" gradientUnits="userSpaceOnUse" id="gradient4" spreadMethod="pad" x1="-819.2" x2="819.2">
      <stop offset="0.0196078431372549" stop-color="#905a3d"/>
      <stop offset="0.9764705882352941" stop-color="#6a412d"/>
    </linearGradient>
  </defs>
</svg>
