<?xml version="1.0" encoding="UTF-8" standalone="no"?>
<svg xmlns:xlink="http://www.w3.org/1999/xlink" height="44.0px" width="44.05px" xmlns="http://www.w3.org/2000/svg">
  <g transform="matrix(1.0, 0.0, 0.0, 1.0, 0.05, 0.0)">
    <use height="37.1" transform="matrix(1.0, 0.0, 0.0, 1.0, 3.6, 3.5)" width="37.2" xlink:href="#shape0"/>
    <use height="20.15" transform="matrix(1.1594, 0.0, 0.0, 1.1594, 6.0, 5.25)" width="28.2" xlink:href="#sprite0"/>
    <use height="44.0" transform="matrix(1.0, 0.0, 0.0, 1.0, 0.2, 0.0)" width="44.0" xlink:href="#shape2"/>
    <use height="8.6" transform="matrix(1.2125, 0.0, 0.0, 1.2125, 1.0575, 0.95)" width="35.05" xlink:href="#sprite1"/>
    <use height="40.5" transform="matrix(1.0, 0.0, 0.0, 1.0, 0.2, 3.5)" width="43.95" xlink:href="#shape4"/>
    <use height="20.15" transform="matrix(1.1594, 0.0, 0.0, 1.1594, 6.0, 5.25)" width="28.2" xlink:href="#sprite0"/>
    <use height="44.0" transform="matrix(1.0, 0.0, 0.0, 1.0, 0.0, 0.0)" width="44.0" xlink:href="#shape5"/>
    <use height="8.6" transform="matrix(1.2125, 0.0, 0.0, 1.2125, 0.8575, 0.95)" width="35.05" xlink:href="#sprite1"/>
    <use height="17.95" transform="matrix(1.0, 0.0, 0.0, 1.0, 0.0, 26.05)" width="43.95" xlink:href="#shape6"/>
  </g>
  <defs>
    <g id="shape0" transform="matrix(1.0, 0.0, 0.0, 1.0, -3.6, -3.5)">
      <path d="M3.6 22.05 Q3.6 14.35 9.05 8.95 14.5 3.5 22.25 3.5 29.95 3.5 35.4 8.95 40.8 14.4 40.8 22.05 40.8 29.75 35.4 35.2 29.95 40.6 22.25 40.6 14.5 40.6 9.05 35.2 3.6 29.75 3.6 22.05" fill="url(#gradient0)" fill-rule="evenodd" stroke="none"/>
      <path d="M22.15 11.45 L22.15 11.7 Q29.05 11.7 36.05 17.8 26.9 19.95 26.15 22.1 L32.1 22.1 Q27.3 24.9 26.2 27.4 L29.95 27.4 Q25.95 28.75 24.5 32.0 L27.0 32.0 Q23.5 33.15 22.15 35.8 L21.95 36.0 21.95 35.55 Q20.6 32.95 17.1 31.75 L19.6 31.75 Q18.15 28.6 14.15 27.25 L17.9 27.25 Q16.8 24.7 11.95 21.95 L17.95 21.95 Q17.2 19.8 8.05 17.6 15.1 11.4 22.15 11.45" fill="#664411" fill-rule="evenodd" stroke="none"/>
    </g>
    <linearGradient gradientTransform="matrix(0.0, -0.017, -0.0173, 0.0, 21.25, 27.0)" gradientUnits="userSpaceOnUse" id="gradient0" spreadMethod="pad" x1="-819.2" x2="819.2">
      <stop offset="0.011764705882352941" stop-color="#dad67d"/>
      <stop offset="1.0" stop-color="#cfa451"/>
    </linearGradient>
    <g id="sprite0" transform="matrix(1.0, 0.0, 0.0, 1.0, 0.0, 0.0)">
      <use height="20.15" transform="matrix(1.0, 0.0, 0.0, 1.0, 0.0, 0.0)" width="28.2" xlink:href="#shape1"/>
    </g>
    <g id="shape1" transform="matrix(1.0, 0.0, 0.0, 1.0, 0.0, 0.0)">
      <path d="M27.65 18.45 L27.4 18.95 Q26.2 20.8 23.4 19.8 19.6 18.5 17.35 14.05 14.8 9.1 9.75 7.4 4.1 5.65 0.0 10.3 1.0 6.85 3.7 4.15 7.2 0.65 11.9 0.05 L14.8 0.05 18.4 0.65 Q21.55 1.65 24.05 4.15 28.2 8.3 28.2 14.25 28.2 16.45 27.65 18.45" fill="#ffffff" fill-opacity="0.19607843" fill-rule="evenodd" stroke="none"/>
    </g>
    <g id="shape2" transform="matrix(1.0, 0.0, 0.0, 1.0, -0.2, 0.0)">
      <path d="M42.0 2.3 Q44.2 4.5 44.2 7.6 L44.2 36.4 Q44.2 39.6 42.0 41.8 39.8 44.0 36.6 44.0 L7.8 44.0 Q4.65 44.0 2.45 41.8 0.2 39.6 0.2 36.4 L0.2 7.6 Q0.2 4.5 2.45 2.3 4.65 0.0 7.8 0.0 L36.6 0.0 Q39.75 0.0 42.0 2.3 M41.05 22.05 Q41.05 14.1 35.45 8.6 29.95 3.05 22.05 3.05 14.1 3.05 8.6 8.6 3.05 14.1 3.05 22.05 3.05 29.95 8.6 35.45 14.1 41.1 22.05 41.1 29.95 41.1 35.45 35.45 41.05 29.95 41.05 22.05" fill="url(#gradient1)" fill-rule="evenodd" stroke="none"/>
      <path d="M41.05 22.05 Q41.05 29.95 35.45 35.45 29.95 41.1 22.05 41.1 14.1 41.1 8.6 35.45 3.05 29.95 3.05 22.05 3.05 14.1 8.6 8.6 14.1 3.05 22.05 3.05 29.95 3.05 35.45 8.6 41.05 14.1 41.05 22.05 M33.9 10.35 Q28.95 5.45 22.05 5.4 15.15 5.45 10.3 10.35 5.4 15.15 5.35 22.05 5.4 29.0 10.3 33.85 15.15 38.75 22.05 38.75 28.95 38.75 33.9 33.85 38.7 29.0 38.7 22.05 38.7 15.15 33.9 10.35" fill="url(#gradient2)" fill-rule="evenodd" stroke="none"/>
    </g>
    <linearGradient gradientTransform="matrix(0.0, -0.0258, -0.0551, 0.0, 22.05, 21.85)" gradientUnits="userSpaceOnUse" id="gradient1" spreadMethod="pad" x1="-819.2" x2="819.2">
      <stop offset="0.011764705882352941" stop-color="#c79829"/>
      <stop offset="1.0" stop-color="#be7d1e"/>
    </linearGradient>
    <linearGradient gradientTransform="matrix(1.0E-4, 0.0223, -0.0232, 1.0E-4, 22.1, 22.35)" gradientUnits="userSpaceOnUse" id="gradient2" spreadMethod="pad" x1="-819.2" x2="819.2">
      <stop offset="0.011764705882352941" stop-color="#8d5910"/>
      <stop offset="1.0" stop-color="#d9d597"/>
    </linearGradient>
    <g id="sprite1" transform="matrix(1.0, 0.0, 0.0, 1.0, 0.2, 0.0)">
      <use height="8.6" transform="matrix(1.0, 0.0, 0.0, 1.0, -0.2, 0.0)" width="35.05" xlink:href="#shape3"/>
    </g>
    <g id="shape3" transform="matrix(1.0, 0.0, 0.0, 1.0, 0.2, 0.0)">
      <path d="M34.4 4.4 Q34.85 5.8 34.85 7.65 L34.85 8.6 Q34.8 6.95 34.4 5.7 33.0 1.3 27.2 1.3 L7.45 1.3 Q0.05 1.3 -0.2 8.5 L-0.2 7.65 Q-0.2 0.0 7.45 0.0 L27.2 0.0 Q33.0 0.0 34.4 4.4" fill="#e7deda" fill-rule="evenodd" stroke="none"/>
    </g>
    <g id="shape4" transform="matrix(1.0, 0.0, 0.0, 1.0, -0.2, -3.5)">
      <path d="M39.05 27.95 L39.5 26.8 39.9 26.3 40.6 26.05 41.25 26.3 41.7 26.85 42.1 27.95 43.25 27.95 Q43.7 27.95 43.95 28.2 L44.15 28.35 44.15 29.95 43.9 30.1 43.05 30.75 43.45 32.1 43.45 32.8 43.0 33.35 42.3 33.55 41.65 33.3 41.4 33.15 41.35 35.7 43.75 36.65 44.15 36.9 43.8 38.8 43.6 38.85 41.05 39.5 40.85 42.45 40.7 42.75 39.45 43.5 39.2 43.45 38.7 43.0 37.2 40.45 34.4 41.2 34.05 41.2 33.2 41.8 33.6 43.15 33.6 43.85 33.5 44.0 31.35 44.0 30.75 43.6 30.1 44.0 27.9 44.0 27.85 43.8 27.85 43.1 28.25 41.8 27.35 41.2 26.95 40.6 Q26.8 40.2 26.95 39.85 L27.35 39.25 28.05 39.05 29.2 39.05 29.65 37.9 30.05 37.35 30.75 37.15 31.4 37.35 31.85 37.95 32.25 39.05 33.4 39.05 35.05 37.05 33.75 34.85 33.6 34.15 33.9 33.45 Q34.1 33.2 34.45 33.15 L35.15 33.2 37.55 34.15 38.25 33.4 38.1 33.3 37.7 32.7 37.7 32.0 38.1 30.75 37.2 30.1 36.8 29.55 Q36.65 29.15 36.8 28.8 L37.2 28.2 Q37.5 27.95 37.9 27.95 L39.05 27.95 M30.85 38.7 L30.6 38.7 30.0 40.2 28.4 40.2 28.3 40.45 29.65 41.35 29.05 43.1 29.25 43.2 30.75 42.15 32.15 43.2 32.4 43.1 31.85 41.35 33.0 40.5 32.95 40.2 31.45 40.2 30.85 38.7 M37.9 35.5 L34.75 34.25 36.5 37.2 34.1 40.0 37.75 39.1 39.7 42.35 39.95 38.6 43.35 37.7 40.2 36.45 40.25 33.0 37.9 35.5 M39.85 29.15 L38.25 29.15 38.15 29.35 39.5 30.3 38.95 32.0 39.1 32.15 40.6 31.1 42.0 32.15 42.25 32.0 41.7 30.3 43.0 29.35 42.85 29.15 41.3 29.15 40.7 27.6 40.45 27.6 39.85 29.15" fill="url(#gradient3)" fill-rule="evenodd" stroke="none"/>
      <path d="M38.75 29.75 L37.9 29.15 39.85 29.15 40.6 27.2 41.3 29.15 43.25 29.15 42.4 29.75 41.3 29.75 40.6 27.85 39.85 29.75 38.75 29.75 M41.7 30.3 L42.35 32.35 42.05 32.2 41.7 30.9 41.7 30.3 M39.1 32.2 L38.8 32.35 39.5 30.3 39.5 30.9 39.1 32.2 M40.2 36.45 L43.35 37.7 42.35 38.0 40.2 37.05 40.2 36.45 M34.75 39.85 L34.1 40.0 36.5 37.2 36.5 37.8 34.75 39.85 M35.2 35.1 L34.75 34.25 37.9 35.5 40.25 33.0 40.25 33.65 37.9 36.15 35.2 35.1 M28.9 40.85 L28.05 40.2 30.0 40.2 30.75 38.3 31.45 40.2 33.4 40.2 32.55 40.85 31.45 40.85 30.75 38.9 30.0 40.85 28.9 40.85 M31.85 41.35 L32.5 43.45 32.2 43.25 31.85 42.0 31.85 41.35 M29.25 43.25 L28.95 43.45 29.65 41.35 29.65 42.0 29.25 43.25" fill="#674512" fill-rule="evenodd" stroke="none"/>
      <path d="M42.4 29.75 L41.7 30.3 41.7 30.9 42.05 32.2 40.6 31.1 39.1 32.2 39.5 30.9 39.5 30.3 38.75 29.75 39.85 29.75 40.6 27.85 41.3 29.75 42.4 29.75 M40.2 36.45 L40.2 37.05 42.35 38.0 39.95 38.6 39.7 42.35 37.75 39.1 34.75 39.85 36.5 37.8 36.5 37.2 35.2 35.1 37.9 36.15 40.25 33.65 40.2 36.45 M32.55 40.85 L31.85 41.35 31.85 42.0 32.2 43.25 30.75 42.15 29.25 43.25 29.65 42.0 29.65 41.35 28.9 40.85 30.0 40.85 30.75 38.9 31.45 40.85 32.55 40.85" fill="#815815" fill-rule="evenodd" stroke="none"/>
      <path d="M4.5 29.15 L6.1 29.15 6.2 29.35 4.85 30.3 5.4 32.0 5.25 32.15 3.75 31.1 2.35 32.15 2.1 32.0 2.65 30.3 1.35 29.35 1.5 29.15 3.05 29.15 3.65 27.6 3.9 27.6 4.5 29.15 M5.3 27.95 L4.85 26.8 4.45 26.3 3.75 26.05 Q3.4 26.05 3.1 26.3 2.75 26.45 2.65 26.85 L2.25 27.95 1.1 27.95 Q0.65 27.95 0.4 28.2 L0.2 28.35 0.2 29.95 0.45 30.1 1.3 30.75 0.9 32.1 0.9 32.8 1.35 33.35 Q1.65 33.55 2.05 33.55 L2.7 33.3 2.95 33.15 3.0 35.7 0.6 36.65 0.2 36.9 0.55 38.8 0.75 38.85 3.3 39.5 3.5 42.45 3.65 42.75 Q4.2 43.2 4.9 43.5 L5.15 43.45 5.65 43.0 7.15 40.45 9.95 41.2 10.3 41.2 11.15 41.8 10.75 43.15 10.75 43.85 10.85 44.0 13.0 44.0 13.6 43.6 14.25 44.0 16.45 44.0 16.5 43.8 16.5 43.1 16.1 41.8 17.0 41.2 17.4 40.6 17.4 39.85 17.0 39.25 16.3 39.05 15.15 39.05 14.7 37.9 14.3 37.35 13.6 37.15 12.95 37.35 12.5 37.95 12.1 39.05 10.95 39.05 9.3 37.05 10.6 34.85 10.75 34.15 10.45 33.45 Q10.25 33.2 9.9 33.15 L9.2 33.2 6.8 34.15 6.1 33.4 6.25 33.3 6.65 32.7 6.65 32.0 6.25 30.75 7.15 30.1 7.55 29.55 7.55 28.8 7.15 28.2 6.45 27.95 5.3 27.95 M13.5 38.7 L13.75 38.7 14.35 40.2 15.95 40.2 16.05 40.45 14.7 41.35 15.3 43.1 15.1 43.2 13.6 42.15 12.2 43.2 11.95 43.1 12.5 41.35 11.35 40.5 11.4 40.2 12.9 40.2 13.5 38.7 M6.45 35.5 L9.6 34.25 7.85 37.2 10.25 40.0 6.6 39.1 4.65 42.35 4.4 38.6 1.0 37.7 4.15 36.45 4.1 33.0 6.45 35.5" fill="url(#gradient4)" fill-rule="evenodd" stroke="none"/>
      <path d="M4.85 30.3 L4.85 30.9 5.25 32.2 5.55 32.35 4.85 30.3 M2.3 32.2 L2.65 30.9 2.65 30.3 2.0 32.35 2.3 32.2 M1.95 29.75 L3.05 29.75 3.75 27.85 4.5 29.75 5.6 29.75 6.45 29.15 4.5 29.15 3.75 27.2 3.05 29.15 1.1 29.15 1.95 29.75 M4.15 36.45 L1.0 37.7 2.0 38.0 4.15 37.05 4.15 36.45 M9.6 39.85 L10.25 40.0 7.85 37.2 7.85 37.8 9.6 39.85 M9.15 35.1 L9.6 34.25 6.45 35.5 4.1 33.0 4.1 33.65 6.45 36.15 9.15 35.1 M12.15 43.25 L12.5 42.0 12.5 41.35 11.85 43.45 12.15 43.25 M11.8 40.85 L12.9 40.85 13.6 38.9 14.35 40.85 15.45 40.85 16.3 40.2 14.35 40.2 13.6 38.3 12.9 40.2 10.95 40.2 11.8 40.85 M14.7 41.35 L14.7 42.0 15.1 43.25 15.4 43.45 14.7 41.35" fill="#674512" fill-rule="evenodd" stroke="none"/>
      <path d="M5.25 32.2 L4.85 30.9 4.85 30.3 5.6 29.75 4.5 29.75 3.75 27.85 3.05 29.75 1.95 29.75 2.65 30.3 2.65 30.9 2.3 32.2 3.75 31.1 5.25 32.2 M4.15 36.45 L4.15 37.05 2.0 38.0 4.4 38.6 4.65 42.35 6.6 39.1 9.6 39.85 7.85 37.8 7.85 37.2 9.15 35.1 6.45 36.15 4.1 33.65 4.15 36.45 M12.5 41.35 L12.5 42.0 12.15 43.25 13.6 42.15 15.1 43.25 14.7 42.0 14.7 41.35 15.45 40.85 14.35 40.85 13.6 38.9 12.9 40.85 11.8 40.85 12.5 41.35" fill="#815815" fill-rule="evenodd" stroke="none"/>
      <path d="M3.6 22.05 Q3.6 14.35 9.05 8.95 14.5 3.5 22.25 3.5 29.95 3.5 35.4 8.95 40.8 14.4 40.8 22.05 40.8 29.75 35.4 35.2 29.95 40.6 22.25 40.6 14.5 40.6 9.05 35.2 3.6 29.75 3.6 22.05" fill="url(#gradient5)" fill-rule="evenodd" stroke="none"/>
      <path d="M26.65 15.75 Q25.4 16.5 24.65 17.7 L24.35 20.35 Q23.95 20.45 23.9 21.25 L25.0 23.9 Q25.0 24.75 24.1 24.8 L24.0 26.0 23.5 26.35 23.85 27.05 Q22.95 27.65 23.1 28.75 23.3 30.25 20.45 29.8 18.45 29.5 18.25 31.15 17.55 32.6 23.9 39.9 L18.6 39.9 17.4 39.5 14.75 38.4 12.25 37.05 10.3 35.45 8.35 34.05 6.95 32.4 Q7.85 31.1 10.3 28.8 11.35 26.6 9.05 23.75 6.5 20.05 8.7 14.75 L8.95 14.35 10.1 13.1 Q9.75 12.15 10.3 10.65 10.4 11.9 10.85 12.5 10.95 11.45 11.7 10.8 11.3 11.75 11.55 12.4 18.05 8.5 25.1 15.6 L26.65 15.75" fill="#664411" fill-rule="evenodd" stroke="none"/>
      <path d="M25.55 5.15 Q24.65 5.8 23.45 5.8 21.85 5.8 20.65 4.6 L20.3 4.2 M38.1 21.35 L36.35 21.8 Q34.8 21.8 33.55 20.55 32.45 19.45 32.45 17.85 32.45 16.2 33.55 15.05 34.8 13.95 36.35 13.95" fill="none" stroke="#664411" stroke-linecap="round" stroke-linejoin="round" stroke-width="1.0"/>
      <path d="M29.2 6.65 L28.65 7.25 Q26.5 9.45 23.45 9.45 20.4 9.45 18.2 7.25 17.15 6.2 16.65 4.95 M37.9 24.9 L36.25 25.1 Q33.2 25.1 31.0 22.9 28.85 20.75 28.85 17.65 28.85 14.65 31.0 12.45 32.45 11.05 34.25 10.6 M26.25 38.95 Q25.55 37.55 25.55 35.8 25.55 32.75 27.7 30.55 29.9 28.4 33.0 28.4 35.0 28.4 36.7 29.35" fill="none" stroke="#664411" stroke-linecap="round" stroke-linejoin="round" stroke-width="1.5"/>
    </g>
    <linearGradient gradientTransform="matrix(0.0, -0.0258, -0.0551, 0.0, 22.05, 21.9)" gradientUnits="userSpaceOnUse" id="gradient3" spreadMethod="pad" x1="-819.2" x2="819.2">
      <stop offset="0.011764705882352941" stop-color="#c79829"/>
      <stop offset="1.0" stop-color="#be7d1e"/>
    </linearGradient>
    <linearGradient gradientTransform="matrix(0.0, -0.0258, 0.0551, 0.0, 22.3, 21.9)" gradientUnits="userSpaceOnUse" id="gradient4" spreadMethod="pad" x1="-819.2" x2="819.2">
      <stop offset="0.011764705882352941" stop-color="#c79829"/>
      <stop offset="1.0" stop-color="#be7d1e"/>
    </linearGradient>
    <linearGradient gradientTransform="matrix(0.0056, 0.0, 0.0, 0.0043, -24.35, 41.75)" gradientUnits="userSpaceOnUse" id="gradient5" spreadMethod="pad" x1="-819.2" x2="819.2">
      <stop offset="0.011764705882352941" stop-color="#c79829"/>
      <stop offset="1.0" stop-color="#be7d1e"/>
    </linearGradient>
    <g id="shape5" transform="matrix(1.0, 0.0, 0.0, 1.0, 0.0, 0.0)">
      <path d="M41.8 2.3 Q44.0 4.5 44.0 7.6 L44.0 36.4 Q44.0 39.6 41.8 41.8 39.6 44.0 36.4 44.0 L7.6 44.0 Q4.45 44.0 2.25 41.8 0.0 39.6 0.0 36.4 L0.0 7.6 Q0.0 4.5 2.25 2.3 4.45 0.0 7.6 0.0 L36.4 0.0 Q39.55 0.0 41.8 2.3 M40.85 22.05 Q40.85 14.1 35.25 8.6 29.75 3.05 21.85 3.05 13.9 3.05 8.4 8.6 2.85 14.1 2.85 22.05 2.85 29.95 8.4 35.45 13.9 41.1 21.85 41.1 29.75 41.1 35.25 35.45 40.85 29.95 40.85 22.05" fill="url(#gradient6)" fill-rule="evenodd" stroke="none"/>
      <path d="M40.85 22.05 Q40.85 29.95 35.25 35.45 29.75 41.1 21.85 41.1 13.9 41.1 8.4 35.45 2.85 29.95 2.85 22.05 2.85 14.1 8.4 8.6 13.9 3.05 21.85 3.05 29.75 3.05 35.25 8.6 40.85 14.1 40.85 22.05 M33.7 10.35 Q28.75 5.45 21.85 5.4 14.95 5.45 10.1 10.35 5.2 15.15 5.15 22.05 5.2 29.0 10.1 33.85 14.95 38.75 21.85 38.75 28.75 38.75 33.7 33.85 38.5 29.0 38.5 22.05 38.5 15.15 33.7 10.35" fill="url(#gradient7)" fill-rule="evenodd" stroke="none"/>
    </g>
    <linearGradient gradientTransform="matrix(0.0, -0.0258, -0.0551, 0.0, 21.85, 21.85)" gradientUnits="userSpaceOnUse" id="gradient6" spreadMethod="pad" x1="-819.2" x2="819.2">
      <stop offset="0.011764705882352941" stop-color="#dad67d"/>
      <stop offset="1.0" stop-color="#cfa451"/>
    </linearGradient>
    <linearGradient gradientTransform="matrix(0.0, 0.0059, -0.0232, 0.0, 21.85, 18.4)" gradientUnits="userSpaceOnUse" id="gradient7" spreadMethod="pad" x1="-819.2" x2="819.2">
      <stop offset="0.011764705882352941" stop-color="#8d5910"/>
      <stop offset="1.0" stop-color="#d9d597"/>
    </linearGradient>
    <g id="shape6" transform="matrix(1.0, 0.0, 0.0, 1.0, -0.05, -26.1)">
      <path d="M39.7 29.2 L38.1 29.2 38.0 29.4 39.35 30.35 38.8 32.05 38.95 32.2 40.45 31.15 41.85 32.2 42.1 32.05 41.55 30.35 42.85 29.4 42.7 29.2 41.15 29.2 40.55 27.65 40.3 27.65 39.7 29.2 M38.9 28.0 L39.35 26.85 39.75 26.35 Q40.1 26.1 40.45 26.1 L41.1 26.35 41.55 26.9 41.95 28.0 43.1 28.0 Q43.55 28.0 43.8 28.25 L44.0 28.4 44.0 30.0 43.75 30.15 42.9 30.8 43.3 32.15 43.3 32.85 42.85 33.4 42.15 33.6 41.5 33.35 41.25 33.2 41.2 35.75 43.6 36.7 44.0 36.95 43.65 38.85 43.45 38.9 40.9 39.55 40.7 42.5 40.55 42.8 39.3 43.55 39.05 43.5 38.55 43.05 37.05 40.5 34.25 41.25 33.9 41.25 33.05 41.85 33.45 43.2 33.45 43.9 33.35 44.05 31.2 44.05 30.6 43.65 29.95 44.05 27.75 44.05 27.7 43.85 27.7 43.15 28.1 41.85 27.2 41.25 26.8 40.65 Q26.65 40.25 26.8 39.9 L27.2 39.3 27.9 39.1 29.05 39.1 29.5 37.95 29.9 37.4 30.6 37.2 31.25 37.4 31.7 38.0 32.1 39.1 33.25 39.1 34.9 37.1 33.6 34.9 33.45 34.2 33.75 33.5 Q33.95 33.25 34.3 33.2 L35.0 33.25 37.4 34.2 38.1 33.45 37.95 33.35 37.55 32.75 37.55 32.05 37.95 30.8 37.05 30.15 36.65 29.6 Q36.5 29.2 36.65 28.85 L37.05 28.25 Q37.35 28.0 37.75 28.0 L38.9 28.0 M37.75 35.55 L34.6 34.3 36.35 37.25 33.95 40.05 37.6 39.15 39.55 42.4 39.8 38.65 43.2 37.75 40.05 36.5 40.1 33.05 37.75 35.55 M30.7 38.75 L30.45 38.75 29.85 40.25 28.25 40.25 28.15 40.5 29.5 41.4 28.9 43.15 29.1 43.25 30.6 42.2 32.0 43.25 32.25 43.15 31.7 41.4 32.85 40.55 32.8 40.25 31.3 40.25 30.7 38.75" fill="#d1ae5a" fill-rule="evenodd" stroke="none"/>
      <path d="M38.6 29.8 L37.75 29.2 39.7 29.2 40.45 27.25 41.15 29.2 43.1 29.2 42.25 29.8 41.15 29.8 40.45 27.9 39.7 29.8 38.6 29.8 M41.55 30.35 L42.2 32.4 41.9 32.25 41.55 30.95 41.55 30.35 M38.95 32.25 L38.65 32.4 39.35 30.35 39.35 30.95 38.95 32.25 M40.05 36.5 L43.2 37.75 42.2 38.05 40.05 37.1 40.05 36.5 M34.6 39.9 L33.95 40.05 36.35 37.25 36.35 37.85 34.6 39.9 M35.05 35.15 L34.6 34.3 37.75 35.55 40.1 33.05 40.1 33.7 37.75 36.2 35.05 35.15 M32.4 40.9 L31.3 40.9 30.6 38.95 29.85 40.9 28.75 40.9 27.9 40.25 29.85 40.25 30.6 38.35 31.3 40.25 33.25 40.25 32.4 40.9 M29.5 41.4 L29.5 42.05 29.1 43.3 28.8 43.5 29.5 41.4 M32.05 43.3 L31.7 42.05 31.7 41.4 32.35 43.5 32.05 43.3" fill="#674512" fill-rule="evenodd" stroke="none"/>
      <path d="M42.25 29.8 L41.55 30.35 41.55 30.95 41.9 32.25 40.45 31.15 38.95 32.25 39.35 30.95 39.35 30.35 38.6 29.8 39.7 29.8 40.45 27.9 41.15 29.8 42.25 29.8 M40.05 36.5 L40.05 37.1 42.2 38.05 39.8 38.65 39.55 42.4 37.6 39.15 34.6 39.9 36.35 37.85 36.35 37.25 35.05 35.15 37.75 36.2 40.1 33.7 40.05 36.5 M28.75 40.9 L29.85 40.9 30.6 38.95 31.3 40.9 32.4 40.9 31.7 41.4 31.7 42.05 32.05 43.3 30.6 42.2 29.1 43.3 29.5 42.05 29.5 41.4 28.75 40.9" fill="#815815" fill-rule="evenodd" stroke="none"/>
      <path d="M10.3 33.5 L10.6 34.2 10.45 34.9 9.15 37.1 10.8 39.1 11.95 39.1 12.35 38.0 12.8 37.4 13.45 37.2 14.15 37.4 14.55 37.95 15.0 39.1 16.15 39.1 16.85 39.3 17.25 39.9 17.25 40.65 16.85 41.25 15.95 41.85 16.35 43.15 16.35 43.85 16.3 44.05 14.1 44.05 13.45 43.65 12.85 44.05 10.7 44.05 10.6 43.9 10.6 43.2 11.0 41.85 10.15 41.25 9.8 41.25 7.0 40.5 5.5 43.05 5.0 43.5 4.75 43.55 Q4.05 43.25 3.5 42.8 L3.35 42.5 3.15 39.55 0.6 38.9 0.4 38.85 0.05 36.95 Q0.25 36.75 0.45 36.7 L2.85 35.75 2.8 33.2 2.55 33.35 1.9 33.6 1.2 33.4 0.75 32.85 0.75 32.15 1.15 30.8 0.3 30.15 0.05 30.0 0.05 28.4 0.25 28.25 Q0.5 28.0 0.95 28.0 L2.1 28.0 2.5 26.9 2.95 26.35 Q3.25 26.1 3.6 26.1 L4.3 26.35 4.7 26.85 5.15 28.0 6.3 28.0 Q6.7 28.0 7.0 28.25 L7.4 28.85 7.4 29.6 7.0 30.15 6.1 30.8 6.5 32.05 6.5 32.75 6.1 33.35 5.95 33.45 6.65 34.2 9.05 33.25 9.75 33.2 10.3 33.5 M11.2 40.55 L12.35 41.4 11.8 43.15 12.05 43.25 13.45 42.2 14.95 43.25 15.15 43.15 14.55 41.4 15.9 40.5 15.8 40.25 14.2 40.25 13.6 38.75 13.35 38.75 12.75 40.25 11.25 40.25 11.2 40.55 M3.75 27.65 L3.5 27.65 2.9 29.2 1.35 29.2 1.2 29.4 2.5 30.35 1.95 32.05 2.2 32.2 3.6 31.15 5.1 32.2 5.25 32.05 4.7 30.35 6.05 29.4 5.95 29.2 4.35 29.2 3.75 27.65 M4.25 38.65 L4.5 42.4 6.45 39.15 10.1 40.05 7.7 37.25 9.45 34.3 6.3 35.55 3.95 33.05 4.0 36.5 0.85 37.75 4.25 38.65" fill="#d1ae5a" fill-rule="evenodd" stroke="none"/>
      <path d="M12.35 41.4 L12.35 42.05 12.0 43.3 11.7 43.5 12.35 41.4 M14.95 43.3 L14.55 42.05 14.55 41.4 15.25 43.5 14.95 43.3 M15.3 40.9 L14.2 40.9 13.45 38.95 12.75 40.9 11.65 40.9 10.8 40.25 12.75 40.25 13.45 38.35 14.2 40.25 16.15 40.25 15.3 40.9 M1.8 29.8 L0.95 29.2 2.9 29.2 3.6 27.25 4.35 29.2 6.3 29.2 5.45 29.8 4.35 29.8 3.6 27.9 2.9 29.8 1.8 29.8 M4.7 30.35 L5.4 32.4 5.1 32.25 4.7 30.95 4.7 30.35 M2.15 32.25 L1.85 32.4 2.5 30.35 2.5 30.95 2.15 32.25 M3.95 33.7 L3.95 33.05 6.3 35.55 9.45 34.3 9.0 35.15 6.3 36.2 3.95 33.7 M7.7 37.25 L10.1 40.05 9.45 39.9 7.7 37.85 7.7 37.25 M1.85 38.05 L0.85 37.75 4.0 36.5 4.0 37.1 1.85 38.05" fill="#674512" fill-rule="evenodd" stroke="none"/>
      <path d="M12.35 41.4 L11.65 40.9 12.75 40.9 13.45 38.95 14.2 40.9 15.3 40.9 14.55 41.4 14.55 42.05 14.95 43.3 13.45 42.2 12.0 43.3 12.35 42.05 12.35 41.4 M1.8 29.8 L2.9 29.8 3.6 27.9 4.35 29.8 5.45 29.8 4.7 30.35 4.7 30.95 5.1 32.25 3.6 31.15 2.15 32.25 2.5 30.95 2.5 30.35 1.8 29.8 M9.0 35.15 L7.7 37.25 7.7 37.85 9.45 39.9 6.45 39.15 4.5 42.4 4.25 38.65 1.85 38.05 4.0 37.1 4.0 36.5 3.95 33.7 6.3 36.2 9.0 35.15" fill="#815815" fill-rule="evenodd" stroke="none"/>
    </g>
  </defs>
</svg>
