<?xml version="1.0" encoding="UTF-8" standalone="no"?>
<svg xmlns:xlink="http://www.w3.org/1999/xlink" height="44.0px" width="44.0px" xmlns="http://www.w3.org/2000/svg">
  <g transform="matrix(1.0, 0.0, 0.0, 1.0, 0.1, 0.0)">
    <use height="37.1" transform="matrix(1.0, 0.0, 0.0, 1.0, 3.35, 3.55)" width="37.2" xlink:href="#shape0"/>
    <use height="20.15" transform="matrix(1.1594, 0.0, 0.0, 1.1594, 5.75, 5.3)" width="28.2" xlink:href="#sprite0"/>
    <use height="44.0" transform="matrix(1.0, 0.0, 0.0, 1.0, -0.05, 0.05)" width="44.0" xlink:href="#shape2"/>
    <use height="8.6" transform="matrix(1.2125, 0.0, 0.0, 1.2125, 0.8075, 1.0)" width="35.05" xlink:href="#sprite1"/>
    <use height="40.5" transform="matrix(1.0, 0.0, 0.0, 1.0, -0.05, 3.55)" width="43.95" xlink:href="#shape4"/>
    <use height="20.15" transform="matrix(1.1594, 0.0, 0.0, 1.1594, 5.75, 5.3)" width="28.2" xlink:href="#sprite0"/>
    <use height="44.0" transform="matrix(1.0, 0.0, 0.0, 1.0, -0.05, 0.05)" width="44.0" xlink:href="#shape5"/>
    <use height="8.6" transform="matrix(1.2125, 0.0, 0.0, 1.2125, 0.8075, 1.0)" width="35.05" xlink:href="#sprite1"/>
    <use height="17.95" transform="matrix(1.0, 0.0, 0.0, 1.0, -0.05, 26.1)" width="43.95" xlink:href="#shape6"/>
  </g>
  <defs>
    <g id="shape0" transform="matrix(1.0, 0.0, 0.0, 1.0, -3.35, -3.55)">
      <path d="M3.35 22.1 Q3.35 14.4 8.8 9.0 14.25 3.55 22.0 3.55 29.7 3.55 35.15 9.0 40.55 14.45 40.55 22.1 40.55 29.8 35.15 35.25 29.7 40.65 22.0 40.65 14.25 40.65 8.8 35.25 3.35 29.8 3.35 22.1" fill="url(#gradient0)" fill-rule="evenodd" stroke="none"/>
      <path d="M21.9 11.5 L21.9 11.75 Q28.8 11.75 35.8 17.85 26.65 20.0 25.9 22.15 L31.85 22.15 Q27.05 24.95 25.95 27.45 L29.7 27.45 Q25.7 28.8 24.25 32.05 L26.75 32.05 Q23.25 33.2 21.9 35.85 L21.7 36.05 21.7 35.6 Q20.35 33.0 16.85 31.8 L19.35 31.8 Q17.9 28.65 13.9 27.3 L17.65 27.3 Q16.55 24.75 11.7 22.0 L17.7 22.0 Q16.95 19.85 7.8 17.65 14.85 11.45 21.9 11.5" fill="#664411" fill-rule="evenodd" stroke="none"/>
    </g>
    <linearGradient gradientTransform="matrix(0.0, -0.017, -0.0173, 0.0, 21.0, 27.05)" gradientUnits="userSpaceOnUse" id="gradient0" spreadMethod="pad" x1="-819.2" x2="819.2">
      <stop offset="0.011764705882352941" stop-color="#dad67d"/>
      <stop offset="1.0" stop-color="#cfa451"/>
    </linearGradient>
    <g id="sprite0" transform="matrix(1.0, 0.0, 0.0, 1.0, 0.0, 0.0)">
      <use height="20.15" transform="matrix(1.0, 0.0, 0.0, 1.0, 0.0, 0.0)" width="28.2" xlink:href="#shape1"/>
    </g>
    <g id="shape1" transform="matrix(1.0, 0.0, 0.0, 1.0, 0.0, 0.0)">
      <path d="M27.65 18.45 L27.4 18.95 Q26.2 20.8 23.4 19.8 19.6 18.5 17.35 14.05 14.8 9.1 9.75 7.4 4.1 5.65 0.0 10.3 1.0 6.85 3.7 4.15 7.2 0.65 11.9 0.05 L14.8 0.05 18.4 0.65 Q21.55 1.65 24.05 4.15 28.2 8.3 28.2 14.25 28.2 16.45 27.65 18.45" fill="#ffffff" fill-opacity="0.19607843" fill-rule="evenodd" stroke="none"/>
    </g>
    <g id="shape2" transform="matrix(1.0, 0.0, 0.0, 1.0, 0.05, -0.05)">
      <path d="M41.75 2.35 Q43.95 4.55 43.95 7.65 L43.95 36.45 Q43.95 39.65 41.75 41.85 39.55 44.05 36.35 44.05 L7.55 44.05 Q4.4 44.05 2.2 41.85 -0.05 39.65 -0.05 36.45 L-0.05 7.65 Q-0.05 4.55 2.2 2.35 4.4 0.05 7.55 0.05 L36.35 0.05 Q39.5 0.05 41.75 2.35 M40.8 22.1 Q40.8 14.15 35.2 8.65 29.7 3.1 21.8 3.1 13.85 3.1 8.35 8.65 2.8 14.15 2.8 22.1 2.8 30.0 8.35 35.5 13.85 41.15 21.8 41.15 29.7 41.15 35.2 35.5 40.8 30.0 40.8 22.1" fill="url(#gradient1)" fill-rule="evenodd" stroke="none"/>
      <path d="M40.8 22.1 Q40.8 30.0 35.2 35.5 29.7 41.15 21.8 41.15 13.85 41.15 8.35 35.5 2.8 30.0 2.8 22.1 2.8 14.15 8.35 8.65 13.85 3.1 21.8 3.1 29.7 3.1 35.2 8.65 40.8 14.15 40.8 22.1 M33.65 10.4 Q28.7 5.5 21.8 5.45 14.9 5.5 10.05 10.4 5.15 15.2 5.1 22.1 5.15 29.05 10.05 33.9 14.9 38.8 21.8 38.8 28.7 38.8 33.65 33.9 38.45 29.05 38.45 22.1 38.45 15.2 33.65 10.4" fill="url(#gradient2)" fill-rule="evenodd" stroke="none"/>
    </g>
    <linearGradient gradientTransform="matrix(0.0, -0.0258, -0.0551, 0.0, 21.8, 21.9)" gradientUnits="userSpaceOnUse" id="gradient1" spreadMethod="pad" x1="-819.2" x2="819.2">
      <stop offset="0.011764705882352941" stop-color="#c79829"/>
      <stop offset="1.0" stop-color="#be7d1e"/>
    </linearGradient>
    <linearGradient gradientTransform="matrix(1.0E-4, 0.0223, -0.0232, 1.0E-4, 21.85, 22.4)" gradientUnits="userSpaceOnUse" id="gradient2" spreadMethod="pad" x1="-819.2" x2="819.2">
      <stop offset="0.011764705882352941" stop-color="#8d5910"/>
      <stop offset="1.0" stop-color="#d9d597"/>
    </linearGradient>
    <g id="sprite1" transform="matrix(1.0, 0.0, 0.0, 1.0, 0.2, 0.0)">
      <use height="8.6" transform="matrix(1.0, 0.0, 0.0, 1.0, -0.2, 0.0)" width="35.05" xlink:href="#shape3"/>
    </g>
    <g id="shape3" transform="matrix(1.0, 0.0, 0.0, 1.0, 0.2, 0.0)">
      <path d="M34.4 4.4 Q34.85 5.8 34.85 7.65 L34.85 8.6 Q34.8 6.95 34.4 5.7 33.0 1.3 27.2 1.3 L7.45 1.3 Q0.05 1.3 -0.2 8.5 L-0.2 7.65 Q-0.2 0.0 7.45 0.0 L27.2 0.0 Q33.0 0.0 34.4 4.4" fill="#e7deda" fill-rule="evenodd" stroke="none"/>
    </g>
    <g id="shape4" transform="matrix(1.0, 0.0, 0.0, 1.0, 0.05, -3.55)">
      <path d="M38.8 28.0 L39.25 26.85 39.65 26.35 40.35 26.1 Q40.7 26.1 41.0 26.35 L41.45 26.9 41.85 28.0 43.0 28.0 Q43.45 28.0 43.7 28.25 L43.9 28.4 43.9 30.0 43.65 30.15 42.8 30.8 43.2 32.15 43.2 32.85 42.75 33.4 42.05 33.6 41.4 33.35 41.15 33.2 41.1 35.75 43.5 36.7 43.9 36.95 43.55 38.85 43.35 38.9 40.8 39.55 40.6 42.5 40.45 42.8 39.2 43.55 38.95 43.5 38.45 43.05 36.95 40.5 34.15 41.25 33.8 41.25 32.95 41.85 33.35 43.2 33.35 43.9 33.25 44.05 31.1 44.05 30.5 43.65 29.85 44.05 27.65 44.05 27.6 43.85 27.6 43.15 28.0 41.85 27.1 41.25 26.7 40.65 Q26.55 40.25 26.7 39.9 L27.1 39.3 27.8 39.1 28.95 39.1 29.4 37.95 29.8 37.4 30.5 37.2 31.15 37.4 31.6 38.0 32.0 39.1 33.15 39.1 34.8 37.1 33.5 34.9 Q33.35 34.55 33.35 34.2 L33.65 33.5 Q33.85 33.25 34.2 33.2 L34.9 33.25 37.3 34.2 38.0 33.45 37.85 33.35 37.45 32.75 37.45 32.05 37.85 30.8 36.95 30.15 36.55 29.6 Q36.4 29.2 36.55 28.85 L36.95 28.25 Q37.25 28.0 37.65 28.0 L38.8 28.0 M30.6 38.75 L30.35 38.75 29.75 40.25 28.15 40.25 28.05 40.5 29.4 41.4 28.8 43.15 29.0 43.25 30.5 42.2 31.9 43.25 32.15 43.15 31.6 41.4 32.75 40.55 32.7 40.25 31.2 40.25 30.6 38.75 M37.65 35.55 L34.5 34.3 36.25 37.25 33.85 40.05 37.5 39.15 39.45 42.4 39.7 38.65 43.1 37.75 39.95 36.5 40.0 33.05 37.65 35.55 M39.6 29.2 L38.0 29.2 37.9 29.4 39.25 30.35 38.7 32.05 38.85 32.2 40.35 31.15 41.75 32.2 42.0 32.05 41.45 30.35 42.75 29.4 42.6 29.2 41.05 29.2 40.45 27.65 40.2 27.65 39.6 29.2" fill="url(#gradient3)" fill-rule="evenodd" stroke="none"/>
      <path d="M38.5 29.8 L37.65 29.2 39.6 29.2 40.35 27.25 41.05 29.2 43.0 29.2 42.15 29.8 41.05 29.8 40.35 27.9 39.6 29.8 38.5 29.8 M41.45 30.35 L42.1 32.4 41.8 32.25 41.45 30.95 41.45 30.35 M38.85 32.25 L38.55 32.4 39.25 30.35 39.25 30.95 38.85 32.25 M39.95 36.5 L43.1 37.75 42.1 38.05 39.95 37.1 39.95 36.5 M34.5 39.9 L33.85 40.05 36.25 37.25 36.25 37.85 34.5 39.9 M34.95 35.15 L34.5 34.3 37.65 35.55 40.0 33.05 40.0 33.7 37.65 36.2 34.95 35.15 M28.65 40.9 L27.8 40.25 29.75 40.25 30.5 38.35 31.2 40.25 33.15 40.25 32.3 40.9 31.2 40.9 30.5 38.95 29.75 40.9 28.65 40.9 M31.6 41.4 L32.25 43.5 31.95 43.3 31.6 42.05 31.6 41.4 M29.0 43.3 L28.7 43.5 29.4 41.4 29.4 42.05 29.0 43.3" fill="#674512" fill-rule="evenodd" stroke="none"/>
      <path d="M42.15 29.8 L41.45 30.35 41.45 30.95 41.8 32.25 40.35 31.15 38.85 32.25 39.25 30.95 39.25 30.35 38.5 29.8 39.6 29.8 40.35 27.9 41.05 29.8 42.15 29.8 M39.95 36.5 L39.95 37.1 42.1 38.05 39.7 38.65 39.45 42.4 37.5 39.15 34.5 39.9 36.25 37.85 36.25 37.25 34.95 35.15 37.65 36.2 40.0 33.7 39.95 36.5 M32.3 40.9 L31.6 41.4 31.6 42.05 31.95 43.3 30.5 42.2 29.0 43.3 29.4 42.05 29.4 41.4 28.65 40.9 29.75 40.9 30.5 38.95 31.2 40.9 32.3 40.9" fill="#815815" fill-rule="evenodd" stroke="none"/>
      <path d="M4.25 29.2 L5.85 29.2 5.95 29.4 4.6 30.35 5.15 32.05 5.0 32.2 3.5 31.15 2.1 32.2 1.85 32.05 2.4 30.35 1.1 29.4 1.25 29.2 2.8 29.2 3.4 27.65 3.65 27.65 4.25 29.2 M5.05 28.0 L4.6 26.85 4.2 26.35 3.5 26.1 Q3.15 26.1 2.85 26.35 2.5 26.5 2.4 26.9 L2.0 28.0 0.85 28.0 Q0.4 28.0 0.15 28.25 L-0.05 28.4 -0.05 30.0 0.2 30.15 1.05 30.8 0.65 32.15 0.65 32.85 1.1 33.4 1.8 33.6 2.45 33.35 2.7 33.2 2.75 35.75 0.35 36.7 -0.05 36.95 0.3 38.85 0.5 38.9 3.05 39.55 3.25 42.5 3.4 42.8 4.65 43.55 4.9 43.5 5.4 43.05 6.9 40.5 9.7 41.25 10.05 41.25 10.9 41.85 10.5 43.2 10.5 43.9 10.6 44.05 12.75 44.05 13.35 43.65 14.0 44.05 16.2 44.05 16.25 43.85 16.25 43.15 15.85 41.85 16.75 41.25 17.15 40.65 17.15 39.9 16.75 39.3 16.05 39.1 14.9 39.1 14.45 37.95 14.05 37.4 13.35 37.2 12.7 37.4 Q12.35 37.6 12.25 38.0 L11.85 39.1 10.7 39.1 9.05 37.1 10.35 34.9 10.5 34.2 10.2 33.5 Q10.0 33.25 9.65 33.2 L8.95 33.25 6.55 34.2 5.85 33.45 6.0 33.35 6.4 32.75 6.4 32.05 6.0 30.8 6.9 30.15 7.3 29.6 7.3 28.85 6.9 28.25 Q6.6 28.0 6.2 28.0 L5.05 28.0 M13.25 38.75 L13.5 38.75 14.1 40.25 15.7 40.25 15.8 40.5 14.45 41.4 15.05 43.15 14.85 43.25 13.35 42.2 11.95 43.25 11.7 43.15 12.25 41.4 11.1 40.55 11.15 40.25 12.65 40.25 13.25 38.75 M6.2 35.55 L9.35 34.3 7.6 37.25 10.0 40.05 6.35 39.15 4.4 42.4 4.15 38.65 0.75 37.75 3.9 36.5 3.85 33.05 6.2 35.55" fill="url(#gradient4)" fill-rule="evenodd" stroke="none"/>
      <path d="M4.6 30.35 L4.6 30.95 5.0 32.25 5.3 32.4 4.6 30.35 M2.05 32.25 L2.4 30.95 2.4 30.35 1.75 32.4 2.05 32.25 M1.7 29.8 L2.8 29.8 3.5 27.9 4.25 29.8 5.35 29.8 6.2 29.2 4.25 29.2 3.5 27.25 2.8 29.2 0.85 29.2 1.7 29.8 M3.9 36.5 L0.75 37.75 1.75 38.05 3.9 37.1 3.9 36.5 M9.35 39.9 L10.0 40.05 7.6 37.25 7.6 37.85 9.35 39.9 M8.9 35.15 L9.35 34.3 6.2 35.55 3.85 33.05 3.85 33.7 6.2 36.2 8.9 35.15 M11.9 43.3 L12.25 42.05 12.25 41.4 11.6 43.5 11.9 43.3 M11.55 40.9 L12.65 40.9 13.35 38.95 14.1 40.9 15.2 40.9 16.05 40.25 14.1 40.25 13.35 38.35 12.65 40.25 10.7 40.25 11.55 40.9 M14.45 41.4 L14.45 42.05 14.85 43.3 15.15 43.5 14.45 41.4" fill="#674512" fill-rule="evenodd" stroke="none"/>
      <path d="M5.0 32.25 L4.6 30.95 4.6 30.35 5.35 29.8 4.25 29.8 3.5 27.9 2.8 29.8 1.7 29.8 2.4 30.35 2.4 30.95 2.05 32.25 3.5 31.15 5.0 32.25 M3.9 36.5 L3.9 37.1 1.75 38.05 4.15 38.65 4.4 42.4 6.35 39.15 9.35 39.9 7.6 37.85 7.6 37.25 8.9 35.15 6.2 36.2 3.85 33.7 3.9 36.5 M12.25 41.4 L12.25 42.05 11.9 43.3 13.35 42.2 14.85 43.3 14.45 42.05 14.45 41.4 15.2 40.9 14.1 40.9 13.35 38.95 12.65 40.9 11.55 40.9 12.25 41.4" fill="#815815" fill-rule="evenodd" stroke="none"/>
      <path d="M3.35 22.1 Q3.35 14.4 8.8 9.0 14.25 3.55 22.0 3.55 29.7 3.55 35.15 9.0 40.55 14.45 40.55 22.1 40.55 29.8 35.15 35.25 29.7 40.65 22.0 40.65 14.25 40.65 8.8 35.25 3.35 29.8 3.35 22.1" fill="url(#gradient5)" fill-rule="evenodd" stroke="none"/>
      <path d="M11.3 23.85 Q12.35 18.7 15.15 15.9 15.1 15.75 15.25 15.9 L16.3 9.95 19.2 13.45 Q20.4 12.85 21.75 12.95 L24.35 13.25 27.1 9.75 28.4 15.5 28.6 15.6 Q31.6 18.3 32.7 23.45 L32.8 23.9 31.7 23.9 32.8 23.9 33.05 25.8 32.8 27.5 Q32.2 29.45 30.0 30.4 26.2 31.95 22.2 32.1 18.25 32.15 14.35 30.8 12.2 29.8 11.45 28.0 L11.25 27.45 11.2 26.65 11.1 25.75 11.25 24.5 11.25 24.0 11.3 23.85 12.65 23.8 11.3 23.85 M31.8 27.5 L32.8 27.5 31.8 27.5 M31.7 25.8 L33.05 25.8 31.7 25.8 M12.65 25.7 L11.1 25.75 12.65 25.7 M25.4 20.45 Q25.0 19.25 24.4 19.3 23.9 19.15 23.55 20.35 23.15 21.35 23.25 23.1 23.25 24.7 23.7 25.8 24.0 26.9 24.65 27.0 25.25 26.9 25.65 25.8 26.0 24.7 26.0 23.15 25.9 21.35 25.4 20.45 M18.95 19.3 Q18.4 19.4 18.05 20.55 17.7 21.55 17.75 23.25 17.7 24.9 18.25 26.1 18.5 27.1 19.1 27.05 19.65 27.0 20.2 25.95 L20.45 23.2 Q20.4 21.45 19.9 20.45 19.5 19.25 18.95 19.3 M12.7 27.4 L11.25 27.45 12.7 27.4" fill="#664411" fill-rule="evenodd" stroke="none"/>
      <path d="M11.3 23.85 L12.65 23.8 M32.8 23.9 L35.7 23.8 M32.8 23.9 L31.7 23.9 M32.8 27.5 L31.8 27.5 M33.05 25.8 L31.7 25.8 M33.05 25.8 L35.7 25.7 M32.8 27.5 L35.8 27.4 M11.1 25.75 L12.65 25.7 M8.65 23.9 L11.3 23.85 M8.7 27.5 L11.25 27.45 12.7 27.4 M11.1 25.75 L8.65 25.8" fill="none" stroke="#664411" stroke-linecap="round" stroke-linejoin="round" stroke-width="0.75"/>
    </g>
    <linearGradient gradientTransform="matrix(0.0, -0.0258, -0.0551, 0.0, 21.8, 21.95)" gradientUnits="userSpaceOnUse" id="gradient3" spreadMethod="pad" x1="-819.2" x2="819.2">
      <stop offset="0.011764705882352941" stop-color="#c79829"/>
      <stop offset="1.0" stop-color="#be7d1e"/>
    </linearGradient>
    <linearGradient gradientTransform="matrix(0.0, -0.0258, 0.0551, 0.0, 22.05, 21.95)" gradientUnits="userSpaceOnUse" id="gradient4" spreadMethod="pad" x1="-819.2" x2="819.2">
      <stop offset="0.011764705882352941" stop-color="#c79829"/>
      <stop offset="1.0" stop-color="#be7d1e"/>
    </linearGradient>
    <linearGradient gradientTransform="matrix(0.0056, 0.0, 0.0, 0.0043, -24.6, 41.8)" gradientUnits="userSpaceOnUse" id="gradient5" spreadMethod="pad" x1="-819.2" x2="819.2">
      <stop offset="0.011764705882352941" stop-color="#c79829"/>
      <stop offset="1.0" stop-color="#be7d1e"/>
    </linearGradient>
    <g id="shape5" transform="matrix(1.0, 0.0, 0.0, 1.0, 0.05, -0.05)">
      <path d="M40.8 22.1 Q40.8 14.15 35.2 8.65 29.7 3.1 21.8 3.1 13.85 3.1 8.35 8.65 2.8 14.15 2.8 22.1 2.8 30.0 8.35 35.5 13.85 41.15 21.8 41.15 29.7 41.15 35.2 35.5 40.8 30.0 40.8 22.1 M41.75 2.35 Q43.95 4.55 43.95 7.65 L43.95 36.45 Q43.95 39.65 41.75 41.85 39.55 44.05 36.35 44.05 L7.55 44.05 Q4.4 44.05 2.2 41.85 -0.05 39.65 -0.05 36.45 L-0.05 7.65 Q-0.05 4.55 2.2 2.35 4.4 0.05 7.55 0.05 L36.35 0.05 Q39.5 0.05 41.75 2.35" fill="url(#gradient6)" fill-rule="evenodd" stroke="none"/>
      <path d="M33.65 10.4 Q28.7 5.5 21.8 5.45 14.9 5.5 10.05 10.4 5.15 15.2 5.1 22.1 5.15 29.05 10.05 33.9 14.9 38.8 21.8 38.8 28.7 38.8 33.65 33.9 38.45 29.05 38.45 22.1 38.45 15.2 33.65 10.4 M40.8 22.1 Q40.8 30.0 35.2 35.5 29.7 41.15 21.8 41.15 13.85 41.15 8.35 35.5 2.8 30.0 2.8 22.1 2.8 14.15 8.35 8.65 13.85 3.1 21.8 3.1 29.7 3.1 35.2 8.65 40.8 14.15 40.8 22.1" fill="url(#gradient7)" fill-rule="evenodd" stroke="none"/>
    </g>
    <linearGradient gradientTransform="matrix(0.0, -0.0258, -0.0551, 0.0, 21.8, 21.9)" gradientUnits="userSpaceOnUse" id="gradient6" spreadMethod="pad" x1="-819.2" x2="819.2">
      <stop offset="0.011764705882352941" stop-color="#dad67d"/>
      <stop offset="1.0" stop-color="#cfa451"/>
    </linearGradient>
    <linearGradient gradientTransform="matrix(0.0, 0.0059, -0.0232, 0.0, 21.8, 18.45)" gradientUnits="userSpaceOnUse" id="gradient7" spreadMethod="pad" x1="-819.2" x2="819.2">
      <stop offset="0.011764705882352941" stop-color="#8d5910"/>
      <stop offset="1.0" stop-color="#d9d597"/>
    </linearGradient>
    <g id="shape6" transform="matrix(1.0, 0.0, 0.0, 1.0, -0.05, -26.1)">
      <path d="M39.7 29.2 L38.1 29.2 38.0 29.4 39.35 30.35 38.8 32.05 38.95 32.2 40.45 31.15 41.85 32.2 42.1 32.05 41.55 30.35 42.85 29.4 42.7 29.2 41.15 29.2 40.55 27.65 40.3 27.65 39.7 29.2 M38.9 28.0 L39.35 26.85 39.75 26.35 Q40.1 26.1 40.45 26.1 L41.1 26.35 41.55 26.9 41.95 28.0 43.1 28.0 Q43.55 28.0 43.8 28.25 L44.0 28.4 44.0 30.0 43.75 30.15 42.9 30.8 43.3 32.15 43.3 32.85 42.85 33.4 42.15 33.6 41.5 33.35 41.25 33.2 41.2 35.75 43.6 36.7 44.0 36.95 43.65 38.85 43.45 38.9 40.9 39.55 40.7 42.5 40.55 42.8 39.3 43.55 39.05 43.5 38.55 43.05 37.05 40.5 34.25 41.25 33.9 41.25 33.05 41.85 33.45 43.2 33.45 43.9 33.35 44.05 31.2 44.05 30.6 43.65 29.95 44.05 27.75 44.05 27.7 43.85 27.7 43.15 28.1 41.85 27.2 41.25 26.8 40.65 Q26.65 40.25 26.8 39.9 L27.2 39.3 27.9 39.1 29.05 39.1 29.5 37.95 29.9 37.4 30.6 37.2 31.25 37.4 31.7 38.0 32.1 39.1 33.25 39.1 34.9 37.1 33.6 34.9 33.45 34.2 33.75 33.5 Q33.95 33.25 34.3 33.2 L35.0 33.25 37.4 34.2 38.1 33.45 37.95 33.35 37.55 32.75 37.55 32.05 37.95 30.8 37.05 30.15 36.65 29.6 Q36.5 29.2 36.65 28.85 L37.05 28.25 Q37.35 28.0 37.75 28.0 L38.9 28.0 M37.75 35.55 L34.6 34.3 36.35 37.25 33.95 40.05 37.6 39.15 39.55 42.4 39.8 38.65 43.2 37.75 40.05 36.5 40.1 33.05 37.75 35.55 M30.7 38.75 L30.45 38.75 29.85 40.25 28.25 40.25 28.15 40.5 29.5 41.4 28.9 43.15 29.1 43.25 30.6 42.2 32.0 43.25 32.25 43.15 31.7 41.4 32.85 40.55 32.8 40.25 31.3 40.25 30.7 38.75" fill="#d1ae5a" fill-rule="evenodd" stroke="none"/>
      <path d="M38.6 29.8 L37.75 29.2 39.7 29.2 40.45 27.25 41.15 29.2 43.1 29.2 42.25 29.8 41.15 29.8 40.45 27.9 39.7 29.8 38.6 29.8 M41.55 30.35 L42.2 32.4 41.9 32.25 41.55 30.95 41.55 30.35 M38.95 32.25 L38.65 32.4 39.35 30.35 39.35 30.95 38.95 32.25 M40.05 36.5 L43.2 37.75 42.2 38.05 40.05 37.1 40.05 36.5 M34.6 39.9 L33.95 40.05 36.35 37.25 36.35 37.85 34.6 39.9 M35.05 35.15 L34.6 34.3 37.75 35.55 40.1 33.05 40.1 33.7 37.75 36.2 35.05 35.15 M32.4 40.9 L31.3 40.9 30.6 38.95 29.85 40.9 28.75 40.9 27.9 40.25 29.85 40.25 30.6 38.35 31.3 40.25 33.25 40.25 32.4 40.9 M29.5 41.4 L29.5 42.05 29.1 43.3 28.8 43.5 29.5 41.4 M32.05 43.3 L31.7 42.05 31.7 41.4 32.35 43.5 32.05 43.3" fill="#674512" fill-rule="evenodd" stroke="none"/>
      <path d="M42.25 29.8 L41.55 30.35 41.55 30.95 41.9 32.25 40.45 31.15 38.95 32.25 39.35 30.95 39.35 30.35 38.6 29.8 39.7 29.8 40.45 27.9 41.15 29.8 42.25 29.8 M40.05 36.5 L40.05 37.1 42.2 38.05 39.8 38.65 39.55 42.4 37.6 39.15 34.6 39.9 36.35 37.85 36.35 37.25 35.05 35.15 37.75 36.2 40.1 33.7 40.05 36.5 M28.75 40.9 L29.85 40.9 30.6 38.95 31.3 40.9 32.4 40.9 31.7 41.4 31.7 42.05 32.05 43.3 30.6 42.2 29.1 43.3 29.5 42.05 29.5 41.4 28.75 40.9" fill="#815815" fill-rule="evenodd" stroke="none"/>
      <path d="M10.3 33.5 L10.6 34.2 10.45 34.9 9.15 37.1 10.8 39.1 11.95 39.1 12.35 38.0 12.8 37.4 13.45 37.2 14.15 37.4 14.55 37.95 15.0 39.1 16.15 39.1 16.85 39.3 17.25 39.9 17.25 40.65 16.85 41.25 15.95 41.85 16.35 43.15 16.35 43.85 16.3 44.05 14.1 44.05 13.45 43.65 12.85 44.05 10.7 44.05 10.6 43.9 10.6 43.2 11.0 41.85 10.15 41.25 9.8 41.25 7.0 40.5 5.5 43.05 5.0 43.5 4.75 43.55 Q4.05 43.25 3.5 42.8 L3.35 42.5 3.15 39.55 0.6 38.9 0.4 38.85 0.05 36.95 Q0.25 36.75 0.45 36.7 L2.85 35.75 2.8 33.2 2.55 33.35 1.9 33.6 1.2 33.4 0.75 32.85 0.75 32.15 1.15 30.8 0.3 30.15 0.05 30.0 0.05 28.4 0.25 28.25 Q0.5 28.0 0.95 28.0 L2.1 28.0 2.5 26.9 2.95 26.35 Q3.25 26.1 3.6 26.1 L4.3 26.35 4.7 26.85 5.15 28.0 6.3 28.0 Q6.7 28.0 7.0 28.25 L7.4 28.85 7.4 29.6 7.0 30.15 6.1 30.8 6.5 32.05 6.5 32.75 6.1 33.35 5.95 33.45 6.65 34.2 9.05 33.25 9.75 33.2 10.3 33.5 M11.2 40.55 L12.35 41.4 11.8 43.15 12.05 43.25 13.45 42.2 14.95 43.25 15.15 43.15 14.55 41.4 15.9 40.5 15.8 40.25 14.2 40.25 13.6 38.75 13.35 38.75 12.75 40.25 11.25 40.25 11.2 40.55 M3.75 27.65 L3.5 27.65 2.9 29.2 1.35 29.2 1.2 29.4 2.5 30.35 1.95 32.05 2.2 32.2 3.6 31.15 5.1 32.2 5.25 32.05 4.7 30.35 6.05 29.4 5.95 29.2 4.35 29.2 3.75 27.65 M4.25 38.65 L4.5 42.4 6.45 39.15 10.1 40.05 7.7 37.25 9.45 34.3 6.3 35.55 3.95 33.05 4.0 36.5 0.85 37.75 4.25 38.65" fill="#d1ae5a" fill-rule="evenodd" stroke="none"/>
      <path d="M12.35 41.4 L12.35 42.05 12.0 43.3 11.7 43.5 12.35 41.4 M14.95 43.3 L14.55 42.05 14.55 41.4 15.25 43.5 14.95 43.3 M15.3 40.9 L14.2 40.9 13.45 38.95 12.75 40.9 11.65 40.9 10.8 40.25 12.75 40.25 13.45 38.35 14.2 40.25 16.15 40.25 15.3 40.9 M1.8 29.8 L0.95 29.2 2.9 29.2 3.6 27.25 4.35 29.2 6.3 29.2 5.45 29.8 4.35 29.8 3.6 27.9 2.9 29.8 1.8 29.8 M4.7 30.35 L5.4 32.4 5.1 32.25 4.7 30.95 4.7 30.35 M2.15 32.25 L1.85 32.4 2.5 30.35 2.5 30.95 2.15 32.25 M3.95 33.7 L3.95 33.05 6.3 35.55 9.45 34.3 9.0 35.15 6.3 36.2 3.95 33.7 M7.7 37.25 L10.1 40.05 9.45 39.9 7.7 37.85 7.7 37.25 M1.85 38.05 L0.85 37.75 4.0 36.5 4.0 37.1 1.85 38.05" fill="#674512" fill-rule="evenodd" stroke="none"/>
      <path d="M12.35 41.4 L11.65 40.9 12.75 40.9 13.45 38.95 14.2 40.9 15.3 40.9 14.55 41.4 14.55 42.05 14.95 43.3 13.45 42.2 12.0 43.3 12.35 42.05 12.35 41.4 M1.8 29.8 L2.9 29.8 3.6 27.9 4.35 29.8 5.45 29.8 4.7 30.35 4.7 30.95 5.1 32.25 3.6 31.15 2.15 32.25 2.5 30.95 2.5 30.35 1.8 29.8 M9.0 35.15 L7.7 37.25 7.7 37.85 9.45 39.9 6.45 39.15 4.5 42.4 4.25 38.65 1.85 38.05 4.0 37.1 4.0 36.5 3.95 33.7 6.3 36.2 9.0 35.15" fill="#815815" fill-rule="evenodd" stroke="none"/>
    </g>
  </defs>
</svg>
