<?xml version="1.0" encoding="UTF-8" standalone="no"?>
<svg xmlns:xlink="http://www.w3.org/1999/xlink" height="44.05px" width="44.05px" xmlns="http://www.w3.org/2000/svg">
  <g transform="matrix(1.0, 0.0, 0.0, 1.0, 0.05, 0.0)">
    <use height="37.1" transform="matrix(1.0, 0.0, 0.0, 1.0, 3.4, 3.6)" width="37.2" xlink:href="#shape0"/>
    <use height="20.15" transform="matrix(1.1594, 0.0, 0.0, 1.1594, 5.8, 5.35)" width="28.2" xlink:href="#sprite0"/>
    <use height="44.0" transform="matrix(1.0, 0.0, 0.0, 1.0, 0.0, 0.1)" width="44.0" xlink:href="#shape2"/>
    <use height="8.6" transform="matrix(1.2125, 0.0, 0.0, 1.2125, 0.8575, 1.05)" width="35.05" xlink:href="#sprite1"/>
    <use height="40.5" transform="matrix(1.0, 0.0, 0.0, 1.0, 0.0, 3.6)" width="43.95" xlink:href="#shape4"/>
    <use height="20.15" transform="matrix(1.1594, 0.0, 0.0, 1.1594, 5.8, 5.35)" width="28.2" xlink:href="#sprite0"/>
    <use height="44.0" transform="matrix(1.0, 0.0, 0.0, 1.0, 0.0, 0.1)" width="44.0" xlink:href="#shape5"/>
    <use height="8.6" transform="matrix(1.2125, 0.0, 0.0, 1.2125, 0.8575, 1.05)" width="35.05" xlink:href="#sprite1"/>
    <use height="17.95" transform="matrix(1.0, 0.0, 0.0, 1.0, 0.0, 26.15)" width="43.95" xlink:href="#shape6"/>
  </g>
  <defs>
    <g id="shape0" transform="matrix(1.0, 0.0, 0.0, 1.0, -3.4, -3.6)">
      <path d="M3.4 22.15 Q3.4 14.45 8.85 9.05 14.3 3.6 22.05 3.6 29.75 3.6 35.2 9.05 40.6 14.5 40.6 22.15 40.6 29.85 35.2 35.3 29.75 40.7 22.05 40.7 14.3 40.7 8.85 35.3 3.4 29.85 3.4 22.15" fill="url(#gradient0)" fill-rule="evenodd" stroke="none"/>
      <path d="M21.95 11.55 L21.95 11.8 Q28.85 11.8 35.85 17.9 26.7 20.05 25.95 22.2 L31.9 22.2 Q27.1 25.0 26.0 27.5 L29.75 27.5 Q25.75 28.85 24.3 32.1 L26.8 32.1 Q23.3 33.25 21.95 35.9 L21.75 36.1 21.75 35.65 Q20.4 33.05 16.9 31.85 L19.4 31.85 Q17.95 28.7 13.95 27.35 L17.7 27.35 Q16.6 24.8 11.75 22.05 L17.75 22.05 Q17.0 19.9 7.85 17.7 14.9 11.5 21.95 11.55" fill="#664411" fill-rule="evenodd" stroke="none"/>
    </g>
    <linearGradient gradientTransform="matrix(0.0, -0.017, -0.0173, 0.0, 21.05, 27.1)" gradientUnits="userSpaceOnUse" id="gradient0" spreadMethod="pad" x1="-819.2" x2="819.2">
      <stop offset="0.011764705882352941" stop-color="#dad67d"/>
      <stop offset="1.0" stop-color="#cfa451"/>
    </linearGradient>
    <g id="sprite0" transform="matrix(1.0, 0.0, 0.0, 1.0, 0.0, 0.0)">
      <use height="20.15" transform="matrix(1.0, 0.0, 0.0, 1.0, 0.0, 0.0)" width="28.2" xlink:href="#shape1"/>
    </g>
    <g id="shape1" transform="matrix(1.0, 0.0, 0.0, 1.0, 0.0, 0.0)">
      <path d="M27.65 18.45 L27.4 18.95 Q26.2 20.8 23.4 19.8 19.6 18.5 17.35 14.05 14.8 9.1 9.75 7.4 4.1 5.65 0.0 10.3 1.0 6.85 3.7 4.15 7.2 0.65 11.9 0.05 L14.8 0.05 18.4 0.65 Q21.55 1.65 24.05 4.15 28.2 8.3 28.2 14.25 28.2 16.45 27.65 18.45" fill="#ffffff" fill-opacity="0.19607843" fill-rule="evenodd" stroke="none"/>
    </g>
    <g id="shape2" transform="matrix(1.0, 0.0, 0.0, 1.0, 0.0, -0.1)">
      <path d="M41.8 2.4 Q44.0 4.6 44.0 7.7 L44.0 36.5 Q44.0 39.7 41.8 41.9 39.6 44.1 36.4 44.1 L7.6 44.1 Q4.45 44.1 2.25 41.9 0.0 39.7 0.0 36.5 L0.0 7.7 Q0.0 4.6 2.25 2.4 4.45 0.1 7.6 0.1 L36.4 0.1 Q39.55 0.1 41.8 2.4 M40.85 22.15 Q40.85 14.2 35.25 8.7 29.75 3.15 21.85 3.15 13.9 3.15 8.4 8.7 2.85 14.2 2.85 22.15 2.85 30.05 8.4 35.55 13.9 41.2 21.85 41.2 29.75 41.2 35.25 35.55 40.85 30.05 40.85 22.15" fill="url(#gradient1)" fill-rule="evenodd" stroke="none"/>
      <path d="M40.85 22.15 Q40.85 30.05 35.25 35.55 29.75 41.2 21.85 41.2 13.9 41.2 8.4 35.55 2.85 30.05 2.85 22.15 2.85 14.2 8.4 8.7 13.9 3.15 21.85 3.15 29.75 3.15 35.25 8.7 40.85 14.2 40.85 22.15 M33.7 10.45 Q28.75 5.55 21.85 5.5 14.95 5.55 10.1 10.45 5.2 15.25 5.15 22.15 5.2 29.1 10.1 33.95 14.95 38.85 21.85 38.85 28.75 38.85 33.7 33.95 38.5 29.1 38.5 22.15 38.5 15.25 33.7 10.45" fill="url(#gradient2)" fill-rule="evenodd" stroke="none"/>
    </g>
    <linearGradient gradientTransform="matrix(0.0, -0.0258, -0.0551, 0.0, 21.85, 21.95)" gradientUnits="userSpaceOnUse" id="gradient1" spreadMethod="pad" x1="-819.2" x2="819.2">
      <stop offset="0.011764705882352941" stop-color="#c79829"/>
      <stop offset="1.0" stop-color="#be7d1e"/>
    </linearGradient>
    <linearGradient gradientTransform="matrix(1.0E-4, 0.0223, -0.0232, 1.0E-4, 21.9, 22.45)" gradientUnits="userSpaceOnUse" id="gradient2" spreadMethod="pad" x1="-819.2" x2="819.2">
      <stop offset="0.011764705882352941" stop-color="#8d5910"/>
      <stop offset="1.0" stop-color="#d9d597"/>
    </linearGradient>
    <g id="sprite1" transform="matrix(1.0, 0.0, 0.0, 1.0, 0.2, 0.0)">
      <use height="8.6" transform="matrix(1.0, 0.0, 0.0, 1.0, -0.2, 0.0)" width="35.05" xlink:href="#shape3"/>
    </g>
    <g id="shape3" transform="matrix(1.0, 0.0, 0.0, 1.0, 0.2, 0.0)">
      <path d="M34.4 4.4 Q34.85 5.8 34.85 7.65 L34.85 8.6 Q34.8 6.95 34.4 5.7 33.0 1.3 27.2 1.3 L7.45 1.3 Q0.05 1.3 -0.2 8.5 L-0.2 7.65 Q-0.2 0.0 7.45 0.0 L27.2 0.0 Q33.0 0.0 34.4 4.4" fill="#e7deda" fill-rule="evenodd" stroke="none"/>
    </g>
    <g id="shape4" transform="matrix(1.0, 0.0, 0.0, 1.0, 0.0, -3.6)">
      <path d="M38.85 28.05 L39.3 26.9 39.7 26.4 Q40.05 26.15 40.4 26.15 L41.05 26.4 41.5 26.95 41.9 28.05 43.05 28.05 43.75 28.3 43.95 28.45 43.95 30.05 43.7 30.2 42.85 30.85 43.25 32.2 43.25 32.9 42.8 33.45 42.1 33.65 41.45 33.4 41.2 33.25 41.15 35.8 43.55 36.75 Q43.75 36.8 43.95 37.0 L43.6 38.9 43.4 38.95 40.85 39.6 40.65 42.55 40.5 42.85 39.25 43.6 39.0 43.55 38.5 43.1 37.0 40.55 34.2 41.3 33.85 41.3 33.0 41.9 33.4 43.25 33.4 43.95 33.3 44.1 31.15 44.1 30.55 43.7 29.9 44.1 27.7 44.1 27.65 43.9 27.65 43.2 28.05 41.9 27.15 41.3 26.75 40.7 Q26.6 40.3 26.75 39.95 L27.15 39.35 27.85 39.15 29.0 39.15 29.45 38.0 Q29.6 37.65 29.85 37.45 L30.55 37.25 31.2 37.45 31.65 38.05 32.05 39.15 33.2 39.15 34.85 37.15 33.55 34.95 33.4 34.25 33.7 33.55 Q33.9 33.3 34.25 33.25 L34.95 33.3 37.35 34.25 38.05 33.5 37.9 33.4 37.5 32.8 37.5 32.1 37.9 30.85 37.0 30.2 36.6 29.65 Q36.45 29.25 36.6 28.9 L37.0 28.3 Q37.3 28.05 37.7 28.05 L38.85 28.05 M30.65 38.8 L30.4 38.8 29.8 40.3 28.2 40.3 28.1 40.55 29.45 41.45 28.85 43.2 29.05 43.3 30.55 42.25 31.95 43.3 32.2 43.2 31.65 41.45 32.8 40.6 32.75 40.3 31.25 40.3 30.65 38.8 M37.7 35.6 L34.55 34.35 36.3 37.3 33.9 40.1 37.55 39.2 39.5 42.45 39.75 38.7 43.15 37.8 40.0 36.55 40.05 33.1 37.7 35.6 M39.65 29.25 L38.05 29.25 37.95 29.45 39.3 30.4 38.75 32.1 38.9 32.25 40.4 31.2 41.8 32.25 42.05 32.1 41.5 30.4 42.8 29.45 42.65 29.25 41.1 29.25 40.5 27.7 40.25 27.7 39.65 29.25" fill="url(#gradient3)" fill-rule="evenodd" stroke="none"/>
      <path d="M38.55 29.85 L37.7 29.25 39.65 29.25 40.4 27.3 41.1 29.25 43.05 29.25 42.2 29.85 41.1 29.85 40.4 27.95 39.65 29.85 38.55 29.85 M41.5 30.4 L42.15 32.45 41.85 32.3 41.5 31.0 41.5 30.4 M38.9 32.3 L38.6 32.45 39.3 30.4 39.3 31.0 38.9 32.3 M40.0 36.55 L43.15 37.8 42.15 38.1 40.0 37.15 40.0 36.55 M34.55 39.95 L33.9 40.1 36.3 37.3 36.3 37.9 34.55 39.95 M35.0 35.2 L34.55 34.35 37.7 35.6 40.05 33.1 40.05 33.75 37.7 36.25 35.0 35.2 M28.7 40.95 L27.85 40.3 29.8 40.3 30.55 38.4 31.25 40.3 33.2 40.3 32.35 40.95 31.25 40.95 30.55 39.0 29.8 40.95 28.7 40.95 M31.65 41.45 L32.3 43.55 32.0 43.35 31.65 42.1 31.65 41.45 M29.05 43.35 L28.75 43.55 29.45 41.45 29.45 42.1 29.05 43.35" fill="#674512" fill-rule="evenodd" stroke="none"/>
      <path d="M42.2 29.85 L41.5 30.4 41.5 31.0 41.85 32.3 40.4 31.2 38.9 32.3 39.3 31.0 39.3 30.4 38.55 29.85 39.65 29.85 40.4 27.95 41.1 29.85 42.2 29.85 M40.0 36.55 L40.0 37.15 42.15 38.1 39.75 38.7 39.5 42.45 37.55 39.2 34.55 39.95 36.3 37.9 36.3 37.3 35.0 35.2 37.7 36.25 40.05 33.75 40.0 36.55 M32.35 40.95 L31.65 41.45 31.65 42.1 32.0 43.35 30.55 42.25 29.05 43.35 29.45 42.1 29.45 41.45 28.7 40.95 29.8 40.95 30.55 39.0 31.25 40.95 32.35 40.95" fill="#815815" fill-rule="evenodd" stroke="none"/>
      <path d="M4.3 29.25 L5.9 29.25 6.0 29.45 4.65 30.4 5.2 32.1 5.05 32.25 3.55 31.2 2.15 32.25 1.9 32.1 2.45 30.4 1.15 29.45 1.3 29.25 2.85 29.25 3.45 27.7 3.7 27.7 4.3 29.25 M5.1 28.05 L4.65 26.9 4.25 26.4 Q3.9 26.15 3.55 26.15 L2.9 26.4 Q2.55 26.55 2.45 26.95 L2.05 28.05 0.9 28.05 0.2 28.3 0.0 28.45 0.0 30.05 0.25 30.2 1.1 30.85 0.7 32.2 0.7 32.9 1.15 33.45 Q1.45 33.65 1.85 33.65 L2.5 33.4 2.75 33.25 2.8 35.8 0.4 36.75 0.0 37.0 0.35 38.9 0.55 38.95 3.1 39.6 3.3 42.55 3.45 42.85 4.7 43.6 4.95 43.55 5.45 43.1 6.95 40.55 9.75 41.3 10.1 41.3 10.95 41.9 10.55 43.25 10.55 43.95 10.65 44.1 12.8 44.1 13.4 43.7 14.05 44.1 16.25 44.1 16.3 43.9 16.3 43.2 15.9 41.9 16.8 41.3 17.2 40.7 17.2 39.95 16.8 39.35 16.1 39.15 14.95 39.15 14.5 38.0 14.1 37.45 13.4 37.25 12.75 37.45 Q12.4 37.65 12.3 38.05 L11.9 39.15 10.75 39.15 9.1 37.15 10.4 34.95 10.55 34.25 10.25 33.55 9.7 33.25 9.0 33.3 6.6 34.25 5.9 33.5 6.05 33.4 6.45 32.8 6.45 32.1 6.05 30.85 6.95 30.2 7.35 29.65 7.35 28.9 6.95 28.3 6.25 28.05 5.1 28.05 M13.3 38.8 L13.55 38.8 14.15 40.3 15.75 40.3 15.85 40.55 14.5 41.45 15.1 43.2 14.9 43.3 13.4 42.25 12.0 43.3 11.75 43.2 12.3 41.45 11.15 40.6 11.2 40.3 12.7 40.3 13.3 38.8 M6.25 35.6 L9.4 34.35 7.65 37.3 10.05 40.1 6.4 39.2 4.45 42.45 4.2 38.7 0.8 37.8 3.95 36.55 3.9 33.1 6.25 35.6" fill="url(#gradient4)" fill-rule="evenodd" stroke="none"/>
      <path d="M4.65 30.4 L4.65 31.0 5.05 32.3 5.35 32.45 4.65 30.4 M2.1 32.3 L2.45 31.0 2.45 30.4 1.8 32.45 2.1 32.3 M1.75 29.85 L2.85 29.85 3.55 27.95 4.3 29.85 5.4 29.85 6.25 29.25 4.3 29.25 3.55 27.3 2.85 29.25 0.9 29.25 1.75 29.85 M3.95 36.55 L0.8 37.8 1.8 38.1 3.95 37.15 3.95 36.55 M9.4 39.95 L10.05 40.1 7.65 37.3 7.65 37.9 9.4 39.95 M8.95 35.2 L9.4 34.35 6.25 35.6 3.9 33.1 3.9 33.75 6.25 36.25 8.95 35.2 M11.95 43.35 L12.3 42.1 12.3 41.45 11.65 43.55 11.95 43.35 M11.6 40.95 L12.7 40.95 13.4 39.0 14.15 40.95 15.25 40.95 16.1 40.3 14.15 40.3 13.4 38.4 12.7 40.3 10.75 40.3 11.6 40.95 M14.5 41.45 L14.5 42.1 14.9 43.35 15.2 43.55 14.5 41.45" fill="#674512" fill-rule="evenodd" stroke="none"/>
      <path d="M5.05 32.3 L4.65 31.0 4.65 30.4 5.4 29.85 4.3 29.85 3.55 27.95 2.85 29.85 1.75 29.85 2.45 30.4 2.45 31.0 2.1 32.3 3.55 31.2 5.05 32.3 M3.95 36.55 L3.95 37.15 1.8 38.1 4.2 38.7 4.45 42.45 6.4 39.2 9.4 39.95 7.65 37.9 7.65 37.3 8.95 35.2 6.25 36.25 3.9 33.75 3.95 36.55 M12.3 41.45 L12.3 42.1 11.95 43.35 13.4 42.25 14.9 43.35 14.5 42.1 14.5 41.45 15.25 40.95 14.15 40.95 13.4 39.0 12.7 40.95 11.6 40.95 12.3 41.45" fill="#815815" fill-rule="evenodd" stroke="none"/>
      <path d="M3.4 22.15 Q3.4 14.45 8.85 9.05 14.3 3.6 22.05 3.6 29.75 3.6 35.2 9.05 40.6 14.5 40.6 22.15 40.6 29.85 35.2 35.3 29.75 40.7 22.05 40.7 14.3 40.7 8.85 35.3 3.4 29.85 3.4 22.15" fill="url(#gradient5)" fill-rule="evenodd" stroke="none"/>
      <path d="M31.3 15.7 L31.9 15.9 32.1 16.45 31.9 17.0 31.3 17.25 30.75 17.0 30.55 16.45 30.75 15.9 31.3 15.7 M29.6 13.6 Q30.85 13.6 31.7 14.4 29.85 15.0 28.8 16.25 L28.4 16.8 28.2 17.15 28.1 17.25 Q27.75 17.9 27.55 18.65 28.4 19.45 29.6 19.45 L30.3 19.4 Q31.0 20.75 31.1 22.25 31.2 24.95 29.85 26.45 L29.35 26.9 Q28.9 27.1 28.5 27.35 25.85 28.85 21.95 28.85 18.1 28.85 15.35 27.35 L14.55 26.9 14.0 26.45 Q12.7 24.95 12.75 22.25 12.9 20.75 13.55 19.4 L14.25 19.45 Q15.55 19.45 16.35 18.65 L16.0 17.65 15.75 17.25 15.7 17.15 15.55 16.8 Q14.35 15.1 12.15 14.4 13.05 13.6 14.25 13.6 15.3 13.6 16.0 14.1 L16.35 14.4 17.05 15.55 Q19.25 14.2 21.95 14.2 24.65 14.2 26.85 15.55 27.05 14.95 27.55 14.4 28.1 13.9 28.8 13.7 L29.6 13.6 M31.7 20.75 Q32.5 17.2 34.95 18.35 38.45 19.85 36.15 23.75 34.75 26.0 31.65 26.95 30.7 28.4 32.9 28.95 L33.15 28.5 Q33.4 28.25 33.75 28.25 L34.45 28.5 34.65 29.2 34.45 29.75 Q34.15 30.05 33.75 30.05 33.4 30.05 33.15 29.75 L31.75 29.55 31.75 29.7 31.55 30.3 Q31.25 30.6 30.85 30.6 30.5 30.6 30.25 30.3 L29.95 29.75 29.2 29.9 29.2 30.05 29.0 30.65 28.3 30.95 Q27.95 30.95 27.7 30.65 27.4 30.4 27.4 30.05 27.4 29.65 27.7 29.35 27.95 29.15 28.3 29.15 L28.55 29.2 28.8 28.6 Q30.95 27.55 31.4 26.0 32.65 23.4 31.7 20.75 M24.75 25.45 L24.65 25.15 24.35 25.0 Q24.15 25.0 24.05 25.15 L23.95 25.45 24.05 25.7 Q24.15 25.85 24.35 25.85 L24.65 25.7 24.75 25.45 M12.55 15.7 L13.15 15.9 13.3 16.45 13.15 17.0 12.55 17.25 12.0 17.0 11.8 16.45 12.0 15.9 12.55 15.7 M12.0 20.75 Q11.05 23.4 12.3 26.0 12.75 27.55 14.95 28.6 L15.2 29.2 15.45 29.15 16.05 29.35 16.35 30.05 16.05 30.65 Q15.8 30.95 15.45 30.95 L14.75 30.65 14.55 30.05 14.6 29.9 13.8 29.75 13.5 30.3 12.9 30.6 Q12.5 30.6 12.2 30.3 L12.0 29.7 12.05 29.55 10.55 29.75 Q10.3 30.05 9.95 30.05 9.55 30.05 9.25 29.75 L9.05 29.2 9.25 28.5 Q9.55 28.25 9.95 28.25 10.3 28.25 10.55 28.5 L10.85 28.95 Q13.05 28.45 12.05 26.95 9.0 26.0 7.6 23.75 5.25 19.85 8.75 18.35 11.25 17.2 12.0 20.75 M19.8 25.7 L19.95 25.45 19.8 25.15 19.55 25.0 Q19.35 25.0 19.25 25.15 19.1 25.2 19.1 25.45 L19.25 25.7 Q19.35 25.85 19.55 25.85 L19.8 25.7" fill="#664411" fill-rule="evenodd" stroke="none"/>
      <path d="M31.3 15.7 L30.75 15.9 30.55 16.45 30.75 17.0 31.3 17.25 31.9 17.0 32.1 16.45 31.9 15.9 31.3 15.7 M12.55 15.7 L13.15 15.9 13.3 16.45 13.15 17.0 12.55 17.25 12.0 17.0 11.8 16.45 12.0 15.9 12.55 15.7" fill="none" stroke="#664411" stroke-linecap="round" stroke-linejoin="round" stroke-width="0.05"/>
    </g>
    <linearGradient gradientTransform="matrix(0.0, -0.0258, -0.0551, 0.0, 21.85, 22.0)" gradientUnits="userSpaceOnUse" id="gradient3" spreadMethod="pad" x1="-819.2" x2="819.2">
      <stop offset="0.011764705882352941" stop-color="#c79829"/>
      <stop offset="1.0" stop-color="#be7d1e"/>
    </linearGradient>
    <linearGradient gradientTransform="matrix(0.0, -0.0258, 0.0551, 0.0, 22.1, 22.0)" gradientUnits="userSpaceOnUse" id="gradient4" spreadMethod="pad" x1="-819.2" x2="819.2">
      <stop offset="0.011764705882352941" stop-color="#c79829"/>
      <stop offset="1.0" stop-color="#be7d1e"/>
    </linearGradient>
    <linearGradient gradientTransform="matrix(0.0056, 0.0, 0.0, 0.0043, -24.55, 41.85)" gradientUnits="userSpaceOnUse" id="gradient5" spreadMethod="pad" x1="-819.2" x2="819.2">
      <stop offset="0.011764705882352941" stop-color="#c79829"/>
      <stop offset="1.0" stop-color="#be7d1e"/>
    </linearGradient>
    <g id="shape5" transform="matrix(1.0, 0.0, 0.0, 1.0, 0.0, -0.1)">
      <path d="M40.85 22.15 Q40.85 14.2 35.25 8.7 29.75 3.15 21.85 3.15 13.9 3.15 8.4 8.7 2.85 14.2 2.85 22.15 2.85 30.05 8.4 35.55 13.9 41.2 21.85 41.2 29.75 41.2 35.25 35.55 40.85 30.05 40.85 22.15 M41.8 2.4 Q44.0 4.6 44.0 7.7 L44.0 36.5 Q44.0 39.7 41.8 41.9 39.6 44.1 36.4 44.1 L7.6 44.1 Q4.45 44.1 2.25 41.9 0.0 39.7 0.0 36.5 L0.0 7.7 Q0.0 4.6 2.25 2.4 4.45 0.1 7.6 0.1 L36.4 0.1 Q39.55 0.1 41.8 2.4" fill="url(#gradient6)" fill-rule="evenodd" stroke="none"/>
      <path d="M33.7 10.45 Q28.75 5.55 21.85 5.5 14.95 5.55 10.1 10.45 5.2 15.25 5.15 22.15 5.2 29.1 10.1 33.95 14.95 38.85 21.85 38.85 28.75 38.85 33.7 33.95 38.5 29.1 38.5 22.15 38.5 15.25 33.7 10.45 M40.85 22.15 Q40.85 30.05 35.25 35.55 29.75 41.2 21.85 41.2 13.9 41.2 8.4 35.55 2.85 30.05 2.85 22.15 2.85 14.2 8.4 8.7 13.9 3.15 21.85 3.15 29.75 3.15 35.25 8.7 40.85 14.2 40.85 22.15" fill="url(#gradient7)" fill-rule="evenodd" stroke="none"/>
    </g>
    <linearGradient gradientTransform="matrix(0.0, -0.0258, -0.0551, 0.0, 21.85, 21.95)" gradientUnits="userSpaceOnUse" id="gradient6" spreadMethod="pad" x1="-819.2" x2="819.2">
      <stop offset="0.011764705882352941" stop-color="#dad67d"/>
      <stop offset="1.0" stop-color="#cfa451"/>
    </linearGradient>
    <linearGradient gradientTransform="matrix(0.0, 0.0059, -0.0232, 0.0, 21.85, 18.5)" gradientUnits="userSpaceOnUse" id="gradient7" spreadMethod="pad" x1="-819.2" x2="819.2">
      <stop offset="0.011764705882352941" stop-color="#8d5910"/>
      <stop offset="1.0" stop-color="#d9d597"/>
    </linearGradient>
    <g id="shape6" transform="matrix(1.0, 0.0, 0.0, 1.0, -0.05, -26.1)">
      <path d="M39.7 29.2 L38.1 29.2 38.0 29.4 39.35 30.35 38.8 32.05 38.95 32.2 40.45 31.15 41.85 32.2 42.1 32.05 41.55 30.35 42.85 29.4 42.7 29.2 41.15 29.2 40.55 27.65 40.3 27.65 39.7 29.2 M38.9 28.0 L39.35 26.85 39.75 26.35 Q40.1 26.1 40.45 26.1 L41.1 26.35 41.55 26.9 41.95 28.0 43.1 28.0 Q43.55 28.0 43.8 28.25 L44.0 28.4 44.0 30.0 43.75 30.15 42.9 30.8 43.3 32.15 43.3 32.85 42.85 33.4 42.15 33.6 41.5 33.35 41.25 33.2 41.2 35.75 43.6 36.7 44.0 36.95 43.65 38.85 43.45 38.9 40.9 39.55 40.7 42.5 40.55 42.8 39.3 43.55 39.05 43.5 38.55 43.05 37.05 40.5 34.25 41.25 33.9 41.25 33.05 41.85 33.45 43.2 33.45 43.9 33.35 44.05 31.2 44.05 30.6 43.65 29.95 44.05 27.75 44.05 27.7 43.85 27.7 43.15 28.1 41.85 27.2 41.25 26.8 40.65 Q26.65 40.25 26.8 39.9 L27.2 39.3 27.9 39.1 29.05 39.1 29.5 37.95 29.9 37.4 30.6 37.2 31.25 37.4 31.7 38.0 32.1 39.1 33.25 39.1 34.9 37.1 33.6 34.9 33.45 34.2 33.75 33.5 Q33.95 33.25 34.3 33.2 L35.0 33.25 37.4 34.2 38.1 33.45 37.95 33.35 37.55 32.75 37.55 32.05 37.95 30.8 37.05 30.15 36.65 29.6 Q36.5 29.2 36.65 28.85 L37.05 28.25 Q37.35 28.0 37.75 28.0 L38.9 28.0 M37.75 35.55 L34.6 34.3 36.35 37.25 33.95 40.05 37.6 39.15 39.55 42.4 39.8 38.65 43.2 37.75 40.05 36.5 40.1 33.05 37.75 35.55 M30.7 38.75 L30.45 38.75 29.85 40.25 28.25 40.25 28.15 40.5 29.5 41.4 28.9 43.15 29.1 43.25 30.6 42.2 32.0 43.25 32.25 43.15 31.7 41.4 32.85 40.55 32.8 40.25 31.3 40.25 30.7 38.75" fill="#d1ae5a" fill-rule="evenodd" stroke="none"/>
      <path d="M38.6 29.8 L37.75 29.2 39.7 29.2 40.45 27.25 41.15 29.2 43.1 29.2 42.25 29.8 41.15 29.8 40.45 27.9 39.7 29.8 38.6 29.8 M41.55 30.35 L42.2 32.4 41.9 32.25 41.55 30.95 41.55 30.35 M38.95 32.25 L38.65 32.4 39.35 30.35 39.35 30.95 38.95 32.25 M40.05 36.5 L43.2 37.75 42.2 38.05 40.05 37.1 40.05 36.5 M34.6 39.9 L33.95 40.05 36.35 37.25 36.35 37.85 34.6 39.9 M35.05 35.15 L34.6 34.3 37.75 35.55 40.1 33.05 40.1 33.7 37.75 36.2 35.05 35.15 M32.4 40.9 L31.3 40.9 30.6 38.95 29.85 40.9 28.75 40.9 27.9 40.25 29.85 40.25 30.6 38.35 31.3 40.25 33.25 40.25 32.4 40.9 M29.5 41.4 L29.5 42.05 29.1 43.3 28.8 43.5 29.5 41.4 M32.05 43.3 L31.7 42.05 31.7 41.4 32.35 43.5 32.05 43.3" fill="#674512" fill-rule="evenodd" stroke="none"/>
      <path d="M42.25 29.8 L41.55 30.35 41.55 30.95 41.9 32.25 40.45 31.15 38.95 32.25 39.35 30.95 39.35 30.35 38.6 29.8 39.7 29.8 40.45 27.9 41.15 29.8 42.25 29.8 M40.05 36.5 L40.05 37.1 42.2 38.05 39.8 38.65 39.55 42.4 37.6 39.15 34.6 39.9 36.35 37.85 36.35 37.25 35.05 35.15 37.75 36.2 40.1 33.7 40.05 36.5 M28.75 40.9 L29.85 40.9 30.6 38.95 31.3 40.9 32.4 40.9 31.7 41.4 31.7 42.05 32.05 43.3 30.6 42.2 29.1 43.3 29.5 42.05 29.5 41.4 28.75 40.9" fill="#815815" fill-rule="evenodd" stroke="none"/>
      <path d="M10.3 33.5 L10.6 34.2 10.45 34.9 9.15 37.1 10.8 39.1 11.95 39.1 12.35 38.0 12.8 37.4 13.45 37.2 14.15 37.4 14.55 37.95 15.0 39.1 16.15 39.1 16.85 39.3 17.25 39.9 17.25 40.65 16.85 41.25 15.95 41.85 16.35 43.15 16.35 43.85 16.3 44.05 14.1 44.05 13.45 43.65 12.85 44.05 10.7 44.05 10.6 43.9 10.6 43.2 11.0 41.85 10.15 41.25 9.8 41.25 7.0 40.5 5.5 43.05 5.0 43.5 4.75 43.55 Q4.05 43.25 3.5 42.8 L3.35 42.5 3.15 39.55 0.6 38.9 0.4 38.85 0.05 36.95 Q0.25 36.75 0.45 36.7 L2.85 35.75 2.8 33.2 2.55 33.35 1.9 33.6 1.2 33.4 0.75 32.85 0.75 32.15 1.15 30.8 0.3 30.15 0.05 30.0 0.05 28.4 0.25 28.25 Q0.5 28.0 0.95 28.0 L2.1 28.0 2.5 26.9 2.95 26.35 Q3.25 26.1 3.6 26.1 L4.3 26.35 4.7 26.85 5.15 28.0 6.3 28.0 Q6.7 28.0 7.0 28.25 L7.4 28.85 7.4 29.6 7.0 30.15 6.1 30.8 6.5 32.05 6.5 32.75 6.1 33.35 5.95 33.45 6.65 34.2 9.05 33.25 9.75 33.2 10.3 33.5 M11.2 40.55 L12.35 41.4 11.8 43.15 12.05 43.25 13.45 42.2 14.95 43.25 15.15 43.15 14.55 41.4 15.9 40.5 15.8 40.25 14.2 40.25 13.6 38.75 13.35 38.75 12.75 40.25 11.25 40.25 11.2 40.55 M3.75 27.65 L3.5 27.65 2.9 29.2 1.35 29.2 1.2 29.4 2.5 30.35 1.95 32.05 2.2 32.2 3.6 31.15 5.1 32.2 5.25 32.05 4.7 30.35 6.05 29.4 5.95 29.2 4.35 29.2 3.75 27.65 M4.25 38.65 L4.5 42.4 6.45 39.15 10.1 40.05 7.7 37.25 9.45 34.3 6.3 35.55 3.95 33.05 4.0 36.5 0.85 37.75 4.25 38.65" fill="#d1ae5a" fill-rule="evenodd" stroke="none"/>
      <path d="M12.35 41.4 L12.35 42.05 12.0 43.3 11.7 43.5 12.35 41.4 M14.95 43.3 L14.55 42.05 14.55 41.4 15.25 43.5 14.95 43.3 M15.3 40.9 L14.2 40.9 13.45 38.95 12.75 40.9 11.65 40.9 10.8 40.25 12.75 40.25 13.45 38.35 14.2 40.25 16.15 40.25 15.3 40.9 M1.8 29.8 L0.95 29.2 2.9 29.2 3.6 27.25 4.35 29.2 6.3 29.2 5.45 29.8 4.35 29.8 3.6 27.9 2.9 29.8 1.8 29.8 M4.7 30.35 L5.4 32.4 5.1 32.25 4.7 30.95 4.7 30.35 M2.15 32.25 L1.85 32.4 2.5 30.35 2.5 30.95 2.15 32.25 M3.95 33.7 L3.95 33.05 6.3 35.55 9.45 34.3 9.0 35.15 6.3 36.2 3.95 33.7 M7.7 37.25 L10.1 40.05 9.45 39.9 7.7 37.85 7.7 37.25 M1.85 38.05 L0.85 37.75 4.0 36.5 4.0 37.1 1.85 38.05" fill="#674512" fill-rule="evenodd" stroke="none"/>
      <path d="M12.35 41.4 L11.65 40.9 12.75 40.9 13.45 38.95 14.2 40.9 15.3 40.9 14.55 41.4 14.55 42.05 14.95 43.3 13.45 42.2 12.0 43.3 12.35 42.05 12.35 41.4 M1.8 29.8 L2.9 29.8 3.6 27.9 4.35 29.8 5.45 29.8 4.7 30.35 4.7 30.95 5.1 32.25 3.6 31.15 2.15 32.25 2.5 30.95 2.5 30.35 1.8 29.8 M9.0 35.15 L7.7 37.25 7.7 37.85 9.45 39.9 6.45 39.15 4.5 42.4 4.25 38.65 1.85 38.05 4.0 37.1 4.0 36.5 3.95 33.7 6.3 36.2 9.0 35.15" fill="#815815" fill-rule="evenodd" stroke="none"/>
    </g>
  </defs>
</svg>
