<?xml version="1.0" encoding="UTF-8" standalone="no"?>
<svg xmlns:xlink="http://www.w3.org/1999/xlink" height="44.0px" width="44.0px" xmlns="http://www.w3.org/2000/svg">
  <g transform="matrix(1.0, 0.0, 0.0, 1.0, 0.15, 0.0)">
    <use height="20.15" transform="matrix(1.1594, 0.0, 0.0, 1.1594, 5.7, 5.25)" width="28.2" xlink:href="#sprite0"/>
    <use height="44.0" transform="matrix(1.0, 0.0, 0.0, 1.0, -0.1, 0.0)" width="44.0" xlink:href="#shape1"/>
    <use height="8.6" transform="matrix(1.2125, 0.0, 0.0, 1.2125, 0.7575, 0.95)" width="35.05" xlink:href="#sprite1"/>
    <use height="42.0" transform="matrix(1.0, 0.0, 0.0, 1.0, -0.1, 2.0)" width="43.95" xlink:href="#shape3"/>
    <use height="20.15" transform="matrix(1.1594, 0.0, 0.0, 1.1594, 5.7, 5.25)" width="28.2" xlink:href="#sprite0"/>
    <use height="44.0" transform="matrix(1.0, 0.0, 0.0, 1.0, -0.1, 0.0)" width="44.0" xlink:href="#shape4"/>
    <use height="8.6" transform="matrix(1.2125, 0.0, 0.0, 1.2125, 0.7575, 0.95)" width="35.05" xlink:href="#sprite1"/>
    <use height="17.95" transform="matrix(1.0, 0.0, 0.0, 1.0, -0.1, 26.05)" width="43.95" xlink:href="#shape5"/>
  </g>
  <defs>
    <g id="sprite0" transform="matrix(1.0, 0.0, 0.0, 1.0, 0.0, 0.0)">
      <use height="20.15" transform="matrix(1.0, 0.0, 0.0, 1.0, 0.0, 0.0)" width="28.2" xlink:href="#shape0"/>
    </g>
    <g id="shape0" transform="matrix(1.0, 0.0, 0.0, 1.0, 0.0, 0.0)">
      <path d="M27.65 18.45 L27.4 18.95 Q26.2 20.8 23.4 19.8 19.6 18.5 17.35 14.05 14.8 9.1 9.75 7.4 4.1 5.65 0.0 10.3 1.0 6.85 3.7 4.15 7.2 0.65 11.9 0.05 L14.8 0.05 18.4 0.65 Q21.55 1.65 24.05 4.15 28.2 8.3 28.2 14.25 28.2 16.45 27.65 18.45" fill="#ffffff" fill-opacity="0.19607843" fill-rule="evenodd" stroke="none"/>
    </g>
    <g id="shape1" transform="matrix(1.0, 0.0, 0.0, 1.0, 0.1, 0.0)">
      <path d="M41.7 2.3 Q43.9 4.5 43.9 7.6 L43.9 36.4 Q43.9 39.6 41.7 41.8 39.5 44.0 36.3 44.0 L7.5 44.0 Q4.35 44.0 2.15 41.8 -0.1 39.6 -0.1 36.4 L-0.1 7.6 Q-0.1 4.5 2.15 2.3 4.35 0.0 7.5 0.0 L36.3 0.0 Q39.45 0.0 41.7 2.3 M40.75 22.05 Q40.75 14.1 35.15 8.6 29.65 3.05 21.75 3.05 13.8 3.05 8.3 8.6 2.75 14.1 2.75 22.05 2.75 29.95 8.3 35.45 13.8 41.1 21.75 41.1 29.65 41.1 35.15 35.45 40.75 29.95 40.75 22.05" fill="url(#gradient0)" fill-rule="evenodd" stroke="none"/>
      <path d="M40.75 22.05 Q40.75 29.95 35.15 35.45 29.65 41.1 21.75 41.1 13.8 41.1 8.3 35.45 2.75 29.95 2.75 22.05 2.75 14.1 8.3 8.6 13.8 3.05 21.75 3.05 29.65 3.05 35.15 8.6 40.75 14.1 40.75 22.05 M33.6 10.35 Q28.65 5.45 21.75 5.4 14.85 5.45 10.0 10.35 5.1 15.15 5.05 22.05 5.1 29.0 10.0 33.85 14.85 38.75 21.75 38.75 28.65 38.75 33.6 33.85 38.4 29.0 38.4 22.05 38.4 15.15 33.6 10.35" fill="url(#gradient1)" fill-rule="evenodd" stroke="none"/>
    </g>
    <linearGradient gradientTransform="matrix(0.0, -0.0258, -0.0551, 0.0, 21.75, 21.85)" gradientUnits="userSpaceOnUse" id="gradient0" spreadMethod="pad" x1="-819.2" x2="819.2">
      <stop offset="0.011764705882352941" stop-color="#c79829"/>
      <stop offset="1.0" stop-color="#be7d1e"/>
    </linearGradient>
    <linearGradient gradientTransform="matrix(1.0E-4, 0.0223, -0.0232, 1.0E-4, 21.8, 22.35)" gradientUnits="userSpaceOnUse" id="gradient1" spreadMethod="pad" x1="-819.2" x2="819.2">
      <stop offset="0.011764705882352941" stop-color="#8d5910"/>
      <stop offset="1.0" stop-color="#d9d597"/>
    </linearGradient>
    <g id="sprite1" transform="matrix(1.0, 0.0, 0.0, 1.0, 0.2, 0.0)">
      <use height="8.6" transform="matrix(1.0, 0.0, 0.0, 1.0, -0.2, 0.0)" width="35.05" xlink:href="#shape2"/>
    </g>
    <g id="shape2" transform="matrix(1.0, 0.0, 0.0, 1.0, 0.2, 0.0)">
      <path d="M34.4 4.4 Q34.85 5.8 34.85 7.65 L34.85 8.6 Q34.8 6.95 34.4 5.7 33.0 1.3 27.2 1.3 L7.45 1.3 Q0.05 1.3 -0.2 8.5 L-0.2 7.65 Q-0.2 0.0 7.45 0.0 L27.2 0.0 Q33.0 0.0 34.4 4.4" fill="#e7deda" fill-rule="evenodd" stroke="none"/>
    </g>
    <g id="shape3" transform="matrix(1.0, 0.0, 0.0, 1.0, 0.1, -2.0)">
      <path d="M38.75 27.95 L39.2 26.8 39.6 26.3 40.3 26.05 Q40.65 26.05 40.95 26.3 L41.4 26.85 41.8 27.95 42.95 27.95 43.65 28.2 43.85 28.35 43.85 29.95 43.6 30.1 42.75 30.75 43.15 32.1 43.15 32.8 42.7 33.35 42.0 33.55 41.35 33.3 41.1 33.15 41.05 35.7 43.45 36.65 Q43.65 36.7 43.85 36.9 L43.5 38.8 43.3 38.85 40.75 39.5 40.55 42.45 40.4 42.75 39.15 43.5 38.9 43.45 38.4 43.0 36.9 40.45 34.1 41.2 33.75 41.2 32.9 41.8 33.3 43.15 33.3 43.85 33.2 44.0 31.05 44.0 30.45 43.6 29.8 44.0 27.6 44.0 27.55 43.8 27.55 43.1 27.95 41.8 27.05 41.2 26.65 40.6 Q26.5 40.2 26.65 39.85 L27.05 39.25 27.75 39.05 28.9 39.05 29.35 37.9 29.75 37.35 30.45 37.15 31.1 37.35 31.55 37.95 31.95 39.05 33.1 39.05 34.75 37.05 33.45 34.85 33.3 34.15 33.6 33.45 Q33.8 33.2 34.15 33.15 L34.85 33.2 37.25 34.15 37.95 33.4 37.8 33.3 37.4 32.7 37.4 32.0 37.8 30.75 36.9 30.1 36.5 29.55 Q36.35 29.15 36.5 28.8 L36.9 28.2 Q37.2 27.95 37.6 27.95 L38.75 27.95 M30.55 38.7 L30.3 38.7 29.7 40.2 28.1 40.2 28.0 40.45 29.35 41.35 28.75 43.1 28.95 43.2 30.45 42.15 31.85 43.2 32.1 43.1 31.55 41.35 32.7 40.5 32.65 40.2 31.15 40.2 30.55 38.7 M37.6 35.5 L34.45 34.25 36.2 37.2 33.8 40.0 37.45 39.1 39.4 42.35 39.65 38.6 43.05 37.7 39.9 36.45 39.95 33.0 37.6 35.5 M39.55 29.15 L37.95 29.15 37.85 29.35 39.2 30.3 38.65 32.0 38.8 32.15 40.3 31.1 41.7 32.15 41.95 32.0 41.4 30.3 42.7 29.35 42.55 29.15 41.0 29.15 40.4 27.6 40.15 27.6 39.55 29.15" fill="url(#gradient2)" fill-rule="evenodd" stroke="none"/>
      <path d="M38.45 29.75 L37.6 29.15 39.55 29.15 40.3 27.2 41.0 29.15 42.95 29.15 42.1 29.75 41.0 29.75 40.3 27.85 39.55 29.75 38.45 29.75 M41.4 30.3 L42.05 32.35 41.75 32.2 41.4 30.9 41.4 30.3 M38.8 32.2 L38.5 32.35 39.2 30.3 39.2 30.9 38.8 32.2 M39.9 36.45 L43.05 37.7 42.05 38.0 39.9 37.05 39.9 36.45 M34.45 39.85 L33.8 40.0 36.2 37.2 36.2 37.8 34.45 39.85 M34.9 35.1 L34.45 34.25 37.6 35.5 39.95 33.0 39.95 33.65 37.6 36.15 34.9 35.1 M28.6 40.85 L27.75 40.2 29.7 40.2 30.45 38.3 31.15 40.2 33.1 40.2 32.25 40.85 31.15 40.85 30.45 38.9 29.7 40.85 28.6 40.85 M31.55 41.35 L32.2 43.45 31.9 43.25 31.55 42.0 31.55 41.35 M28.95 43.25 L28.65 43.45 29.35 41.35 29.35 42.0 28.95 43.25" fill="#674512" fill-rule="evenodd" stroke="none"/>
      <path d="M42.1 29.75 L41.4 30.3 41.4 30.9 41.75 32.2 40.3 31.1 38.8 32.2 39.2 30.9 39.2 30.3 38.45 29.75 39.55 29.75 40.3 27.85 41.0 29.75 42.1 29.75 M39.9 36.45 L39.9 37.05 42.05 38.0 39.65 38.6 39.4 42.35 37.45 39.1 34.45 39.85 36.2 37.8 36.2 37.2 34.9 35.1 37.6 36.15 39.95 33.65 39.9 36.45 M32.25 40.85 L31.55 41.35 31.55 42.0 31.9 43.25 30.45 42.15 28.95 43.25 29.35 42.0 29.35 41.35 28.6 40.85 29.7 40.85 30.45 38.9 31.15 40.85 32.25 40.85" fill="#815815" fill-rule="evenodd" stroke="none"/>
      <path d="M4.2 29.15 L5.8 29.15 5.9 29.35 4.55 30.3 5.1 32.0 4.95 32.15 3.45 31.1 2.05 32.15 1.8 32.0 2.35 30.3 1.05 29.35 1.2 29.15 2.75 29.15 3.35 27.6 3.6 27.6 4.2 29.15 M5.0 27.95 L4.55 26.8 4.15 26.3 3.45 26.05 Q3.1 26.05 2.8 26.3 L2.35 26.85 1.95 27.95 0.8 27.95 Q0.35 27.95 0.1 28.2 L-0.1 28.35 -0.1 29.95 0.15 30.1 1.0 30.75 0.6 32.1 0.6 32.8 1.05 33.35 1.75 33.55 2.4 33.3 2.65 33.15 2.7 35.7 0.3 36.65 Q0.1 36.7 -0.1 36.9 L0.25 38.8 0.45 38.85 3.0 39.5 3.2 42.45 3.35 42.75 Q3.9 43.2 4.6 43.5 L4.85 43.45 5.35 43.0 6.85 40.45 9.65 41.2 10.0 41.2 10.85 41.8 10.45 43.15 10.45 43.85 10.55 44.0 12.7 44.0 13.3 43.6 13.95 44.0 16.15 44.0 16.2 43.8 16.2 43.1 15.8 41.8 16.7 41.2 17.1 40.6 17.1 39.85 16.7 39.25 16.0 39.05 14.85 39.05 14.4 37.9 14.0 37.35 13.3 37.15 12.65 37.35 12.2 37.95 11.8 39.05 10.65 39.05 9.0 37.05 10.3 34.85 10.45 34.15 10.15 33.45 9.6 33.15 8.9 33.2 6.5 34.15 5.8 33.4 5.95 33.3 6.35 32.7 6.35 32.0 5.95 30.75 6.85 30.1 7.25 29.55 7.25 28.8 6.85 28.2 6.15 27.95 5.0 27.95 M13.2 38.7 L13.45 38.7 14.05 40.2 15.65 40.2 15.75 40.45 14.4 41.35 15.0 43.1 14.8 43.2 13.3 42.15 11.9 43.2 11.65 43.1 12.2 41.35 11.05 40.5 11.1 40.2 12.6 40.2 13.2 38.7 M6.15 35.5 L9.3 34.25 7.55 37.2 9.95 40.0 6.3 39.1 4.35 42.35 4.1 38.6 0.7 37.7 3.85 36.45 3.8 33.0 6.15 35.5" fill="url(#gradient3)" fill-rule="evenodd" stroke="none"/>
      <path d="M4.55 30.3 L4.55 30.9 4.95 32.2 5.25 32.35 4.55 30.3 M2.0 32.2 L2.35 30.9 2.35 30.3 1.7 32.35 2.0 32.2 M1.65 29.75 L2.75 29.75 3.45 27.85 4.2 29.75 5.3 29.75 6.15 29.15 4.2 29.15 3.45 27.2 2.75 29.15 0.8 29.15 1.65 29.75 M3.85 36.45 L0.7 37.7 1.7 38.0 3.85 37.05 3.85 36.45 M9.3 39.85 L9.95 40.0 7.55 37.2 7.55 37.8 9.3 39.85 M8.85 35.1 L9.3 34.25 6.15 35.5 3.8 33.0 3.8 33.65 6.15 36.15 8.85 35.1 M11.85 43.25 L12.2 42.0 12.2 41.35 11.55 43.45 11.85 43.25 M11.5 40.85 L12.6 40.85 13.3 38.9 14.05 40.85 15.15 40.85 16.0 40.2 14.05 40.2 13.3 38.3 12.6 40.2 10.65 40.2 11.5 40.85 M14.4 41.35 L14.4 42.0 14.8 43.25 15.1 43.45 14.4 41.35" fill="#674512" fill-rule="evenodd" stroke="none"/>
      <path d="M4.95 32.2 L4.55 30.9 4.55 30.3 5.3 29.75 4.2 29.75 3.45 27.85 2.75 29.75 1.65 29.75 2.35 30.3 2.35 30.9 2.0 32.2 3.45 31.1 4.95 32.2 M3.85 36.45 L3.85 37.05 1.7 38.0 4.1 38.6 4.35 42.35 6.3 39.1 9.3 39.85 7.55 37.8 7.55 37.2 8.85 35.1 6.15 36.15 3.8 33.65 3.85 36.45 M12.2 41.35 L12.2 42.0 11.85 43.25 13.3 42.15 14.8 43.25 14.4 42.0 14.4 41.35 15.15 40.85 14.05 40.85 13.3 38.9 12.6 40.85 11.5 40.85 12.2 41.35" fill="#815815" fill-rule="evenodd" stroke="none"/>
      <path d="M35.25 33.7 Q29.8 39.1 22.1 39.1 14.35 39.1 8.9 33.7 3.45 28.25 3.45 20.55 3.45 12.85 8.9 7.45 14.35 2.0 22.1 2.0 29.8 2.0 35.25 7.45 40.65 12.9 40.65 20.55 40.65 28.25 35.25 33.7" fill="url(#gradient4)" fill-rule="evenodd" stroke="none"/>
      <path d="M33.9 34.6 Q31.0 37.35 27.5 38.5 L28.6 37.45 Q31.65 34.2 29.85 28.4 28.8 31.6 25.1 33.4 25.45 31.45 24.3 30.4 23.55 32.55 21.6 33.75 19.7 32.55 18.95 30.4 17.8 31.45 18.15 33.4 14.45 31.6 13.4 28.4 11.6 34.2 14.65 37.45 L15.6 38.4 Q11.95 37.05 8.9 34.05 3.7 28.8 3.7 21.35 3.7 15.5 6.9 10.95 5.8 16.6 13.25 21.8 10.1 14.8 13.9 7.75 13.7 10.5 16.15 13.55 L17.6 8.8 Q18.05 11.85 19.75 13.1 20.3 10.55 21.6 9.05 22.95 10.55 23.5 13.1 25.2 11.85 25.55 8.8 L27.05 13.55 Q29.55 10.5 29.25 7.75 33.15 14.8 29.95 21.8 37.75 16.4 36.25 10.55 39.75 15.25 39.75 21.35 39.75 28.8 34.45 34.05 L33.9 34.6 M22.3 20.1 Q22.1 21.4 22.95 22.6 23.55 24.2 21.6 24.4 19.7 24.2 20.3 22.6 21.15 21.4 20.9 20.1 20.35 18.45 19.2 19.1 L19.05 19.1 17.55 20.2 Q15.8 21.9 15.8 24.3 15.8 26.65 17.55 28.4 19.3 30.15 21.6 30.15 23.95 30.15 25.7 28.4 27.4 26.65 27.4 24.3 27.4 21.9 25.7 20.2 L24.15 19.1 24.05 19.1 Q22.9 18.45 22.3 20.1" fill="#664411" fill-rule="evenodd" stroke="none"/>
    </g>
    <linearGradient gradientTransform="matrix(0.0, -0.0258, -0.0551, 0.0, 21.75, 21.9)" gradientUnits="userSpaceOnUse" id="gradient2" spreadMethod="pad" x1="-819.2" x2="819.2">
      <stop offset="0.011764705882352941" stop-color="#c79829"/>
      <stop offset="1.0" stop-color="#be7d1e"/>
    </linearGradient>
    <linearGradient gradientTransform="matrix(0.0, -0.0258, 0.0551, 0.0, 22.0, 21.9)" gradientUnits="userSpaceOnUse" id="gradient3" spreadMethod="pad" x1="-819.2" x2="819.2">
      <stop offset="0.011764705882352941" stop-color="#c79829"/>
      <stop offset="1.0" stop-color="#be7d1e"/>
    </linearGradient>
    <linearGradient gradientTransform="matrix(0.0056, 0.0, 0.0, 0.0043, -24.5, 40.25)" gradientUnits="userSpaceOnUse" id="gradient4" spreadMethod="pad" x1="-819.2" x2="819.2">
      <stop offset="0.011764705882352941" stop-color="#c79829"/>
      <stop offset="1.0" stop-color="#be7d1e"/>
    </linearGradient>
    <g id="shape4" transform="matrix(1.0, 0.0, 0.0, 1.0, 0.1, 0.0)">
      <path d="M40.75 22.05 Q40.75 14.1 35.15 8.6 29.65 3.05 21.75 3.05 13.8 3.05 8.3 8.6 2.75 14.1 2.75 22.05 2.75 29.95 8.3 35.45 13.8 41.1 21.75 41.1 29.65 41.1 35.15 35.45 40.75 29.95 40.75 22.05 M41.7 2.3 Q43.9 4.5 43.9 7.6 L43.9 36.4 Q43.9 39.6 41.7 41.8 39.5 44.0 36.3 44.0 L7.5 44.0 Q4.35 44.0 2.15 41.8 -0.1 39.6 -0.1 36.4 L-0.1 7.6 Q-0.1 4.5 2.15 2.3 4.35 0.0 7.5 0.0 L36.3 0.0 Q39.45 0.0 41.7 2.3" fill="url(#gradient5)" fill-rule="evenodd" stroke="none"/>
      <path d="M33.6 10.35 Q28.65 5.45 21.75 5.4 14.85 5.45 10.0 10.35 5.1 15.15 5.05 22.05 5.1 29.0 10.0 33.85 14.85 38.75 21.75 38.75 28.65 38.75 33.6 33.85 38.4 29.0 38.4 22.05 38.4 15.15 33.6 10.35 M40.75 22.05 Q40.75 29.95 35.15 35.45 29.65 41.1 21.75 41.1 13.8 41.1 8.3 35.45 2.75 29.95 2.75 22.05 2.75 14.1 8.3 8.6 13.8 3.05 21.75 3.05 29.65 3.05 35.15 8.6 40.75 14.1 40.75 22.05" fill="url(#gradient6)" fill-rule="evenodd" stroke="none"/>
    </g>
    <linearGradient gradientTransform="matrix(0.0, -0.0258, -0.0551, 0.0, 21.75, 21.85)" gradientUnits="userSpaceOnUse" id="gradient5" spreadMethod="pad" x1="-819.2" x2="819.2">
      <stop offset="0.011764705882352941" stop-color="#dad67d"/>
      <stop offset="1.0" stop-color="#cfa451"/>
    </linearGradient>
    <linearGradient gradientTransform="matrix(0.0, 0.0059, -0.0232, 0.0, 21.75, 18.4)" gradientUnits="userSpaceOnUse" id="gradient6" spreadMethod="pad" x1="-819.2" x2="819.2">
      <stop offset="0.011764705882352941" stop-color="#8d5910"/>
      <stop offset="1.0" stop-color="#d9d597"/>
    </linearGradient>
    <g id="shape5" transform="matrix(1.0, 0.0, 0.0, 1.0, -0.05, -26.1)">
      <path d="M39.7 29.2 L38.1 29.2 38.0 29.4 39.35 30.35 38.8 32.05 38.95 32.2 40.45 31.15 41.85 32.2 42.1 32.05 41.55 30.35 42.85 29.4 42.7 29.2 41.15 29.2 40.55 27.65 40.3 27.65 39.7 29.2 M38.9 28.0 L39.35 26.85 39.75 26.35 Q40.1 26.1 40.45 26.1 L41.1 26.35 41.55 26.9 41.95 28.0 43.1 28.0 Q43.55 28.0 43.8 28.25 L44.0 28.4 44.0 30.0 43.75 30.15 42.9 30.8 43.3 32.15 43.3 32.85 42.85 33.4 42.15 33.6 41.5 33.35 41.25 33.2 41.2 35.75 43.6 36.7 44.0 36.95 43.65 38.85 43.45 38.9 40.9 39.55 40.7 42.5 40.55 42.8 39.3 43.55 39.05 43.5 38.55 43.05 37.05 40.5 34.25 41.25 33.9 41.25 33.05 41.85 33.45 43.2 33.45 43.9 33.35 44.05 31.2 44.05 30.6 43.65 29.95 44.05 27.75 44.05 27.7 43.85 27.7 43.15 28.1 41.85 27.2 41.25 26.8 40.65 Q26.65 40.25 26.8 39.9 L27.2 39.3 27.9 39.1 29.05 39.1 29.5 37.95 29.9 37.4 30.6 37.2 31.25 37.4 31.7 38.0 32.1 39.1 33.25 39.1 34.9 37.1 33.6 34.9 33.45 34.2 33.75 33.5 Q33.95 33.25 34.3 33.2 L35.0 33.25 37.4 34.2 38.1 33.45 37.95 33.35 37.55 32.75 37.55 32.05 37.95 30.8 37.05 30.15 36.65 29.6 Q36.5 29.2 36.65 28.85 L37.05 28.25 Q37.35 28.0 37.75 28.0 L38.9 28.0 M37.75 35.55 L34.6 34.3 36.35 37.25 33.95 40.05 37.6 39.15 39.55 42.4 39.8 38.65 43.2 37.75 40.05 36.5 40.1 33.05 37.75 35.55 M30.7 38.75 L30.45 38.75 29.85 40.25 28.25 40.25 28.15 40.5 29.5 41.4 28.9 43.15 29.1 43.25 30.6 42.2 32.0 43.25 32.25 43.15 31.7 41.4 32.85 40.55 32.8 40.25 31.3 40.25 30.7 38.75" fill="#d1ae5a" fill-rule="evenodd" stroke="none"/>
      <path d="M38.6 29.8 L37.75 29.2 39.7 29.2 40.45 27.25 41.15 29.2 43.1 29.2 42.25 29.8 41.15 29.8 40.45 27.9 39.7 29.8 38.6 29.8 M41.55 30.35 L42.2 32.4 41.9 32.25 41.55 30.95 41.55 30.35 M38.95 32.25 L38.65 32.4 39.35 30.35 39.35 30.95 38.95 32.25 M40.05 36.5 L43.2 37.75 42.2 38.05 40.05 37.1 40.05 36.5 M34.6 39.9 L33.95 40.05 36.35 37.25 36.35 37.85 34.6 39.9 M35.05 35.15 L34.6 34.3 37.75 35.55 40.1 33.05 40.1 33.7 37.75 36.2 35.05 35.15 M32.4 40.9 L31.3 40.9 30.6 38.95 29.85 40.9 28.75 40.9 27.9 40.25 29.85 40.25 30.6 38.35 31.3 40.25 33.25 40.25 32.4 40.9 M29.5 41.4 L29.5 42.05 29.1 43.3 28.8 43.5 29.5 41.4 M32.05 43.3 L31.7 42.05 31.7 41.4 32.35 43.5 32.05 43.3" fill="#674512" fill-rule="evenodd" stroke="none"/>
      <path d="M42.25 29.8 L41.55 30.35 41.55 30.95 41.9 32.25 40.45 31.15 38.95 32.25 39.35 30.95 39.35 30.35 38.6 29.8 39.7 29.8 40.45 27.9 41.15 29.8 42.25 29.8 M40.05 36.5 L40.05 37.1 42.2 38.05 39.8 38.65 39.55 42.4 37.6 39.15 34.6 39.9 36.35 37.85 36.35 37.25 35.05 35.15 37.75 36.2 40.1 33.7 40.05 36.5 M28.75 40.9 L29.85 40.9 30.6 38.95 31.3 40.9 32.4 40.9 31.7 41.4 31.7 42.05 32.05 43.3 30.6 42.2 29.1 43.3 29.5 42.05 29.5 41.4 28.75 40.9" fill="#815815" fill-rule="evenodd" stroke="none"/>
      <path d="M10.3 33.5 L10.6 34.2 10.45 34.9 9.15 37.1 10.8 39.1 11.95 39.1 12.35 38.0 12.8 37.4 13.45 37.2 14.15 37.4 14.55 37.95 15.0 39.1 16.15 39.1 16.85 39.3 17.25 39.9 17.25 40.65 16.85 41.25 15.95 41.85 16.35 43.15 16.35 43.85 16.3 44.05 14.1 44.05 13.45 43.65 12.85 44.05 10.7 44.05 10.6 43.9 10.6 43.2 11.0 41.85 10.15 41.25 9.8 41.25 7.0 40.5 5.5 43.05 5.0 43.5 4.75 43.55 Q4.05 43.25 3.5 42.8 L3.35 42.5 3.15 39.55 0.6 38.9 0.4 38.85 0.05 36.95 Q0.25 36.75 0.45 36.7 L2.85 35.75 2.8 33.2 2.55 33.35 1.9 33.6 1.2 33.4 0.75 32.85 0.75 32.15 1.15 30.8 0.3 30.15 0.05 30.0 0.05 28.4 0.25 28.25 Q0.5 28.0 0.95 28.0 L2.1 28.0 2.5 26.9 2.95 26.35 Q3.25 26.1 3.6 26.1 L4.3 26.35 4.7 26.85 5.15 28.0 6.3 28.0 Q6.7 28.0 7.0 28.25 L7.4 28.85 7.4 29.6 7.0 30.15 6.1 30.8 6.5 32.05 6.5 32.75 6.1 33.35 5.95 33.45 6.65 34.2 9.05 33.25 9.75 33.2 10.3 33.5 M11.2 40.55 L12.35 41.4 11.8 43.15 12.05 43.25 13.45 42.2 14.95 43.25 15.15 43.15 14.55 41.4 15.9 40.5 15.8 40.25 14.2 40.25 13.6 38.75 13.35 38.75 12.75 40.25 11.25 40.25 11.2 40.55 M3.75 27.65 L3.5 27.65 2.9 29.2 1.35 29.2 1.2 29.4 2.5 30.35 1.95 32.05 2.2 32.2 3.6 31.15 5.1 32.2 5.25 32.05 4.7 30.35 6.05 29.4 5.95 29.2 4.35 29.2 3.75 27.65 M4.25 38.65 L4.5 42.4 6.45 39.15 10.1 40.05 7.7 37.25 9.45 34.3 6.3 35.55 3.95 33.05 4.0 36.5 0.85 37.75 4.25 38.65" fill="#d1ae5a" fill-rule="evenodd" stroke="none"/>
      <path d="M12.35 41.4 L12.35 42.05 12.0 43.3 11.7 43.5 12.35 41.4 M14.95 43.3 L14.55 42.05 14.55 41.4 15.25 43.5 14.95 43.3 M15.3 40.9 L14.2 40.9 13.45 38.95 12.75 40.9 11.65 40.9 10.8 40.25 12.75 40.25 13.45 38.35 14.2 40.25 16.15 40.25 15.3 40.9 M1.8 29.8 L0.95 29.2 2.9 29.2 3.6 27.25 4.35 29.2 6.3 29.2 5.45 29.8 4.35 29.8 3.6 27.9 2.9 29.8 1.8 29.8 M4.7 30.35 L5.4 32.4 5.1 32.25 4.7 30.95 4.7 30.35 M2.15 32.25 L1.85 32.4 2.5 30.35 2.5 30.95 2.15 32.25 M3.95 33.7 L3.95 33.05 6.3 35.55 9.45 34.3 9.0 35.15 6.3 36.2 3.95 33.7 M7.7 37.25 L10.1 40.05 9.45 39.9 7.7 37.85 7.7 37.25 M1.85 38.05 L0.85 37.75 4.0 36.5 4.0 37.1 1.85 38.05" fill="#674512" fill-rule="evenodd" stroke="none"/>
      <path d="M12.35 41.4 L11.65 40.9 12.75 40.9 13.45 38.95 14.2 40.9 15.3 40.9 14.55 41.4 14.55 42.05 14.95 43.3 13.45 42.2 12.0 43.3 12.35 42.05 12.35 41.4 M1.8 29.8 L2.9 29.8 3.6 27.9 4.35 29.8 5.45 29.8 4.7 30.35 4.7 30.95 5.1 32.25 3.6 31.15 2.15 32.25 2.5 30.95 2.5 30.35 1.8 29.8 M9.0 35.15 L7.7 37.25 7.7 37.85 9.45 39.9 6.45 39.15 4.5 42.4 4.25 38.65 1.85 38.05 4.0 37.1 4.0 36.5 3.95 33.7 6.3 36.2 9.0 35.15" fill="#815815" fill-rule="evenodd" stroke="none"/>
    </g>
  </defs>
</svg>
