<?xml version="1.0" encoding="UTF-8" standalone="no"?>
<svg xmlns:xlink="http://www.w3.org/1999/xlink" height="43.0px" width="44.0px" xmlns="http://www.w3.org/2000/svg">
  <g transform="matrix(1.0, 0.0, 0.0, 1.0, 0.0, 0.0)">
    <use height="40.3" transform="matrix(1.0, 0.0, 0.0, 1.0, 1.55, 2.1)" width="40.35" xlink:href="#shape0"/>
    <use height="0.0" transform="matrix(1.2077, 0.0, 0.0, 1.2077, 1.15, 0.8)" width="0.0" xlink:href="#sprite0"/>
    <use height="43.9" transform="matrix(1.0, 0.0, 0.0, 1.0, 0.0, 0.0)" width="44.0" xlink:href="#shape1"/>
    <use height="20.15" transform="matrix(1.1549, 0.0, 0.0, 1.1549, 5.7, 5.4)" width="28.2" xlink:href="#sprite1"/>
    <use height="39.75" transform="matrix(1.0, 0.0, 0.0, 1.0, 1.75, 4.1)" width="40.55" xlink:href="#shape3"/>
    <use height="8.6" transform="matrix(1.2077, 0.0, 0.0, 1.2066, 0.6085, 0.5)" width="35.05" xlink:href="#sprite2"/>
  </g>
  <defs>
    <g id="shape0" transform="matrix(1.0, 0.0, 0.0, 1.0, -1.55, -2.1)">
      <path d="M41.9 22.25 Q41.9 30.6 36.0 36.5 30.1 42.4 21.7 42.4 13.4 42.4 7.5 36.5 1.55 30.6 1.55 22.25 1.55 13.85 7.5 7.95 13.4 2.1 21.7 2.1 30.1 2.1 36.0 7.95 41.9 13.85 41.9 22.25" fill="url(#gradient0)" fill-rule="evenodd" stroke="none"/>
      <path d="M19.7 31.7 Q19.8 31.2 19.4 30.4 L18.75 30.35 Q13.7 29.6 10.2 32.85 11.5 26.65 17.1 25.3 L17.85 25.1 Q17.6 24.75 16.95 24.8 L16.95 23.95 Q15.7 23.3 14.8 24.3 L14.2 25.3 14.45 24.3 Q15.3 21.95 18.15 21.8 18.5 21.3 18.85 21.7 19.1 22.9 18.15 23.55 17.75 24.05 18.65 24.8 L19.4 24.5 20.1 24.2 Q22.95 23.1 21.7 19.85 L21.45 18.8 20.65 18.55 20.45 18.5 Q19.6 18.2 19.3 17.5 18.85 16.45 19.3 15.15 L20.3 13.1 21.1 11.6 22.1 10.8 22.4 10.7 21.95 8.45 20.35 7.6 20.95 6.4 22.55 7.45 23.5 6.2 24.25 6.9 23.3 7.95 23.75 10.3 24.5 10.2 25.25 10.25 25.85 10.75 26.7 10.55 26.85 10.55 Q27.6 10.55 27.95 11.0 28.6 11.55 28.6 12.4 L28.5 13.05 29.7 13.95 33.5 16.0 Q34.85 15.65 35.5 17.0 L34.8 17.0 35.45 17.6 Q34.35 19.5 33.35 19.85 L34.15 20.15 31.85 23.95 32.75 27.7 31.1 25.8 31.2 27.0 29.15 23.4 25.3 20.8 27.4 24.5 Q28.2 26.9 27.3 28.4 L27.4 28.55 Q28.25 29.45 27.85 30.35 L27.7 29.85 Q27.65 30.5 27.15 30.75 27.35 30.4 27.15 30.0 26.85 30.65 26.15 30.7 26.8 30.4 26.5 29.65 L26.25 29.45 Q24.85 30.2 22.5 30.4 L21.95 30.4 21.95 31.65 Q23.2 32.0 23.85 33.55 23.5 33.1 22.55 33.2 L21.95 33.3 20.4 33.35 19.85 33.25 Q19.3 32.85 18.9 33.45 18.9 32.25 19.7 31.75 L19.7 31.7 M30.5 18.75 Q29.65 17.3 30.15 15.65 28.45 16.4 28.75 17.75 L30.5 18.75 M28.5 13.05 Q26.95 11.05 25.15 12.4 L25.8 13.35 Q27.1 14.6 28.5 13.05" fill="#92300b" fill-rule="evenodd" stroke="none"/>
      <path d="M19.7 31.75 L19.7 31.7" fill="none" stroke="#92300b" stroke-linecap="round" stroke-linejoin="round" stroke-width="0.05"/>
    </g>
    <linearGradient gradientTransform="matrix(0.0, -0.0188, -0.0188, 0.0, 21.7, 18.35)" gradientUnits="userSpaceOnUse" id="gradient0" spreadMethod="pad" x1="-819.2" x2="819.2">
      <stop offset="0.011764705882352941" stop-color="#f9cfb3"/>
      <stop offset="1.0" stop-color="#ff5b79"/>
    </linearGradient>
    <g id="shape1" transform="matrix(1.0, 0.0, 0.0, 1.0, 0.0, 0.0)">
      <path d="M34.2 9.75 Q29.15 4.7 22.0 4.7 14.8 4.7 9.75 9.75 4.65 14.8 4.65 22.0 4.65 29.15 9.75 34.2 14.8 39.3 22.0 39.3 29.2 39.3 34.2 34.2 39.25 29.15 39.25 22.0 39.25 14.8 34.2 9.75 M2.2 2.25 Q4.45 0.0 7.55 0.0 L36.35 0.0 Q39.55 0.0 41.75 2.25 44.0 4.5 44.0 7.65 L44.0 36.35 Q44.0 39.45 41.75 41.7 39.55 43.9 36.35 43.9 L7.55 43.9 Q4.45 43.9 2.2 41.7 0.0 39.45 0.0 36.35 L0.0 7.65 Q0.0 4.5 2.2 2.25" fill="url(#gradient1)" fill-rule="evenodd" stroke="none"/>
      <path d="M21.95 5.55 Q15.0 5.6 10.2 10.45 5.3 15.3 5.3 22.15 5.3 29.1 10.2 34.0 15.0 38.8 21.95 38.8 28.75 38.8 33.65 34.0 38.55 29.1 38.55 22.15 38.55 15.3 33.65 10.45 28.8 5.6 21.95 5.55 M35.3 8.8 Q40.9 14.3 40.9 22.15 40.9 30.05 35.3 35.6 29.8 41.15 21.95 41.15 14.0 41.15 8.4 35.6 2.85 30.05 2.85 22.15 2.85 14.3 8.4 8.8 14.0 3.2 21.95 3.2 29.8 3.2 35.3 8.8" fill="url(#gradient2)" fill-rule="evenodd" stroke="none"/>
    </g>
    <linearGradient gradientTransform="matrix(0.0, -0.0275, -0.044, 0.0, 20.9, 22.15)" gradientUnits="userSpaceOnUse" id="gradient1" spreadMethod="pad" x1="-819.2" x2="819.2">
      <stop offset="0.0196078431372549" stop-color="#905a3d"/>
      <stop offset="0.9764705882352941" stop-color="#6a412d"/>
    </linearGradient>
    <linearGradient gradientTransform="matrix(0.0, -0.0168, -0.0168, 0.0, 21.95, 26.8)" gradientUnits="userSpaceOnUse" id="gradient2" spreadMethod="pad" x1="-819.2" x2="819.2">
      <stop offset="0.0196078431372549" stop-color="#a3704d"/>
      <stop offset="0.9803921568627451" stop-color="#492d20"/>
    </linearGradient>
    <g id="sprite1" transform="matrix(1.0, 0.0, 0.0, 1.0, 0.0, 0.0)">
      <use height="20.15" transform="matrix(1.0, 0.0, 0.0, 1.0, 0.0, 0.0)" width="28.2" xlink:href="#shape2"/>
    </g>
    <g id="shape2" transform="matrix(1.0, 0.0, 0.0, 1.0, 0.0, 0.0)">
      <path d="M27.65 18.45 L27.4 18.95 Q26.2 20.8 23.4 19.8 19.6 18.5 17.35 14.05 14.8 9.1 9.75 7.4 4.1 5.65 0.0 10.3 1.0 6.85 3.7 4.15 7.2 0.65 11.9 0.05 L14.8 0.05 18.4 0.65 Q21.55 1.65 24.05 4.15 28.2 8.3 28.2 14.25 28.2 16.45 27.65 18.45" fill="#ffffff" fill-opacity="0.19607843" fill-rule="evenodd" stroke="none"/>
    </g>
    <g id="shape3" transform="matrix(1.0, 0.0, 0.0, 1.0, -1.75, -4.1)">
      <path d="M16.25 40.4 Q12.8 39.4 9.55 37.75 10.85 34.5 13.2 34.0 13.95 37.65 16.25 40.4 M30.25 34.0 Q32.6 34.5 33.9 37.8 30.7 39.55 27.35 40.4 28.95 38.4 29.8 35.8 L30.25 34.0" fill="url(#gradient3)" fill-rule="evenodd" stroke="none"/>
      <path d="M13.2 34.0 Q14.7 37.0 17.9 38.45 L16.25 40.4 Q13.95 37.65 13.2 34.0 M27.35 40.4 L25.55 38.45 Q28.75 37.0 30.25 34.0 L29.8 35.8 Q28.95 38.4 27.35 40.4" fill="#6d4a34" fill-rule="evenodd" stroke="none"/>
      <path d="M31.05 5.85 L30.45 4.1 Q33.9 5.85 36.75 8.8 L36.8 8.9 Q36.0 12.95 32.2 14.15 32.25 10.9 31.5 7.45 L31.05 5.85 M11.75 14.15 Q7.95 12.95 7.15 8.95 L7.35 8.8 Q10.15 5.9 13.45 4.3 L13.15 5.25 Q11.6 9.9 11.75 14.15" fill="url(#gradient4)" fill-rule="evenodd" stroke="none"/>
      <path d="M32.2 14.15 Q31.7 9.75 29.1 7.05 L30.8 5.25 31.05 5.85 31.5 7.45 Q32.25 10.9 32.2 14.15 M11.75 14.15 Q11.6 9.9 13.15 5.25 L14.9 7.05 Q12.3 9.75 11.75 14.15" fill="#492d20" fill-rule="evenodd" stroke="none"/>
      <path d="M1.85 33.4 L1.85 36.15 Q1.85 37.1 2.4 37.75 2.95 38.4 3.8 38.4 4.6 38.4 5.25 37.75 5.8 37.1 5.8 36.15 L5.8 34.85 M42.2 33.4 L42.2 36.15 Q42.2 37.1 41.6 37.75 41.1 38.4 40.25 38.4 39.4 38.4 38.8 37.75 38.2 37.1 38.2 36.15 L38.2 34.85" fill="none" stroke="#6a402d" stroke-linecap="round" stroke-linejoin="round" stroke-width="0.25"/>
      <path d="M4.55 11.1 L4.0 10.35 Q3.75 9.5 3.75 8.25 3.75 7.05 4.0 6.2 L4.55 5.45 5.0 6.2 Q5.35 7.05 5.35 8.25 5.35 9.5 5.0 10.35 L4.55 11.1 M39.4 11.1 L38.95 10.35 Q38.6 9.5 38.6 8.25 38.6 7.05 38.95 6.2 L39.4 5.45 39.95 6.2 40.25 8.25 39.95 10.35 39.4 11.1" fill="#331d16" fill-rule="evenodd" stroke="none"/>
      <path d="M4.55 5.45 L4.0 6.2 Q3.75 7.05 3.75 8.25 3.75 9.5 4.0 10.35 L4.55 11.1 4.2 11.2 Q3.7 11.2 3.35 10.35 3.05 9.5 3.05 8.25 3.05 7.05 3.35 6.2 3.7 5.3 4.2 5.3 L4.55 5.45 M39.4 5.45 Q39.6 5.3 39.75 5.3 40.3 5.3 40.65 6.2 L40.9 8.25 40.65 10.35 Q40.3 11.2 39.75 11.2 L39.4 11.1 39.95 10.35 40.25 8.25 39.95 6.2 39.4 5.45" fill="#1a0d09" fill-rule="evenodd" stroke="none"/>
      <path d="M4.55 11.1 L5.0 10.35 Q5.35 9.5 5.35 8.25 5.35 7.05 5.0 6.2 L4.55 5.45 4.2 5.3 Q3.7 5.3 3.35 6.2 3.05 7.05 3.05 8.25 3.05 9.5 3.35 10.35 3.7 11.2 4.2 11.2 L4.55 11.1 M39.4 11.1 L38.95 10.35 Q38.6 9.5 38.6 8.25 38.6 7.05 38.95 6.2 L39.4 5.45 Q39.6 5.3 39.75 5.3 40.3 5.3 40.65 6.2 L40.9 8.25 40.65 10.35 Q40.3 11.2 39.75 11.2 L39.4 11.1" fill="none" stroke="#6a402d" stroke-linecap="round" stroke-linejoin="round" stroke-width="0.05"/>
      <path d="M31.9 43.85 L12.1 43.85 Q12.85 43.5 14.5 43.1 L22.0 42.55 29.5 43.1 31.9 43.85" fill="#6c432e" fill-rule="evenodd" stroke="none"/>
    </g>
    <linearGradient gradientTransform="matrix(0.0, -0.0275, -0.044, 0.0, 20.9, 22.15)" gradientUnits="userSpaceOnUse" id="gradient3" spreadMethod="pad" x1="-819.2" x2="819.2">
      <stop offset="0.0196078431372549" stop-color="#905a3d"/>
      <stop offset="0.9764705882352941" stop-color="#6a412d"/>
    </linearGradient>
    <linearGradient gradientTransform="matrix(0.0, -0.0275, -0.044, 0.0, 20.9, 22.15)" gradientUnits="userSpaceOnUse" id="gradient4" spreadMethod="pad" x1="-819.2" x2="819.2">
      <stop offset="0.0196078431372549" stop-color="#905a3d"/>
      <stop offset="0.9764705882352941" stop-color="#6a412d"/>
    </linearGradient>
    <g id="sprite2" transform="matrix(1.0, 0.0, 0.0, 1.0, 0.2, 0.0)">
      <use height="8.6" transform="matrix(1.0, 0.0, 0.0, 1.0, -0.2, 0.0)" width="35.05" xlink:href="#shape4"/>
    </g>
    <g id="shape4" transform="matrix(1.0, 0.0, 0.0, 1.0, 0.2, 0.0)">
      <path d="M34.4 4.4 Q34.85 5.8 34.85 7.65 L34.85 8.6 Q34.8 6.95 34.4 5.7 33.0 1.3 27.2 1.3 L7.45 1.3 Q0.05 1.3 -0.2 8.5 L-0.2 7.65 Q-0.2 0.0 7.45 0.0 L27.2 0.0 Q33.0 0.0 34.4 4.4" fill="#e7deda" fill-rule="evenodd" stroke="none"/>
    </g>
  </defs>
</svg>
