<?xml version="1.0" encoding="UTF-8" standalone="no"?>
<svg xmlns:xlink="http://www.w3.org/1999/xlink" height="44.05px" width="44.0px" xmlns="http://www.w3.org/2000/svg">
  <g transform="matrix(1.0, 0.0, 0.0, 1.0, 0.0, 0.0)">
    <use height="20.15" transform="matrix(1.1594, 0.0, 0.0, 1.1594, 5.85, 5.35)" width="28.2" xlink:href="#sprite0"/>
    <use height="44.0" transform="matrix(1.0, 0.0, 0.0, 1.0, 0.05, 0.1)" width="44.0" xlink:href="#shape1"/>
    <use height="8.6" transform="matrix(1.2125, 0.0, 0.0, 1.2125, 0.9075, 1.05)" width="35.05" xlink:href="#sprite1"/>
    <use height="42.0" transform="matrix(1.0, 0.0, 0.0, 1.0, 0.05, 2.1)" width="43.95" xlink:href="#shape3"/>
    <use height="20.15" transform="matrix(1.1594, 0.0, 0.0, 1.1594, 5.85, 5.35)" width="28.2" xlink:href="#sprite0"/>
    <use height="44.0" transform="matrix(1.0, 0.0, 0.0, 1.0, 0.05, 0.1)" width="44.0" xlink:href="#shape4"/>
    <use height="8.6" transform="matrix(1.2125, 0.0, 0.0, 1.2125, 0.9075, 1.05)" width="35.05" xlink:href="#sprite1"/>
    <use height="17.95" transform="matrix(1.0, 0.0, 0.0, 1.0, 0.05, 26.15)" width="43.95" xlink:href="#shape5"/>
  </g>
  <defs>
    <g id="sprite0" transform="matrix(1.0, 0.0, 0.0, 1.0, 0.0, 0.0)">
      <use height="20.15" transform="matrix(1.0, 0.0, 0.0, 1.0, 0.0, 0.0)" width="28.2" xlink:href="#shape0"/>
    </g>
    <g id="shape0" transform="matrix(1.0, 0.0, 0.0, 1.0, 0.0, 0.0)">
      <path d="M27.65 18.45 L27.4 18.95 Q26.2 20.8 23.4 19.8 19.6 18.5 17.35 14.05 14.8 9.1 9.75 7.4 4.1 5.65 0.0 10.3 1.0 6.85 3.7 4.15 7.2 0.65 11.9 0.05 L14.8 0.05 18.4 0.65 Q21.55 1.65 24.05 4.15 28.2 8.3 28.2 14.25 28.2 16.45 27.65 18.45" fill="#ffffff" fill-opacity="0.19607843" fill-rule="evenodd" stroke="none"/>
    </g>
    <g id="shape1" transform="matrix(1.0, 0.0, 0.0, 1.0, -0.05, -0.1)">
      <path d="M41.85 2.4 Q44.05 4.6 44.05 7.7 L44.05 36.5 Q44.05 39.7 41.85 41.9 39.65 44.1 36.45 44.1 L7.65 44.1 Q4.5 44.1 2.3 41.9 0.05 39.7 0.05 36.5 L0.05 7.7 Q0.05 4.6 2.3 2.4 4.5 0.1 7.65 0.1 L36.45 0.1 Q39.6 0.1 41.85 2.4 M40.9 22.15 Q40.9 14.2 35.3 8.7 29.8 3.15 21.9 3.15 13.95 3.15 8.45 8.7 2.9 14.2 2.9 22.15 2.9 30.05 8.45 35.55 13.95 41.2 21.9 41.2 29.8 41.2 35.3 35.55 40.9 30.05 40.9 22.15" fill="url(#gradient0)" fill-rule="evenodd" stroke="none"/>
      <path d="M40.9 22.15 Q40.9 30.05 35.3 35.55 29.8 41.2 21.9 41.2 13.95 41.2 8.45 35.55 2.9 30.05 2.9 22.15 2.9 14.2 8.45 8.7 13.95 3.15 21.9 3.15 29.8 3.15 35.3 8.7 40.9 14.2 40.9 22.15 M33.75 10.45 Q28.8 5.55 21.9 5.5 15.0 5.55 10.15 10.45 5.25 15.25 5.2 22.15 5.25 29.1 10.15 33.95 15.0 38.85 21.9 38.85 28.8 38.85 33.75 33.95 38.55 29.1 38.55 22.15 38.55 15.25 33.75 10.45" fill="url(#gradient1)" fill-rule="evenodd" stroke="none"/>
    </g>
    <linearGradient gradientTransform="matrix(0.0, -0.0258, -0.0551, 0.0, 21.9, 21.95)" gradientUnits="userSpaceOnUse" id="gradient0" spreadMethod="pad" x1="-819.2" x2="819.2">
      <stop offset="0.011764705882352941" stop-color="#c79829"/>
      <stop offset="1.0" stop-color="#be7d1e"/>
    </linearGradient>
    <linearGradient gradientTransform="matrix(1.0E-4, 0.0223, -0.0232, 1.0E-4, 21.95, 22.45)" gradientUnits="userSpaceOnUse" id="gradient1" spreadMethod="pad" x1="-819.2" x2="819.2">
      <stop offset="0.011764705882352941" stop-color="#8d5910"/>
      <stop offset="1.0" stop-color="#d9d597"/>
    </linearGradient>
    <g id="sprite1" transform="matrix(1.0, 0.0, 0.0, 1.0, 0.2, 0.0)">
      <use height="8.6" transform="matrix(1.0, 0.0, 0.0, 1.0, -0.2, 0.0)" width="35.05" xlink:href="#shape2"/>
    </g>
    <g id="shape2" transform="matrix(1.0, 0.0, 0.0, 1.0, 0.2, 0.0)">
      <path d="M34.4 4.4 Q34.85 5.8 34.85 7.65 L34.85 8.6 Q34.8 6.95 34.4 5.7 33.0 1.3 27.2 1.3 L7.45 1.3 Q0.05 1.3 -0.2 8.5 L-0.2 7.65 Q-0.2 0.0 7.45 0.0 L27.2 0.0 Q33.0 0.0 34.4 4.4" fill="#e7deda" fill-rule="evenodd" stroke="none"/>
    </g>
    <g id="shape3" transform="matrix(1.0, 0.0, 0.0, 1.0, -0.05, -2.1)">
      <path d="M38.9 28.05 L39.35 26.9 39.75 26.4 Q40.1 26.15 40.45 26.15 L41.1 26.4 41.55 26.95 41.95 28.05 43.1 28.05 Q43.55 28.05 43.8 28.3 L44.0 28.45 44.0 30.05 43.75 30.2 42.9 30.85 43.3 32.2 43.3 32.9 42.85 33.45 42.15 33.65 41.5 33.4 41.25 33.25 41.2 35.8 43.6 36.75 44.0 37.0 43.65 38.9 43.45 38.95 40.9 39.6 40.7 42.55 40.55 42.85 39.3 43.6 39.05 43.55 38.55 43.1 37.05 40.55 34.25 41.3 33.9 41.3 33.05 41.9 33.45 43.25 33.45 43.95 33.35 44.1 31.2 44.1 30.6 43.7 29.95 44.1 27.75 44.1 27.7 43.9 27.7 43.2 28.1 41.9 27.2 41.3 26.8 40.7 Q26.65 40.3 26.8 39.95 L27.2 39.35 27.9 39.15 29.05 39.15 29.5 38.0 29.9 37.45 30.6 37.25 31.25 37.45 31.7 38.05 32.1 39.15 33.25 39.15 34.9 37.15 33.6 34.95 33.45 34.25 33.75 33.55 Q33.95 33.3 34.3 33.25 L35.0 33.3 37.4 34.25 38.1 33.5 37.95 33.4 37.55 32.8 37.55 32.1 37.95 30.85 37.05 30.2 36.65 29.65 Q36.5 29.25 36.65 28.9 L37.05 28.3 Q37.35 28.05 37.75 28.05 L38.9 28.05 M30.7 38.8 L30.45 38.8 29.85 40.3 28.25 40.3 28.15 40.55 29.5 41.45 28.9 43.2 29.1 43.3 30.6 42.25 32.0 43.3 32.25 43.2 31.7 41.45 32.85 40.6 32.8 40.3 31.3 40.3 30.7 38.8 M37.75 35.6 L34.6 34.35 36.35 37.3 33.95 40.1 37.6 39.2 39.55 42.45 39.8 38.7 43.2 37.8 40.05 36.55 40.1 33.1 37.75 35.6 M39.7 29.25 L38.1 29.25 38.0 29.45 39.35 30.4 38.8 32.1 38.95 32.25 40.45 31.2 41.85 32.25 42.1 32.1 41.55 30.4 42.85 29.45 42.7 29.25 41.15 29.25 40.55 27.7 40.3 27.7 39.7 29.25" fill="url(#gradient2)" fill-rule="evenodd" stroke="none"/>
      <path d="M38.6 29.85 L37.75 29.25 39.7 29.25 40.45 27.3 41.15 29.25 43.1 29.25 42.25 29.85 41.15 29.85 40.45 27.95 39.7 29.85 38.6 29.85 M41.55 30.4 L42.2 32.45 41.9 32.3 41.55 31.0 41.55 30.4 M38.95 32.3 L38.65 32.45 39.35 30.4 39.35 31.0 38.95 32.3 M40.05 36.55 L43.2 37.8 42.2 38.1 40.05 37.15 40.05 36.55 M34.6 39.95 L33.95 40.1 36.35 37.3 36.35 37.9 34.6 39.95 M35.05 35.2 L34.6 34.35 37.75 35.6 40.1 33.1 40.1 33.75 37.75 36.25 35.05 35.2 M28.75 40.95 L27.9 40.3 29.85 40.3 30.6 38.4 31.3 40.3 33.25 40.3 32.4 40.95 31.3 40.95 30.6 39.0 29.85 40.95 28.75 40.95 M31.7 41.45 L32.35 43.55 32.05 43.35 31.7 42.1 31.7 41.45 M29.1 43.35 L28.8 43.55 29.5 41.45 29.5 42.1 29.1 43.35" fill="#674512" fill-rule="evenodd" stroke="none"/>
      <path d="M42.25 29.85 L41.55 30.4 41.55 31.0 41.9 32.3 40.45 31.2 38.95 32.3 39.35 31.0 39.35 30.4 38.6 29.85 39.7 29.85 40.45 27.95 41.15 29.85 42.25 29.85 M40.05 36.55 L40.05 37.15 42.2 38.1 39.8 38.7 39.55 42.45 37.6 39.2 34.6 39.95 36.35 37.9 36.35 37.3 35.05 35.2 37.75 36.25 40.1 33.75 40.05 36.55 M32.4 40.95 L31.7 41.45 31.7 42.1 32.05 43.35 30.6 42.25 29.1 43.35 29.5 42.1 29.5 41.45 28.75 40.95 29.85 40.95 30.6 39.0 31.3 40.95 32.4 40.95" fill="#815815" fill-rule="evenodd" stroke="none"/>
      <path d="M4.35 29.25 L5.95 29.25 6.05 29.45 4.7 30.4 5.25 32.1 5.1 32.25 3.6 31.2 2.2 32.25 1.95 32.1 2.5 30.4 1.2 29.45 1.35 29.25 2.9 29.25 3.5 27.7 3.75 27.7 4.35 29.25 M5.15 28.05 L4.7 26.9 4.3 26.4 3.6 26.15 Q3.25 26.15 2.95 26.4 L2.5 26.95 2.1 28.05 0.95 28.05 Q0.5 28.05 0.25 28.3 L0.05 28.45 0.05 30.05 0.3 30.2 1.15 30.85 0.75 32.2 0.75 32.9 1.2 33.45 1.9 33.65 2.55 33.4 2.8 33.25 2.85 35.8 Q1.6 36.3 0.45 36.75 0.25 36.8 0.05 37.0 L0.4 38.9 0.6 38.95 3.15 39.6 3.35 42.55 3.5 42.85 Q4.05 43.3 4.75 43.6 L5.0 43.55 5.5 43.1 7.0 40.55 9.8 41.3 10.15 41.3 11.0 41.9 10.6 43.25 10.6 43.95 10.7 44.1 12.85 44.1 13.45 43.7 14.1 44.1 16.3 44.1 16.35 43.9 16.35 43.2 15.95 41.9 16.85 41.3 17.25 40.7 17.25 39.95 16.85 39.35 16.15 39.15 15.0 39.15 14.55 38.0 14.15 37.45 13.45 37.25 12.8 37.45 12.35 38.05 11.95 39.15 10.8 39.15 9.15 37.15 10.45 34.95 10.6 34.25 10.3 33.55 9.75 33.25 9.05 33.3 6.65 34.25 5.95 33.5 6.1 33.4 6.5 32.8 6.5 32.1 6.1 30.85 7.0 30.2 7.4 29.65 7.4 28.9 7.0 28.3 Q6.7 28.05 6.3 28.05 L5.15 28.05 M13.35 38.8 L13.6 38.8 14.2 40.3 15.8 40.3 15.9 40.55 14.55 41.45 15.15 43.2 14.95 43.3 13.45 42.25 12.05 43.3 11.8 43.2 12.35 41.45 11.2 40.6 11.25 40.3 12.75 40.3 13.35 38.8 M6.3 35.6 L9.45 34.35 7.7 37.3 10.1 40.1 6.45 39.2 4.5 42.45 4.25 38.7 0.85 37.8 4.0 36.55 3.95 33.1 6.3 35.6" fill="url(#gradient3)" fill-rule="evenodd" stroke="none"/>
      <path d="M4.7 30.4 L4.7 31.0 5.1 32.3 5.4 32.45 4.7 30.4 M2.15 32.3 L2.5 31.0 2.5 30.4 1.85 32.45 2.15 32.3 M1.8 29.85 L2.9 29.85 3.6 27.95 4.35 29.85 5.45 29.85 6.3 29.25 4.35 29.25 3.6 27.3 2.9 29.25 0.95 29.25 1.8 29.85 M4.0 36.55 L0.85 37.8 1.85 38.1 4.0 37.15 4.0 36.55 M9.45 39.95 L10.1 40.1 7.7 37.3 7.7 37.9 9.45 39.95 M9.0 35.2 L9.45 34.35 6.3 35.6 3.95 33.1 3.95 33.75 6.3 36.25 9.0 35.2 M12.0 43.35 L12.35 42.1 12.35 41.45 11.7 43.55 12.0 43.35 M11.65 40.95 L12.75 40.95 13.45 39.0 14.2 40.95 15.3 40.95 16.15 40.3 14.2 40.3 13.45 38.4 12.75 40.3 10.8 40.3 11.65 40.95 M14.55 41.45 L14.55 42.1 14.95 43.35 15.25 43.55 14.55 41.45" fill="#674512" fill-rule="evenodd" stroke="none"/>
      <path d="M5.1 32.3 L4.7 31.0 4.7 30.4 5.45 29.85 4.35 29.85 3.6 27.95 2.9 29.85 1.8 29.85 2.5 30.4 2.5 31.0 2.15 32.3 3.6 31.2 5.1 32.3 M4.0 36.55 L4.0 37.15 1.85 38.1 4.25 38.7 4.5 42.45 6.45 39.2 9.45 39.95 7.7 37.9 7.7 37.3 9.0 35.2 6.3 36.25 3.95 33.75 4.0 36.55 M12.35 41.45 L12.35 42.1 12.0 43.35 13.45 42.25 14.95 43.35 14.55 42.1 14.55 41.45 15.3 40.95 14.2 40.95 13.45 39.0 12.75 40.95 11.65 40.95 12.35 41.45" fill="#815815" fill-rule="evenodd" stroke="none"/>
      <path d="M35.4 33.8 Q29.95 39.2 22.25 39.2 14.5 39.2 9.05 33.8 3.6 28.35 3.6 20.65 3.6 12.95 9.05 7.55 14.5 2.1 22.25 2.1 29.95 2.1 35.4 7.55 40.8 13.0 40.8 20.65 40.8 28.35 35.4 33.8" fill="url(#gradient4)" fill-rule="evenodd" stroke="none"/>
    </g>
    <linearGradient gradientTransform="matrix(0.0, -0.0258, -0.0551, 0.0, 21.9, 22.0)" gradientUnits="userSpaceOnUse" id="gradient2" spreadMethod="pad" x1="-819.2" x2="819.2">
      <stop offset="0.011764705882352941" stop-color="#c79829"/>
      <stop offset="1.0" stop-color="#be7d1e"/>
    </linearGradient>
    <linearGradient gradientTransform="matrix(0.0, -0.0258, 0.0551, 0.0, 22.15, 22.0)" gradientUnits="userSpaceOnUse" id="gradient3" spreadMethod="pad" x1="-819.2" x2="819.2">
      <stop offset="0.011764705882352941" stop-color="#c79829"/>
      <stop offset="1.0" stop-color="#be7d1e"/>
    </linearGradient>
    <linearGradient gradientTransform="matrix(0.0056, 0.0, 0.0, 0.0043, -24.35, 40.35)" gradientUnits="userSpaceOnUse" id="gradient4" spreadMethod="pad" x1="-819.2" x2="819.2">
      <stop offset="0.011764705882352941" stop-color="#c79829"/>
      <stop offset="1.0" stop-color="#be7d1e"/>
    </linearGradient>
    <g id="shape4" transform="matrix(1.0, 0.0, 0.0, 1.0, -0.05, -0.1)">
      <path d="M23.25 15.3 L23.5 15.4 Q25.25 16.6 25.8 17.85 L26.5 19.45 26.55 19.8 Q27.5 22.3 28.3 21.3 28.9 20.25 31.5 18.2 30.0 20.8 29.75 21.9 29.6 22.75 29.95 24.5 30.0 25.3 30.4 26.6 L30.5 27.1 Q30.85 29.0 29.8 30.2 31.2 29.0 31.3 27.1 31.45 25.25 30.95 24.1 30.5 22.95 30.75 22.5 L31.9 21.4 32.05 21.3 Q34.45 19.7 32.95 17.5 35.7 18.6 34.6 21.4 34.35 22.25 35.05 22.8 L36.5 22.7 36.5 22.65 37.7 21.95 Q36.2 24.15 36.35 25.0 36.55 25.9 37.4 27.0 L37.75 27.95 Q38.35 28.95 38.2 29.95 L36.3 32.45 34.6 34.05 31.1 36.6 Q27.05 38.85 21.85 38.85 16.8 38.85 12.7 36.6 10.8 35.55 9.15 34.1 L9.1 34.05 Q7.2 32.25 7.2 28.5 7.2 27.55 7.6 27.0 8.5 25.85 8.65 25.0 8.8 24.2 7.3 22.0 L8.55 22.7 10.0 22.85 Q10.7 22.3 10.4 21.5 9.25 18.6 12.05 17.5 10.6 19.75 12.95 21.35 L13.1 21.4 Q14.05 22.1 14.5 22.95 12.8 24.25 13.4 27.05 13.65 28.1 14.2 28.8 L15.5 29.75 14.95 29.3 14.2 27.5 Q13.7 25.75 14.55 24.5 L14.95 24.05 16.25 21.3 Q16.55 19.85 14.05 16.3 L16.0 17.5 Q17.4 18.35 18.4 17.7 19.6 16.65 19.15 15.45 17.25 10.8 21.85 8.95 19.55 12.6 23.25 15.3 M22.95 8.8 Q23.65 8.2 23.55 7.0 23.3 5.7 23.9 5.4 24.4 5.2 24.9 5.85 25.35 6.5 25.15 7.45 25.05 8.3 22.95 8.8 M24.5 13.6 Q25.7 14.35 26.0 15.6 25.4 15.9 25.05 15.45 25.1 14.7 24.5 13.6 M30.8 14.5 Q31.1 14.2 31.4 14.3 31.7 14.45 31.6 15.2 31.55 15.95 31.95 16.4 30.7 16.1 30.6 15.5 30.5 15.0 30.8 14.5 M14.75 12.5 Q13.6 13.4 14.75 15.3 L14.4 14.95 13.85 14.3 Q12.55 12.55 14.4 11.45 16.3 11.7 15.8 13.05 15.5 12.3 14.75 12.5 M31.3 20.3 Q30.9 20.95 30.95 21.4 L30.4 21.55 Q30.55 20.8 31.3 20.3 M13.7 19.2 Q15.05 20.1 15.4 21.4 L14.35 21.3 Q14.4 20.5 13.7 19.2 M17.25 29.55 L16.9 28.85 Q16.7 28.45 16.3 28.45 15.9 28.45 15.8 28.95 L15.55 30.45 15.55 31.05 15.9 31.6 Q16.2 31.95 16.7 32.05 L16.7 32.1 Q16.4 32.3 16.4 32.75 L16.4 32.8 16.5 33.25 16.7 33.6 17.65 33.95 Q17.35 34.25 17.35 34.6 L17.4 34.7 17.4 34.95 17.75 35.35 18.5 35.7 18.5 36.1 Q18.5 36.5 18.85 36.8 19.25 37.15 19.85 37.15 L20.65 36.8 21.0 36.1 21.0 35.8 22.0 35.8 22.05 35.8 22.15 35.8 22.9 35.8 22.9 36.1 Q22.9 36.5 23.45 36.8 23.65 37.15 24.25 37.15 L25.1 36.8 25.45 36.1 25.45 35.7 26.35 35.35 26.55 34.95 26.6 34.7 26.6 34.6 26.4 33.95 27.2 33.6 27.6 33.25 27.6 32.8 27.6 32.75 Q27.6 32.3 27.2 32.1 L27.15 32.05 Q27.85 31.95 28.05 31.6 L28.2 31.6 28.4 31.05 28.4 30.45 28.25 28.95 Q28.05 28.45 27.65 28.45 L27.15 28.85 26.8 29.55 26.55 29.9 26.0 29.95 25.7 29.95 25.75 29.65 Q25.75 29.2 25.35 28.85 24.95 28.6 24.4 28.6 L23.45 28.85 23.45 28.95 22.9 28.3 22.15 28.05 22.05 28.05 22.0 27.95 Q21.4 28.05 21.0 28.3 L20.65 28.95 20.65 28.85 19.7 28.6 18.75 28.85 Q18.25 29.2 18.25 29.65 L18.35 29.95 18.05 29.95 17.4 29.9 17.25 29.55 M20.2 32.8 L21.45 33.35 21.35 34.2 20.9 34.6 20.5 34.25 Q20.2 33.75 20.2 33.15 L20.2 32.8 M33.95 32.25 L33.4 31.95 33.95 32.3 33.95 32.25 M24.0 32.5 L24.15 33.05 23.9 34.1 23.5 34.6 23.05 34.1 22.8 33.3 24.0 32.5" fill="#664411" fill-rule="evenodd" stroke="none"/>
      <path d="M40.9 22.15 Q40.9 14.2 35.3 8.7 29.8 3.15 21.9 3.15 13.95 3.15 8.45 8.7 2.9 14.2 2.9 22.15 2.9 30.05 8.45 35.55 13.95 41.2 21.9 41.2 29.8 41.2 35.3 35.55 40.9 30.05 40.9 22.15 M41.85 2.4 Q44.05 4.6 44.05 7.7 L44.05 36.5 Q44.05 39.7 41.85 41.9 39.65 44.1 36.45 44.1 L7.65 44.1 Q4.5 44.1 2.3 41.9 0.05 39.7 0.05 36.5 L0.05 7.7 Q0.05 4.6 2.3 2.4 4.5 0.1 7.65 0.1 L36.45 0.1 Q39.6 0.1 41.85 2.4" fill="url(#gradient5)" fill-rule="evenodd" stroke="none"/>
      <path d="M33.75 10.45 Q28.8 5.55 21.9 5.5 15.0 5.55 10.15 10.45 5.25 15.25 5.2 22.15 5.25 29.1 10.15 33.95 15.0 38.85 21.9 38.85 28.8 38.85 33.75 33.95 38.55 29.1 38.55 22.15 38.55 15.25 33.75 10.45 M40.9 22.15 Q40.9 30.05 35.3 35.55 29.8 41.2 21.9 41.2 13.95 41.2 8.45 35.55 2.9 30.05 2.9 22.15 2.9 14.2 8.45 8.7 13.95 3.15 21.9 3.15 29.8 3.15 35.3 8.7 40.9 14.2 40.9 22.15" fill="url(#gradient6)" fill-rule="evenodd" stroke="none"/>
    </g>
    <linearGradient gradientTransform="matrix(0.0, -0.0258, -0.0551, 0.0, 21.9, 21.95)" gradientUnits="userSpaceOnUse" id="gradient5" spreadMethod="pad" x1="-819.2" x2="819.2">
      <stop offset="0.011764705882352941" stop-color="#dad67d"/>
      <stop offset="1.0" stop-color="#cfa451"/>
    </linearGradient>
    <linearGradient gradientTransform="matrix(0.0, 0.0059, -0.0232, 0.0, 21.9, 18.5)" gradientUnits="userSpaceOnUse" id="gradient6" spreadMethod="pad" x1="-819.2" x2="819.2">
      <stop offset="0.011764705882352941" stop-color="#8d5910"/>
      <stop offset="1.0" stop-color="#d9d597"/>
    </linearGradient>
    <g id="shape5" transform="matrix(1.0, 0.0, 0.0, 1.0, -0.05, -26.1)">
      <path d="M39.7 29.2 L38.1 29.2 38.0 29.4 39.35 30.35 38.8 32.05 38.95 32.2 40.45 31.15 41.85 32.2 42.1 32.05 41.55 30.35 42.85 29.4 42.7 29.2 41.15 29.2 40.55 27.65 40.3 27.65 39.7 29.2 M38.9 28.0 L39.35 26.85 39.75 26.35 Q40.1 26.1 40.45 26.1 L41.1 26.35 41.55 26.9 41.95 28.0 43.1 28.0 Q43.55 28.0 43.8 28.25 L44.0 28.4 44.0 30.0 43.75 30.15 42.9 30.8 43.3 32.15 43.3 32.85 42.85 33.4 42.15 33.6 41.5 33.35 41.25 33.2 41.2 35.75 43.6 36.7 44.0 36.95 43.65 38.85 43.45 38.9 40.9 39.55 40.7 42.5 40.55 42.8 39.3 43.55 39.05 43.5 38.55 43.05 37.05 40.5 34.25 41.25 33.9 41.25 33.05 41.85 33.45 43.2 33.45 43.9 33.35 44.05 31.2 44.05 30.6 43.65 29.95 44.05 27.75 44.05 27.7 43.85 27.7 43.15 28.1 41.85 27.2 41.25 26.8 40.65 Q26.65 40.25 26.8 39.9 L27.2 39.3 27.9 39.1 29.05 39.1 29.5 37.95 29.9 37.4 30.6 37.2 31.25 37.4 31.7 38.0 32.1 39.1 33.25 39.1 34.9 37.1 33.6 34.9 33.45 34.2 33.75 33.5 Q33.95 33.25 34.3 33.2 L35.0 33.25 37.4 34.2 38.1 33.45 37.95 33.35 37.55 32.75 37.55 32.05 37.95 30.8 37.05 30.15 36.65 29.6 Q36.5 29.2 36.65 28.85 L37.05 28.25 Q37.35 28.0 37.75 28.0 L38.9 28.0 M37.75 35.55 L34.6 34.3 36.35 37.25 33.95 40.05 37.6 39.15 39.55 42.4 39.8 38.65 43.2 37.75 40.05 36.5 40.1 33.05 37.75 35.55 M30.7 38.75 L30.45 38.75 29.85 40.25 28.25 40.25 28.15 40.5 29.5 41.4 28.9 43.15 29.1 43.25 30.6 42.2 32.0 43.25 32.25 43.15 31.7 41.4 32.85 40.55 32.8 40.25 31.3 40.25 30.7 38.75" fill="#d1ae5a" fill-rule="evenodd" stroke="none"/>
      <path d="M38.6 29.8 L37.75 29.2 39.7 29.2 40.45 27.25 41.15 29.2 43.1 29.2 42.25 29.8 41.15 29.8 40.45 27.9 39.7 29.8 38.6 29.8 M41.55 30.35 L42.2 32.4 41.9 32.25 41.55 30.95 41.55 30.35 M38.95 32.25 L38.65 32.4 39.35 30.35 39.35 30.95 38.95 32.25 M40.05 36.5 L43.2 37.75 42.2 38.05 40.05 37.1 40.05 36.5 M34.6 39.9 L33.95 40.05 36.35 37.25 36.35 37.85 34.6 39.9 M35.05 35.15 L34.6 34.3 37.75 35.55 40.1 33.05 40.1 33.7 37.75 36.2 35.05 35.15 M32.4 40.9 L31.3 40.9 30.6 38.95 29.85 40.9 28.75 40.9 27.9 40.25 29.85 40.25 30.6 38.35 31.3 40.25 33.25 40.25 32.4 40.9 M29.5 41.4 L29.5 42.05 29.1 43.3 28.8 43.5 29.5 41.4 M32.05 43.3 L31.7 42.05 31.7 41.4 32.35 43.5 32.05 43.3" fill="#674512" fill-rule="evenodd" stroke="none"/>
      <path d="M42.25 29.8 L41.55 30.35 41.55 30.95 41.9 32.25 40.45 31.15 38.95 32.25 39.35 30.95 39.35 30.35 38.6 29.8 39.7 29.8 40.45 27.9 41.15 29.8 42.25 29.8 M40.05 36.5 L40.05 37.1 42.2 38.05 39.8 38.65 39.55 42.4 37.6 39.15 34.6 39.9 36.35 37.85 36.35 37.25 35.05 35.15 37.75 36.2 40.1 33.7 40.05 36.5 M28.75 40.9 L29.85 40.9 30.6 38.95 31.3 40.9 32.4 40.9 31.7 41.4 31.7 42.05 32.05 43.3 30.6 42.2 29.1 43.3 29.5 42.05 29.5 41.4 28.75 40.9" fill="#815815" fill-rule="evenodd" stroke="none"/>
      <path d="M10.3 33.5 L10.6 34.2 10.45 34.9 9.15 37.1 10.8 39.1 11.95 39.1 12.35 38.0 12.8 37.4 13.45 37.2 14.15 37.4 14.55 37.95 15.0 39.1 16.15 39.1 16.85 39.3 17.25 39.9 17.25 40.65 16.85 41.25 15.95 41.85 16.35 43.15 16.35 43.85 16.3 44.05 14.1 44.05 13.45 43.65 12.85 44.05 10.7 44.05 10.6 43.9 10.6 43.2 11.0 41.85 10.15 41.25 9.8 41.25 7.0 40.5 5.5 43.05 5.0 43.5 4.75 43.55 Q4.05 43.25 3.5 42.8 L3.35 42.5 3.15 39.55 0.6 38.9 0.4 38.85 0.05 36.95 Q0.25 36.75 0.45 36.7 L2.85 35.75 2.8 33.2 2.55 33.35 1.9 33.6 1.2 33.4 0.75 32.85 0.75 32.15 1.15 30.8 0.3 30.15 0.05 30.0 0.05 28.4 0.25 28.25 Q0.5 28.0 0.95 28.0 L2.1 28.0 2.5 26.9 2.95 26.35 Q3.25 26.1 3.6 26.1 L4.3 26.35 4.7 26.85 5.15 28.0 6.3 28.0 Q6.7 28.0 7.0 28.25 L7.4 28.85 7.4 29.6 7.0 30.15 6.1 30.8 6.5 32.05 6.5 32.75 6.1 33.35 5.95 33.45 6.65 34.2 9.05 33.25 9.75 33.2 10.3 33.5 M11.2 40.55 L12.35 41.4 11.8 43.15 12.05 43.25 13.45 42.2 14.95 43.25 15.15 43.15 14.55 41.4 15.9 40.5 15.8 40.25 14.2 40.25 13.6 38.75 13.35 38.75 12.75 40.25 11.25 40.25 11.2 40.55 M3.75 27.65 L3.5 27.65 2.9 29.2 1.35 29.2 1.2 29.4 2.5 30.35 1.95 32.05 2.2 32.2 3.6 31.15 5.1 32.2 5.25 32.05 4.7 30.35 6.05 29.4 5.95 29.2 4.35 29.2 3.75 27.65 M4.25 38.65 L4.5 42.4 6.45 39.15 10.1 40.05 7.7 37.25 9.45 34.3 6.3 35.55 3.95 33.05 4.0 36.5 0.85 37.75 4.25 38.65" fill="#d1ae5a" fill-rule="evenodd" stroke="none"/>
      <path d="M12.35 41.4 L12.35 42.05 12.0 43.3 11.7 43.5 12.35 41.4 M14.95 43.3 L14.55 42.05 14.55 41.4 15.25 43.5 14.95 43.3 M15.3 40.9 L14.2 40.9 13.45 38.95 12.75 40.9 11.65 40.9 10.8 40.25 12.75 40.25 13.45 38.35 14.2 40.25 16.15 40.25 15.3 40.9 M1.8 29.8 L0.95 29.2 2.9 29.2 3.6 27.25 4.35 29.2 6.3 29.2 5.45 29.8 4.35 29.8 3.6 27.9 2.9 29.8 1.8 29.8 M4.7 30.35 L5.4 32.4 5.1 32.25 4.7 30.95 4.7 30.35 M2.15 32.25 L1.85 32.4 2.5 30.35 2.5 30.95 2.15 32.25 M3.95 33.7 L3.95 33.05 6.3 35.55 9.45 34.3 9.0 35.15 6.3 36.2 3.95 33.7 M7.7 37.25 L10.1 40.05 9.45 39.9 7.7 37.85 7.7 37.25 M1.85 38.05 L0.85 37.75 4.0 36.5 4.0 37.1 1.85 38.05" fill="#674512" fill-rule="evenodd" stroke="none"/>
      <path d="M12.35 41.4 L11.65 40.9 12.75 40.9 13.45 38.95 14.2 40.9 15.3 40.9 14.55 41.4 14.55 42.05 14.95 43.3 13.45 42.2 12.0 43.3 12.35 42.05 12.35 41.4 M1.8 29.8 L2.9 29.8 3.6 27.9 4.35 29.8 5.45 29.8 4.7 30.35 4.7 30.95 5.1 32.25 3.6 31.15 2.15 32.25 2.5 30.95 2.5 30.35 1.8 29.8 M9.0 35.15 L7.7 37.25 7.7 37.85 9.45 39.9 6.45 39.15 4.5 42.4 4.25 38.65 1.85 38.05 4.0 37.1 4.0 36.5 3.95 33.7 6.3 36.2 9.0 35.15" fill="#815815" fill-rule="evenodd" stroke="none"/>
    </g>
  </defs>
</svg>
