<?xml version="1.0" encoding="UTF-8" standalone="no"?>
<svg xmlns:xlink="http://www.w3.org/1999/xlink" height="43.0px" width="44.0px" xmlns="http://www.w3.org/2000/svg">
  <g transform="matrix(1.0, 0.0, 0.0, 1.0, 0.0, 0.0)">
    <use height="40.65" transform="matrix(1.0, 0.0, 0.0, 1.0, 2.95, 2.5)" width="37.2" xlink:href="#shape0"/>
    <use height="0.0" transform="matrix(1.2125, 0.0, 0.0, 1.2137, 0.55, 0.0)" width="0.0" xlink:href="#sprite0"/>
    <use height="43.9" transform="matrix(1.0, 0.0, 0.0, 1.0, 0.0, 0.05)" width="44.0" xlink:href="#shape1"/>
    <use height="20.15" transform="matrix(1.1549, 0.0, 0.0, 1.1549, 5.3, 5.6)" width="28.2" xlink:href="#sprite1"/>
    <use height="39.75" transform="matrix(1.0, 0.0, 0.0, 1.0, 1.75, 4.15)" width="40.55" xlink:href="#shape3"/>
    <use height="8.6" transform="matrix(1.2077, 0.0, 0.0, 1.2066, 0.8085, 0.55)" width="35.05" xlink:href="#sprite2"/>
  </g>
  <defs>
    <g id="shape0" transform="matrix(1.0, 0.0, 0.0, 1.0, -2.95, -2.5)">
      <path d="M19.6 43.15 L15.9 43.15 15.9 42.1 Q17.5 43.1 19.6 43.15 M28.2 41.25 L32.6 41.25 32.6 43.15 28.2 43.15 28.2 41.25" fill="url(#gradient0)" fill-rule="evenodd" stroke="none"/>
      <path d="M19.6 43.15 Q17.5 43.1 15.9 42.1 L14.8 41.25 28.2 41.25 28.2 43.15 19.6 43.15" fill="url(#gradient1)" fill-rule="evenodd" stroke="none"/>
      <path d="M40.15 21.05 Q40.15 28.8 34.75 34.25 29.3 39.65 21.6 39.65 13.85 39.65 8.4 34.25 2.95 28.8 2.95 21.05 2.95 13.35 8.4 7.95 13.85 2.5 21.6 2.5 29.3 2.5 34.75 7.95 40.15 13.4 40.15 21.05" fill="url(#gradient2)" fill-rule="evenodd" stroke="none"/>
      <path d="M21.15 7.7 Q24.3 9.75 25.85 13.0 L25.85 10.4 Q28.05 13.3 28.85 14.75 L29.85 16.5 30.7 18.65 30.95 21.15 30.95 22.2 Q31.55 21.8 32.35 21.8 33.5 21.8 34.25 22.55 35.0 23.4 35.0 24.55 35.0 25.65 34.25 26.4 33.5 27.25 32.35 27.25 31.35 27.25 30.7 26.65 L30.45 26.4 29.9 25.7 28.15 28.15 28.0 28.3 26.7 29.35 Q24.45 32.05 21.15 33.2 17.85 32.05 15.6 29.35 L14.3 28.3 14.15 28.15 12.35 25.7 11.85 26.4 Q11.1 27.25 9.95 27.25 8.9 27.25 8.0 26.4 7.3 25.65 7.3 24.55 7.3 23.4 8.0 22.55 8.9 21.8 9.95 21.8 10.7 21.8 11.3 22.2 L11.3 21.15 Q11.3 18.6 12.45 16.5 L13.45 14.75 Q14.3 13.3 16.45 10.4 L16.45 13.0 Q18.0 9.75 21.15 7.7 M21.65 25.9 Q25.7 29.55 28.6 24.65 25.1 25.85 21.65 25.9 M13.75 24.65 Q16.6 29.55 20.6 25.9 17.2 25.85 13.75 24.65" fill="#496125" fill-rule="evenodd" stroke="none"/>
    </g>
    <linearGradient gradientTransform="matrix(0.0, -0.0555, -0.0554, 0.0, 22.0, 17.45)" gradientUnits="userSpaceOnUse" id="gradient0" spreadMethod="pad" x1="-819.2" x2="819.2">
      <stop offset="0.011764705882352941" stop-color="#e8e1b7"/>
      <stop offset="1.0" stop-color="#eed731"/>
    </linearGradient>
    <linearGradient gradientTransform="matrix(0.0, -0.0555, -0.0554, 0.0, 34.25, 17.45)" gradientUnits="userSpaceOnUse" id="gradient1" spreadMethod="pad" x1="-819.2" x2="819.2">
      <stop offset="0.011764705882352941" stop-color="#e8e1b7"/>
      <stop offset="1.0" stop-color="#eed731"/>
    </linearGradient>
    <linearGradient gradientTransform="matrix(0.0, -0.0173, -0.0173, 0.0, 21.6, 17.55)" gradientUnits="userSpaceOnUse" id="gradient2" spreadMethod="pad" x1="-819.2" x2="819.2">
      <stop offset="0.011764705882352941" stop-color="#d3d4b5"/>
      <stop offset="1.0" stop-color="#71a26f"/>
    </linearGradient>
    <g id="shape1" transform="matrix(1.0, 0.0, 0.0, 1.0, 0.0, -0.05)">
      <path d="M34.2 9.8 Q29.15 4.75 22.0 4.75 14.8 4.75 9.75 9.8 4.65 14.85 4.65 22.05 4.65 29.2 9.75 34.25 14.8 39.35 22.0 39.35 29.2 39.35 34.2 34.25 39.25 29.2 39.25 22.05 39.25 14.85 34.2 9.8 M2.2 2.3 Q4.45 0.05 7.55 0.05 L36.35 0.05 Q39.55 0.05 41.75 2.3 44.0 4.55 44.0 7.7 L44.0 36.4 Q44.0 39.5 41.75 41.75 39.55 43.95 36.35 43.95 L7.55 43.95 Q4.45 43.95 2.2 41.75 0.0 39.5 0.0 36.4 L0.0 7.7 Q0.0 4.55 2.2 2.3" fill="url(#gradient3)" fill-rule="evenodd" stroke="none"/>
      <path d="M21.95 5.6 Q15.0 5.65 10.2 10.5 5.3 15.35 5.3 22.2 5.3 29.15 10.2 34.05 15.0 38.85 21.95 38.85 28.75 38.85 33.65 34.05 38.55 29.15 38.55 22.2 38.55 15.35 33.65 10.5 28.8 5.65 21.95 5.6 M35.3 8.85 Q40.9 14.35 40.9 22.2 40.9 30.1 35.3 35.65 29.8 41.2 21.95 41.2 14.0 41.2 8.4 35.65 2.85 30.1 2.85 22.2 2.85 14.35 8.4 8.85 14.0 3.25 21.95 3.25 29.8 3.25 35.3 8.85" fill="url(#gradient4)" fill-rule="evenodd" stroke="none"/>
    </g>
    <linearGradient gradientTransform="matrix(0.0, -0.0275, -0.044, 0.0, 20.9, 22.2)" gradientUnits="userSpaceOnUse" id="gradient3" spreadMethod="pad" x1="-819.2" x2="819.2">
      <stop offset="0.0196078431372549" stop-color="#905a3d"/>
      <stop offset="0.9764705882352941" stop-color="#6a412d"/>
    </linearGradient>
    <linearGradient gradientTransform="matrix(0.0, -0.0168, -0.0168, 0.0, 21.95, 26.85)" gradientUnits="userSpaceOnUse" id="gradient4" spreadMethod="pad" x1="-819.2" x2="819.2">
      <stop offset="0.0196078431372549" stop-color="#a3704d"/>
      <stop offset="0.9803921568627451" stop-color="#492d20"/>
    </linearGradient>
    <g id="sprite1" transform="matrix(1.0, 0.0, 0.0, 1.0, 0.0, 0.0)">
      <use height="20.15" transform="matrix(1.0, 0.0, 0.0, 1.0, 0.0, 0.0)" width="28.2" xlink:href="#shape2"/>
    </g>
    <g id="shape2" transform="matrix(1.0, 0.0, 0.0, 1.0, 0.0, 0.0)">
      <path d="M27.65 18.45 L27.4 18.95 Q26.2 20.8 23.4 19.8 19.6 18.5 17.35 14.05 14.8 9.1 9.75 7.4 4.1 5.65 0.0 10.3 1.0 6.85 3.7 4.15 7.2 0.65 11.9 0.05 L14.8 0.05 18.4 0.65 Q21.55 1.65 24.05 4.15 28.2 8.3 28.2 14.25 28.2 16.45 27.65 18.45" fill="#ffffff" fill-opacity="0.19607843" fill-rule="evenodd" stroke="none"/>
    </g>
    <g id="shape3" transform="matrix(1.0, 0.0, 0.0, 1.0, -1.75, -4.15)">
      <path d="M16.25 40.45 Q12.8 39.45 9.55 37.8 10.85 34.55 13.2 34.05 13.95 37.7 16.25 40.45 M30.25 34.05 Q32.6 34.55 33.9 37.85 30.7 39.6 27.35 40.45 28.95 38.45 29.8 35.85 L30.25 34.05" fill="url(#gradient5)" fill-rule="evenodd" stroke="none"/>
      <path d="M13.2 34.05 Q14.7 37.05 17.9 38.5 L16.25 40.45 Q13.95 37.7 13.2 34.05 M27.35 40.45 L25.55 38.5 Q28.75 37.05 30.25 34.05 L29.8 35.85 Q28.95 38.45 27.35 40.45" fill="#6d4a34" fill-rule="evenodd" stroke="none"/>
      <path d="M31.05 5.9 L30.45 4.15 Q33.9 5.9 36.75 8.85 L36.8 8.95 Q36.0 13.0 32.2 14.2 32.25 10.95 31.5 7.5 L31.05 5.9 M13.15 5.3 Q11.6 9.95 11.75 14.2 7.95 13.0 7.15 9.0 L7.35 8.85 Q10.15 5.95 13.45 4.35 L13.15 5.3" fill="url(#gradient6)" fill-rule="evenodd" stroke="none"/>
      <path d="M32.2 14.2 Q31.7 9.8 29.1 7.1 L30.8 5.3 31.05 5.9 31.5 7.5 Q32.25 10.95 32.2 14.2 M11.75 14.2 Q11.6 9.95 13.15 5.3 L14.9 7.1 Q12.3 9.8 11.75 14.2" fill="#492d20" fill-rule="evenodd" stroke="none"/>
      <path d="M1.85 33.45 L1.85 36.2 Q1.85 37.15 2.4 37.8 2.95 38.45 3.8 38.45 4.6 38.45 5.25 37.8 5.8 37.15 5.8 36.2 L5.8 34.9 M42.2 33.45 L42.2 36.2 Q42.2 37.15 41.6 37.8 41.1 38.45 40.25 38.45 39.4 38.45 38.8 37.8 38.2 37.15 38.2 36.2 L38.2 34.9" fill="none" stroke="#6a402d" stroke-linecap="round" stroke-linejoin="round" stroke-width="0.25"/>
      <path d="M4.55 5.5 L5.0 6.25 Q5.35 7.1 5.35 8.3 5.35 9.55 5.0 10.4 L4.55 11.15 4.0 10.4 Q3.75 9.55 3.75 8.3 3.75 7.1 4.0 6.25 L4.55 5.5 M39.4 11.15 L38.95 10.4 Q38.6 9.55 38.6 8.3 38.6 7.1 38.95 6.25 L39.4 5.5 39.95 6.25 40.25 8.3 39.95 10.4 39.4 11.15" fill="#331d16" fill-rule="evenodd" stroke="none"/>
      <path d="M4.55 5.5 L4.0 6.25 Q3.75 7.1 3.75 8.3 3.75 9.55 4.0 10.4 L4.55 11.15 4.2 11.25 Q3.7 11.25 3.35 10.4 3.05 9.55 3.05 8.3 3.05 7.1 3.35 6.25 3.7 5.35 4.2 5.35 L4.55 5.5 M39.4 5.5 Q39.6 5.35 39.75 5.35 40.3 5.35 40.65 6.25 L40.9 8.3 40.65 10.4 Q40.3 11.25 39.75 11.25 L39.4 11.15 39.95 10.4 40.25 8.3 39.95 6.25 39.4 5.5" fill="#1a0d09" fill-rule="evenodd" stroke="none"/>
      <path d="M4.55 11.15 L5.0 10.4 Q5.35 9.55 5.35 8.3 5.35 7.1 5.0 6.25 L4.55 5.5 M4.55 11.15 L4.2 11.25 Q3.7 11.25 3.35 10.4 3.05 9.55 3.05 8.3 3.05 7.1 3.35 6.25 3.7 5.35 4.2 5.35 L4.55 5.5 M39.4 5.5 Q39.6 5.35 39.75 5.35 40.3 5.35 40.65 6.25 L40.9 8.3 40.65 10.4 Q40.3 11.25 39.75 11.25 L39.4 11.15 38.95 10.4 Q38.6 9.55 38.6 8.3 38.6 7.1 38.95 6.25 L39.4 5.5" fill="none" stroke="#6a402d" stroke-linecap="round" stroke-linejoin="round" stroke-width="0.05"/>
      <path d="M31.9 43.9 L12.1 43.9 Q12.85 43.55 14.5 43.15 L22.0 42.6 29.5 43.15 31.9 43.9" fill="#6c432e" fill-rule="evenodd" stroke="none"/>
    </g>
    <linearGradient gradientTransform="matrix(0.0, -0.0275, -0.044, 0.0, 20.9, 22.2)" gradientUnits="userSpaceOnUse" id="gradient5" spreadMethod="pad" x1="-819.2" x2="819.2">
      <stop offset="0.0196078431372549" stop-color="#905a3d"/>
      <stop offset="0.9764705882352941" stop-color="#6a412d"/>
    </linearGradient>
    <linearGradient gradientTransform="matrix(0.0, -0.0275, -0.044, 0.0, 20.9, 22.2)" gradientUnits="userSpaceOnUse" id="gradient6" spreadMethod="pad" x1="-819.2" x2="819.2">
      <stop offset="0.0196078431372549" stop-color="#905a3d"/>
      <stop offset="0.9764705882352941" stop-color="#6a412d"/>
    </linearGradient>
    <g id="sprite2" transform="matrix(1.0, 0.0, 0.0, 1.0, 0.2, 0.0)">
      <use height="8.6" transform="matrix(1.0, 0.0, 0.0, 1.0, -0.2, 0.0)" width="35.05" xlink:href="#shape4"/>
    </g>
    <g id="shape4" transform="matrix(1.0, 0.0, 0.0, 1.0, 0.2, 0.0)">
      <path d="M34.4 4.4 Q34.85 5.8 34.85 7.65 L34.85 8.6 Q34.8 6.95 34.4 5.7 33.0 1.3 27.2 1.3 L7.45 1.3 Q0.05 1.3 -0.2 8.5 L-0.2 7.65 Q-0.2 0.0 7.45 0.0 L27.2 0.0 Q33.0 0.0 34.4 4.4" fill="#e7deda" fill-rule="evenodd" stroke="none"/>
    </g>
  </defs>
</svg>
