<?xml version="1.0" encoding="UTF-8" standalone="no"?>
<svg xmlns:xlink="http://www.w3.org/1999/xlink" height="43.0px" width="44.0px" xmlns="http://www.w3.org/2000/svg">
  <g transform="matrix(1.0, 0.0, 0.0, 1.0, 0.0, 0.0)">
    <use height="37.1" transform="matrix(1.0, 0.0, 0.0, 1.0, 3.05, 3.7)" width="37.2" xlink:href="#shape0"/>
    <use height="0.0" transform="matrix(1.2125, 0.0, 0.0, 1.2125, 0.75, 1.1)" width="0.0" xlink:href="#sprite0"/>
    <use height="43.9" transform="matrix(1.0, 0.0, 0.0, 1.0, 0.0, 0.0)" width="44.0" xlink:href="#shape1"/>
    <use height="20.15" transform="matrix(1.1549, 0.0, 0.0, 1.1549, 5.65, 5.65)" width="28.2" xlink:href="#sprite1"/>
    <use height="39.75" transform="matrix(1.0, 0.0, 0.0, 1.0, 1.75, 4.1)" width="40.55" xlink:href="#shape3"/>
    <use height="8.6" transform="matrix(1.2077, 0.0, 0.0, 1.2066, 0.7585, 0.45)" width="35.05" xlink:href="#sprite2"/>
  </g>
  <defs>
    <g id="shape0" transform="matrix(1.0, 0.0, 0.0, 1.0, -3.05, -3.7)">
      <path d="M21.7 40.8 Q13.95 40.8 8.5 35.4 3.05 29.95 3.05 22.25 3.05 14.55 8.5 9.15 13.95 3.7 21.7 3.7 29.4 3.7 34.85 9.15 40.25 14.6 40.25 22.25 40.25 29.95 34.85 35.4 29.4 40.8 21.7 40.8" fill="url(#gradient0)" fill-rule="evenodd" stroke="none"/>
      <path d="M25.45 23.15 Q25.0 22.2 24.45 22.25 23.9 22.1 23.55 23.1 23.15 23.75 23.3 25.3 23.3 26.5 23.75 27.55 24.0 28.35 24.7 28.45 25.25 28.4 25.65 27.55 26.0 26.6 26.0 25.35 25.95 23.9 25.45 23.15 M19.0 22.25 Q18.4 22.4 18.05 23.25 17.7 24.1 17.8 25.45 17.65 26.8 18.3 27.75 18.55 28.55 19.1 28.55 19.7 28.45 20.2 27.6 L20.5 25.4 Q20.4 23.95 19.9 23.15 19.5 22.2 19.0 22.25 M14.6 16.45 Q15.35 15.9 16.6 15.9 17.7 15.9 18.7 16.45 L18.75 16.55 Q18.9 15.9 19.45 15.3 20.4 14.75 21.45 14.55 L21.55 14.55 21.7 14.75 22.0 14.75 Q22.9 14.75 23.55 15.3 24.35 15.9 24.5 16.55 L24.6 16.45 Q25.45 15.9 26.7 15.9 27.8 15.9 28.6 16.45 29.55 17.1 29.55 18.0 L29.45 18.75 30.0 18.75 31.3 18.6 31.75 17.85 31.75 17.8 32.5 16.45 Q32.85 15.6 33.65 15.6 34.45 15.6 34.75 16.55 L35.3 19.75 35.3 21.1 34.6 22.25 34.45 22.25 Q33.95 23.0 32.5 23.2 L32.6 23.3 Q33.45 23.75 33.55 24.55 L33.55 24.75 33.45 25.7 32.6 26.45 30.9 27.2 Q31.45 27.75 31.45 28.45 L31.45 28.75 31.3 29.3 30.7 30.15 28.95 30.85 28.95 31.75 Q28.95 32.65 28.2 33.2 27.35 33.85 26.3 33.85 25.15 33.85 24.5 33.2 23.55 32.65 23.55 31.75 L23.55 31.2 22.0 31.2 21.7 31.2 21.55 31.2 21.45 31.2 19.45 31.2 19.45 31.75 Q19.45 32.65 18.75 33.2 18.0 33.85 16.9 33.85 15.85 33.85 15.0 33.2 14.25 32.65 14.25 31.75 L14.25 30.85 Q13.25 30.6 12.6 30.15 L11.9 29.3 11.85 28.75 11.75 28.45 Q11.75 27.75 12.35 27.2 11.3 27.0 10.4 26.45 L9.85 25.7 9.65 24.75 9.65 24.55 Q9.7 23.75 10.4 23.3 L10.4 23.2 Q9.25 23.0 8.6 22.25 8.05 21.8 7.9 21.1 L7.9 19.75 8.35 16.55 8.4 16.55 Q8.65 15.6 9.55 15.6 10.4 15.6 10.7 16.45 L11.45 17.8 11.9 18.6 13.2 18.75 13.7 18.75 13.65 18.0 Q13.65 17.1 14.6 16.45" fill="#372d2d" fill-rule="evenodd" stroke="none"/>
    </g>
    <linearGradient gradientTransform="matrix(0.0, -0.0173, -0.0173, 0.0, 21.7, 18.7)" gradientUnits="userSpaceOnUse" id="gradient0" spreadMethod="pad" x1="-819.2" x2="819.2">
      <stop offset="0.011764705882352941" stop-color="#c4bebb"/>
      <stop offset="1.0" stop-color="#9f8a82"/>
    </linearGradient>
    <g id="shape1" transform="matrix(1.0, 0.0, 0.0, 1.0, 0.0, 0.0)">
      <path d="M34.2 9.75 Q29.15 4.7 22.0 4.7 14.8 4.7 9.75 9.75 4.65 14.8 4.65 22.0 4.65 29.15 9.75 34.2 14.8 39.3 22.0 39.3 29.2 39.3 34.2 34.2 39.25 29.15 39.25 22.0 39.25 14.8 34.2 9.75 M2.2 2.25 Q4.45 0.0 7.55 0.0 L36.35 0.0 Q39.55 0.0 41.75 2.25 44.0 4.5 44.0 7.65 L44.0 36.35 Q44.0 39.45 41.75 41.7 39.55 43.9 36.35 43.9 L7.55 43.9 Q4.45 43.9 2.2 41.7 0.0 39.45 0.0 36.35 L0.0 7.65 Q0.0 4.5 2.2 2.25" fill="url(#gradient1)" fill-rule="evenodd" stroke="none"/>
      <path d="M21.95 5.55 Q15.0 5.6 10.2 10.45 5.3 15.3 5.3 22.15 5.3 29.1 10.2 34.0 15.0 38.8 21.95 38.8 28.75 38.8 33.65 34.0 38.55 29.1 38.55 22.15 38.55 15.3 33.65 10.45 28.8 5.6 21.95 5.55 M8.4 8.8 Q14.0 3.2 21.95 3.2 29.8 3.2 35.3 8.8 40.9 14.3 40.9 22.15 40.9 30.05 35.3 35.6 29.8 41.15 21.95 41.15 14.0 41.15 8.4 35.6 2.85 30.05 2.85 22.15 2.85 14.3 8.4 8.8" fill="url(#gradient2)" fill-rule="evenodd" stroke="none"/>
    </g>
    <linearGradient gradientTransform="matrix(0.0, -0.0275, -0.044, 0.0, 20.9, 22.15)" gradientUnits="userSpaceOnUse" id="gradient1" spreadMethod="pad" x1="-819.2" x2="819.2">
      <stop offset="0.0196078431372549" stop-color="#905a3d"/>
      <stop offset="0.9764705882352941" stop-color="#6a412d"/>
    </linearGradient>
    <linearGradient gradientTransform="matrix(0.0, -0.0168, -0.0168, 0.0, 21.95, 26.8)" gradientUnits="userSpaceOnUse" id="gradient2" spreadMethod="pad" x1="-819.2" x2="819.2">
      <stop offset="0.0196078431372549" stop-color="#a3704d"/>
      <stop offset="0.9803921568627451" stop-color="#492d20"/>
    </linearGradient>
    <g id="sprite1" transform="matrix(1.0, 0.0, 0.0, 1.0, 0.0, 0.0)">
      <use height="20.15" transform="matrix(1.0, 0.0, 0.0, 1.0, 0.0, 0.0)" width="28.2" xlink:href="#shape2"/>
    </g>
    <g id="shape2" transform="matrix(1.0, 0.0, 0.0, 1.0, 0.0, 0.0)">
      <path d="M27.65 18.45 L27.4 18.95 Q26.2 20.8 23.4 19.8 19.6 18.5 17.35 14.05 14.8 9.1 9.75 7.4 4.1 5.65 0.0 10.3 1.0 6.85 3.7 4.15 7.2 0.65 11.9 0.05 L14.8 0.05 18.4 0.65 Q21.55 1.65 24.05 4.15 28.2 8.3 28.2 14.25 28.2 16.45 27.65 18.45" fill="#ffffff" fill-opacity="0.19607843" fill-rule="evenodd" stroke="none"/>
    </g>
    <g id="shape3" transform="matrix(1.0, 0.0, 0.0, 1.0, -1.75, -4.1)">
      <path d="M16.25 40.4 Q12.8 39.4 9.55 37.75 10.85 34.5 13.2 34.0 13.95 37.65 16.25 40.4 M30.25 34.0 Q32.6 34.5 33.9 37.8 30.7 39.55 27.35 40.4 28.95 38.4 29.8 35.8 L30.25 34.0" fill="url(#gradient3)" fill-rule="evenodd" stroke="none"/>
      <path d="M13.2 34.0 Q14.7 37.0 17.9 38.45 L16.25 40.4 Q13.95 37.65 13.2 34.0 M27.35 40.4 L25.55 38.45 Q28.75 37.0 30.25 34.0 L29.8 35.8 Q28.95 38.4 27.35 40.4" fill="#6d4a34" fill-rule="evenodd" stroke="none"/>
      <path d="M31.05 5.85 L30.45 4.1 Q33.9 5.85 36.75 8.8 L36.8 8.9 Q36.0 12.95 32.2 14.15 32.25 10.9 31.5 7.45 L31.05 5.85 M13.15 5.25 Q11.6 9.9 11.75 14.15 7.95 12.95 7.15 8.95 L7.35 8.8 Q10.15 5.9 13.45 4.3 L13.15 5.25" fill="url(#gradient4)" fill-rule="evenodd" stroke="none"/>
      <path d="M32.2 14.15 Q31.7 9.75 29.1 7.05 L30.8 5.25 31.05 5.85 31.5 7.45 Q32.25 10.9 32.2 14.15 M11.75 14.15 Q11.6 9.9 13.15 5.25 L14.9 7.05 Q12.3 9.75 11.75 14.15" fill="#492d20" fill-rule="evenodd" stroke="none"/>
      <path d="M1.85 33.4 L1.85 36.15 Q1.85 37.1 2.4 37.75 2.95 38.4 3.8 38.4 4.6 38.4 5.25 37.75 5.8 37.1 5.8 36.15 L5.8 34.85 M42.2 33.4 L42.2 36.15 Q42.2 37.1 41.6 37.75 41.1 38.4 40.25 38.4 39.4 38.4 38.8 37.75 38.2 37.1 38.2 36.15 L38.2 34.85" fill="none" stroke="#6a402d" stroke-linecap="round" stroke-linejoin="round" stroke-width="0.25"/>
      <path d="M4.55 5.45 L5.0 6.2 Q5.35 7.05 5.35 8.25 5.35 9.5 5.0 10.35 L4.55 11.1 4.0 10.35 Q3.75 9.5 3.75 8.25 3.75 7.05 4.0 6.2 L4.55 5.45 M39.4 11.1 L38.95 10.35 Q38.6 9.5 38.6 8.25 38.6 7.05 38.95 6.2 L39.4 5.45 39.95 6.2 40.25 8.25 39.95 10.35 39.4 11.1" fill="#331d16" fill-rule="evenodd" stroke="none"/>
      <path d="M4.55 5.45 L4.0 6.2 Q3.75 7.05 3.75 8.25 3.75 9.5 4.0 10.35 L4.55 11.1 4.2 11.2 Q3.7 11.2 3.35 10.35 3.05 9.5 3.05 8.25 3.05 7.05 3.35 6.2 3.7 5.3 4.2 5.3 L4.55 5.45 M39.4 5.45 Q39.6 5.3 39.75 5.3 40.3 5.3 40.65 6.2 L40.9 8.25 40.65 10.35 Q40.3 11.2 39.75 11.2 L39.4 11.1 39.95 10.35 40.25 8.25 39.95 6.2 39.4 5.45" fill="#1a0d09" fill-rule="evenodd" stroke="none"/>
      <path d="M4.55 11.1 L5.0 10.35 Q5.35 9.5 5.35 8.25 5.35 7.05 5.0 6.2 L4.55 5.45 M4.55 11.1 L4.2 11.2 Q3.7 11.2 3.35 10.35 3.05 9.5 3.05 8.25 3.05 7.05 3.35 6.2 3.7 5.3 4.2 5.3 L4.55 5.45 M39.4 5.45 Q39.6 5.3 39.75 5.3 40.3 5.3 40.65 6.2 L40.9 8.25 40.65 10.35 Q40.3 11.2 39.75 11.2 L39.4 11.1 38.95 10.35 Q38.6 9.5 38.6 8.25 38.6 7.05 38.95 6.2 L39.4 5.45" fill="none" stroke="#6a402d" stroke-linecap="round" stroke-linejoin="round" stroke-width="0.05"/>
      <path d="M31.9 43.85 L12.1 43.85 Q12.85 43.5 14.5 43.1 L22.0 42.55 29.5 43.1 31.9 43.85" fill="#6c432e" fill-rule="evenodd" stroke="none"/>
    </g>
    <linearGradient gradientTransform="matrix(0.0, -0.0275, -0.044, 0.0, 20.9, 22.15)" gradientUnits="userSpaceOnUse" id="gradient3" spreadMethod="pad" x1="-819.2" x2="819.2">
      <stop offset="0.0196078431372549" stop-color="#905a3d"/>
      <stop offset="0.9764705882352941" stop-color="#6a412d"/>
    </linearGradient>
    <linearGradient gradientTransform="matrix(0.0, -0.0275, -0.044, 0.0, 20.9, 22.15)" gradientUnits="userSpaceOnUse" id="gradient4" spreadMethod="pad" x1="-819.2" x2="819.2">
      <stop offset="0.0196078431372549" stop-color="#905a3d"/>
      <stop offset="0.9764705882352941" stop-color="#6a412d"/>
    </linearGradient>
    <g id="sprite2" transform="matrix(1.0, 0.0, 0.0, 1.0, 0.2, 0.0)">
      <use height="8.6" transform="matrix(1.0, 0.0, 0.0, 1.0, -0.2, 0.0)" width="35.05" xlink:href="#shape4"/>
    </g>
    <g id="shape4" transform="matrix(1.0, 0.0, 0.0, 1.0, 0.2, 0.0)">
      <path d="M34.4 4.4 Q34.85 5.8 34.85 7.65 L34.85 8.6 Q34.8 6.95 34.4 5.7 33.0 1.3 27.2 1.3 L7.45 1.3 Q0.05 1.3 -0.2 8.5 L-0.2 7.65 Q-0.2 0.0 7.45 0.0 L27.2 0.0 Q33.0 0.0 34.4 4.4" fill="#e7deda" fill-rule="evenodd" stroke="none"/>
    </g>
  </defs>
</svg>
