<?xml version="1.0" encoding="UTF-8" standalone="no"?>
<svg xmlns:xlink="http://www.w3.org/1999/xlink" height="44.0px" width="44.0px" xmlns="http://www.w3.org/2000/svg">
  <g transform="matrix(1.0, 0.0, 0.0, 1.0, 0.0, 0.0)">
    <use height="35.5" transform="matrix(1.0, 0.0, 0.0, 1.0, 4.55, 4.25)" width="35.55" xlink:href="#shape0"/>
    <use height="20.15" transform="matrix(1.1549, 0.0, 0.0, 1.1564, 6.25, 5.65)" width="28.2" xlink:href="#sprite0"/>
    <use height="44.0" transform="matrix(1.0, 0.0, 0.0, 1.0, 0.0, 0.0)" width="44.0" xlink:href="#shape2"/>
    <use height="8.6" transform="matrix(1.2077, 0.0, 0.0, 1.2093, 0.4585, 0.75)" width="35.05" xlink:href="#sprite1"/>
    <use height="39.85" transform="matrix(1.0, 0.0, 0.0, 1.0, 1.75, 4.1)" width="40.55" xlink:href="#shape4"/>
  </g>
  <defs>
    <g id="shape0" transform="matrix(1.0, 0.0, 0.0, 1.0, -4.55, -4.25)">
      <path d="M40.1 22.0 Q40.1 29.4 34.9 34.6 29.7 39.75 22.35 39.75 14.95 39.75 9.75 34.6 4.55 29.4 4.55 22.0 4.55 14.65 9.75 9.45 14.95 4.25 22.35 4.25 29.7 4.25 34.9 9.45 40.1 14.7 40.1 22.0" fill="url(#gradient0)" fill-rule="evenodd" stroke="none"/>
      <path d="M22.9 27.1 L22.1 27.1 21.55 29.35 22.4 28.95 22.5 28.9 22.6 28.95 23.45 29.35 22.9 27.1 M19.8 18.45 L19.75 18.45 Q18.9 18.6 17.8 19.5 L17.75 19.5 16.3 20.95 16.25 20.95 Q16.05 21.15 16.25 22.6 L16.45 24.55 17.45 24.7 18.6 24.9 21.05 25.0 Q21.5 24.8 21.8 24.0 L21.8 23.95 Q22.25 22.75 21.8 21.15 L21.8 21.1 21.75 20.85 21.7 20.85 21.2 19.2 20.6 18.45 Q20.05 18.3 19.8 18.45 M23.5 20.85 L23.4 21.2 Q23.05 22.8 23.45 24.0 23.75 24.8 24.3 25.0 L24.85 25.0 26.15 24.95 26.8 24.9 28.8 24.65 29.05 22.6 29.05 20.95 29.0 20.9 28.8 20.7 27.75 19.65 27.5 19.5 Q26.4 18.6 25.65 18.45 25.2 18.3 24.7 18.45 24.3 18.6 23.5 20.85 M19.95 12.75 L22.3 12.55 Q27.6 12.65 29.95 15.1 32.25 17.45 31.5 22.15 L31.5 22.2 30.35 25.0 31.5 25.4 31.65 25.45 31.7 25.65 31.7 27.3 31.7 27.45 31.55 27.55 30.25 28.35 30.1 28.35 30.0 28.35 Q29.25 27.9 28.6 28.1 30.05 29.5 30.35 31.1 L30.35 31.35 Q29.5 32.85 27.55 32.9 L26.9 32.9 26.7 32.85 25.95 32.2 Q24.95 31.35 24.65 31.45 24.35 31.55 24.45 32.65 L24.45 32.75 24.35 32.85 Q23.35 33.55 22.4 33.5 L22.3 33.5 Q21.3 33.55 20.4 32.85 L20.3 32.75 20.25 32.65 20.2 31.45 Q19.65 31.1 18.0 32.85 L17.75 32.9 17.15 32.9 16.2 32.8 Q14.9 32.45 14.35 31.3 L14.3 31.1 Q14.6 29.5 16.1 28.1 15.45 27.9 14.7 28.35 L14.55 28.35 14.45 28.25 13.0 27.45 12.95 27.3 12.95 25.7 13.0 25.55 13.15 25.45 14.35 25.0 13.2 22.2 13.15 22.15 Q12.5 18.05 14.25 15.7 15.9 13.35 19.95 12.75" fill="#496125" fill-rule="evenodd" stroke="none"/>
    </g>
    <linearGradient gradientTransform="matrix(0.0, -0.0166, -0.0166, 0.0, 22.35, 18.6)" gradientUnits="userSpaceOnUse" id="gradient0" spreadMethod="pad" x1="-819.2" x2="819.2">
      <stop offset="0.011764705882352941" stop-color="#d3d4b5"/>
      <stop offset="1.0" stop-color="#71a26f"/>
    </linearGradient>
    <g id="sprite0" transform="matrix(1.0, 0.0, 0.0, 1.0, 0.0, 0.0)">
      <use height="20.15" transform="matrix(1.0, 0.0, 0.0, 1.0, 0.0, 0.0)" width="28.2" xlink:href="#shape1"/>
    </g>
    <g id="shape1" transform="matrix(1.0, 0.0, 0.0, 1.0, 0.0, 0.0)">
      <path d="M27.65 18.45 L27.4 18.95 Q26.2 20.8 23.4 19.8 19.6 18.5 17.35 14.05 14.8 9.1 9.75 7.4 4.1 5.65 0.0 10.3 1.0 6.85 3.7 4.15 7.2 0.65 11.9 0.05 L14.8 0.05 18.4 0.65 Q21.55 1.65 24.05 4.15 28.2 8.3 28.2 14.25 28.2 16.45 27.65 18.45" fill="#ffffff" fill-opacity="0.19607843" fill-rule="evenodd" stroke="none"/>
    </g>
    <g id="shape2" transform="matrix(1.0, 0.0, 0.0, 1.0, 0.0, 0.0)">
      <path d="M39.25 22.05 Q39.25 14.8 34.2 9.8 29.15 4.7 22.0 4.7 14.8 4.7 9.75 9.8 4.65 14.8 4.65 22.05 4.65 29.2 9.75 34.3 14.8 39.4 22.0 39.4 29.2 39.4 34.2 34.3 39.25 29.2 39.25 22.05 M7.55 0.0 L36.35 0.0 Q39.55 0.0 41.75 2.25 44.0 4.55 44.0 7.65 L44.0 36.45 Q44.0 39.55 41.75 41.8 39.55 44.0 36.35 44.0 L7.55 44.0 Q4.45 44.0 2.2 41.8 0.0 39.55 0.0 36.45 L0.0 7.65 Q0.0 4.55 2.2 2.25 4.45 0.0 7.55 0.0" fill="url(#gradient1)" fill-rule="evenodd" stroke="none"/>
      <path d="M21.95 5.55 Q15.0 5.6 10.2 10.5 5.3 15.35 5.3 22.2 5.3 29.15 10.2 34.05 15.0 38.85 21.95 38.85 28.75 38.85 33.65 34.05 38.55 29.15 38.55 22.2 38.55 15.35 33.65 10.5 28.8 5.6 21.95 5.55 M8.4 8.8 Q14.0 3.2 21.95 3.2 29.8 3.2 35.3 8.8 40.9 14.35 40.9 22.2 40.9 30.15 35.3 35.7 29.8 41.25 21.95 41.25 14.0 41.25 8.4 35.7 2.85 30.15 2.85 22.2 2.85 14.35 8.4 8.8" fill="url(#gradient2)" fill-rule="evenodd" stroke="none"/>
    </g>
    <linearGradient gradientTransform="matrix(0.0, -0.0275, -0.044, 0.0, 20.9, 22.2)" gradientUnits="userSpaceOnUse" id="gradient1" spreadMethod="pad" x1="-819.2" x2="819.2">
      <stop offset="0.0196078431372549" stop-color="#905a3d"/>
      <stop offset="0.9764705882352941" stop-color="#6a412d"/>
    </linearGradient>
    <linearGradient gradientTransform="matrix(0.0, -0.0168, -0.0168, 0.0, 21.95, 26.85)" gradientUnits="userSpaceOnUse" id="gradient2" spreadMethod="pad" x1="-819.2" x2="819.2">
      <stop offset="0.0196078431372549" stop-color="#a3704d"/>
      <stop offset="0.9803921568627451" stop-color="#492d20"/>
    </linearGradient>
    <g id="sprite1" transform="matrix(1.0, 0.0, 0.0, 1.0, 0.2, 0.0)">
      <use height="8.6" transform="matrix(1.0, 0.0, 0.0, 1.0, -0.2, 0.0)" width="35.05" xlink:href="#shape3"/>
    </g>
    <g id="shape3" transform="matrix(1.0, 0.0, 0.0, 1.0, 0.2, 0.0)">
      <path d="M34.4 4.4 Q34.85 5.8 34.85 7.65 L34.85 8.6 Q34.8 6.95 34.4 5.7 33.0 1.3 27.2 1.3 L7.45 1.3 Q0.05 1.3 -0.2 8.5 L-0.2 7.65 Q-0.2 0.0 7.45 0.0 L27.2 0.0 Q33.0 0.0 34.4 4.4" fill="#e7deda" fill-rule="evenodd" stroke="none"/>
    </g>
    <g id="shape4" transform="matrix(1.0, 0.0, 0.0, 1.0, -1.75, -4.1)">
      <path d="M16.25 40.5 Q12.8 39.5 9.55 37.85 10.85 34.6 13.2 34.05 13.95 37.7 16.25 40.5 M27.35 40.5 Q28.95 38.45 29.8 35.85 L30.25 34.05 Q32.6 34.6 33.9 37.9 30.7 39.6 27.35 40.5" fill="url(#gradient3)" fill-rule="evenodd" stroke="none"/>
      <path d="M13.2 34.05 Q14.7 37.1 17.9 38.5 L16.25 40.5 Q13.95 37.7 13.2 34.05 M30.25 34.05 L29.8 35.85 Q28.95 38.45 27.35 40.5 L25.55 38.5 Q28.75 37.1 30.25 34.05" fill="#6d4a34" fill-rule="evenodd" stroke="none"/>
      <path d="M31.05 5.85 L30.45 4.1 Q33.9 5.85 36.75 8.8 L36.8 8.9 Q36.0 12.95 32.2 14.2 32.25 10.95 31.5 7.45 L31.05 5.85 M11.75 14.2 Q7.95 12.95 7.15 9.0 L7.35 8.8 Q10.15 5.9 13.45 4.3 L13.15 5.3 Q11.6 9.9 11.75 14.2" fill="url(#gradient4)" fill-rule="evenodd" stroke="none"/>
      <path d="M32.2 14.2 Q31.7 9.8 29.1 7.05 L30.8 5.3 31.05 5.85 31.5 7.45 Q32.25 10.95 32.2 14.2 M11.75 14.2 Q11.6 9.9 13.15 5.3 L14.9 7.05 Q12.3 9.8 11.75 14.2" fill="#492d20" fill-rule="evenodd" stroke="none"/>
      <path d="M1.85 33.5 L1.85 36.2 Q1.85 37.2 2.4 37.85 2.95 38.45 3.8 38.45 4.6 38.45 5.25 37.85 5.8 37.2 5.8 36.2 L5.8 34.95 M42.2 33.5 L42.2 36.2 Q42.2 37.2 41.6 37.85 41.1 38.45 40.25 38.45 39.4 38.45 38.8 37.85 38.2 37.2 38.2 36.2 L38.2 34.95" fill="none" stroke="#6a402d" stroke-linecap="round" stroke-linejoin="round" stroke-width="0.25"/>
      <path d="M4.55 11.1 L4.0 10.35 Q3.75 9.5 3.75 8.3 3.75 7.05 4.0 6.2 L4.55 5.45 5.0 6.2 Q5.35 7.05 5.35 8.3 5.35 9.5 5.0 10.35 L4.55 11.1 M39.4 5.45 L39.95 6.2 40.25 8.3 39.95 10.35 39.4 11.1 38.95 10.35 Q38.6 9.5 38.6 8.3 38.6 7.05 38.95 6.2 L39.4 5.45" fill="#331d16" fill-rule="evenodd" stroke="none"/>
      <path d="M4.55 11.1 L4.2 11.25 Q3.7 11.25 3.35 10.35 3.05 9.5 3.05 8.3 3.05 7.05 3.35 6.2 3.7 5.35 4.2 5.35 L4.55 5.45 4.0 6.2 Q3.75 7.05 3.75 8.3 3.75 9.5 4.0 10.35 L4.55 11.1 M39.4 11.1 L39.95 10.35 40.25 8.3 39.95 6.2 39.4 5.45 39.75 5.35 Q40.3 5.35 40.65 6.2 L40.9 8.3 40.65 10.35 Q40.3 11.25 39.75 11.25 L39.4 11.1" fill="#1a0d09" fill-rule="evenodd" stroke="none"/>
      <path d="M4.55 5.45 L4.2 5.35 Q3.7 5.35 3.35 6.2 3.05 7.05 3.05 8.3 3.05 9.5 3.35 10.35 3.7 11.25 4.2 11.25 L4.55 11.1 M4.55 5.45 L5.0 6.2 Q5.35 7.05 5.35 8.3 5.35 9.5 5.0 10.35 L4.55 11.1 M39.4 5.45 L38.95 6.2 Q38.6 7.05 38.6 8.3 38.6 9.5 38.95 10.35 L39.4 11.1 39.75 11.25 Q40.3 11.25 40.65 10.35 L40.9 8.3 40.65 6.2 Q40.3 5.35 39.75 5.35 L39.4 5.45" fill="none" stroke="#6a402d" stroke-linecap="round" stroke-linejoin="round" stroke-width="0.05"/>
      <path d="M31.9 43.95 L12.1 43.95 Q12.85 43.6 14.5 43.2 L22.0 42.65 29.5 43.2 31.9 43.95" fill="#6c432e" fill-rule="evenodd" stroke="none"/>
    </g>
    <linearGradient gradientTransform="matrix(0.0, -0.0275, -0.044, 0.0, 20.9, 22.2)" gradientUnits="userSpaceOnUse" id="gradient3" spreadMethod="pad" x1="-819.2" x2="819.2">
      <stop offset="0.0196078431372549" stop-color="#905a3d"/>
      <stop offset="0.9764705882352941" stop-color="#6a412d"/>
    </linearGradient>
    <linearGradient gradientTransform="matrix(0.0, -0.0275, -0.044, 0.0, 20.9, 22.2)" gradientUnits="userSpaceOnUse" id="gradient4" spreadMethod="pad" x1="-819.2" x2="819.2">
      <stop offset="0.0196078431372549" stop-color="#905a3d"/>
      <stop offset="0.9764705882352941" stop-color="#6a412d"/>
    </linearGradient>
  </defs>
</svg>
