<?xml version="1.0" encoding="UTF-8" standalone="no"?>
<svg xmlns:xlink="http://www.w3.org/1999/xlink" height="44.0px" width="44.0px" xmlns="http://www.w3.org/2000/svg">
  <g transform="matrix(1.0, 0.0, 0.0, 1.0, 0.0, 0.0)">
    <use height="34.7" transform="matrix(1.0, 0.0, 0.0, 1.0, 5.15, 5.45)" width="33.45" xlink:href="#shape0"/>
    <use height="20.15" transform="matrix(1.1549, 0.0, 0.0, 1.1549, 5.95, 5.5)" width="28.2" xlink:href="#sprite0"/>
    <use height="44.0" transform="matrix(1.0, 0.0, 0.0, 1.0, 0.05, 0.0)" width="44.0" xlink:href="#shape2"/>
    <use height="8.6" transform="matrix(1.2077, 0.0, 0.0, 1.2077, 0.8085, 1.0)" width="35.05" xlink:href="#sprite1"/>
    <use height="11.45" transform="matrix(1.1549, 0.0, 0.0, 1.1549, 0.0, 30.75)" width="38.1" xlink:href="#sprite2"/>
    <use height="40.95" transform="matrix(1.0, 0.0, 0.0, 1.0, 0.1, 2.9)" width="43.95" xlink:href="#shape5"/>
  </g>
  <defs>
    <g id="shape0" transform="matrix(1.0, 0.0, 0.0, 1.0, -5.15, -5.45)">
      <path d="M22.05 5.45 Q28.9 5.5 33.75 10.35 38.6 15.2 38.6 22.0 38.6 28.9 33.75 33.75 28.9 38.65 22.05 38.65 15.1 38.65 10.25 33.75 5.4 28.9 5.4 22.0 5.4 15.2 10.25 10.35 15.1 5.5 22.05 5.45" fill="url(#gradient0)" fill-rule="evenodd" stroke="none"/>
      <path d="M15.85 26.95 L15.75 26.8 15.7 26.8 Q15.85 26.45 16.35 26.2 L16.45 26.3 17.2 27.05 18.45 28.55 18.9 29.25 18.25 29.85 18.25 29.8 15.85 26.95 M16.5 26.2 L16.95 25.8 16.45 26.3 16.5 26.2 M32.3 11.4 L33.55 12.0 31.3 14.85 33.7 12.75 34.7 13.8 32.85 15.15 31.9 16.05 31.25 16.65 20.3 27.6 20.3 27.55 19.3 28.55 16.95 25.8 17.05 25.75 17.25 25.45 17.6 25.05 18.05 24.65 18.7 24.05 19.35 23.4 20.25 22.5 21.15 21.6 22.15 20.6 22.7 20.05 23.7 19.05 27.6 15.1 28.65 14.05 Q29.15 13.3 29.6 12.85 L30.5 11.35 31.5 11.65 30.2 13.6 28.65 15.65 29.95 14.65 30.55 14.0 31.95 12.0 32.3 11.4 M15.5 27.15 L16.85 28.9 15.35 27.35 15.5 27.15 M17.25 30.85 L14.45 28.3 14.3 28.3 14.25 28.25 Q14.5 27.75 14.9 27.6 L17.65 30.25 17.25 30.85 M12.05 30.45 Q12.3 30.05 12.85 29.8 L12.95 29.85 14.25 31.1 15.05 32.85 12.15 30.5 12.05 30.45 M13.2 29.5 L13.4 29.25 13.8 30.05 13.2 29.5 M13.95 28.55 L16.75 31.1 16.3 31.6 15.5 32.6 13.7 28.7 13.95 28.55 M14.25 33.95 L14.25 33.8 12.45 31.5 12.4 31.5 12.0 30.9 14.8 33.25 14.25 33.95 M12.05 31.85 L13.8 33.95 11.0 32.6 10.9 32.55 10.45 32.25 10.25 32.15 10.35 32.1 Q10.55 31.6 11.2 31.4 L11.35 31.5 12.05 31.8 12.05 31.85 M10.7 32.95 L12.45 35.5 12.55 35.5 Q12.3 36.15 11.8 36.4 L11.75 36.35 9.65 33.1 9.55 33.0 9.5 33.0 10.1 32.55 10.15 32.65 10.7 32.95 M12.85 35.2 L11.6 33.35 13.6 34.35 12.85 35.2 M5.15 37.45 L9.3 33.35 11.4 36.6 7.75 40.15 5.15 37.45" fill="#4e3f29" fill-rule="evenodd" stroke="none"/>
    </g>
    <linearGradient gradientTransform="matrix(0.0, -0.0165, 0.0203, 0.0, 22.0, 21.3)" gradientUnits="userSpaceOnUse" id="gradient0" spreadMethod="pad" x1="-819.2" x2="819.2">
      <stop offset="0.011764705882352941" stop-color="#cbb89a"/>
      <stop offset="1.0" stop-color="#a28652"/>
    </linearGradient>
    <g id="sprite0" transform="matrix(1.0, 0.0, 0.0, 1.0, 0.0, 0.0)">
      <use height="20.15" transform="matrix(1.0, 0.0, 0.0, 1.0, 0.0, 0.0)" width="28.2" xlink:href="#shape1"/>
    </g>
    <g id="shape1" transform="matrix(1.0, 0.0, 0.0, 1.0, 0.0, 0.0)">
      <path d="M27.65 18.45 L27.4 18.95 Q26.2 20.8 23.4 19.8 19.6 18.5 17.35 14.05 14.8 9.1 9.75 7.4 4.1 5.65 0.0 10.3 1.0 6.85 3.7 4.15 7.2 0.65 11.9 0.05 L14.8 0.05 18.4 0.65 Q21.55 1.65 24.05 4.15 28.2 8.3 28.2 14.25 28.2 16.45 27.65 18.45" fill="#ffffff" fill-opacity="0.19607843" fill-rule="evenodd" stroke="none"/>
    </g>
    <g id="shape2" transform="matrix(1.0, 0.0, 0.0, 1.0, -0.05, 0.0)">
      <path d="M7.65 0.0 L36.4 0.0 Q39.6 0.0 41.8 2.25 44.05 4.45 44.05 7.65 L44.05 36.45 Q44.05 39.55 41.8 41.8 39.6 44.0 36.4 44.0 L7.65 44.0 Q4.5 44.0 2.3 41.8 0.05 39.55 0.05 36.45 L0.05 7.65 Q0.05 4.45 2.3 2.25 4.5 0.0 7.65 0.0 M35.45 8.6 Q29.9 3.0 22.05 3.0 14.15 3.0 8.6 8.6 3.05 14.2 3.05 22.0 3.05 29.9 8.6 35.4 14.15 41.0 22.05 41.0 29.9 41.0 35.45 35.4 41.0 29.9 41.0 22.0 41.0 14.2 35.45 8.6" fill="url(#gradient1)" fill-rule="evenodd" stroke="none"/>
      <path d="M35.45 8.6 Q41.0 14.2 41.0 22.0 41.0 29.9 35.45 35.4 29.9 41.0 22.05 41.0 14.15 41.0 8.6 35.4 3.05 29.9 3.05 22.0 3.05 14.2 8.6 8.6 14.15 3.0 22.05 3.0 29.9 3.0 35.45 8.6 M22.05 5.45 Q15.1 5.5 10.25 10.35 5.4 15.2 5.4 22.0 5.4 28.9 10.25 33.75 15.1 38.65 22.05 38.65 28.9 38.65 33.75 33.75 38.6 28.9 38.6 22.0 38.6 15.2 33.75 10.35 28.9 5.5 22.05 5.45" fill="url(#gradient2)" fill-rule="evenodd" stroke="none"/>
    </g>
    <linearGradient gradientTransform="matrix(0.0, -0.0269, -0.0173, 0.0, 23.0, 22.0)" gradientUnits="userSpaceOnUse" id="gradient1" spreadMethod="pad" x1="-819.2" x2="819.2">
      <stop offset="0.011764705882352941" stop-color="#937b4b"/>
      <stop offset="0.9803921568627451" stop-color="#7f6a43"/>
    </linearGradient>
    <linearGradient gradientTransform="matrix(0.0, -0.0168, -0.0168, 0.0, 22.05, 26.6)" gradientUnits="userSpaceOnUse" id="gradient2" spreadMethod="pad" x1="-819.2" x2="819.2">
      <stop offset="0.011764705882352941" stop-color="#bcad98"/>
      <stop offset="0.9803921568627451" stop-color="#675a3a"/>
    </linearGradient>
    <g id="sprite1" transform="matrix(1.0, 0.0, 0.0, 1.0, 0.2, 0.0)">
      <use height="8.6" transform="matrix(1.0, 0.0, 0.0, 1.0, -0.2, 0.0)" width="35.05" xlink:href="#shape3"/>
    </g>
    <g id="shape3" transform="matrix(1.0, 0.0, 0.0, 1.0, 0.2, 0.0)">
      <path d="M34.4 4.4 Q34.85 5.8 34.85 7.65 L34.85 8.6 Q34.8 6.95 34.4 5.7 33.0 1.3 27.2 1.3 L7.45 1.3 Q0.05 1.3 -0.2 8.5 L-0.2 7.65 Q-0.2 0.0 7.45 0.0 L27.2 0.0 Q33.0 0.0 34.4 4.4" fill="#e7deda" fill-rule="evenodd" stroke="none"/>
    </g>
    <g id="sprite2" transform="matrix(1.0, 0.0, 0.0, 1.0, 0.0, 0.0)">
      <use height="11.45" transform="matrix(1.0, 0.0, 0.0, 1.0, 0.0, 0.0)" width="38.1" xlink:href="#shape4"/>
    </g>
    <g id="shape4" transform="matrix(1.0, 0.0, 0.0, 1.0, 0.0, 0.0)">
      <path d="M31.05 7.75 Q29.5 10.05 27.6 11.45 L10.6 11.45 Q8.65 10.05 7.1 7.75 L6.95 7.55 6.15 8.35 Q5.6 8.55 5.1 7.6 2.95 5.25 0.0 4.55 L0.0 3.9 Q1.05 3.3 2.45 3.0 2.4 1.45 1.35 0.0 4.9 0.75 8.15 3.65 L8.4 3.35 9.4 3.4 Q11.0 5.1 12.9 6.1 L13.75 6.55 14.7 6.9 18.65 7.55 19.5 7.55 23.45 6.9 24.4 6.55 25.25 6.1 Q27.15 5.1 28.75 3.4 L29.75 3.35 30.0 3.65 Q33.25 0.75 36.8 0.0 35.75 1.45 35.7 3.0 L38.1 3.85 38.1 4.6 Q35.2 5.3 33.05 7.6 32.55 8.55 32.0 8.35 L31.2 7.55 31.05 7.75" fill="#6e5c39" fill-rule="evenodd" stroke="none"/>
    </g>
    <g id="shape5" transform="matrix(1.0, 0.0, 0.0, 1.0, -0.1, -2.9)">
      <path d="M7.85 39.5 Q7.25 39.75 6.6 38.7 3.9 35.75 0.15 35.1 1.6 34.0 3.75 33.6 3.65 31.9 2.5 30.3 6.4 31.15 9.95 34.3 L10.25 33.95 11.4 34.0 Q13.15 35.9 15.2 37.0 L16.15 37.5 17.2 37.9 Q19.4 38.7 21.9 38.65 L22.05 38.65 22.15 38.65 Q24.7 38.7 26.9 37.9 L27.95 37.5 28.85 37.0 Q30.95 35.9 32.7 34.0 L33.8 33.95 34.1 34.3 Q37.7 31.15 41.6 30.3 40.45 31.9 40.4 33.6 42.55 34.0 44.0 35.1 40.15 35.75 37.45 38.7 36.9 39.75 36.3 39.5 36.05 39.1 37.05 38.3 L37.45 37.85 Q37.7 36.6 36.95 37.25 L35.45 38.65 35.25 38.85 Q33.95 40.25 32.35 41.25 L30.95 42.05 29.1 42.85 27.45 43.3 22.15 43.75 22.05 43.75 21.9 43.75 Q18.15 43.95 15.0 42.85 14.0 42.5 13.15 42.05 L11.7 41.25 Q10.15 40.2 8.8 38.85 L8.65 38.65 7.2 37.25 Q6.4 36.6 6.6 37.85 L7.1 38.3 Q8.05 39.1 7.85 39.5 M9.95 34.3 Q8.8 35.65 7.1 36.45 6.15 37.1 6.6 37.85 6.15 37.1 7.1 36.45 8.8 35.65 9.95 34.3 M37.45 37.85 Q37.95 37.1 37.05 36.45 35.3 35.65 34.1 34.3 35.3 35.65 37.05 36.45 37.95 37.1 37.45 37.85" fill="#a28652" fill-rule="evenodd" stroke="none"/>
      <path d="M36.3 39.5 L35.45 38.65 36.95 37.25 Q37.7 36.6 37.45 37.85 L37.05 38.3 Q36.05 39.1 36.3 39.5 M8.65 38.65 L7.85 39.5 Q8.05 39.1 7.1 38.3 L6.6 37.85 Q6.4 36.6 7.2 37.25 L8.65 38.65" fill="#59472f" fill-rule="evenodd" stroke="none"/>
      <path d="M7.85 39.5 Q7.25 39.75 6.6 38.7 3.9 35.75 0.15 35.1 1.6 34.0 3.75 33.6 3.65 31.9 2.5 30.3 6.4 31.15 9.95 34.3 L10.25 33.95 11.4 34.0 Q13.15 35.9 15.2 37.0 L16.15 37.5 17.2 37.9 Q19.4 38.7 21.9 38.65 L22.05 38.65 22.15 38.65 Q24.7 38.7 26.9 37.9 L27.95 37.5 28.85 37.0 Q30.95 35.9 32.7 34.0 L33.8 33.95 34.1 34.3 Q37.7 31.15 41.6 30.3 40.45 31.9 40.4 33.6 42.55 34.0 44.0 35.1 40.15 35.75 37.45 38.7 36.9 39.75 36.3 39.5 L35.45 38.65 35.25 38.85 Q33.95 40.25 32.35 41.25 L30.95 42.05 29.1 42.85 27.45 43.3 22.15 43.75 22.05 43.75 21.9 43.75 Q18.15 43.95 15.0 42.85 14.0 42.5 13.15 42.05 L11.7 41.25 Q10.15 40.2 8.8 38.85 L8.65 38.65 7.85 39.5 Q8.05 39.1 7.1 38.3 L6.6 37.85 Q6.15 37.1 7.1 36.45 8.8 35.65 9.95 34.3 M8.65 38.65 L7.2 37.25 Q6.4 36.6 6.6 37.85 M34.1 34.3 Q35.3 35.65 37.05 36.45 37.95 37.1 37.45 37.85 L37.05 38.3 Q36.05 39.1 36.3 39.5 M37.45 37.85 Q37.7 36.6 36.95 37.25 L35.45 38.65" fill="none" stroke="#7b6340" stroke-linecap="round" stroke-linejoin="round" stroke-width="0.1"/>
      <path d="M22.05 9.75 Q20.2 9.05 19.05 7.65 17.75 5.9 17.75 3.4 L17.75 3.3 21.45 2.9 21.7 2.9 22.05 2.9 22.05 9.75" fill="#806a43" fill-rule="evenodd" stroke="none"/>
      <path d="M22.05 2.9 L22.75 2.95 26.3 3.45 Q26.3 5.9 25.05 7.65 23.95 9.05 22.05 9.75 L22.05 2.9" fill="#675a3a" fill-rule="evenodd" stroke="none"/>
      <path d="M21.6 4.85 L22.55 4.85 22.55 5.9 22.55 6.35 24.1 6.35 24.1 6.9 22.55 6.9 22.55 8.4 21.6 8.4 21.6 6.9 20.0 6.9 20.0 6.35 21.6 6.35 21.6 5.9 21.6 4.85" fill="#51462f" fill-rule="evenodd" stroke="none"/>
      <path d="M22.55 4.85 L21.6 4.85 21.6 4.35 22.55 4.35 22.55 4.85 M21.6 5.9 L21.6 6.35 20.0 6.35 20.0 5.9 21.6 5.9 M24.1 6.35 L22.55 6.35 22.55 5.9 24.1 5.9 24.1 6.35" fill="#252016" fill-rule="evenodd" stroke="none"/>
    </g>
  </defs>
</svg>
