<?xml version="1.0" encoding="UTF-8" standalone="no"?>
<svg xmlns:xlink="http://www.w3.org/1999/xlink" height="43.0px" width="44.0px" xmlns="http://www.w3.org/2000/svg">
  <g transform="matrix(1.0, 0.0, 0.0, 1.0, 0.0, 0.0)">
    <use height="40.4" transform="matrix(1.0, 0.0, 0.0, 1.0, 1.85, 2.0)" width="40.3" xlink:href="#shape0"/>
    <use height="0.0" transform="matrix(1.2088, 0.0, 0.0, 1.2099, 1.2, 0.5)" width="0.0" xlink:href="#sprite0"/>
    <use height="43.9" transform="matrix(1.0, 0.0, 0.0, 1.0, 0.1, 0.0)" width="44.0" xlink:href="#shape1"/>
    <use height="20.15" transform="matrix(1.1549, 0.0, 0.0, 1.1549, 5.95, 5.4)" width="28.2" xlink:href="#sprite1"/>
    <use height="39.75" transform="matrix(1.0, 0.0, 0.0, 1.0, 1.85, 4.1)" width="40.55" xlink:href="#shape3"/>
    <use height="8.6" transform="matrix(1.2077, 0.0, 0.0, 1.2066, 0.6585, 0.5)" width="35.05" xlink:href="#sprite2"/>
  </g>
  <defs>
    <g id="shape0" transform="matrix(1.0, 0.0, 0.0, 1.0, -1.85, -2.0)">
      <path d="M36.3 36.5 Q30.4 42.4 22.05 42.4 13.65 42.4 7.8 36.5 1.85 30.55 1.85 22.2 1.85 13.85 7.8 7.95 13.65 2.0 22.05 2.0 30.4 2.0 36.3 7.95 42.15 13.85 42.15 22.2 42.15 30.55 36.3 36.5" fill="url(#gradient0)" fill-rule="evenodd" stroke="none"/>
    </g>
    <linearGradient gradientTransform="matrix(0.0, -0.0155, -0.0189, 0.0, 22.1, 25.2)" gradientUnits="userSpaceOnUse" id="gradient0" spreadMethod="pad" x1="-819.2" x2="819.2">
      <stop offset="0.011764705882352941" stop-color="#bb9a76"/>
      <stop offset="1.0" stop-color="#a87f53"/>
    </linearGradient>
    <g id="shape1" transform="matrix(1.0, 0.0, 0.0, 1.0, -0.1, 0.0)">
      <path d="M10.55 14.9 L13.1 14.9 13.1 11.6 17.55 11.6 17.55 8.1 27.0 8.1 27.0 11.6 31.45 11.6 31.45 14.9 34.0 14.9 34.0 17.1 34.95 17.1 34.95 19.85 36.4 19.85 36.4 25.2 31.05 25.2 31.05 19.85 31.75 19.85 31.75 17.8 31.1 17.8 31.1 16.75 28.05 16.75 28.05 21.35 26.65 21.35 26.65 24.55 29.95 24.55 29.95 30.55 31.6 30.55 31.6 34.3 23.6 34.3 23.6 30.55 24.45 30.55 24.45 26.95 20.1 26.95 20.1 30.55 20.95 30.55 20.95 34.3 12.95 34.3 12.95 30.55 14.6 30.55 14.6 24.55 17.9 24.55 17.9 21.35 16.45 21.35 16.45 16.75 13.45 16.75 13.45 17.8 12.8 17.8 12.8 19.85 13.5 19.85 13.5 25.2 8.15 25.2 8.15 19.85 9.6 19.85 9.6 17.1 10.55 17.1 10.55 14.9 M20.6 9.85 Q20.25 9.85 20.05 10.3 19.8 10.7 19.85 11.3 19.8 11.95 20.15 12.4 20.3 12.75 20.65 12.75 L21.3 12.35 21.45 11.3 Q21.35 10.6 21.05 10.25 L20.6 9.85 M24.65 11.25 L24.3 10.25 Q24.0 9.8 23.7 9.85 23.4 9.75 23.2 10.2 23.0 10.55 23.05 11.25 L23.3 12.3 23.85 12.7 24.4 12.3 24.65 11.25" fill="#5f3921" fill-rule="evenodd" stroke="none"/>
      <path d="M34.3 9.75 Q29.25 4.7 22.1 4.7 14.9 4.7 9.85 9.75 4.75 14.8 4.75 22.0 4.75 29.15 9.85 34.2 14.9 39.3 22.1 39.3 29.3 39.3 34.3 34.2 39.35 29.15 39.35 22.0 39.35 14.8 34.3 9.75 M2.3 2.25 Q4.55 0.0 7.65 0.0 L36.45 0.0 Q39.65 0.0 41.85 2.25 44.1 4.5 44.1 7.65 L44.1 36.35 Q44.1 39.45 41.85 41.7 39.65 43.9 36.45 43.9 L7.65 43.9 Q4.55 43.9 2.3 41.7 0.1 39.45 0.1 36.35 L0.1 7.65 Q0.1 4.5 2.3 2.25" fill="url(#gradient1)" fill-rule="evenodd" stroke="none"/>
      <path d="M22.05 5.55 Q15.1 5.6 10.3 10.45 5.4 15.3 5.4 22.15 5.4 29.1 10.3 34.0 15.1 38.8 22.05 38.8 28.85 38.8 33.75 34.0 38.65 29.1 38.65 22.15 38.65 15.3 33.75 10.45 28.9 5.6 22.05 5.55 M8.5 8.8 Q14.1 3.2 22.05 3.2 29.9 3.2 35.4 8.8 41.0 14.3 41.0 22.15 41.0 30.05 35.4 35.6 29.9 41.15 22.05 41.15 14.1 41.15 8.5 35.6 2.95 30.05 2.95 22.15 2.95 14.3 8.5 8.8" fill="url(#gradient2)" fill-rule="evenodd" stroke="none"/>
    </g>
    <linearGradient gradientTransform="matrix(0.0, -0.0275, -0.044, 0.0, 21.0, 22.15)" gradientUnits="userSpaceOnUse" id="gradient1" spreadMethod="pad" x1="-819.2" x2="819.2">
      <stop offset="0.0196078431372549" stop-color="#905a3d"/>
      <stop offset="0.9764705882352941" stop-color="#6a412d"/>
    </linearGradient>
    <linearGradient gradientTransform="matrix(0.0, -0.0168, -0.0168, 0.0, 22.05, 26.8)" gradientUnits="userSpaceOnUse" id="gradient2" spreadMethod="pad" x1="-819.2" x2="819.2">
      <stop offset="0.0196078431372549" stop-color="#a3704d"/>
      <stop offset="0.9803921568627451" stop-color="#492d20"/>
    </linearGradient>
    <g id="sprite1" transform="matrix(1.0, 0.0, 0.0, 1.0, 0.0, 0.0)">
      <use height="20.15" transform="matrix(1.0, 0.0, 0.0, 1.0, 0.0, 0.0)" width="28.2" xlink:href="#shape2"/>
    </g>
    <g id="shape2" transform="matrix(1.0, 0.0, 0.0, 1.0, 0.0, 0.0)">
      <path d="M27.65 18.45 L27.4 18.95 Q26.2 20.8 23.4 19.8 19.6 18.5 17.35 14.05 14.8 9.1 9.75 7.4 4.1 5.65 0.0 10.3 1.0 6.85 3.7 4.15 7.2 0.65 11.9 0.05 L14.8 0.05 18.4 0.65 Q21.55 1.65 24.05 4.15 28.2 8.3 28.2 14.25 28.2 16.45 27.65 18.45" fill="#ffffff" fill-opacity="0.19607843" fill-rule="evenodd" stroke="none"/>
    </g>
    <g id="shape3" transform="matrix(1.0, 0.0, 0.0, 1.0, -1.85, -4.1)">
      <path d="M16.35 40.4 Q12.9 39.4 9.65 37.75 10.95 34.5 13.3 34.0 14.05 37.65 16.35 40.4 M27.45 40.4 Q29.05 38.4 29.9 35.8 L30.35 34.0 Q32.7 34.5 34.0 37.8 30.8 39.55 27.45 40.4" fill="url(#gradient3)" fill-rule="evenodd" stroke="none"/>
      <path d="M13.3 34.0 Q14.8 37.0 18.0 38.45 L16.35 40.4 Q14.05 37.65 13.3 34.0 M27.45 40.4 L25.65 38.45 Q28.85 37.0 30.35 34.0 L29.9 35.8 Q29.05 38.4 27.45 40.4" fill="#6d4a34" fill-rule="evenodd" stroke="none"/>
      <path d="M31.15 5.85 L30.55 4.1 Q34.0 5.85 36.85 8.8 L36.9 8.9 Q36.1 12.95 32.3 14.15 32.35 10.9 31.6 7.45 L31.15 5.85 M13.25 5.25 Q11.7 9.9 11.85 14.15 8.05 12.95 7.25 8.95 L7.45 8.8 Q10.25 5.9 13.55 4.3 L13.25 5.25" fill="url(#gradient4)" fill-rule="evenodd" stroke="none"/>
      <path d="M32.3 14.15 Q31.8 9.75 29.2 7.05 L30.9 5.25 31.15 5.85 31.6 7.45 Q32.35 10.9 32.3 14.15 M11.85 14.15 Q11.7 9.9 13.25 5.25 L15.0 7.05 Q12.4 9.75 11.85 14.15" fill="#492d20" fill-rule="evenodd" stroke="none"/>
      <path d="M1.95 33.4 L1.95 36.15 Q1.95 37.1 2.5 37.75 3.05 38.4 3.9 38.4 4.7 38.4 5.35 37.75 5.9 37.1 5.9 36.15 L5.9 34.85 M42.3 33.4 L42.3 36.15 Q42.3 37.1 41.7 37.75 41.2 38.4 40.35 38.4 39.5 38.4 38.9 37.75 38.3 37.1 38.3 36.15 L38.3 34.85" fill="none" stroke="#6a402d" stroke-linecap="round" stroke-linejoin="round" stroke-width="0.25"/>
      <path d="M4.65 5.45 L5.1 6.2 Q5.45 7.05 5.45 8.25 5.45 9.5 5.1 10.35 L4.65 11.1 4.1 10.35 Q3.85 9.5 3.85 8.25 3.85 7.05 4.1 6.2 4.35 5.6 4.65 5.45 M39.5 5.45 L40.05 6.2 40.35 8.25 40.05 10.35 39.5 11.1 39.05 10.35 Q38.7 9.5 38.7 8.25 38.7 7.05 39.05 6.2 39.25 5.6 39.5 5.45" fill="#331d16" fill-rule="evenodd" stroke="none"/>
      <path d="M4.65 11.1 L4.3 11.2 Q3.8 11.2 3.45 10.35 3.15 9.5 3.15 8.25 3.15 7.05 3.45 6.2 3.8 5.3 4.3 5.3 L4.65 5.45 Q4.35 5.6 4.1 6.2 3.85 7.05 3.85 8.25 3.85 9.5 4.1 10.35 L4.65 11.1 M39.5 5.45 Q39.7 5.3 39.85 5.3 40.4 5.3 40.75 6.2 L41.0 8.25 40.75 10.35 Q40.4 11.2 39.85 11.2 L39.5 11.1 40.05 10.35 40.35 8.25 40.05 6.2 39.5 5.45" fill="#1a0d09" fill-rule="evenodd" stroke="none"/>
      <path d="M4.65 5.45 L5.1 6.2 Q5.45 7.05 5.45 8.25 5.45 9.5 5.1 10.35 L4.65 11.1 4.3 11.2 Q3.8 11.2 3.45 10.35 3.15 9.5 3.15 8.25 3.15 7.05 3.45 6.2 3.8 5.3 4.3 5.3 L4.65 5.45 M39.5 11.1 L39.85 11.2 Q40.4 11.2 40.75 10.35 L41.0 8.25 40.75 6.2 Q40.4 5.3 39.85 5.3 39.7 5.3 39.5 5.45 M39.5 11.1 L39.05 10.35 Q38.7 9.5 38.7 8.25 38.7 7.05 39.05 6.2 39.25 5.6 39.5 5.45" fill="none" stroke="#6a402d" stroke-linecap="round" stroke-linejoin="round" stroke-width="0.05"/>
      <path d="M32.0 43.85 L12.2 43.85 Q12.95 43.5 14.6 43.1 L22.1 42.55 29.6 43.1 32.0 43.85" fill="#6c432e" fill-rule="evenodd" stroke="none"/>
    </g>
    <linearGradient gradientTransform="matrix(0.0, -0.0275, -0.044, 0.0, 21.0, 22.15)" gradientUnits="userSpaceOnUse" id="gradient3" spreadMethod="pad" x1="-819.2" x2="819.2">
      <stop offset="0.0196078431372549" stop-color="#905a3d"/>
      <stop offset="0.9764705882352941" stop-color="#6a412d"/>
    </linearGradient>
    <linearGradient gradientTransform="matrix(0.0, -0.0275, -0.044, 0.0, 21.0, 22.15)" gradientUnits="userSpaceOnUse" id="gradient4" spreadMethod="pad" x1="-819.2" x2="819.2">
      <stop offset="0.0196078431372549" stop-color="#905a3d"/>
      <stop offset="0.9764705882352941" stop-color="#6a412d"/>
    </linearGradient>
    <g id="sprite2" transform="matrix(1.0, 0.0, 0.0, 1.0, 0.2, 0.0)">
      <use height="8.6" transform="matrix(1.0, 0.0, 0.0, 1.0, -0.2, 0.0)" width="35.05" xlink:href="#shape4"/>
    </g>
    <g id="shape4" transform="matrix(1.0, 0.0, 0.0, 1.0, 0.2, 0.0)">
      <path d="M34.4 4.4 Q34.85 5.8 34.85 7.65 L34.85 8.6 Q34.8 6.95 34.4 5.7 33.0 1.3 27.2 1.3 L7.45 1.3 Q0.05 1.3 -0.2 8.5 L-0.2 7.65 Q-0.2 0.0 7.45 0.0 L27.2 0.0 Q33.0 0.0 34.4 4.4" fill="#e7deda" fill-rule="evenodd" stroke="none"/>
    </g>
  </defs>
</svg>
