<?xml version="1.0" encoding="UTF-8" standalone="no"?>
<svg xmlns:xlink="http://www.w3.org/1999/xlink" height="44.0px" width="44.0px" xmlns="http://www.w3.org/2000/svg">
  <g transform="matrix(1.0, 0.0, 0.0, 1.0, 0.0, 0.0)">
    <use height="37.1" transform="matrix(1.0, 0.0, 0.0, 1.0, 3.4, 4.0)" width="37.2" xlink:href="#shape0"/>
    <use height="20.15" transform="matrix(1.1594, 0.0, 0.0, 1.1594, 5.8, 5.75)" width="28.2" xlink:href="#sprite0"/>
    <use height="44.0" transform="matrix(1.0, 0.0, 0.0, 1.0, 0.0, 0.5)" width="44.0" xlink:href="#shape2"/>
    <use height="8.6" transform="matrix(1.2125, 0.0, 0.0, 1.2125, 0.8575, 1.45)" width="35.05" xlink:href="#sprite1"/>
    <use height="40.5" transform="matrix(1.0, 0.0, 0.0, 1.0, 0.0, 4.0)" width="43.95" xlink:href="#shape4"/>
    <use height="20.15" transform="matrix(1.1594, 0.0, 0.0, 1.1594, 5.8, 5.75)" width="28.2" xlink:href="#sprite0"/>
    <use height="44.0" transform="matrix(1.0, 0.0, 0.0, 1.0, 0.0, 0.5)" width="44.0" xlink:href="#shape2"/>
    <use height="8.6" transform="matrix(1.2125, 0.0, 0.0, 1.2125, 0.8575, 1.45)" width="35.05" xlink:href="#sprite1"/>
    <use height="41.0" transform="matrix(1.0, 0.0, 0.0, 1.0, 0.0, 3.5)" width="43.95" xlink:href="#shape5"/>
    <use height="20.15" transform="matrix(1.1594, 0.0, 0.0, 1.1594, 5.8, 5.25)" width="28.2" xlink:href="#sprite0"/>
    <use height="44.0" transform="matrix(1.0, 0.0, 0.0, 1.0, 0.0, 0.0)" width="44.0" xlink:href="#shape6"/>
    <use height="8.6" transform="matrix(1.2125, 0.0, 0.0, 1.2125, 0.8575, 0.95)" width="35.05" xlink:href="#sprite1"/>
    <use height="40.5" transform="matrix(1.0, 0.0, 0.0, 1.0, 0.0, 3.5)" width="43.95" xlink:href="#shape7"/>
    <use height="20.15" transform="matrix(1.1594, 0.0, 0.0, 1.1594, 5.8, 5.25)" width="28.2" xlink:href="#sprite0"/>
    <use height="44.0" transform="matrix(1.0, 0.0, 0.0, 1.0, 0.0, 0.0)" width="44.0" xlink:href="#shape6"/>
    <use height="8.6" transform="matrix(1.2125, 0.0, 0.0, 1.2125, 0.8575, 0.95)" width="35.05" xlink:href="#sprite1"/>
    <use height="17.95" transform="matrix(1.0, 0.0, 0.0, 1.0, 0.0, 26.05)" width="43.95" xlink:href="#shape8"/>
  </g>
  <defs>
    <g id="shape0" transform="matrix(1.0, 0.0, 0.0, 1.0, -3.4, -4.0)">
      <path d="M3.4 22.55 Q3.4 14.85 8.85 9.45 14.3 4.0 22.05 4.0 29.75 4.0 35.2 9.45 40.6 14.9 40.6 22.55 40.6 30.25 35.2 35.7 29.75 41.1 22.05 41.1 14.3 41.1 8.85 35.7 3.4 30.25 3.4 22.55" fill="url(#gradient0)" fill-rule="evenodd" stroke="none"/>
      <path d="M21.95 11.95 L21.95 12.2 Q28.85 12.2 35.85 18.3 26.7 20.45 25.95 22.6 L31.9 22.6 Q27.1 25.4 26.0 27.9 L29.75 27.9 Q25.75 29.25 24.3 32.5 L26.8 32.5 Q23.3 33.65 21.95 36.3 L21.75 36.5 21.75 36.05 Q20.4 33.45 16.9 32.25 L19.4 32.25 Q17.95 29.1 13.95 27.75 L17.7 27.75 Q16.6 25.2 11.75 22.45 L17.75 22.45 Q17.0 20.3 7.85 18.1 14.9 11.9 21.95 11.95" fill="#664411" fill-rule="evenodd" stroke="none"/>
    </g>
    <linearGradient gradientTransform="matrix(0.0, -0.017, -0.0173, 0.0, 21.05, 27.5)" gradientUnits="userSpaceOnUse" id="gradient0" spreadMethod="pad" x1="-819.2" x2="819.2">
      <stop offset="0.011764705882352941" stop-color="#dad67d"/>
      <stop offset="1.0" stop-color="#cfa451"/>
    </linearGradient>
    <g id="sprite0" transform="matrix(1.0, 0.0, 0.0, 1.0, 0.0, 0.0)">
      <use height="20.15" transform="matrix(1.0, 0.0, 0.0, 1.0, 0.0, 0.0)" width="28.2" xlink:href="#shape1"/>
    </g>
    <g id="shape1" transform="matrix(1.0, 0.0, 0.0, 1.0, 0.0, 0.0)">
      <path d="M27.65 18.45 L27.4 18.95 Q26.2 20.8 23.4 19.8 19.6 18.5 17.35 14.05 14.8 9.1 9.75 7.4 4.1 5.65 0.0 10.3 1.0 6.85 3.7 4.15 7.2 0.65 11.9 0.05 L14.8 0.05 18.4 0.65 Q21.55 1.65 24.05 4.15 28.2 8.3 28.2 14.25 28.2 16.45 27.65 18.45" fill="#ffffff" fill-opacity="0.19607843" fill-rule="evenodd" stroke="none"/>
    </g>
    <g id="shape2" transform="matrix(1.0, 0.0, 0.0, 1.0, 0.0, -0.5)">
      <path d="M41.8 2.8 Q44.0 5.0 44.0 8.1 L44.0 36.9 Q44.0 40.1 41.8 42.3 39.6 44.5 36.4 44.5 L7.6 44.5 Q4.45 44.5 2.25 42.3 0.0 40.1 0.0 36.9 L0.0 8.1 Q0.0 5.0 2.25 2.8 4.45 0.5 7.6 0.5 L36.4 0.5 Q39.55 0.5 41.8 2.8 M40.85 22.55 Q40.85 14.6 35.25 9.1 29.75 3.55 21.85 3.55 13.9 3.55 8.4 9.1 2.85 14.6 2.85 22.55 2.85 30.45 8.4 35.95 13.9 41.6 21.85 41.6 29.75 41.6 35.25 35.95 40.85 30.45 40.85 22.55" fill="url(#gradient1)" fill-rule="evenodd" stroke="none"/>
      <path d="M40.85 22.55 Q40.85 30.45 35.25 35.95 29.75 41.6 21.85 41.6 13.9 41.6 8.4 35.95 2.85 30.45 2.85 22.55 2.85 14.6 8.4 9.1 13.9 3.55 21.85 3.55 29.75 3.55 35.25 9.1 40.85 14.6 40.85 22.55 M33.7 10.85 Q28.75 5.95 21.85 5.9 14.95 5.95 10.1 10.85 5.2 15.65 5.15 22.55 5.2 29.5 10.1 34.35 14.95 39.25 21.85 39.25 28.75 39.25 33.7 34.35 38.5 29.5 38.5 22.55 38.5 15.65 33.7 10.85" fill="url(#gradient2)" fill-rule="evenodd" stroke="none"/>
    </g>
    <linearGradient gradientTransform="matrix(0.0, -0.0258, -0.0551, 0.0, 21.85, 22.35)" gradientUnits="userSpaceOnUse" id="gradient1" spreadMethod="pad" x1="-819.2" x2="819.2">
      <stop offset="0.011764705882352941" stop-color="#c79829"/>
      <stop offset="1.0" stop-color="#be7d1e"/>
    </linearGradient>
    <linearGradient gradientTransform="matrix(1.0E-4, 0.0223, -0.0232, 1.0E-4, 21.9, 22.85)" gradientUnits="userSpaceOnUse" id="gradient2" spreadMethod="pad" x1="-819.2" x2="819.2">
      <stop offset="0.011764705882352941" stop-color="#8d5910"/>
      <stop offset="1.0" stop-color="#d9d597"/>
    </linearGradient>
    <g id="sprite1" transform="matrix(1.0, 0.0, 0.0, 1.0, 0.2, 0.0)">
      <use height="8.6" transform="matrix(1.0, 0.0, 0.0, 1.0, -0.2, 0.0)" width="35.05" xlink:href="#shape3"/>
    </g>
    <g id="shape3" transform="matrix(1.0, 0.0, 0.0, 1.0, 0.2, 0.0)">
      <path d="M34.4 4.4 Q34.85 5.8 34.85 7.65 L34.85 8.6 Q34.8 6.95 34.4 5.7 33.0 1.3 27.2 1.3 L7.45 1.3 Q0.05 1.3 -0.2 8.5 L-0.2 7.65 Q-0.2 0.0 7.45 0.0 L27.2 0.0 Q33.0 0.0 34.4 4.4" fill="#e7deda" fill-rule="evenodd" stroke="none"/>
    </g>
    <g id="shape4" transform="matrix(1.0, 0.0, 0.0, 1.0, 0.0, -4.0)">
      <path d="M39.65 29.65 L38.05 29.65 37.95 29.85 39.3 30.8 38.75 32.5 38.9 32.65 40.4 31.6 41.8 32.65 42.05 32.5 41.5 30.8 42.8 29.85 42.65 29.65 41.1 29.65 40.5 28.1 40.25 28.1 39.65 29.65 M38.85 28.45 L39.3 27.3 39.7 26.8 Q40.05 26.55 40.4 26.55 L41.05 26.8 41.5 27.35 41.9 28.45 43.05 28.45 43.75 28.7 43.95 28.85 43.95 30.45 43.7 30.6 42.85 31.25 43.25 32.6 43.25 33.3 42.8 33.85 42.1 34.05 41.45 33.8 41.2 33.65 41.15 36.2 43.55 37.15 Q43.75 37.2 43.95 37.4 L43.6 39.3 43.4 39.35 40.85 40.0 40.65 42.95 40.5 43.25 39.25 44.0 39.0 43.95 38.5 43.5 37.0 40.95 34.2 41.7 33.85 41.7 33.0 42.3 33.4 43.65 33.4 44.35 33.3 44.5 31.15 44.5 30.55 44.1 29.9 44.5 27.7 44.5 27.65 44.3 27.65 43.6 28.05 42.3 27.15 41.7 26.75 41.1 Q26.6 40.7 26.75 40.35 L27.15 39.75 27.85 39.55 29.0 39.55 29.45 38.4 Q29.6 38.05 29.85 37.85 L30.55 37.65 31.2 37.85 31.65 38.45 32.05 39.55 33.2 39.55 34.85 37.55 33.55 35.35 33.4 34.65 33.7 33.95 Q33.9 33.7 34.25 33.65 L34.95 33.7 37.35 34.65 38.05 33.9 37.9 33.8 37.5 33.2 37.5 32.5 37.9 31.25 37.0 30.6 36.6 30.05 Q36.45 29.65 36.6 29.3 L37.0 28.7 Q37.3 28.45 37.7 28.45 L38.85 28.45 M30.65 39.2 L30.4 39.2 29.8 40.7 28.2 40.7 28.1 40.95 29.45 41.85 28.85 43.6 29.05 43.7 30.55 42.65 31.95 43.7 32.2 43.6 31.65 41.85 32.8 41.0 32.75 40.7 31.25 40.7 30.65 39.2 M37.7 36.0 L34.55 34.75 36.3 37.7 33.9 40.5 37.55 39.6 39.5 42.85 39.75 39.1 43.15 38.2 40.0 36.95 40.05 33.5 37.7 36.0" fill="url(#gradient3)" fill-rule="evenodd" stroke="none"/>
      <path d="M39.3 30.8 L39.3 31.4 38.9 32.7 38.6 32.85 39.3 30.8 M41.85 32.7 L41.5 31.4 41.5 30.8 42.15 32.85 41.85 32.7 M42.2 30.25 L41.1 30.25 40.4 28.35 39.65 30.25 38.55 30.25 37.7 29.65 39.65 29.65 40.4 27.7 41.1 29.65 43.05 29.65 42.2 30.25 M40.0 36.95 L43.15 38.2 42.15 38.5 40.0 37.55 40.0 36.95 M34.55 40.35 L33.9 40.5 36.3 37.7 36.3 38.3 34.55 40.35 M35.0 35.6 L34.55 34.75 37.7 36.0 40.05 33.5 40.05 34.15 37.7 36.65 35.0 35.6 M32.0 43.75 L31.65 42.5 31.65 41.85 32.3 43.95 32.0 43.75 M32.35 41.35 L31.25 41.35 30.55 39.4 29.8 41.35 28.7 41.35 27.85 40.7 29.8 40.7 30.55 38.8 31.25 40.7 33.2 40.7 32.35 41.35 M29.45 41.85 L29.45 42.5 29.05 43.75 28.75 43.95 29.45 41.85" fill="#674512" fill-rule="evenodd" stroke="none"/>
      <path d="M38.9 32.7 L39.3 31.4 39.3 30.8 38.55 30.25 39.65 30.25 40.4 28.35 41.1 30.25 42.2 30.25 41.5 30.8 41.5 31.4 41.85 32.7 40.4 31.6 38.9 32.7 M40.0 36.95 L40.0 37.55 42.15 38.5 39.75 39.1 39.5 42.85 37.55 39.6 34.55 40.35 36.3 38.3 36.3 37.7 35.0 35.6 37.7 36.65 40.05 34.15 40.0 36.95 M31.65 41.85 L31.65 42.5 32.0 43.75 30.55 42.65 29.05 43.75 29.45 42.5 29.45 41.85 28.7 41.35 29.8 41.35 30.55 39.4 31.25 41.35 32.35 41.35 31.65 41.85" fill="#815815" fill-rule="evenodd" stroke="none"/>
      <path d="M5.1 28.45 L4.65 27.3 4.25 26.8 Q3.9 26.55 3.55 26.55 L2.9 26.8 Q2.55 26.95 2.45 27.35 L2.05 28.45 0.9 28.45 0.2 28.7 0.0 28.85 0.0 30.45 0.25 30.6 1.1 31.25 0.7 32.6 0.7 33.3 1.15 33.85 Q1.45 34.05 1.85 34.05 L2.5 33.8 2.75 33.65 2.8 36.2 0.4 37.15 0.0 37.4 0.35 39.3 0.55 39.35 3.1 40.0 3.3 42.95 3.45 43.25 4.7 44.0 4.95 43.95 5.45 43.5 6.95 40.95 9.75 41.7 10.1 41.7 10.95 42.3 10.55 43.65 10.55 44.35 10.65 44.5 12.8 44.5 13.4 44.1 14.05 44.5 16.25 44.5 16.3 44.3 16.3 43.6 15.9 42.3 16.8 41.7 17.2 41.1 17.2 40.35 16.8 39.75 16.1 39.55 14.95 39.55 14.5 38.4 14.1 37.85 13.4 37.65 12.75 37.85 Q12.4 38.05 12.3 38.45 L11.9 39.55 10.75 39.55 9.1 37.55 10.4 35.35 10.55 34.65 10.25 33.95 9.7 33.65 9.0 33.7 6.6 34.65 5.9 33.9 6.05 33.8 6.45 33.2 6.45 32.5 6.05 31.25 6.95 30.6 7.35 30.05 7.35 29.3 6.95 28.7 6.25 28.45 5.1 28.45 M13.3 39.2 L13.55 39.2 14.15 40.7 15.75 40.7 15.85 40.95 14.5 41.85 15.1 43.6 14.9 43.7 13.4 42.65 12.0 43.7 11.75 43.6 12.3 41.85 11.15 41.0 11.2 40.7 12.7 40.7 13.3 39.2 M6.25 36.0 L9.4 34.75 7.65 37.7 10.05 40.5 6.4 39.6 4.45 42.85 4.2 39.1 0.8 38.2 3.95 36.95 3.9 33.5 6.25 36.0 M4.3 29.65 L5.9 29.65 6.0 29.85 4.65 30.8 5.2 32.5 5.05 32.65 3.55 31.6 2.15 32.65 1.9 32.5 2.45 30.8 1.15 29.85 1.3 29.65 2.85 29.65 3.45 28.1 3.7 28.1 4.3 29.65" fill="url(#gradient4)" fill-rule="evenodd" stroke="none"/>
      <path d="M5.4 30.25 L6.25 29.65 4.3 29.65 3.55 27.7 2.85 29.65 0.9 29.65 1.75 30.25 2.85 30.25 3.55 28.35 4.3 30.25 5.4 30.25 M2.45 30.8 L1.8 32.85 2.1 32.7 2.45 31.4 2.45 30.8 M5.05 32.7 L5.35 32.85 4.65 30.8 4.65 31.4 5.05 32.7 M3.95 36.95 L0.8 38.2 1.8 38.5 3.95 37.55 3.95 36.95 M9.4 40.35 L10.05 40.5 7.65 37.7 7.65 38.3 9.4 40.35 M8.95 35.6 L9.4 34.75 6.25 36.0 3.9 33.5 3.9 34.15 6.25 36.65 8.95 35.6 M15.25 41.35 L16.1 40.7 14.15 40.7 13.4 38.8 12.7 40.7 10.75 40.7 11.6 41.35 12.7 41.35 13.4 39.4 14.15 41.35 15.25 41.35 M12.3 41.85 L11.65 43.95 11.95 43.75 12.3 42.5 12.3 41.85 M14.9 43.75 L15.2 43.95 14.5 41.85 14.5 42.5 14.9 43.75" fill="#674512" fill-rule="evenodd" stroke="none"/>
      <path d="M1.75 30.25 L2.45 30.8 2.45 31.4 2.1 32.7 3.55 31.6 5.05 32.7 4.65 31.4 4.65 30.8 5.4 30.25 4.3 30.25 3.55 28.35 2.85 30.25 1.75 30.25 M3.95 36.95 L3.95 37.55 1.8 38.5 4.2 39.1 4.45 42.85 6.4 39.6 9.4 40.35 7.65 38.3 7.65 37.7 8.95 35.6 6.25 36.65 3.9 34.15 3.95 36.95 M11.6 41.35 L12.3 41.85 12.3 42.5 11.95 43.75 13.4 42.65 14.9 43.75 14.5 42.5 14.5 41.85 15.25 41.35 14.15 41.35 13.4 39.4 12.7 41.35 11.6 41.35" fill="#815815" fill-rule="evenodd" stroke="none"/>
      <path d="M3.4 22.55 Q3.4 14.85 8.85 9.45 14.3 4.0 22.05 4.0 29.75 4.0 35.2 9.45 40.6 14.9 40.6 22.55 40.6 30.25 35.2 35.7 29.75 41.1 22.05 41.1 14.3 41.1 8.85 35.7 3.4 30.25 3.4 22.55" fill="url(#gradient5)" fill-rule="evenodd" stroke="none"/>
      <path d="M38.8 19.3 Q39.3 20.95 39.3 22.7 39.3 24.5 38.8 26.1 L34.35 22.7 34.25 22.7 34.25 22.65 34.35 22.65 38.8 19.3 M34.2 10.4 Q35.45 11.6 36.3 13.1 L30.7 13.9 31.45 8.3 Q33.0 9.15 34.2 10.4 M30.5 22.8 Q30.5 24.9 29.75 26.65 29.55 28.45 32.85 28.85 30.3 30.15 27.95 29.2 L27.75 29.45 Q25.15 32.1 21.25 32.1 17.5 32.1 14.7 29.45 12.0 26.65 12.0 22.8 12.0 19.0 14.7 16.25 17.5 13.55 21.25 13.55 25.15 13.55 27.75 16.25 30.5 19.0 30.5 22.8 M31.4 37.15 L30.6 31.5 36.25 32.3 Q35.4 33.8 34.15 35.05 L31.4 37.15 M9.5 10.4 Q10.7 9.15 12.25 8.3 L13.0 13.9 7.35 13.1 Q8.2 11.6 9.5 10.4 M18.5 5.7 L21.9 5.2 25.3 5.7 21.9 10.15 21.9 10.25 21.85 10.25 21.85 10.15 18.5 5.7 M18.25 18.2 Q17.9 18.4 17.9 18.8 L17.9 20.35 Q17.9 20.7 18.25 21.0 18.45 21.3 18.85 21.3 L19.55 21.0 19.85 20.35 19.85 18.8 19.55 18.2 Q19.2 17.85 18.85 17.85 18.45 17.85 18.25 18.2 M14.45 18.1 Q14.1 18.1 13.75 18.4 13.5 18.65 13.5 19.05 L13.5 20.35 13.75 21.0 14.45 21.3 Q14.85 21.3 15.1 21.0 L15.4 20.35 15.4 19.05 Q15.4 18.65 15.1 18.4 14.85 18.1 14.45 18.1 M13.25 24.55 Q13.1 24.8 13.35 25.2 L13.9 25.7 14.6 25.65 Q16.75 24.65 20.25 25.7 L20.95 25.7 21.4 25.1 21.35 24.4 20.8 23.95 Q16.45 22.55 13.75 23.95 L13.25 24.55 M9.3 22.65 L9.35 22.65 9.35 22.7 9.3 22.7 4.85 26.1 Q4.35 24.5 4.35 22.7 4.35 20.95 4.85 19.3 L9.3 22.65 M13.05 31.5 L12.25 37.15 Q10.75 36.3 9.5 35.05 8.3 33.8 7.4 32.3 L13.05 31.5 M21.9 35.2 L25.3 39.65 21.9 40.15 18.5 39.65 21.85 35.2 21.85 35.15 21.9 35.15 21.9 35.2" fill="#664411" fill-rule="evenodd" stroke="none"/>
    </g>
    <linearGradient gradientTransform="matrix(0.0, -0.0258, -0.0551, 0.0, 21.85, 22.4)" gradientUnits="userSpaceOnUse" id="gradient3" spreadMethod="pad" x1="-819.2" x2="819.2">
      <stop offset="0.011764705882352941" stop-color="#c79829"/>
      <stop offset="1.0" stop-color="#be7d1e"/>
    </linearGradient>
    <linearGradient gradientTransform="matrix(0.0, -0.0258, 0.0551, 0.0, 22.1, 22.4)" gradientUnits="userSpaceOnUse" id="gradient4" spreadMethod="pad" x1="-819.2" x2="819.2">
      <stop offset="0.011764705882352941" stop-color="#c79829"/>
      <stop offset="1.0" stop-color="#be7d1e"/>
    </linearGradient>
    <linearGradient gradientTransform="matrix(0.0, -0.017, -0.0173, 0.0, 21.05, 27.5)" gradientUnits="userSpaceOnUse" id="gradient5" spreadMethod="pad" x1="-819.2" x2="819.2">
      <stop offset="0.011764705882352941" stop-color="#dad67d"/>
      <stop offset="1.0" stop-color="#cfa451"/>
    </linearGradient>
    <g id="shape5" transform="matrix(1.0, 0.0, 0.0, 1.0, 0.0, -3.5)">
      <path d="M38.85 28.45 L39.3 27.3 39.7 26.8 Q40.05 26.55 40.4 26.55 L41.05 26.8 41.5 27.35 41.9 28.45 43.05 28.45 43.75 28.7 43.95 28.85 43.95 30.45 43.7 30.6 42.85 31.25 43.25 32.6 43.25 33.3 42.8 33.85 42.1 34.05 41.45 33.8 41.2 33.65 41.15 36.2 43.55 37.15 Q43.75 37.2 43.95 37.4 L43.6 39.3 43.4 39.35 40.85 40.0 40.65 42.95 40.5 43.25 39.25 44.0 39.0 43.95 38.5 43.5 37.0 40.95 34.2 41.7 33.85 41.7 33.0 42.3 33.4 43.65 33.4 44.35 33.3 44.5 31.15 44.5 30.55 44.1 29.9 44.5 27.7 44.5 27.65 44.3 27.65 43.6 28.05 42.3 27.15 41.7 26.75 41.1 Q26.6 40.7 26.75 40.35 L27.15 39.75 27.85 39.55 29.0 39.55 29.45 38.4 Q29.6 38.05 29.85 37.85 L30.55 37.65 31.2 37.85 31.65 38.45 32.05 39.55 33.2 39.55 34.85 37.55 33.55 35.35 33.4 34.65 33.7 33.95 Q33.9 33.7 34.25 33.65 L34.95 33.7 37.35 34.65 38.05 33.9 37.9 33.8 37.5 33.2 37.5 32.5 37.9 31.25 37.0 30.6 36.6 30.05 Q36.45 29.65 36.6 29.3 L37.0 28.7 Q37.3 28.45 37.7 28.45 L38.85 28.45 M30.65 39.2 L30.4 39.2 29.8 40.7 28.2 40.7 28.1 40.95 29.45 41.85 28.85 43.6 29.05 43.7 30.55 42.65 31.95 43.7 32.2 43.6 31.65 41.85 32.8 41.0 32.75 40.7 31.25 40.7 30.65 39.2 M37.7 36.0 L34.55 34.75 36.3 37.7 33.9 40.5 37.55 39.6 39.5 42.85 39.75 39.1 43.15 38.2 40.0 36.95 40.05 33.5 37.7 36.0 M39.65 29.65 L38.05 29.65 37.95 29.85 39.3 30.8 38.75 32.5 38.9 32.65 40.4 31.6 41.8 32.65 42.05 32.5 41.5 30.8 42.8 29.85 42.65 29.65 41.1 29.65 40.5 28.1 40.25 28.1 39.65 29.65" fill="url(#gradient6)" fill-rule="evenodd" stroke="none"/>
      <path d="M38.55 30.25 L37.7 29.65 39.65 29.65 40.4 27.7 41.1 29.65 43.05 29.65 42.2 30.25 41.1 30.25 40.4 28.35 39.65 30.25 38.55 30.25 M41.5 30.8 L42.15 32.85 41.85 32.7 41.5 31.4 41.5 30.8 M38.9 32.7 L38.6 32.85 39.3 30.8 39.3 31.4 38.9 32.7 M40.0 36.95 L43.15 38.2 42.15 38.5 40.0 37.55 40.0 36.95 M34.55 40.35 L33.9 40.5 36.3 37.7 36.3 38.3 34.55 40.35 M35.0 35.6 L34.55 34.75 37.7 36.0 40.05 33.5 40.05 34.15 37.7 36.65 35.0 35.6 M28.7 41.35 L27.85 40.7 29.8 40.7 30.55 38.8 31.25 40.7 33.2 40.7 32.35 41.35 31.25 41.35 30.55 39.4 29.8 41.35 28.7 41.35 M31.65 41.85 L32.3 43.95 32.0 43.75 31.65 42.5 31.65 41.85 M29.05 43.75 L28.75 43.95 29.45 41.85 29.45 42.5 29.05 43.75" fill="#674512" fill-rule="evenodd" stroke="none"/>
      <path d="M42.2 30.25 L41.5 30.8 41.5 31.4 41.85 32.7 40.4 31.6 38.9 32.7 39.3 31.4 39.3 30.8 38.55 30.25 39.65 30.25 40.4 28.35 41.1 30.25 42.2 30.25 M40.0 36.95 L40.0 37.55 42.15 38.5 39.75 39.1 39.5 42.85 37.55 39.6 34.55 40.35 36.3 38.3 36.3 37.7 35.0 35.6 37.7 36.65 40.05 34.15 40.0 36.95 M32.35 41.35 L31.65 41.85 31.65 42.5 32.0 43.75 30.55 42.65 29.05 43.75 29.45 42.5 29.45 41.85 28.7 41.35 29.8 41.35 30.55 39.4 31.25 41.35 32.35 41.35" fill="#815815" fill-rule="evenodd" stroke="none"/>
      <path d="M4.3 29.65 L5.9 29.65 6.0 29.85 4.65 30.8 5.2 32.5 5.05 32.65 3.55 31.6 2.15 32.65 1.9 32.5 2.45 30.8 1.15 29.85 1.3 29.65 2.85 29.65 3.45 28.1 3.7 28.1 4.3 29.65 M5.1 28.45 L4.65 27.3 4.25 26.8 Q3.9 26.55 3.55 26.55 L2.9 26.8 Q2.55 26.95 2.45 27.35 L2.05 28.45 0.9 28.45 0.2 28.7 0.0 28.85 0.0 30.45 0.25 30.6 1.1 31.25 0.7 32.6 0.7 33.3 1.15 33.85 Q1.45 34.05 1.85 34.05 L2.5 33.8 2.75 33.65 2.8 36.2 0.4 37.15 0.0 37.4 0.35 39.3 0.55 39.35 3.1 40.0 3.3 42.95 3.45 43.25 4.7 44.0 4.95 43.95 5.45 43.5 6.95 40.95 9.75 41.7 10.1 41.7 10.95 42.3 10.55 43.65 10.55 44.35 10.65 44.5 12.8 44.5 13.4 44.1 14.05 44.5 16.25 44.5 16.3 44.3 16.3 43.6 15.9 42.3 16.8 41.7 17.2 41.1 17.2 40.35 16.8 39.75 16.1 39.55 14.95 39.55 14.5 38.4 14.1 37.85 13.4 37.65 12.75 37.85 Q12.4 38.05 12.3 38.45 L11.9 39.55 10.75 39.55 9.1 37.55 10.4 35.35 10.55 34.65 10.25 33.95 9.7 33.65 9.0 33.7 6.6 34.65 5.9 33.9 6.05 33.8 6.45 33.2 6.45 32.5 6.05 31.25 6.95 30.6 7.35 30.05 7.35 29.3 6.95 28.7 6.25 28.45 5.1 28.45 M13.3 39.2 L13.55 39.2 14.15 40.7 15.75 40.7 15.85 40.95 14.5 41.85 15.1 43.6 14.9 43.7 13.4 42.65 12.0 43.7 11.75 43.6 12.3 41.85 11.15 41.0 11.2 40.7 12.7 40.7 13.3 39.2 M6.25 36.0 L9.4 34.75 7.65 37.7 10.05 40.5 6.4 39.6 4.45 42.85 4.2 39.1 0.8 38.2 3.95 36.95 3.9 33.5 6.25 36.0" fill="url(#gradient7)" fill-rule="evenodd" stroke="none"/>
      <path d="M4.65 30.8 L4.65 31.4 5.05 32.7 5.35 32.85 4.65 30.8 M2.1 32.7 L2.45 31.4 2.45 30.8 1.8 32.85 2.1 32.7 M1.75 30.25 L2.85 30.25 3.55 28.35 4.3 30.25 5.4 30.25 6.25 29.65 4.3 29.65 3.55 27.7 2.85 29.65 0.9 29.65 1.75 30.25 M3.95 36.95 L0.8 38.2 1.8 38.5 3.95 37.55 3.95 36.95 M9.4 40.35 L10.05 40.5 7.65 37.7 7.65 38.3 9.4 40.35 M8.95 35.6 L9.4 34.75 6.25 36.0 3.9 33.5 3.9 34.15 6.25 36.65 8.95 35.6 M11.95 43.75 L12.3 42.5 12.3 41.85 11.65 43.95 11.95 43.75 M11.6 41.35 L12.7 41.35 13.4 39.4 14.15 41.35 15.25 41.35 16.1 40.7 14.15 40.7 13.4 38.8 12.7 40.7 10.75 40.7 11.6 41.35 M14.5 41.85 L14.5 42.5 14.9 43.75 15.2 43.95 14.5 41.85" fill="#674512" fill-rule="evenodd" stroke="none"/>
      <path d="M5.05 32.7 L4.65 31.4 4.65 30.8 5.4 30.25 4.3 30.25 3.55 28.35 2.85 30.25 1.75 30.25 2.45 30.8 2.45 31.4 2.1 32.7 3.55 31.6 5.05 32.7 M3.95 36.95 L3.95 37.55 1.8 38.5 4.2 39.1 4.45 42.85 6.4 39.6 9.4 40.35 7.65 38.3 7.65 37.7 8.95 35.6 6.25 36.65 3.9 34.15 3.95 36.95 M12.3 41.85 L12.3 42.5 11.95 43.75 13.4 42.65 14.9 43.75 14.5 42.5 14.5 41.85 15.25 41.35 14.15 41.35 13.4 39.4 12.7 41.35 11.6 41.35 12.3 41.85" fill="#815815" fill-rule="evenodd" stroke="none"/>
      <path d="M3.4 22.05 Q3.4 14.35 8.85 8.95 14.3 3.5 22.05 3.5 29.75 3.5 35.2 8.95 40.6 14.4 40.6 22.05 40.6 29.75 35.2 35.2 29.75 40.6 22.05 40.6 14.3 40.6 8.85 35.2 3.4 29.75 3.4 22.05" fill="url(#gradient8)" fill-rule="evenodd" stroke="none"/>
      <path d="M21.95 11.45 L21.95 11.7 Q28.85 11.7 35.85 17.8 26.7 19.95 25.95 22.1 L31.9 22.1 Q27.1 24.9 26.0 27.4 L29.75 27.4 Q25.75 28.75 24.3 32.0 L26.8 32.0 Q23.3 33.15 21.95 35.8 L21.75 36.0 21.75 35.55 Q20.4 32.95 16.9 31.75 L19.4 31.75 Q17.95 28.6 13.95 27.25 L17.7 27.25 Q16.6 24.7 11.75 21.95 L17.75 21.95 Q17.0 19.8 7.85 17.6 14.9 11.4 21.95 11.45" fill="#664411" fill-rule="evenodd" stroke="none"/>
    </g>
    <linearGradient gradientTransform="matrix(0.0, -0.0258, -0.0551, 0.0, 21.85, 22.4)" gradientUnits="userSpaceOnUse" id="gradient6" spreadMethod="pad" x1="-819.2" x2="819.2">
      <stop offset="0.011764705882352941" stop-color="#c79829"/>
      <stop offset="1.0" stop-color="#be7d1e"/>
    </linearGradient>
    <linearGradient gradientTransform="matrix(0.0, -0.0258, 0.0551, 0.0, 22.1, 22.4)" gradientUnits="userSpaceOnUse" id="gradient7" spreadMethod="pad" x1="-819.2" x2="819.2">
      <stop offset="0.011764705882352941" stop-color="#c79829"/>
      <stop offset="1.0" stop-color="#be7d1e"/>
    </linearGradient>
    <linearGradient gradientTransform="matrix(0.0, -0.017, -0.0173, 0.0, 21.05, 27.0)" gradientUnits="userSpaceOnUse" id="gradient8" spreadMethod="pad" x1="-819.2" x2="819.2">
      <stop offset="0.011764705882352941" stop-color="#dad67d"/>
      <stop offset="1.0" stop-color="#cfa451"/>
    </linearGradient>
    <g id="shape6" transform="matrix(1.0, 0.0, 0.0, 1.0, 0.0, 0.0)">
      <path d="M44.0 7.6 L44.0 36.4 Q44.0 39.6 41.8 41.8 39.6 44.0 36.4 44.0 L7.6 44.0 Q4.45 44.0 2.25 41.8 0.0 39.6 0.0 36.4 L0.0 7.6 Q0.0 4.5 2.25 2.3 4.45 0.0 7.6 0.0 L36.4 0.0 Q39.55 0.0 41.8 2.3 44.0 4.5 44.0 7.6 M40.85 22.05 Q40.85 14.1 35.25 8.6 29.75 3.05 21.85 3.05 13.9 3.05 8.4 8.6 2.85 14.1 2.85 22.05 2.85 29.95 8.4 35.45 13.9 41.1 21.85 41.1 29.75 41.1 35.25 35.45 40.85 29.95 40.85 22.05" fill="url(#gradient9)" fill-rule="evenodd" stroke="none"/>
      <path d="M40.85 22.05 Q40.85 29.95 35.25 35.45 29.75 41.1 21.85 41.1 13.9 41.1 8.4 35.45 2.85 29.95 2.85 22.05 2.85 14.1 8.4 8.6 13.9 3.05 21.85 3.05 29.75 3.05 35.25 8.6 40.85 14.1 40.85 22.05 M33.7 10.35 Q28.75 5.45 21.85 5.4 14.95 5.45 10.1 10.35 5.2 15.15 5.15 22.05 5.2 29.0 10.1 33.85 14.95 38.75 21.85 38.75 28.75 38.75 33.7 33.85 38.5 29.0 38.5 22.05 38.5 15.15 33.7 10.35" fill="url(#gradient10)" fill-rule="evenodd" stroke="none"/>
    </g>
    <linearGradient gradientTransform="matrix(0.0, -0.0258, -0.0551, 0.0, 21.85, 21.85)" gradientUnits="userSpaceOnUse" id="gradient9" spreadMethod="pad" x1="-819.2" x2="819.2">
      <stop offset="0.011764705882352941" stop-color="#c79829"/>
      <stop offset="1.0" stop-color="#be7d1e"/>
    </linearGradient>
    <linearGradient gradientTransform="matrix(1.0E-4, 0.0223, -0.0232, 1.0E-4, 21.9, 22.35)" gradientUnits="userSpaceOnUse" id="gradient10" spreadMethod="pad" x1="-819.2" x2="819.2">
      <stop offset="0.011764705882352941" stop-color="#8d5910"/>
      <stop offset="1.0" stop-color="#d9d597"/>
    </linearGradient>
    <g id="shape7" transform="matrix(1.0, 0.0, 0.0, 1.0, 0.0, -3.5)">
      <path d="M38.85 27.95 L39.3 26.8 39.7 26.3 Q40.05 26.05 40.4 26.05 L41.05 26.3 41.5 26.85 41.9 27.95 43.05 27.95 43.75 28.2 43.95 28.35 43.95 29.95 43.7 30.1 42.85 30.75 43.25 32.1 43.25 32.8 42.8 33.35 42.1 33.55 41.45 33.3 41.2 33.15 41.15 35.7 43.55 36.65 Q43.75 36.7 43.95 36.9 L43.6 38.8 43.4 38.85 40.85 39.5 40.65 42.45 40.5 42.75 39.25 43.5 39.0 43.45 38.5 43.0 37.0 40.45 34.2 41.2 33.85 41.2 33.0 41.8 33.4 43.15 33.4 43.85 33.3 44.0 31.15 44.0 30.55 43.6 29.9 44.0 27.7 44.0 27.65 43.8 27.65 43.1 28.05 41.8 27.15 41.2 26.75 40.6 Q26.6 40.2 26.75 39.85 L27.15 39.25 27.85 39.05 29.0 39.05 29.45 37.9 Q29.6 37.55 29.85 37.35 L30.55 37.15 31.2 37.35 31.65 37.95 32.05 39.05 33.2 39.05 34.85 37.05 33.55 34.85 33.4 34.15 33.7 33.45 Q33.9 33.2 34.25 33.15 L34.95 33.2 37.35 34.15 38.05 33.4 37.9 33.3 37.5 32.7 37.5 32.0 37.9 30.75 37.0 30.1 36.6 29.55 Q36.45 29.15 36.6 28.8 L37.0 28.2 Q37.3 27.95 37.7 27.95 L38.85 27.95 M30.65 38.7 L30.4 38.7 29.8 40.2 28.2 40.2 28.1 40.45 29.45 41.35 28.85 43.1 29.05 43.2 30.55 42.15 31.95 43.2 32.2 43.1 31.65 41.35 32.8 40.5 32.75 40.2 31.25 40.2 30.65 38.7 M37.7 35.5 L34.55 34.25 36.3 37.2 33.9 40.0 37.55 39.1 39.5 42.35 39.75 38.6 43.15 37.7 40.0 36.45 40.05 33.0 37.7 35.5 M39.65 29.15 L38.05 29.15 37.95 29.35 39.3 30.3 38.75 32.0 38.9 32.15 40.4 31.1 41.8 32.15 42.05 32.0 41.5 30.3 42.8 29.35 42.65 29.15 41.1 29.15 40.5 27.6 40.25 27.6 39.65 29.15" fill="url(#gradient11)" fill-rule="evenodd" stroke="none"/>
      <path d="M38.55 29.75 L37.7 29.15 39.65 29.15 40.4 27.2 41.1 29.15 43.05 29.15 42.2 29.75 41.1 29.75 40.4 27.85 39.65 29.75 38.55 29.75 M41.5 30.3 L42.15 32.35 41.85 32.2 41.5 30.9 41.5 30.3 M38.9 32.2 L38.6 32.35 39.3 30.3 39.3 30.9 38.9 32.2 M40.0 36.45 L43.15 37.7 42.15 38.0 40.0 37.05 40.0 36.45 M34.55 39.85 L33.9 40.0 36.3 37.2 36.3 37.8 34.55 39.85 M35.0 35.1 L34.55 34.25 37.7 35.5 40.05 33.0 40.05 33.65 37.7 36.15 35.0 35.1 M28.7 40.85 L27.85 40.2 29.8 40.2 30.55 38.3 31.25 40.2 33.2 40.2 32.35 40.85 31.25 40.85 30.55 38.9 29.8 40.85 28.7 40.85 M31.65 41.35 L32.3 43.45 32.0 43.25 31.65 42.0 31.65 41.35 M29.05 43.25 L28.75 43.45 29.45 41.35 29.45 42.0 29.05 43.25" fill="#674512" fill-rule="evenodd" stroke="none"/>
      <path d="M42.2 29.75 L41.5 30.3 41.5 30.9 41.85 32.2 40.4 31.1 38.9 32.2 39.3 30.9 39.3 30.3 38.55 29.75 39.65 29.75 40.4 27.85 41.1 29.75 42.2 29.75 M40.0 36.45 L40.0 37.05 42.15 38.0 39.75 38.6 39.5 42.35 37.55 39.1 34.55 39.85 36.3 37.8 36.3 37.2 35.0 35.1 37.7 36.15 40.05 33.65 40.0 36.45 M32.35 40.85 L31.65 41.35 31.65 42.0 32.0 43.25 30.55 42.15 29.05 43.25 29.45 42.0 29.45 41.35 28.7 40.85 29.8 40.85 30.55 38.9 31.25 40.85 32.35 40.85" fill="#815815" fill-rule="evenodd" stroke="none"/>
      <path d="M4.3 29.15 L5.9 29.15 6.0 29.35 4.65 30.3 5.2 32.0 5.05 32.15 3.55 31.1 2.15 32.15 1.9 32.0 2.45 30.3 1.15 29.35 1.3 29.15 2.85 29.15 3.45 27.6 3.7 27.6 4.3 29.15 M5.1 27.95 L4.65 26.8 4.25 26.3 Q3.9 26.05 3.55 26.05 L2.9 26.3 Q2.55 26.45 2.45 26.85 L2.05 27.95 0.9 27.95 0.2 28.2 0.0 28.35 0.0 29.95 0.25 30.1 1.1 30.75 0.7 32.1 0.7 32.8 1.15 33.35 Q1.45 33.55 1.85 33.55 L2.5 33.3 2.75 33.15 2.8 35.7 0.4 36.65 0.0 36.9 0.35 38.8 0.55 38.85 3.1 39.5 3.3 42.45 3.45 42.75 4.7 43.5 4.95 43.45 5.45 43.0 6.95 40.45 9.75 41.2 10.1 41.2 10.95 41.8 10.55 43.15 10.55 43.85 10.65 44.0 12.8 44.0 13.4 43.6 14.05 44.0 16.25 44.0 16.3 43.8 16.3 43.1 15.9 41.8 16.8 41.2 17.2 40.6 17.2 39.85 16.8 39.25 16.1 39.05 14.95 39.05 14.5 37.9 14.1 37.35 13.4 37.15 12.75 37.35 Q12.4 37.55 12.3 37.95 L11.9 39.05 10.75 39.05 9.1 37.05 10.4 34.85 10.55 34.15 10.25 33.45 9.7 33.15 9.0 33.2 6.6 34.15 5.9 33.4 6.05 33.3 6.45 32.7 6.45 32.0 6.05 30.75 6.95 30.1 7.35 29.55 7.35 28.8 6.95 28.2 6.25 27.95 5.1 27.95 M13.3 38.7 L13.55 38.7 14.15 40.2 15.75 40.2 15.85 40.45 14.5 41.35 15.1 43.1 14.9 43.2 13.4 42.15 12.0 43.2 11.75 43.1 12.3 41.35 11.15 40.5 11.2 40.2 12.7 40.2 13.3 38.7 M6.25 35.5 L9.4 34.25 7.65 37.2 10.05 40.0 6.4 39.1 4.45 42.35 4.2 38.6 0.8 37.7 3.95 36.45 3.9 33.0 6.25 35.5" fill="url(#gradient12)" fill-rule="evenodd" stroke="none"/>
      <path d="M4.65 30.3 L4.65 30.9 5.05 32.2 5.35 32.35 4.65 30.3 M2.1 32.2 L2.45 30.9 2.45 30.3 1.8 32.35 2.1 32.2 M1.75 29.75 L2.85 29.75 3.55 27.85 4.3 29.75 5.4 29.75 6.25 29.15 4.3 29.15 3.55 27.2 2.85 29.15 0.9 29.15 1.75 29.75 M3.95 36.45 L0.8 37.7 1.8 38.0 3.95 37.05 3.95 36.45 M9.4 39.85 L10.05 40.0 7.65 37.2 7.65 37.8 9.4 39.85 M8.95 35.1 L9.4 34.25 6.25 35.5 3.9 33.0 3.9 33.65 6.25 36.15 8.95 35.1 M11.95 43.25 L12.3 42.0 12.3 41.35 11.65 43.45 11.95 43.25 M11.6 40.85 L12.7 40.85 13.4 38.9 14.15 40.85 15.25 40.85 16.1 40.2 14.15 40.2 13.4 38.3 12.7 40.2 10.75 40.2 11.6 40.85 M14.5 41.35 L14.5 42.0 14.9 43.25 15.2 43.45 14.5 41.35" fill="#674512" fill-rule="evenodd" stroke="none"/>
      <path d="M5.05 32.2 L4.65 30.9 4.65 30.3 5.4 29.75 4.3 29.75 3.55 27.85 2.85 29.75 1.75 29.75 2.45 30.3 2.45 30.9 2.1 32.2 3.55 31.1 5.05 32.2 M3.95 36.45 L3.95 37.05 1.8 38.0 4.2 38.6 4.45 42.35 6.4 39.1 9.4 39.85 7.65 37.8 7.65 37.2 8.95 35.1 6.25 36.15 3.9 33.65 3.95 36.45 M12.3 41.35 L12.3 42.0 11.95 43.25 13.4 42.15 14.9 43.25 14.5 42.0 14.5 41.35 15.25 40.85 14.15 40.85 13.4 38.9 12.7 40.85 11.6 40.85 12.3 41.35" fill="#815815" fill-rule="evenodd" stroke="none"/>
      <path d="M3.4 22.05 Q3.4 14.35 8.85 8.95 14.3 3.5 22.05 3.5 29.75 3.5 35.2 8.95 40.6 14.4 40.6 22.05 40.6 29.75 35.2 35.2 29.75 40.6 22.05 40.6 14.3 40.6 8.85 35.2 3.4 29.75 3.4 22.05" fill="url(#gradient13)" fill-rule="evenodd" stroke="none"/>
      <path d="M23.95 14.3 L25.6 14.4 23.05 19.5 22.75 28.5 25.15 27.6 25.2 27.6 21.55 36.75 18.6 27.75 21.0 28.45 21.25 19.55 19.0 15.15 20.8 14.9 19.0 11.65 20.45 11.2 19.35 7.75 22.4 10.5 25.6 7.65 24.9 10.9 25.95 10.9 23.95 14.3 M28.9 25.45 Q28.35 24.9 28.9 24.2 30.4 22.8 31.55 23.9 32.75 24.95 32.35 26.35 32.0 27.95 29.4 27.95 26.75 28.0 25.8 26.0 24.95 24.1 26.0 22.4 26.75 21.05 28.15 20.5 32.95 18.9 34.75 23.05 35.5 25.0 34.85 27.05 33.15 31.4 28.6 33.4 32.35 30.75 33.65 26.45 34.3 24.05 32.3 22.85 28.9 20.85 27.75 23.7 27.25 24.8 27.95 25.95 28.5 27.1 31.05 26.2 29.3 26.25 28.9 25.45 M8.75 23.05 Q10.55 18.9 15.35 20.5 16.75 21.05 17.5 22.4 18.55 24.1 17.7 26.0 16.75 28.0 14.1 27.95 11.5 27.95 11.15 26.35 10.75 24.95 11.95 23.9 13.1 22.8 14.6 24.2 15.15 24.9 14.6 25.45 14.2 26.25 12.45 26.2 15.0 27.1 15.55 25.95 16.25 24.8 15.75 23.7 14.6 20.85 11.2 22.85 9.2 24.05 9.85 26.45 11.15 30.75 14.9 33.4 10.35 31.4 8.65 27.05 8.0 25.0 8.75 23.05" fill="#664411" fill-rule="evenodd" stroke="none"/>
    </g>
    <linearGradient gradientTransform="matrix(0.0, -0.0258, -0.0551, 0.0, 21.85, 21.9)" gradientUnits="userSpaceOnUse" id="gradient11" spreadMethod="pad" x1="-819.2" x2="819.2">
      <stop offset="0.011764705882352941" stop-color="#c79829"/>
      <stop offset="1.0" stop-color="#be7d1e"/>
    </linearGradient>
    <linearGradient gradientTransform="matrix(0.0, -0.0258, 0.0551, 0.0, 22.1, 21.9)" gradientUnits="userSpaceOnUse" id="gradient12" spreadMethod="pad" x1="-819.2" x2="819.2">
      <stop offset="0.011764705882352941" stop-color="#c79829"/>
      <stop offset="1.0" stop-color="#be7d1e"/>
    </linearGradient>
    <linearGradient gradientTransform="matrix(0.0, -0.017, -0.0173, 0.0, 21.05, 27.0)" gradientUnits="userSpaceOnUse" id="gradient13" spreadMethod="pad" x1="-819.2" x2="819.2">
      <stop offset="0.011764705882352941" stop-color="#dad67d"/>
      <stop offset="1.0" stop-color="#cfa451"/>
    </linearGradient>
    <g id="shape8" transform="matrix(1.0, 0.0, 0.0, 1.0, 0.0, -26.05)">
      <path d="M39.65 29.15 L38.05 29.15 37.95 29.35 39.3 30.3 38.75 32.0 38.9 32.15 40.4 31.1 41.8 32.15 42.05 32.0 41.5 30.3 42.8 29.35 42.65 29.15 41.1 29.15 40.5 27.6 40.25 27.6 39.65 29.15 M38.85 27.95 L39.3 26.8 39.7 26.3 Q40.05 26.05 40.4 26.05 L41.05 26.3 41.5 26.85 41.9 27.95 43.05 27.95 43.75 28.2 43.95 28.35 43.95 29.95 43.7 30.1 42.85 30.75 43.25 32.1 43.25 32.8 42.8 33.35 42.1 33.55 41.45 33.3 41.2 33.15 41.15 35.7 43.55 36.65 Q43.75 36.7 43.95 36.9 L43.6 38.8 43.4 38.85 40.85 39.5 40.65 42.45 40.5 42.75 39.25 43.5 39.0 43.45 38.5 43.0 37.0 40.45 34.2 41.2 33.85 41.2 33.0 41.8 33.4 43.15 33.4 43.85 33.3 44.0 31.15 44.0 30.55 43.6 29.9 44.0 27.7 44.0 27.65 43.8 27.65 43.1 28.05 41.8 27.15 41.2 26.75 40.6 Q26.6 40.2 26.75 39.85 L27.15 39.25 27.85 39.05 29.0 39.05 29.45 37.9 Q29.6 37.55 29.85 37.35 L30.55 37.15 31.2 37.35 31.65 37.95 32.05 39.05 33.2 39.05 34.85 37.05 33.55 34.85 33.4 34.15 33.7 33.45 Q33.9 33.2 34.25 33.15 L34.95 33.2 37.35 34.15 38.05 33.4 37.9 33.3 37.5 32.7 37.5 32.0 37.9 30.75 37.0 30.1 36.6 29.55 Q36.45 29.15 36.6 28.8 L37.0 28.2 Q37.3 27.95 37.7 27.95 L38.85 27.95 M30.65 38.7 L30.4 38.7 29.8 40.2 28.2 40.2 28.1 40.45 29.45 41.35 28.85 43.1 29.05 43.2 30.55 42.15 31.95 43.2 32.2 43.1 31.65 41.35 32.8 40.5 32.75 40.2 31.25 40.2 30.65 38.7 M37.7 35.5 L34.55 34.25 36.3 37.2 33.9 40.0 37.55 39.1 39.5 42.35 39.75 38.6 43.15 37.7 40.0 36.45 40.05 33.0 37.7 35.5" fill="url(#gradient14)" fill-rule="evenodd" stroke="none"/>
      <path d="M39.3 30.3 L39.3 30.9 38.9 32.2 38.6 32.35 39.3 30.3 M41.85 32.2 L41.5 30.9 41.5 30.3 42.15 32.35 41.85 32.2 M42.2 29.75 L41.1 29.75 40.4 27.85 39.65 29.75 38.55 29.75 37.7 29.15 39.65 29.15 40.4 27.2 41.1 29.15 43.05 29.15 42.2 29.75 M40.0 36.45 L43.15 37.7 42.15 38.0 40.0 37.05 40.0 36.45 M34.55 39.85 L33.9 40.0 36.3 37.2 36.3 37.8 34.55 39.85 M35.0 35.1 L34.55 34.25 37.7 35.5 40.05 33.0 40.05 33.65 37.7 36.15 35.0 35.1 M32.0 43.25 L31.65 42.0 31.65 41.35 32.3 43.45 32.0 43.25 M32.35 40.85 L31.25 40.85 30.55 38.9 29.8 40.85 28.7 40.85 27.85 40.2 29.8 40.2 30.55 38.3 31.25 40.2 33.2 40.2 32.35 40.85 M29.45 41.35 L29.45 42.0 29.05 43.25 28.75 43.45 29.45 41.35" fill="#674512" fill-rule="evenodd" stroke="none"/>
      <path d="M38.9 32.2 L39.3 30.9 39.3 30.3 38.55 29.75 39.65 29.75 40.4 27.85 41.1 29.75 42.2 29.75 41.5 30.3 41.5 30.9 41.85 32.2 40.4 31.1 38.9 32.2 M40.0 36.45 L40.0 37.05 42.15 38.0 39.75 38.6 39.5 42.35 37.55 39.1 34.55 39.85 36.3 37.8 36.3 37.2 35.0 35.1 37.7 36.15 40.05 33.65 40.0 36.45 M31.65 41.35 L31.65 42.0 32.0 43.25 30.55 42.15 29.05 43.25 29.45 42.0 29.45 41.35 28.7 40.85 29.8 40.85 30.55 38.9 31.25 40.85 32.35 40.85 31.65 41.35" fill="#815815" fill-rule="evenodd" stroke="none"/>
      <path d="M5.1 27.95 L4.65 26.8 4.25 26.3 Q3.9 26.05 3.55 26.05 L2.9 26.3 Q2.55 26.45 2.45 26.85 L2.05 27.95 0.9 27.95 0.2 28.2 0.0 28.35 0.0 29.95 0.25 30.1 1.1 30.75 0.7 32.1 0.7 32.8 1.15 33.35 Q1.45 33.55 1.85 33.55 L2.5 33.3 2.75 33.15 2.8 35.7 0.4 36.65 0.0 36.9 0.35 38.8 0.55 38.85 3.1 39.5 3.3 42.45 3.45 42.75 4.7 43.5 4.95 43.45 5.45 43.0 6.95 40.45 9.75 41.2 10.1 41.2 10.95 41.8 10.55 43.15 10.55 43.85 10.65 44.0 12.8 44.0 13.4 43.6 14.05 44.0 16.25 44.0 16.3 43.8 16.3 43.1 15.9 41.8 16.8 41.2 17.2 40.6 17.2 39.85 16.8 39.25 16.1 39.05 14.95 39.05 14.5 37.9 14.1 37.35 13.4 37.15 12.75 37.35 Q12.4 37.55 12.3 37.95 L11.9 39.05 10.75 39.05 9.1 37.05 10.4 34.85 10.55 34.15 10.25 33.45 9.7 33.15 9.0 33.2 6.6 34.15 5.9 33.4 6.05 33.3 6.45 32.7 6.45 32.0 6.05 30.75 6.95 30.1 7.35 29.55 7.35 28.8 6.95 28.2 6.25 27.95 5.1 27.95 M13.3 38.7 L13.55 38.7 14.15 40.2 15.75 40.2 15.85 40.45 14.5 41.35 15.1 43.1 14.9 43.2 13.4 42.15 12.0 43.2 11.75 43.1 12.3 41.35 11.15 40.5 11.2 40.2 12.7 40.2 13.3 38.7 M6.25 35.5 L9.4 34.25 7.65 37.2 10.05 40.0 6.4 39.1 4.45 42.35 4.2 38.6 0.8 37.7 3.95 36.45 3.9 33.0 6.25 35.5 M4.3 29.15 L5.9 29.15 6.0 29.35 4.65 30.3 5.2 32.0 5.05 32.15 3.55 31.1 2.15 32.15 1.9 32.0 2.45 30.3 1.15 29.35 1.3 29.15 2.85 29.15 3.45 27.6 3.7 27.6 4.3 29.15" fill="url(#gradient15)" fill-rule="evenodd" stroke="none"/>
      <path d="M5.4 29.75 L6.25 29.15 4.3 29.15 3.55 27.2 2.85 29.15 0.9 29.15 1.75 29.75 2.85 29.75 3.55 27.85 4.3 29.75 5.4 29.75 M2.45 30.3 L1.8 32.35 2.1 32.2 2.45 30.9 2.45 30.3 M5.05 32.2 L5.35 32.35 4.65 30.3 4.65 30.9 5.05 32.2 M3.95 36.45 L0.8 37.7 1.8 38.0 3.95 37.05 3.95 36.45 M9.4 39.85 L10.05 40.0 7.65 37.2 7.65 37.8 9.4 39.85 M8.95 35.1 L9.4 34.25 6.25 35.5 3.9 33.0 3.9 33.65 6.25 36.15 8.95 35.1 M15.25 40.85 L16.1 40.2 14.15 40.2 13.4 38.3 12.7 40.2 10.75 40.2 11.6 40.85 12.7 40.85 13.4 38.9 14.15 40.85 15.25 40.85 M12.3 41.35 L11.65 43.45 11.95 43.25 12.3 42.0 12.3 41.35 M14.9 43.25 L15.2 43.45 14.5 41.35 14.5 42.0 14.9 43.25" fill="#674512" fill-rule="evenodd" stroke="none"/>
      <path d="M1.75 29.75 L2.45 30.3 2.45 30.9 2.1 32.2 3.55 31.1 5.05 32.2 4.65 30.9 4.65 30.3 5.4 29.75 4.3 29.75 3.55 27.85 2.85 29.75 1.75 29.75 M3.95 36.45 L3.95 37.05 1.8 38.0 4.2 38.6 4.45 42.35 6.4 39.1 9.4 39.85 7.65 37.8 7.65 37.2 8.95 35.1 6.25 36.15 3.9 33.65 3.95 36.45 M11.6 40.85 L12.3 41.35 12.3 42.0 11.95 43.25 13.4 42.15 14.9 43.25 14.5 42.0 14.5 41.35 15.25 40.85 14.15 40.85 13.4 38.9 12.7 40.85 11.6 40.85" fill="#815815" fill-rule="evenodd" stroke="none"/>
    </g>
    <linearGradient gradientTransform="matrix(0.0, -0.0258, -0.0551, 0.0, 21.85, 21.9)" gradientUnits="userSpaceOnUse" id="gradient14" spreadMethod="pad" x1="-819.2" x2="819.2">
      <stop offset="0.011764705882352941" stop-color="#c79829"/>
      <stop offset="1.0" stop-color="#be7d1e"/>
    </linearGradient>
    <linearGradient gradientTransform="matrix(0.0, -0.0258, 0.0551, 0.0, 22.1, 21.9)" gradientUnits="userSpaceOnUse" id="gradient15" spreadMethod="pad" x1="-819.2" x2="819.2">
      <stop offset="0.011764705882352941" stop-color="#c79829"/>
      <stop offset="1.0" stop-color="#be7d1e"/>
    </linearGradient>
  </defs>
</svg>
