<?xml version="1.0" encoding="UTF-8" standalone="no"?>
<svg xmlns:xlink="http://www.w3.org/1999/xlink" height="44.0px" width="44.0px" xmlns="http://www.w3.org/2000/svg">
  <g transform="matrix(1.0, 0.0, 0.0, 1.0, 0.0, 0.0)">
    <use height="44.0" transform="matrix(1.0, 0.0, 0.0, 1.0, 0.0, 0.0)" width="44.0" xlink:href="#shape0"/>
    <use height="0.0" transform="matrix(1.2125, 0.0, 0.0, 1.2125, 1.1, 0.9)" width="0.0" xlink:href="#sprite0"/>
    <use height="20.15" transform="matrix(1.1594, 0.0, 0.0, 1.1605, 5.75, 5.35)" width="28.2" xlink:href="#sprite1"/>
    <use height="8.6" transform="matrix(1.2077, 0.0, 0.0, 1.2066, 0.9585, 0.55)" width="35.05" xlink:href="#sprite2"/>
  </g>
  <defs>
    <g id="shape0" transform="matrix(1.0, 0.0, 0.0, 1.0, 0.0, 0.0)">
      <path d="M41.8 2.25 Q44.0 4.45 44.0 7.6 L44.0 36.4 Q44.0 39.6 41.8 41.8 39.6 44.0 36.4 44.0 L7.6 44.0 Q4.45 44.0 2.25 41.8 0.0 39.6 0.0 36.4 L0.0 7.6 Q0.0 4.45 2.25 2.25 4.45 0.0 7.6 0.0 L36.4 0.0 Q39.55 0.0 41.8 2.25" fill="url(#gradient0)" fill-rule="evenodd" stroke="none"/>
      <path d="M9.2 9.6 Q14.5 4.35 21.85 4.35 29.25 4.35 34.45 9.6 39.65 14.85 39.65 22.2 39.65 29.6 34.45 34.9 29.25 40.1 21.85 40.1 14.4 40.1 9.2 34.9 4.0 29.6 4.0 22.2 4.0 14.85 9.2 9.6" fill="url(#gradient1)" fill-rule="evenodd" stroke="none"/>
      <path d="M20.25 9.5 L19.5 9.25 19.05 9.35 Q18.95 9.5 19.2 9.75 L19.8 10.25 20.55 10.55 21.0 10.45 20.85 10.0 20.25 9.5 M24.6 9.35 L24.45 9.8 23.85 10.3 23.1 10.6 22.65 10.5 Q22.55 10.35 22.8 10.05 L23.4 9.55 24.15 9.25 24.6 9.35 M24.5 8.35 Q23.4 7.15 21.75 7.15 L21.75 15.35 Q23.4 15.35 24.5 14.15 25.65 12.95 25.65 11.25 25.65 9.55 24.5 8.35 M27.3 11.2 Q27.3 13.5 25.65 15.1 24.4 16.35 22.7 16.65 24.4 16.9 25.65 18.2 27.3 19.8 27.3 22.1 27.35 19.85 28.9 18.3 30.5 16.65 32.8 16.65 35.1 16.65 36.7 18.3 38.35 19.9 38.35 22.2 38.35 24.5 36.7 26.1 35.1 27.7 32.8 27.7 30.5 27.7 28.9 26.1 27.3 24.5 27.3 22.25 27.25 24.45 25.65 26.0 24.45 27.2 22.85 27.5 24.45 27.8 25.65 29.05 27.3 30.65 27.3 32.95 27.3 35.25 25.65 36.85 24.05 38.45 21.75 38.45 19.45 38.45 17.85 36.85 16.25 35.25 16.25 32.95 16.25 30.65 17.85 29.05 19.05 27.8 20.65 27.5 19.05 27.2 17.85 26.0 16.25 24.4 16.25 22.1 16.2 24.25 14.6 25.8 13.0 27.4 10.7 27.4 8.4 27.4 6.8 25.8 5.2 24.2 5.2 21.9 5.2 19.6 6.8 18.0 8.4 16.35 10.7 16.35 13.0 16.35 14.6 18.0 16.25 19.6 16.25 21.9 16.3 19.75 17.85 18.2 19.1 16.9 20.8 16.65 19.1 16.35 17.85 15.1 16.25 13.5 16.25 11.2 16.25 8.9 17.85 7.3 19.45 5.65 21.75 5.65 24.05 5.65 25.65 7.3 27.3 8.9 27.3 11.2 M24.45 20.7 L23.85 21.2 23.1 21.5 22.65 21.4 Q22.55 21.25 22.8 20.95 L23.4 20.45 24.15 20.15 24.6 20.25 24.45 20.7 M20.25 20.4 L19.5 20.15 19.05 20.25 Q18.95 20.4 19.2 20.65 L19.8 21.15 20.55 21.45 21.0 21.35 20.85 20.9 20.25 20.4 M24.5 19.25 Q23.4 18.05 21.75 18.05 L21.75 26.25 Q23.4 26.25 24.5 25.05 25.65 23.85 25.65 22.15 25.65 20.45 24.5 19.25 M30.25 20.75 L30.85 21.25 31.6 21.55 32.05 21.45 31.9 21.0 31.3 20.5 30.55 20.25 30.1 20.35 Q30.0 20.5 30.25 20.75 M33.7 21.5 Q33.6 21.35 33.85 21.05 L34.45 20.55 Q34.85 20.3 35.2 20.25 L35.65 20.35 35.5 20.8 34.9 21.3 34.15 21.6 33.7 21.5 M36.7 22.25 Q36.7 20.55 35.55 19.35 34.45 18.15 32.8 18.15 L32.8 26.35 Q34.45 26.35 35.55 25.15 36.7 23.95 36.7 22.25 M8.0 20.05 Q7.9 20.2 8.15 20.45 L8.75 20.95 9.5 21.25 9.95 21.15 9.8 20.7 9.2 20.2 8.45 19.95 8.0 20.05 M13.4 20.5 L12.8 21.0 12.05 21.3 11.6 21.2 Q11.5 21.05 11.75 20.75 L12.35 20.25 13.1 19.95 13.55 20.05 13.4 20.5 M14.6 21.95 Q14.6 20.25 13.45 19.05 12.35 17.85 10.7 17.85 L10.7 26.05 Q12.35 26.05 13.45 24.85 14.6 23.65 14.6 21.95 M19.05 31.1 Q18.95 31.25 19.2 31.5 L19.8 32.0 20.55 32.3 21.0 32.2 20.85 31.75 20.25 31.25 19.5 31.0 19.05 31.1 M24.5 30.1 Q23.4 28.9 21.75 28.9 L21.75 37.1 Q23.4 37.1 24.5 35.9 25.65 34.7 25.65 33.0 25.65 31.3 24.5 30.1 M23.1 32.35 L22.65 32.25 Q22.55 32.1 22.8 31.8 L23.4 31.3 24.15 31.0 24.6 31.1 24.45 31.55 23.85 32.05 23.1 32.35" fill="#4a3355" fill-rule="evenodd" stroke="none"/>
      <path d="M21.85 41.1 Q13.9 41.1 8.4 35.45 2.85 29.9 2.85 22.05 2.85 14.1 8.4 8.6 13.9 3.0 21.85 3.0 29.75 3.0 35.25 8.6 40.85 14.1 40.85 22.05 40.85 29.9 35.25 35.45 29.75 41.1 21.85 41.1 M21.85 5.4 Q14.95 5.45 10.1 10.35 5.2 15.15 5.15 22.05 5.2 29.0 10.1 33.85 14.95 38.75 21.85 38.75 28.75 38.75 33.7 33.85 38.5 29.0 38.5 22.05 38.5 15.15 33.7 10.35 28.75 5.45 21.85 5.4" fill="url(#gradient2)" fill-rule="evenodd" stroke="none"/>
      <path d="M0.95 36.15 L0.9 35.75 Q0.9 34.75 1.6 34.05 2.35 33.35 3.3 33.35 4.25 33.35 4.95 34.05 5.65 34.75 5.65 35.75 L5.65 36.05 Q3.15 33.2 0.95 36.15" fill="#494136" fill-rule="evenodd" stroke="none"/>
      <path d="M5.65 36.05 Q5.55 36.8 4.95 37.4 4.25 38.1 3.3 38.1 2.35 38.1 1.6 37.4 1.05 36.8 0.95 36.15 3.15 33.2 5.65 36.05" fill="#625748" fill-rule="evenodd" stroke="none"/>
      <path d="M6.0 38.0 L5.95 37.75 Q5.95 37.15 6.4 36.7 6.8 36.3 7.4 36.3 8.0 36.3 8.4 36.7 8.85 37.15 8.85 37.75 L8.85 37.95 6.0 38.0" fill="#494136" fill-rule="evenodd" stroke="none"/>
      <path d="M8.85 37.95 L8.4 38.75 Q8.0 39.15 7.4 39.15 6.8 39.15 6.4 38.75 L6.0 38.0 8.85 37.95" fill="#625748" fill-rule="evenodd" stroke="none"/>
      <path d="M3.0 40.9 L2.95 40.65 Q2.95 40.05 3.4 39.6 3.8 39.2 4.4 39.2 5.0 39.2 5.4 39.6 5.85 40.05 5.85 40.65 L5.85 40.85 3.0 40.9" fill="#494136" fill-rule="evenodd" stroke="none"/>
      <path d="M5.85 40.85 L5.4 41.65 Q5.0 42.05 4.4 42.05 3.8 42.05 3.4 41.65 3.05 41.3 3.0 40.9 L5.85 40.85" fill="#625748" fill-rule="evenodd" stroke="none"/>
      <path d="M7.7 41.55 L7.7 41.4 Q7.7 40.95 8.0 40.6 8.35 40.3 8.8 40.3 9.2 40.3 9.55 40.6 L9.9 41.4 9.9 41.55 Q8.7 40.2 7.7 41.55" fill="#494136" fill-rule="evenodd" stroke="none"/>
      <path d="M9.9 41.55 L9.55 42.15 Q9.2 42.5 8.8 42.5 8.35 42.5 8.0 42.15 L7.7 41.55 Q8.7 40.2 9.9 41.55" fill="#625748" fill-rule="evenodd" stroke="none"/>
      <path d="M42.35 36.15 L42.4 35.75 Q42.4 34.75 41.7 34.05 40.95 33.35 40.0 33.35 39.05 33.35 38.35 34.05 37.65 34.75 37.65 35.75 L37.65 36.05 Q40.15 33.2 42.35 36.15" fill="#494136" fill-rule="evenodd" stroke="none"/>
      <path d="M37.65 36.05 Q37.75 36.8 38.35 37.4 39.05 38.1 40.0 38.1 40.95 38.1 41.7 37.4 L42.35 36.15 Q40.15 33.2 37.65 36.05" fill="#625748" fill-rule="evenodd" stroke="none"/>
      <path d="M37.3 38.0 L37.35 37.75 Q37.35 37.15 36.9 36.7 36.5 36.3 35.9 36.3 35.3 36.3 34.9 36.7 34.45 37.15 34.45 37.75 L34.45 37.95 37.3 38.0" fill="#494136" fill-rule="evenodd" stroke="none"/>
      <path d="M34.45 37.95 L34.9 38.75 Q35.3 39.15 35.9 39.15 36.5 39.15 36.9 38.75 L37.3 38.0 34.45 37.95" fill="#625748" fill-rule="evenodd" stroke="none"/>
      <path d="M40.3 40.9 L40.35 40.65 Q40.35 40.05 39.9 39.6 39.5 39.2 38.9 39.2 38.3 39.2 37.9 39.6 37.45 40.05 37.45 40.65 L37.45 40.85 40.3 40.9" fill="#494136" fill-rule="evenodd" stroke="none"/>
      <path d="M37.45 40.85 L37.9 41.65 Q38.3 42.05 38.9 42.05 39.5 42.05 39.9 41.65 L40.3 40.9 37.45 40.85" fill="#625748" fill-rule="evenodd" stroke="none"/>
      <path d="M35.6 41.55 L35.6 41.4 35.3 40.6 Q34.95 40.3 34.5 40.3 34.1 40.3 33.75 40.6 33.4 40.95 33.4 41.4 L33.4 41.55 Q34.6 40.2 35.6 41.55" fill="#494136" fill-rule="evenodd" stroke="none"/>
      <path d="M33.4 41.55 L33.75 42.15 Q34.1 42.5 34.5 42.5 34.95 42.5 35.3 42.15 L35.6 41.55 Q34.6 40.2 33.4 41.55" fill="#625748" fill-rule="evenodd" stroke="none"/>
    </g>
    <linearGradient gradientTransform="matrix(0.0, -0.0551, -0.0551, 0.0, 22.05, 18.45)" gradientUnits="userSpaceOnUse" id="gradient0" spreadMethod="pad" x1="-819.2" x2="819.2">
      <stop offset="0.011764705882352941" stop-color="#bcb0a0"/>
      <stop offset="1.0" stop-color="#453e3a"/>
    </linearGradient>
    <linearGradient gradientTransform="matrix(0.0, -0.0167, -0.0167, 0.0, 21.85, 18.85)" gradientUnits="userSpaceOnUse" id="gradient1" spreadMethod="pad" x1="-819.2" x2="819.2">
      <stop offset="0.011764705882352941" stop-color="#bcb9ae"/>
      <stop offset="1.0" stop-color="#9b5b79"/>
    </linearGradient>
    <linearGradient gradientTransform="matrix(1.0E-4, 0.0223, -0.0232, 1.0E-4, 21.9, 22.35)" gradientUnits="userSpaceOnUse" id="gradient2" spreadMethod="pad" x1="-819.2" x2="819.2">
      <stop offset="0.011764705882352941" stop-color="#494136"/>
      <stop offset="1.0" stop-color="#dbccbd"/>
    </linearGradient>
    <g id="sprite1" transform="matrix(1.0, 0.0, 0.0, 1.0, 0.0, 0.0)">
      <use height="20.15" transform="matrix(1.0, 0.0, 0.0, 1.0, 0.0, 0.0)" width="28.2" xlink:href="#shape1"/>
    </g>
    <g id="shape1" transform="matrix(1.0, 0.0, 0.0, 1.0, 0.0, 0.0)">
      <path d="M27.65 18.45 L27.4 18.95 Q26.2 20.8 23.4 19.8 19.6 18.5 17.35 14.05 14.8 9.1 9.75 7.4 4.1 5.65 0.0 10.3 1.0 6.85 3.7 4.15 7.2 0.65 11.9 0.05 L14.8 0.05 18.4 0.65 Q21.55 1.65 24.05 4.15 28.2 8.3 28.2 14.25 28.2 16.45 27.65 18.45" fill="#ffffff" fill-opacity="0.19607843" fill-rule="evenodd" stroke="none"/>
    </g>
    <g id="sprite2" transform="matrix(1.0, 0.0, 0.0, 1.0, 0.2, 0.0)">
      <use height="8.6" transform="matrix(1.0, 0.0, 0.0, 1.0, -0.2, 0.0)" width="35.05" xlink:href="#shape2"/>
    </g>
    <g id="shape2" transform="matrix(1.0, 0.0, 0.0, 1.0, 0.2, 0.0)">
      <path d="M34.4 4.4 Q34.85 5.8 34.85 7.65 L34.85 8.6 Q34.8 6.95 34.4 5.7 33.0 1.3 27.2 1.3 L7.45 1.3 Q0.05 1.3 -0.2 8.5 L-0.2 7.65 Q-0.2 0.0 7.45 0.0 L27.2 0.0 Q33.0 0.0 34.4 4.4" fill="#e7deda" fill-rule="evenodd" stroke="none"/>
    </g>
  </defs>
</svg>
