<?xml version="1.0" encoding="UTF-8" standalone="no"?>
<svg xmlns:xlink="http://www.w3.org/1999/xlink" height="44.0px" width="44.0px" xmlns="http://www.w3.org/2000/svg">
  <g transform="matrix(1.0, 0.0, 0.0, 1.0, 0.0, 0.0)">
    <use height="44.1" transform="matrix(1.0, 0.0, 0.0, 1.0, 0.0, 0.0)" width="44.0" xlink:href="#shape0"/>
    <use height="0.0" transform="matrix(1.2125, 0.0, 0.0, 1.2137, 1.0, 1.0)" width="0.0" xlink:href="#sprite0"/>
    <use height="20.85" transform="matrix(1.0, 0.0, 0.0, 1.0, 0.7, 23.25)" width="42.65" xlink:href="#shape1"/>
    <use height="8.6" transform="matrix(1.2077, 0.0, 0.0, 1.2066, 0.7085, 1.0)" width="35.05" xlink:href="#sprite1"/>
    <use height="20.15" transform="matrix(1.1594, 0.0, 0.0, 1.1605, 6.0, 5.55)" width="28.2" xlink:href="#sprite2"/>
  </g>
  <defs>
    <g id="shape0" transform="matrix(1.0, 0.0, 0.0, 1.0, 0.0, 0.0)">
      <path d="M34.95 44.1 L34.95 42.2 43.85 42.2 Q41.8 44.1 38.8 44.1 L34.95 44.1" fill="url(#gradient0)" fill-rule="evenodd" stroke="none"/>
      <path d="M16.4 43.05 L15.3 42.2 28.7 42.2 28.7 44.1 20.1 44.1 Q18.0 44.05 16.4 43.05" fill="url(#gradient1)" fill-rule="evenodd" stroke="none"/>
      <path d="M28.7 42.2 L33.1 42.2 33.1 44.1 28.7 44.1 28.7 42.2 M20.1 44.1 L16.4 44.1 16.4 43.05 Q18.0 44.05 20.1 44.1" fill="url(#gradient2)" fill-rule="evenodd" stroke="none"/>
      <path d="M41.8 2.3 Q44.0 4.5 44.0 7.6 L44.0 36.45 Q44.0 39.65 41.8 41.85 39.6 44.05 36.4 44.05 L7.6 44.05 Q4.45 44.05 2.25 41.85 0.0 39.65 0.0 36.45 L0.0 7.6 Q0.0 4.5 2.25 2.3 4.45 0.0 7.6 0.0 L36.4 0.0 Q39.55 0.0 41.8 2.3" fill="url(#gradient3)" fill-rule="evenodd" stroke="none"/>
      <path d="M8.85 8.95 Q14.3 3.5 22.05 3.5 29.75 3.5 35.2 8.95 40.6 14.4 40.6 22.05 40.6 29.8 35.2 35.25 29.75 40.65 22.05 40.65 14.3 40.65 8.85 35.25 3.4 29.8 3.4 22.05 3.4 14.35 8.85 8.95" fill="url(#gradient4)" fill-rule="evenodd" stroke="none"/>
      <path d="M19.7 11.8 Q19.15 11.8 18.85 12.15 18.4 12.55 18.35 13.35 18.3 14.15 18.6 14.7 L19.55 14.8 20.65 14.05 20.95 13.15 20.65 12.15 Q20.25 11.8 19.7 11.8 M24.6 12.1 Q24.25 11.75 23.65 11.75 23.15 11.75 22.75 12.1 22.4 12.5 22.4 13.05 22.4 13.65 22.75 14.0 L23.75 14.75 Q24.45 15.1 24.75 14.6 25.05 14.1 25.0 13.3 L24.6 12.1 M34.6 19.35 Q34.6 21.8 32.0 21.8 30.95 21.8 30.6 21.4 L30.5 21.3 Q30.35 22.1 29.6 22.1 28.9 22.1 28.9 21.5 L28.9 21.4 29.05 20.95 28.95 20.75 28.65 20.6 28.5 20.6 25.65 20.6 Q25.15 20.55 25.05 21.45 L25.1 27.1 Q26.35 27.1 27.1 28.15 27.9 29.15 27.9 30.85 L27.75 32.0 27.3 32.95 27.2 33.75 Q27.2 35.3 28.15 36.15 28.95 36.8 30.2 36.8 L30.4 36.8 Q29.75 36.8 29.05 36.0 28.35 35.15 28.35 34.25 28.35 33.55 28.85 33.15 29.25 32.75 29.7 32.75 30.2 32.75 30.75 33.2 31.25 33.65 31.25 34.15 L30.9 34.8 30.35 35.05 30.0 35.05 30.2 35.25 30.6 35.25 Q31.35 35.25 32.8 33.95 34.3 32.55 34.45 31.55 L34.45 31.2 Q34.45 29.75 33.8 28.35 32.9 26.65 31.55 26.65 L31.5 26.65 Q32.05 27.05 32.05 27.9 32.05 29.35 30.55 29.35 29.85 29.35 29.3 28.95 28.7 28.55 28.7 28.0 28.7 26.85 29.5 25.95 30.4 24.9 31.75 24.9 33.35 24.9 34.65 26.25 35.85 27.5 36.65 29.7 37.45 31.85 34.2 35.1 L31.8 36.65 Q26.35 39.65 21.3 39.4 16.2 38.85 13.5 37.1 10.7 35.3 9.5 33.65 8.25 32.0 8.0 29.85 7.8 27.75 8.2 26.85 8.7 25.8 9.45 25.8 10.65 25.8 10.65 27.5 10.65 28.7 10.05 28.7 L9.35 28.55 8.9 27.9 8.8 28.55 Q8.8 31.35 10.95 32.95 11.0 32.5 11.3 32.35 11.45 32.0 11.95 32.0 12.45 32.0 13.1 32.5 L13.55 32.95 Q13.9 33.25 13.95 34.0 L13.95 34.35 14.95 34.55 Q14.35 34.05 14.25 33.15 L13.35 32.4 Q11.65 30.65 11.65 28.5 11.65 26.45 13.0 25.3 14.05 24.45 15.05 24.45 17.5 24.45 17.5 27.5 17.5 29.35 15.9 29.35 15.15 29.35 14.65 28.8 L14.55 28.75 14.4 29.85 Q14.4 31.4 15.65 33.15 15.4 32.75 15.4 32.15 15.4 31.6 15.9 31.0 16.4 30.45 16.75 30.45 17.2 30.45 17.6 30.9 L17.95 31.7 18.25 31.95 18.25 22.75 Q18.4 20.55 17.7 20.6 L14.85 20.6 14.7 20.6 14.4 20.75 14.3 20.95 14.45 21.4 14.45 21.5 Q14.45 22.1 13.75 22.1 13.0 22.1 12.85 21.3 L12.75 21.4 Q12.4 21.8 11.35 21.8 8.75 21.8 8.75 19.35 L8.95 18.25 Q9.15 17.9 10.05 17.55 9.75 17.1 9.75 16.35 9.75 14.45 12.0 14.45 13.15 14.45 13.15 15.55 13.15 16.35 12.35 16.35 L11.95 16.3 Q12.2 16.8 13.15 17.1 L14.7 17.45 14.7 17.4 15.05 17.4 15.6 17.3 15.7 17.3 17.75 16.65 Q15.9 9.05 21.7 9.4 27.2 8.95 25.6 16.7 27.0 17.3 28.25 17.4 L28.35 17.4 28.65 17.4 28.65 17.45 30.2 17.1 31.4 16.3 31.0 16.35 Q30.2 16.35 30.2 15.55 30.2 14.45 31.35 14.45 33.6 14.45 33.6 16.35 L33.3 17.55 Q34.2 17.9 34.4 18.25 L34.6 19.35 M29.9 21.1 L29.8 20.75 29.5 20.75 29.05 20.95 29.5 20.75 29.8 20.75 29.9 21.1 M31.75 20.1 Q31.75 20.55 32.2 20.55 L32.7 20.25 32.95 19.8 Q32.95 18.9 31.9 18.9 31.35 18.9 30.9 19.2 30.4 19.55 30.4 20.15 L30.5 21.3 30.4 20.15 Q30.4 19.55 30.9 19.2 31.35 18.9 31.9 18.9 32.95 18.9 32.95 19.8 L32.7 20.25 32.2 20.55 Q31.75 20.55 31.75 20.1 M31.4 15.5 L31.25 15.3 31.15 15.25 31.4 15.5 31.55 15.65 31.6 15.65 31.6 15.7 31.4 16.3 31.6 15.7 31.6 15.65 31.55 15.65 31.4 15.5 31.15 15.25 31.25 15.3 31.4 15.5 M25.25 28.35 Q25.75 28.55 25.75 29.3 L25.75 29.7 25.75 29.3 Q25.75 28.55 25.25 28.35 M25.1 30.45 L25.1 31.95 25.5 31.55 Q25.9 31.05 25.9 30.45 L25.75 29.7 25.1 30.45 M17.25 31.55 L16.75 32.05 17.0 32.35 17.35 32.55 17.75 32.25 17.95 31.7 17.75 32.25 17.35 32.55 17.0 32.35 16.75 32.05 17.25 31.55 M30.15 33.85 L29.8 33.6 Q29.35 33.6 29.35 34.1 L29.35 34.25 Q30.15 34.3 30.15 33.85 M30.15 27.45 Q30.15 26.65 31.5 26.65 30.15 26.65 30.15 27.45 M11.6 20.1 Q11.6 20.55 11.1 20.55 L10.65 20.25 10.35 19.8 Q10.35 18.9 11.45 18.9 L12.45 19.2 Q12.95 19.55 12.95 20.15 L12.85 21.3 12.95 20.15 Q12.95 19.55 12.45 19.2 L11.45 18.9 Q10.35 18.9 10.35 19.8 L10.65 20.25 11.1 20.55 Q11.6 20.55 11.6 20.1 M11.8 15.65 L12.2 15.25 12.1 15.3 11.8 15.65 11.75 15.65 11.75 15.7 11.95 16.3 11.75 15.7 11.75 15.65 11.8 15.65 12.1 15.3 12.2 15.25 11.8 15.65 M9.95 28.1 Q10.3 28.1 10.3 27.6 L10.1 27.1 Q9.8 26.8 9.55 26.8 9.0 26.8 8.9 27.9 9.0 26.8 9.55 26.8 9.8 26.8 10.1 27.1 L10.3 27.6 Q10.3 28.1 9.95 28.1 M13.4 21.1 L13.55 20.75 13.8 20.75 14.3 20.95 13.8 20.75 13.55 20.75 13.4 21.1 M14.95 27.45 Q15.5 27.45 15.5 26.85 15.5 26.45 14.75 26.45 14.05 26.45 14.05 27.55 14.05 28.25 14.55 28.75 14.05 28.25 14.05 27.55 14.05 26.45 14.75 26.45 15.5 26.45 15.5 26.85 15.5 27.45 14.95 27.45" fill="#496125" fill-rule="evenodd" stroke="none"/>
      <path d="M25.75 29.7 L25.75 29.3 Q25.75 28.55 25.25 28.35 M25.1 30.45 L25.75 29.7 M17.95 31.7 L17.75 32.25 17.35 32.55 17.0 32.35 16.75 32.05 17.25 31.55 M31.5 26.65 Q30.15 26.65 30.15 27.45 M8.9 27.9 Q9.0 26.8 9.55 26.8 9.8 26.8 10.1 27.1 L10.3 27.6 Q10.3 28.1 9.95 28.1 M14.55 28.75 Q14.05 28.25 14.05 27.55 14.05 26.45 14.75 26.45 15.5 26.45 15.5 26.85 15.5 27.45 14.95 27.45" fill="none" stroke="#bec9a6" stroke-linecap="round" stroke-linejoin="round" stroke-width="0.05"/>
      <path d="M31.4 16.3 L31.6 15.7 31.6 15.65 31.55 15.65 31.4 15.5 31.15 15.25 31.25 15.3 31.4 15.5 M30.5 21.3 L30.4 20.15 Q30.4 19.55 30.9 19.2 31.35 18.9 31.9 18.9 32.95 18.9 32.95 19.8 L32.7 20.25 32.2 20.55 Q31.75 20.55 31.75 20.1 M29.05 20.95 L29.5 20.75 29.8 20.75 29.9 21.1 M11.95 16.3 L11.75 15.7 11.75 15.65 11.8 15.65 12.1 15.3 12.2 15.25 11.8 15.65 M12.85 21.3 L12.95 20.15 Q12.95 19.55 12.45 19.2 L11.45 18.9 Q10.35 18.9 10.35 19.8 L10.65 20.25 11.1 20.55 Q11.6 20.55 11.6 20.1 M14.3 20.95 L13.8 20.75 13.55 20.75 13.4 21.1" fill="none" stroke="#9baa77" stroke-linecap="round" stroke-linejoin="round" stroke-width="0.05"/>
      <path d="M40.85 22.05 Q40.85 29.95 35.25 35.5 29.75 41.15 21.85 41.15 13.9 41.15 8.4 35.5 2.85 29.95 2.85 22.05 2.85 14.1 8.4 8.6 13.9 3.05 21.85 3.05 29.75 3.05 35.25 8.6 40.85 14.1 40.85 22.05 M33.7 10.35 Q28.75 5.5 21.85 5.4 14.95 5.5 10.1 10.35 5.2 15.15 5.15 22.05 5.2 29.05 10.1 33.9 14.95 38.8 21.85 38.8 28.75 38.8 33.7 33.9 38.5 29.05 38.5 22.05 38.5 15.15 33.7 10.35" fill="url(#gradient5)" fill-rule="evenodd" stroke="none"/>
    </g>
    <linearGradient gradientTransform="matrix(0.0, -0.0555, -0.0554, 0.0, 24.35, 18.4)" gradientUnits="userSpaceOnUse" id="gradient0" spreadMethod="pad" x1="-819.2" x2="819.2">
      <stop offset="0.011764705882352941" stop-color="#e8e1b7"/>
      <stop offset="1.0" stop-color="#eed731"/>
    </linearGradient>
    <linearGradient gradientTransform="matrix(0.0, -0.0555, -0.0554, 0.0, 34.75, 18.4)" gradientUnits="userSpaceOnUse" id="gradient1" spreadMethod="pad" x1="-819.2" x2="819.2">
      <stop offset="0.011764705882352941" stop-color="#e8e1b7"/>
      <stop offset="1.0" stop-color="#eed731"/>
    </linearGradient>
    <linearGradient gradientTransform="matrix(0.0, -0.0555, -0.0554, 0.0, 22.45, 18.4)" gradientUnits="userSpaceOnUse" id="gradient2" spreadMethod="pad" x1="-819.2" x2="819.2">
      <stop offset="0.011764705882352941" stop-color="#e8e1b7"/>
      <stop offset="1.0" stop-color="#eed731"/>
    </linearGradient>
    <linearGradient gradientTransform="matrix(0.0, -0.0283, -0.0551, 0.0, 22.6, 22.0)" gradientUnits="userSpaceOnUse" id="gradient3" spreadMethod="pad" x1="-819.2" x2="819.2">
      <stop offset="0.011764705882352941" stop-color="#9dae7c"/>
      <stop offset="1.0" stop-color="#7e8f45"/>
    </linearGradient>
    <linearGradient gradientTransform="matrix(0.0, -0.0173, -0.0173, 0.0, 22.05, 18.55)" gradientUnits="userSpaceOnUse" id="gradient4" spreadMethod="pad" x1="-819.2" x2="819.2">
      <stop offset="0.011764705882352941" stop-color="#d3d4b5"/>
      <stop offset="1.0" stop-color="#71a26f"/>
    </linearGradient>
    <linearGradient gradientTransform="matrix(1.0E-4, 0.0224, -0.0232, 1.0E-4, 21.9, 22.35)" gradientUnits="userSpaceOnUse" id="gradient5" spreadMethod="pad" x1="-819.2" x2="819.2">
      <stop offset="0.011764705882352941" stop-color="#516537"/>
      <stop offset="1.0" stop-color="#a8ce99"/>
    </linearGradient>
    <g id="shape1" transform="matrix(1.0, 0.0, 0.0, 1.0, -0.7, -23.25)">
      <path d="M2.4 33.45 L2.45 33.2 2.55 33.45 2.4 33.45" fill="#00632e" fill-rule="evenodd" stroke="none"/>
      <path d="M3.95 39.2 L3.9 39.05 4.05 39.0 4.1 39.15 3.95 39.2" fill="#ccbf38" fill-rule="evenodd" stroke="none"/>
      <path d="M2.55 33.45 L2.6 34.75 Q2.95 36.5 3.8 37.65 L3.9 37.05 Q4.6 35.05 7.3 34.5 L9.2 34.95 10.25 35.75 Q11.15 36.7 11.2 38.55 L10.0 36.75 Q8.5 35.2 7.0 36.15 5.55 37.05 5.6 38.8 L5.7 40.0 5.7 40.1 6.7 39.9 Q8.05 39.45 8.25 38.5 L8.2 37.65 Q9.15 39.0 7.9 39.95 6.85 40.85 5.75 40.65 4.9 40.5 4.3 39.75 L4.05 39.25 3.95 39.2 4.25 39.7 Q3.55 39.15 3.0 38.2 1.85 36.25 2.4 33.45 L2.55 33.45 M3.95 39.2 L4.1 39.15 4.05 39.0 3.9 39.05 3.95 39.2" fill="#c0d6b1" fill-rule="evenodd" stroke="none"/>
      <path d="M0.85 32.95 Q1.15 30.6 2.4 29.4 L2.8 27.7 Q2.95 26.7 2.7 25.65 L2.4 24.6 1.75 23.25 2.8 24.35 3.65 25.55 3.95 26.95 Q4.05 27.85 3.35 29.65 2.7 31.25 2.55 33.45 L2.45 33.2 2.4 33.45 Q1.85 36.25 3.0 38.2 3.55 39.15 4.25 39.7 L3.95 39.2 4.05 39.25 4.3 39.75 Q4.9 40.5 5.75 40.65 6.85 40.85 7.9 39.95 9.15 39.0 8.2 37.65 L8.25 38.5 Q8.05 39.45 6.7 39.9 L5.7 40.1 5.7 40.0 5.6 38.8 Q5.55 37.05 7.0 36.15 8.5 35.2 10.0 36.75 L11.2 38.55 Q11.15 36.7 10.25 35.75 L10.4 35.9 Q11.1 36.65 11.4 37.6 L11.35 37.6 11.5 38.0 11.8 38.85 11.85 40.0 Q10.45 42.9 8.65 42.9 9.95 42.7 10.05 41.55 7.15 42.75 3.7 41.05 1.2 39.1 0.85 32.95" fill="#9ec087" fill-rule="evenodd" stroke="none"/>
      <path d="M11.85 40.0 Q11.75 41.15 11.1 42.25 10.1 44.05 7.0 44.1 L4.1 43.8 5.6 43.35 7.8 43.05 6.55 43.15 Q4.4 43.1 2.85 41.6 0.95 39.55 0.75 35.45 0.65 34.05 0.85 32.95 1.2 39.1 3.7 41.05 7.15 42.75 10.05 41.55 9.95 42.7 8.65 42.9 10.45 42.9 11.85 40.0" fill="#648a4a" fill-rule="evenodd" stroke="none"/>
      <path d="M11.4 37.6 L11.5 38.0 11.35 37.6 11.4 37.6" fill="url(#gradient6)" fill-rule="evenodd" stroke="none"/>
      <path d="M41.65 33.45 L41.6 33.2 41.5 33.45 41.65 33.45" fill="#00632e" fill-rule="evenodd" stroke="none"/>
      <path d="M40.1 39.2 L40.15 39.05 40.0 39.0 39.95 39.15 40.1 39.2" fill="#ccbf38" fill-rule="evenodd" stroke="none"/>
      <path d="M41.5 33.45 L41.45 34.75 Q41.1 36.5 40.25 37.65 L40.15 37.05 Q39.45 35.05 36.75 34.5 L34.85 34.95 33.8 35.75 Q32.9 36.7 32.85 38.55 33.3 37.6 34.05 36.75 35.55 35.2 37.05 36.15 38.5 37.05 38.45 38.8 L38.35 40.0 38.35 40.1 37.35 39.9 Q36.0 39.45 35.8 38.5 L35.85 37.65 Q34.9 39.0 36.15 39.95 37.2 40.85 38.3 40.65 39.15 40.5 39.75 39.75 L40.0 39.25 40.1 39.2 39.8 39.7 41.05 38.2 Q42.2 36.25 41.65 33.45 L41.5 33.45 M40.1 39.2 L39.95 39.15 40.0 39.0 40.15 39.05 40.1 39.2" fill="#c0d6b1" fill-rule="evenodd" stroke="none"/>
      <path d="M43.2 32.95 Q42.9 30.6 41.65 29.4 L41.25 27.7 Q41.1 26.7 41.35 25.65 L41.65 24.6 42.3 23.25 41.25 24.35 40.4 25.55 40.1 26.95 Q40.0 27.85 40.7 29.65 41.35 31.25 41.5 33.45 L41.6 33.2 41.65 33.45 Q42.2 36.25 41.05 38.2 L39.8 39.7 40.1 39.2 40.0 39.25 39.75 39.75 Q39.15 40.5 38.3 40.65 37.2 40.85 36.15 39.95 34.9 39.0 35.85 37.65 L35.8 38.5 Q36.0 39.45 37.35 39.9 L38.35 40.1 38.35 40.0 38.45 38.8 Q38.5 37.05 37.05 36.15 35.55 35.2 34.05 36.75 33.3 37.6 32.85 38.55 32.9 36.7 33.8 35.75 L33.65 35.9 Q32.95 36.65 32.65 37.6 L32.7 37.6 32.55 38.0 32.25 38.85 Q32.15 39.45 32.2 40.0 33.6 42.9 35.4 42.9 34.1 42.7 34.0 41.55 36.9 42.75 40.35 41.05 42.85 39.1 43.2 32.95" fill="#9ec087" fill-rule="evenodd" stroke="none"/>
      <path d="M32.2 40.0 Q32.3 41.15 32.95 42.25 33.95 44.05 37.05 44.1 L39.95 43.8 38.45 43.35 36.25 43.05 37.5 43.15 Q39.65 43.1 41.2 41.6 43.1 39.55 43.3 35.45 L43.2 32.95 Q42.85 39.1 40.35 41.05 36.9 42.75 34.0 41.55 34.1 42.7 35.4 42.9 33.6 42.9 32.2 40.0" fill="#648a4a" fill-rule="evenodd" stroke="none"/>
      <path d="M32.65 37.6 L32.55 38.0 32.7 37.6 32.65 37.6" fill="url(#gradient7)" fill-rule="evenodd" stroke="none"/>
    </g>
    <linearGradient gradientTransform="matrix(0.0, -0.025, -0.025, 0.0, 6.1, 31.55)" gradientUnits="userSpaceOnUse" id="gradient6" spreadMethod="pad" x1="-819.2" x2="819.2">
      <stop offset="0.011764705882352941" stop-color="#bed9a5"/>
      <stop offset="1.0" stop-color="#739416"/>
    </linearGradient>
    <linearGradient gradientTransform="matrix(0.0, -0.025, 0.025, 0.0, 37.95, 31.55)" gradientUnits="userSpaceOnUse" id="gradient7" spreadMethod="pad" x1="-819.2" x2="819.2">
      <stop offset="0.011764705882352941" stop-color="#bed9a5"/>
      <stop offset="1.0" stop-color="#739416"/>
    </linearGradient>
    <g id="sprite1" transform="matrix(1.0, 0.0, 0.0, 1.0, 0.2, 0.0)">
      <use height="8.6" transform="matrix(1.0, 0.0, 0.0, 1.0, -0.2, 0.0)" width="35.05" xlink:href="#shape2"/>
    </g>
    <g id="shape2" transform="matrix(1.0, 0.0, 0.0, 1.0, 0.2, 0.0)">
      <path d="M34.4 4.4 Q34.85 5.8 34.85 7.65 L34.85 8.6 Q34.8 6.95 34.4 5.7 33.0 1.3 27.2 1.3 L7.45 1.3 Q0.05 1.3 -0.2 8.5 L-0.2 7.65 Q-0.2 0.0 7.45 0.0 L27.2 0.0 Q33.0 0.0 34.4 4.4" fill="#e7deda" fill-rule="evenodd" stroke="none"/>
    </g>
    <g id="sprite2" transform="matrix(1.0, 0.0, 0.0, 1.0, 0.0, 0.0)">
      <use height="20.15" transform="matrix(1.0, 0.0, 0.0, 1.0, 0.0, 0.0)" width="28.2" xlink:href="#shape3"/>
    </g>
    <g id="shape3" transform="matrix(1.0, 0.0, 0.0, 1.0, 0.0, 0.0)">
      <path d="M27.65 18.45 L27.4 18.95 Q26.2 20.8 23.4 19.8 19.6 18.5 17.35 14.05 14.8 9.1 9.75 7.4 4.1 5.65 0.0 10.3 1.0 6.85 3.7 4.15 7.2 0.65 11.9 0.05 L14.8 0.05 18.4 0.65 Q21.55 1.65 24.05 4.15 28.2 8.3 28.2 14.25 28.2 16.45 27.65 18.45" fill="#ffffff" fill-opacity="0.19607843" fill-rule="evenodd" stroke="none"/>
    </g>
  </defs>
</svg>
