<?xml version="1.0" encoding="UTF-8" standalone="no"?>
<svg xmlns:xlink="http://www.w3.org/1999/xlink" height="43.0px" width="45.0px" xmlns="http://www.w3.org/2000/svg">
  <g transform="matrix(1.0, 0.0, 0.0, 1.0, 0.0, 0.0)">
    <use height="35.75" transform="matrix(1.0, 0.0, 0.0, 1.0, 5.85, 3.9)" width="35.65" xlink:href="#shape0"/>
    <use height="0.0" transform="matrix(1.2125, 0.0, 0.0, 1.2125, 1.1, 0.9)" width="0.0" xlink:href="#sprite0"/>
    <use height="43.9" transform="matrix(1.0, 0.0, 0.0, 1.0, 1.1, -0.1)" width="44.0" xlink:href="#shape1"/>
    <use height="20.15" transform="matrix(1.1594, 0.0, 0.0, 1.1605, 7.25, 5.8)" width="28.2" xlink:href="#sprite1"/>
    <use height="39.75" transform="matrix(1.0, 0.0, 0.0, 1.0, 2.85, 4.0)" width="40.55" xlink:href="#shape3"/>
    <use height="8.6" transform="matrix(1.2077, 0.0, 0.0, 1.2066, 1.9585, 0.9)" width="35.05" xlink:href="#sprite2"/>
  </g>
  <defs>
    <g id="shape0" transform="matrix(1.0, 0.0, 0.0, 1.0, -5.85, -3.9)">
      <path d="M36.3 34.45 Q31.1 39.65 23.7 39.65 16.25 39.65 11.05 34.45 5.85 29.15 5.85 21.75 5.85 14.4 11.05 9.15 16.35 3.9 23.7 3.9 31.1 3.9 36.3 9.15 41.5 14.4 41.5 21.75 41.5 29.15 36.3 34.45" fill="url(#gradient0)" fill-rule="evenodd" stroke="none"/>
      <path d="M22.05 11.6 Q21.8 12.45 21.0 13.05 20.3 13.6 18.45 14.1 18.3 13.95 18.3 13.25 18.3 12.4 18.7 11.7 L19.15 10.85 Q20.0 9.6 21.1 9.6 21.45 9.6 21.8 9.95 22.15 10.3 22.15 10.8 L22.05 11.6 M28.4 14.6 L27.75 13.9 Q28.3 13.2 29.7 12.65 31.0 12.15 31.9 12.15 33.25 12.15 33.25 13.3 33.25 14.2 32.65 15.05 32.0 15.9 31.2 15.9 L29.0 15.5 28.4 14.6 M25.8 13.1 L27.2 14.25 Q28.4 15.45 28.4 16.55 L27.55 17.7 Q26.7 18.95 26.7 20.55 26.7 23.75 28.45 23.75 L28.7 23.75 28.6 23.0 28.7 22.35 28.65 22.35 Q28.05 22.35 27.85 21.45 L29.25 21.45 Q29.7 20.8 30.5 20.8 L30.7 20.8 Q31.35 20.85 31.9 21.45 L32.2 21.9 32.4 22.8 32.4 23.0 Q32.4 24.0 31.9 24.65 L31.5 24.95 32.1 26.55 29.1 27.8 Q27.5 28.6 29.2 29.55 L32.9 28.5 Q34.1 32.6 33.15 35.0 27.3 39.6 20.7 39.0 10.65 37.1 6.2 28.55 10.15 16.4 14.6 13.1 16.35 12.2 18.0 11.8 L17.6 13.35 18.0 14.6 20.9 13.85 Q22.3 13.3 22.4 11.7 24.1 12.05 25.7 13.05 L25.8 13.1 M20.8 24.0 Q20.4 23.6 20.5 22.9 L22.7 22.9 Q22.75 23.55 22.45 24.0 L21.75 24.2 20.8 24.0 M23.6 22.5 Q24.3 22.5 24.8 22.95 25.35 23.5 25.35 24.2 25.35 24.95 24.8 25.4 24.3 25.95 23.6 25.95 L22.65 25.65 23.2 24.3 Q23.5 23.3 23.2 22.55 L23.6 22.5 M28.95 24.7 L28.9 24.65 28.35 24.6 26.7 25.05 27.2 25.95 27.8 26.45 28.95 24.7 M23.4 21.75 L23.25 21.75 Q23.05 20.1 22.35 19.1 21.5 18.15 20.4 18.15 19.0 18.15 18.0 19.85 17.1 21.35 17.1 22.9 17.1 24.45 17.95 25.85 18.9 27.4 20.3 27.4 L21.1 27.05 22.1 26.3 Q22.7 26.7 23.4 26.7 24.45 26.7 25.15 25.95 25.9 25.25 25.9 24.2 25.9 23.2 25.15 22.5 24.45 21.75 23.4 21.75 M30.3 22.95 Q30.7 22.95 31.3 24.2 L31.35 24.1 Q31.75 23.7 31.75 22.95 31.75 22.35 31.35 21.9 31.1 21.6 30.7 21.5 L30.4 21.45 Q29.85 21.45 29.4 21.9 29.0 22.35 29.0 23.0 L29.1 23.6 30.3 22.95 M29.0 28.1 L39.7 24.45 38.95 26.25 29.0 29.3 29.0 28.1" fill="#4a3355" fill-rule="evenodd" stroke="none"/>
    </g>
    <linearGradient gradientTransform="matrix(0.0, -0.0167, -0.0167, 0.0, 23.7, 18.4)" gradientUnits="userSpaceOnUse" id="gradient0" spreadMethod="pad" x1="-819.2" x2="819.2">
      <stop offset="0.011764705882352941" stop-color="#bcb9ae"/>
      <stop offset="1.0" stop-color="#9b5b79"/>
    </linearGradient>
    <g id="shape1" transform="matrix(1.0, 0.0, 0.0, 1.0, -1.1, 0.1)">
      <path d="M35.3 9.65 Q30.25 4.6 23.1 4.6 15.9 4.6 10.85 9.65 5.75 14.7 5.75 21.9 5.75 29.05 10.85 34.1 15.9 39.2 23.1 39.2 30.3 39.2 35.3 34.1 40.35 29.05 40.35 21.9 40.35 14.7 35.3 9.65 M3.3 2.15 Q5.55 -0.1 8.65 -0.1 L37.45 -0.1 Q40.65 -0.1 42.85 2.15 45.1 4.4 45.1 7.55 L45.1 36.25 Q45.1 39.35 42.85 41.6 40.65 43.8 37.45 43.8 L8.65 43.8 Q5.55 43.8 3.3 41.6 1.1 39.35 1.1 36.25 L1.1 7.55 Q1.1 4.4 3.3 2.15" fill="url(#gradient1)" fill-rule="evenodd" stroke="none"/>
      <path d="M23.05 5.45 Q16.1 5.5 11.3 10.35 6.4 15.2 6.4 22.05 6.4 29.0 11.3 33.9 16.1 38.7 23.05 38.7 29.85 38.7 34.75 33.9 39.65 29.0 39.65 22.05 39.65 15.2 34.75 10.35 29.9 5.5 23.05 5.45 M9.5 8.7 Q15.1 3.1 23.05 3.1 30.9 3.1 36.4 8.7 42.0 14.2 42.0 22.05 42.0 29.95 36.4 35.5 30.9 41.05 23.05 41.05 15.1 41.05 9.5 35.5 3.95 29.95 3.95 22.05 3.95 14.2 9.5 8.7" fill="url(#gradient2)" fill-rule="evenodd" stroke="none"/>
    </g>
    <linearGradient gradientTransform="matrix(0.0, -0.0275, -0.044, 0.0, 22.0, 22.05)" gradientUnits="userSpaceOnUse" id="gradient1" spreadMethod="pad" x1="-819.2" x2="819.2">
      <stop offset="0.0196078431372549" stop-color="#905a3d"/>
      <stop offset="0.9764705882352941" stop-color="#6a412d"/>
    </linearGradient>
    <linearGradient gradientTransform="matrix(0.0, -0.0168, -0.0168, 0.0, 23.05, 26.7)" gradientUnits="userSpaceOnUse" id="gradient2" spreadMethod="pad" x1="-819.2" x2="819.2">
      <stop offset="0.0196078431372549" stop-color="#a3704d"/>
      <stop offset="0.9803921568627451" stop-color="#492d20"/>
    </linearGradient>
    <g id="sprite1" transform="matrix(1.0, 0.0, 0.0, 1.0, 0.0, 0.0)">
      <use height="20.15" transform="matrix(1.0, 0.0, 0.0, 1.0, 0.0, 0.0)" width="28.2" xlink:href="#shape2"/>
    </g>
    <g id="shape2" transform="matrix(1.0, 0.0, 0.0, 1.0, 0.0, 0.0)">
      <path d="M27.65 18.45 L27.4 18.95 Q26.2 20.8 23.4 19.8 19.6 18.5 17.35 14.05 14.8 9.1 9.75 7.4 4.1 5.65 0.0 10.3 1.0 6.85 3.7 4.15 7.2 0.65 11.9 0.05 L14.8 0.05 18.4 0.65 Q21.55 1.65 24.05 4.15 28.2 8.3 28.2 14.25 28.2 16.45 27.65 18.45" fill="#ffffff" fill-opacity="0.19607843" fill-rule="evenodd" stroke="none"/>
    </g>
    <g id="shape3" transform="matrix(1.0, 0.0, 0.0, 1.0, -2.85, -4.0)">
      <path d="M17.35 40.3 Q13.9 39.3 10.65 37.65 11.95 34.4 14.3 33.9 15.05 37.55 17.35 40.3 M28.45 40.3 Q30.05 38.3 30.9 35.7 L31.35 33.9 Q33.7 34.4 35.0 37.7 31.8 39.45 28.45 40.3" fill="url(#gradient3)" fill-rule="evenodd" stroke="none"/>
      <path d="M14.3 33.9 Q15.8 36.9 19.0 38.35 L17.35 40.3 Q15.05 37.55 14.3 33.9 M31.35 33.9 L30.9 35.7 Q30.05 38.3 28.45 40.3 L26.65 38.35 Q29.85 36.9 31.35 33.9" fill="#6d4a34" fill-rule="evenodd" stroke="none"/>
      <path d="M32.15 5.75 L31.55 4.0 Q35.0 5.75 37.85 8.7 L37.9 8.8 Q37.1 12.85 33.3 14.05 33.35 10.8 32.6 7.35 L32.15 5.75 M12.85 14.05 Q9.05 12.85 8.25 8.85 L8.45 8.7 Q11.25 5.8 14.55 4.2 14.35 4.6 14.25 5.15 12.7 9.8 12.85 14.05" fill="url(#gradient4)" fill-rule="evenodd" stroke="none"/>
      <path d="M33.3 14.05 Q32.8 9.65 30.2 6.95 L31.9 5.15 32.15 5.75 32.6 7.35 Q33.35 10.8 33.3 14.05 M12.85 14.05 Q12.7 9.8 14.25 5.15 L16.0 6.95 Q13.4 9.65 12.85 14.05" fill="#492d20" fill-rule="evenodd" stroke="none"/>
      <path d="M2.95 33.3 L2.95 36.05 Q2.95 37.0 3.5 37.65 4.05 38.3 4.9 38.3 5.7 38.3 6.35 37.65 6.9 37.0 6.9 36.05 L6.9 34.75 M43.3 33.3 L43.3 36.05 Q43.3 37.0 42.7 37.65 42.2 38.3 41.35 38.3 40.5 38.3 39.9 37.65 39.3 37.0 39.3 36.05 L39.3 34.75" fill="none" stroke="#6a402d" stroke-linecap="round" stroke-linejoin="round" stroke-width="0.25"/>
      <path d="M5.65 11.0 L5.1 10.25 Q4.85 9.4 4.85 8.15 4.85 6.95 5.1 6.1 L5.65 5.35 Q5.95 5.5 6.1 6.1 6.45 6.95 6.45 8.15 6.45 9.4 6.1 10.25 L5.65 11.0 M40.5 5.35 L41.05 6.1 41.35 8.15 41.05 10.25 40.5 11.0 40.05 10.25 Q39.7 9.4 39.7 8.15 39.7 6.95 40.05 6.1 L40.5 5.35" fill="#331d16" fill-rule="evenodd" stroke="none"/>
      <path d="M5.65 11.0 L5.3 11.1 Q4.8 11.1 4.45 10.25 4.15 9.4 4.15 8.15 4.15 6.95 4.45 6.1 4.8 5.2 5.3 5.2 5.45 5.2 5.65 5.35 L5.1 6.1 Q4.85 6.95 4.85 8.15 4.85 9.4 5.1 10.25 L5.65 11.0 M40.5 11.0 L41.05 10.25 41.35 8.15 41.05 6.1 40.5 5.35 Q40.7 5.2 40.85 5.2 41.4 5.2 41.75 6.1 L42.0 8.15 41.75 10.25 Q41.4 11.1 40.85 11.1 L40.5 11.0" fill="#1a0d09" fill-rule="evenodd" stroke="none"/>
      <path d="M5.65 5.35 Q5.45 5.2 5.3 5.2 4.8 5.2 4.45 6.1 4.15 6.95 4.15 8.15 4.15 9.4 4.45 10.25 4.8 11.1 5.3 11.1 L5.65 11.0 M5.65 5.35 Q5.95 5.5 6.1 6.1 6.45 6.95 6.45 8.15 6.45 9.4 6.1 10.25 L5.65 11.0 M40.5 5.35 L40.05 6.1 Q39.7 6.95 39.7 8.15 39.7 9.4 40.05 10.25 L40.5 11.0 40.85 11.1 Q41.4 11.1 41.75 10.25 L42.0 8.15 41.75 6.1 Q41.4 5.2 40.85 5.2 40.7 5.2 40.5 5.35" fill="none" stroke="#6a402d" stroke-linecap="round" stroke-linejoin="round" stroke-width="0.05"/>
      <path d="M33.0 43.75 L13.2 43.75 Q13.95 43.4 15.6 43.0 L23.1 42.45 30.6 43.0 Q32.25 43.4 33.0 43.75" fill="#6c432e" fill-rule="evenodd" stroke="none"/>
    </g>
    <linearGradient gradientTransform="matrix(0.0, -0.0275, -0.044, 0.0, 22.0, 22.05)" gradientUnits="userSpaceOnUse" id="gradient3" spreadMethod="pad" x1="-819.2" x2="819.2">
      <stop offset="0.0196078431372549" stop-color="#905a3d"/>
      <stop offset="0.9764705882352941" stop-color="#6a412d"/>
    </linearGradient>
    <linearGradient gradientTransform="matrix(0.0, -0.0275, -0.044, 0.0, 22.0, 22.05)" gradientUnits="userSpaceOnUse" id="gradient4" spreadMethod="pad" x1="-819.2" x2="819.2">
      <stop offset="0.0196078431372549" stop-color="#905a3d"/>
      <stop offset="0.9764705882352941" stop-color="#6a412d"/>
    </linearGradient>
    <g id="sprite2" transform="matrix(1.0, 0.0, 0.0, 1.0, 0.2, 0.0)">
      <use height="8.6" transform="matrix(1.0, 0.0, 0.0, 1.0, -0.2, 0.0)" width="35.05" xlink:href="#shape4"/>
    </g>
    <g id="shape4" transform="matrix(1.0, 0.0, 0.0, 1.0, 0.2, 0.0)">
      <path d="M34.4 4.4 Q34.85 5.8 34.85 7.65 L34.85 8.6 Q34.8 6.95 34.4 5.7 33.0 1.3 27.2 1.3 L7.45 1.3 Q0.05 1.3 -0.2 8.5 L-0.2 7.65 Q-0.2 0.0 7.45 0.0 L27.2 0.0 Q33.0 0.0 34.4 4.4" fill="#e7deda" fill-rule="evenodd" stroke="none"/>
    </g>
  </defs>
</svg>
