<?xml version="1.0" encoding="UTF-8" standalone="no"?>
<svg xmlns:xlink="http://www.w3.org/1999/xlink" height="44.0px" width="44.05px" xmlns="http://www.w3.org/2000/svg">
  <g transform="matrix(1.0, 0.0, 0.0, 1.0, 0.05, 0.0)">
    <use height="37.1" transform="matrix(1.0, 0.0, 0.0, 1.0, 3.4, 3.55)" width="37.2" xlink:href="#shape0"/>
    <use height="20.15" transform="matrix(1.1594, 0.0, 0.0, 1.1594, 5.8, 5.3)" width="28.2" xlink:href="#sprite0"/>
    <use height="44.0" transform="matrix(1.0, 0.0, 0.0, 1.0, 0.0, 0.05)" width="44.0" xlink:href="#shape2"/>
    <use height="8.6" transform="matrix(1.2125, 0.0, 0.0, 1.2125, 0.8575, 1.0)" width="35.05" xlink:href="#sprite1"/>
    <use height="40.5" transform="matrix(1.0, 0.0, 0.0, 1.0, 0.0, 3.55)" width="43.95" xlink:href="#shape4"/>
    <use height="20.15" transform="matrix(1.1594, 0.0, 0.0, 1.1594, 5.8, 5.3)" width="28.2" xlink:href="#sprite0"/>
    <use height="44.0" transform="matrix(1.0, 0.0, 0.0, 1.0, 0.0, 0.05)" width="44.0" xlink:href="#shape5"/>
    <use height="8.6" transform="matrix(1.2125, 0.0, 0.0, 1.2125, 0.8575, 1.0)" width="35.05" xlink:href="#sprite1"/>
    <use height="17.95" transform="matrix(1.0, 0.0, 0.0, 1.0, 0.0, 26.1)" width="43.95" xlink:href="#shape6"/>
  </g>
  <defs>
    <g id="shape0" transform="matrix(1.0, 0.0, 0.0, 1.0, -3.4, -3.55)">
      <path d="M3.4 22.1 Q3.4 14.4 8.85 9.0 14.3 3.55 22.05 3.55 29.75 3.55 35.2 9.0 40.6 14.45 40.6 22.1 40.6 29.8 35.2 35.25 29.75 40.65 22.05 40.65 14.3 40.65 8.85 35.25 3.4 29.8 3.4 22.1" fill="url(#gradient0)" fill-rule="evenodd" stroke="none"/>
      <path d="M21.95 11.5 L21.95 11.75 Q28.85 11.75 35.85 17.85 26.7 20.0 25.95 22.15 L31.9 22.15 Q27.1 24.95 26.0 27.45 L29.75 27.45 Q25.75 28.8 24.3 32.05 L26.8 32.05 Q23.3 33.2 21.95 35.85 L21.75 36.05 21.75 35.6 Q20.4 33.0 16.9 31.8 L19.4 31.8 Q17.95 28.65 13.95 27.3 L17.7 27.3 Q16.6 24.75 11.75 22.0 L17.75 22.0 Q17.0 19.85 7.85 17.65 14.9 11.45 21.95 11.5" fill="#664411" fill-rule="evenodd" stroke="none"/>
    </g>
    <linearGradient gradientTransform="matrix(0.0, -0.017, -0.0173, 0.0, 21.05, 27.05)" gradientUnits="userSpaceOnUse" id="gradient0" spreadMethod="pad" x1="-819.2" x2="819.2">
      <stop offset="0.011764705882352941" stop-color="#dad67d"/>
      <stop offset="1.0" stop-color="#cfa451"/>
    </linearGradient>
    <g id="sprite0" transform="matrix(1.0, 0.0, 0.0, 1.0, 0.0, 0.0)">
      <use height="20.15" transform="matrix(1.0, 0.0, 0.0, 1.0, 0.0, 0.0)" width="28.2" xlink:href="#shape1"/>
    </g>
    <g id="shape1" transform="matrix(1.0, 0.0, 0.0, 1.0, 0.0, 0.0)">
      <path d="M27.65 18.45 L27.4 18.95 Q26.2 20.8 23.4 19.8 19.6 18.5 17.35 14.05 14.8 9.1 9.75 7.4 4.1 5.65 0.0 10.3 1.0 6.85 3.7 4.15 7.2 0.65 11.9 0.05 L14.8 0.05 18.4 0.65 Q21.55 1.65 24.05 4.15 28.2 8.3 28.2 14.25 28.2 16.45 27.65 18.45" fill="#ffffff" fill-opacity="0.19607843" fill-rule="evenodd" stroke="none"/>
    </g>
    <g id="shape2" transform="matrix(1.0, 0.0, 0.0, 1.0, 0.0, -0.05)">
      <path d="M44.0 7.65 L44.0 36.45 Q44.0 39.65 41.8 41.85 39.6 44.05 36.4 44.05 L7.6 44.05 Q4.45 44.05 2.25 41.85 0.0 39.65 0.0 36.45 L0.0 7.65 Q0.0 4.55 2.25 2.35 4.45 0.05 7.6 0.05 L36.4 0.05 Q39.55 0.05 41.8 2.35 44.0 4.55 44.0 7.65 M40.85 22.1 Q40.85 14.15 35.25 8.65 29.75 3.1 21.85 3.1 13.9 3.1 8.4 8.65 2.85 14.15 2.85 22.1 2.85 30.0 8.4 35.5 13.9 41.15 21.85 41.15 29.75 41.15 35.25 35.5 40.85 30.0 40.85 22.1" fill="url(#gradient1)" fill-rule="evenodd" stroke="none"/>
      <path d="M40.85 22.1 Q40.85 30.0 35.25 35.5 29.75 41.15 21.85 41.15 13.9 41.15 8.4 35.5 2.85 30.0 2.85 22.1 2.85 14.15 8.4 8.65 13.9 3.1 21.85 3.1 29.75 3.1 35.25 8.65 40.85 14.15 40.85 22.1 M33.7 10.4 Q28.75 5.5 21.85 5.45 14.95 5.5 10.1 10.4 5.2 15.2 5.15 22.1 5.2 29.05 10.1 33.9 14.95 38.8 21.85 38.8 28.75 38.8 33.7 33.9 38.5 29.05 38.5 22.1 38.5 15.2 33.7 10.4" fill="url(#gradient2)" fill-rule="evenodd" stroke="none"/>
    </g>
    <linearGradient gradientTransform="matrix(0.0, -0.0258, -0.0551, 0.0, 21.85, 21.9)" gradientUnits="userSpaceOnUse" id="gradient1" spreadMethod="pad" x1="-819.2" x2="819.2">
      <stop offset="0.011764705882352941" stop-color="#c79829"/>
      <stop offset="1.0" stop-color="#be7d1e"/>
    </linearGradient>
    <linearGradient gradientTransform="matrix(1.0E-4, 0.0223, -0.0232, 1.0E-4, 21.9, 22.4)" gradientUnits="userSpaceOnUse" id="gradient2" spreadMethod="pad" x1="-819.2" x2="819.2">
      <stop offset="0.011764705882352941" stop-color="#8d5910"/>
      <stop offset="1.0" stop-color="#d9d597"/>
    </linearGradient>
    <g id="sprite1" transform="matrix(1.0, 0.0, 0.0, 1.0, 0.2, 0.0)">
      <use height="8.6" transform="matrix(1.0, 0.0, 0.0, 1.0, -0.2, 0.0)" width="35.05" xlink:href="#shape3"/>
    </g>
    <g id="shape3" transform="matrix(1.0, 0.0, 0.0, 1.0, 0.2, 0.0)">
      <path d="M34.4 4.4 Q34.85 5.8 34.85 7.65 L34.85 8.6 Q34.8 6.95 34.4 5.7 33.0 1.3 27.2 1.3 L7.45 1.3 Q0.05 1.3 -0.2 8.5 L-0.2 7.65 Q-0.2 0.0 7.45 0.0 L27.2 0.0 Q33.0 0.0 34.4 4.4" fill="#e7deda" fill-rule="evenodd" stroke="none"/>
    </g>
    <g id="shape4" transform="matrix(1.0, 0.0, 0.0, 1.0, 0.0, -3.55)">
      <path d="M39.65 29.2 L38.05 29.2 37.95 29.4 39.3 30.35 38.75 32.05 38.9 32.2 40.4 31.15 41.8 32.2 42.05 32.05 41.5 30.35 42.8 29.4 42.65 29.2 41.1 29.2 40.5 27.65 40.25 27.65 39.65 29.2 M38.85 28.0 L39.3 26.85 39.7 26.35 Q40.05 26.1 40.4 26.1 L41.05 26.35 41.5 26.9 41.9 28.0 43.05 28.0 43.75 28.25 43.95 28.4 43.95 30.0 43.7 30.15 42.85 30.8 43.25 32.15 43.25 32.85 42.8 33.4 42.1 33.6 41.45 33.35 41.2 33.2 41.15 35.75 43.55 36.7 Q43.75 36.75 43.95 36.95 L43.6 38.85 43.4 38.9 40.85 39.55 40.65 42.5 40.5 42.8 39.25 43.55 39.0 43.5 38.5 43.05 37.0 40.5 34.2 41.25 33.85 41.25 33.0 41.85 33.4 43.2 33.4 43.9 33.3 44.05 31.15 44.05 30.55 43.65 29.9 44.05 27.7 44.05 27.65 43.85 27.65 43.15 28.05 41.85 27.15 41.25 26.75 40.65 Q26.6 40.25 26.75 39.9 L27.15 39.3 27.85 39.1 29.0 39.1 29.45 37.95 Q29.6 37.6 29.85 37.4 L30.55 37.2 31.2 37.4 31.65 38.0 32.05 39.1 33.2 39.1 34.85 37.1 33.55 34.9 33.4 34.2 33.7 33.5 Q33.9 33.25 34.25 33.2 L34.95 33.25 37.35 34.2 38.05 33.45 37.9 33.35 37.5 32.75 37.5 32.05 37.9 30.8 37.0 30.15 36.6 29.6 Q36.45 29.2 36.6 28.85 L37.0 28.25 Q37.3 28.0 37.7 28.0 L38.85 28.0 M30.65 38.75 L30.4 38.75 29.8 40.25 28.2 40.25 28.1 40.5 29.45 41.4 28.85 43.15 29.05 43.25 30.55 42.2 31.95 43.25 32.2 43.15 31.65 41.4 32.8 40.55 32.75 40.25 31.25 40.25 30.65 38.75 M37.7 35.55 L34.55 34.3 36.3 37.25 33.9 40.05 37.55 39.15 39.5 42.4 39.75 38.65 43.15 37.75 40.0 36.5 40.05 33.05 37.7 35.55" fill="url(#gradient3)" fill-rule="evenodd" stroke="none"/>
      <path d="M39.3 30.35 L39.3 30.95 38.9 32.25 38.6 32.4 39.3 30.35 M41.85 32.25 L41.5 30.95 41.5 30.35 42.15 32.4 41.85 32.25 M42.2 29.8 L41.1 29.8 40.4 27.9 39.65 29.8 38.55 29.8 37.7 29.2 39.65 29.2 40.4 27.25 41.1 29.2 43.05 29.2 42.2 29.8 M40.0 36.5 L43.15 37.75 42.15 38.05 40.0 37.1 40.0 36.5 M34.55 39.9 L33.9 40.05 36.3 37.25 36.3 37.85 34.55 39.9 M35.0 35.15 L34.55 34.3 37.7 35.55 40.05 33.05 40.05 33.7 37.7 36.2 35.0 35.15 M32.0 43.3 L31.65 42.05 31.65 41.4 32.3 43.5 32.0 43.3 M32.35 40.9 L31.25 40.9 30.55 38.95 29.8 40.9 28.7 40.9 27.85 40.25 29.8 40.25 30.55 38.35 31.25 40.25 33.2 40.25 32.35 40.9 M29.45 41.4 L29.45 42.05 29.05 43.3 28.75 43.5 29.45 41.4" fill="#674512" fill-rule="evenodd" stroke="none"/>
      <path d="M38.9 32.25 L39.3 30.95 39.3 30.35 38.55 29.8 39.65 29.8 40.4 27.9 41.1 29.8 42.2 29.8 41.5 30.35 41.5 30.95 41.85 32.25 40.4 31.15 38.9 32.25 M40.0 36.5 L40.0 37.1 42.15 38.05 39.75 38.65 39.5 42.4 37.55 39.15 34.55 39.9 36.3 37.85 36.3 37.25 35.0 35.15 37.7 36.2 40.05 33.7 40.0 36.5 M31.65 41.4 L31.65 42.05 32.0 43.3 30.55 42.2 29.05 43.3 29.45 42.05 29.45 41.4 28.7 40.9 29.8 40.9 30.55 38.95 31.25 40.9 32.35 40.9 31.65 41.4" fill="#815815" fill-rule="evenodd" stroke="none"/>
      <path d="M5.1 28.0 L4.65 26.85 4.25 26.35 Q3.9 26.1 3.55 26.1 L2.9 26.35 Q2.55 26.5 2.45 26.9 L2.05 28.0 0.9 28.0 0.2 28.25 0.0 28.4 0.0 30.0 0.25 30.15 1.1 30.8 0.7 32.15 0.7 32.85 1.15 33.4 Q1.45 33.6 1.85 33.6 L2.5 33.35 2.75 33.2 2.8 35.75 0.4 36.7 0.0 36.95 0.35 38.85 0.55 38.9 3.1 39.55 3.3 42.5 3.45 42.8 4.7 43.55 4.95 43.5 5.45 43.05 6.95 40.5 9.75 41.25 10.1 41.25 10.95 41.85 10.55 43.2 10.55 43.9 10.65 44.05 12.8 44.05 13.4 43.65 14.05 44.05 16.25 44.05 16.3 43.85 16.3 43.15 15.9 41.85 16.8 41.25 17.2 40.65 17.2 39.9 16.8 39.3 16.1 39.1 14.95 39.1 14.5 37.95 14.1 37.4 13.4 37.2 12.75 37.4 Q12.4 37.6 12.3 38.0 L11.9 39.1 10.75 39.1 9.1 37.1 10.4 34.9 10.55 34.2 10.25 33.5 9.7 33.2 9.0 33.25 6.6 34.2 5.9 33.45 6.05 33.35 6.45 32.75 6.45 32.05 6.05 30.8 6.95 30.15 7.35 29.6 7.35 28.85 6.95 28.25 6.25 28.0 5.1 28.0 M13.3 38.75 L13.55 38.75 14.15 40.25 15.75 40.25 15.85 40.5 14.5 41.4 15.1 43.15 14.9 43.25 13.4 42.2 12.0 43.25 11.75 43.15 12.3 41.4 11.15 40.55 11.2 40.25 12.7 40.25 13.3 38.75 M6.25 35.55 L9.4 34.3 7.65 37.25 10.05 40.05 6.4 39.15 4.45 42.4 4.2 38.65 0.8 37.75 3.95 36.5 3.9 33.05 6.25 35.55 M4.3 29.2 L5.9 29.2 6.0 29.4 4.65 30.35 5.2 32.05 5.05 32.2 3.55 31.15 2.15 32.2 1.9 32.05 2.45 30.35 1.15 29.4 1.3 29.2 2.85 29.2 3.45 27.65 3.7 27.65 4.3 29.2" fill="url(#gradient4)" fill-rule="evenodd" stroke="none"/>
      <path d="M5.4 29.8 L6.25 29.2 4.3 29.2 3.55 27.25 2.85 29.2 0.9 29.2 1.75 29.8 2.85 29.8 3.55 27.9 4.3 29.8 5.4 29.8 M2.45 30.35 L1.8 32.4 2.1 32.25 2.45 30.95 2.45 30.35 M5.05 32.25 L5.35 32.4 4.65 30.35 4.65 30.95 5.05 32.25 M3.95 36.5 L0.8 37.75 1.8 38.05 3.95 37.1 3.95 36.5 M9.4 39.9 L10.05 40.05 7.65 37.25 7.65 37.85 9.4 39.9 M8.95 35.15 L9.4 34.3 6.25 35.55 3.9 33.05 3.9 33.7 6.25 36.2 8.95 35.15 M15.25 40.9 L16.1 40.25 14.15 40.25 13.4 38.35 12.7 40.25 10.75 40.25 11.6 40.9 12.7 40.9 13.4 38.95 14.15 40.9 15.25 40.9 M12.3 41.4 L11.65 43.5 11.95 43.3 12.3 42.05 12.3 41.4 M14.9 43.3 L15.2 43.5 14.5 41.4 14.5 42.05 14.9 43.3" fill="#674512" fill-rule="evenodd" stroke="none"/>
      <path d="M1.75 29.8 L2.45 30.35 2.45 30.95 2.1 32.25 3.55 31.15 5.05 32.25 4.65 30.95 4.65 30.35 5.4 29.8 4.3 29.8 3.55 27.9 2.85 29.8 1.75 29.8 M3.95 36.5 L3.95 37.1 1.8 38.05 4.2 38.65 4.45 42.4 6.4 39.15 9.4 39.9 7.65 37.85 7.65 37.25 8.95 35.15 6.25 36.2 3.9 33.7 3.95 36.5 M11.6 40.9 L12.3 41.4 12.3 42.05 11.95 43.3 13.4 42.2 14.9 43.3 14.5 42.05 14.5 41.4 15.25 40.9 14.15 40.9 13.4 38.95 12.7 40.9 11.6 40.9" fill="#815815" fill-rule="evenodd" stroke="none"/>
      <path d="M3.4 22.1 Q3.4 14.4 8.85 9.0 14.3 3.55 22.05 3.55 29.75 3.55 35.2 9.0 40.6 14.45 40.6 22.1 40.6 29.8 35.2 35.25 29.75 40.65 22.05 40.65 14.3 40.65 8.85 35.25 3.4 29.8 3.4 22.1" fill="url(#gradient5)" fill-rule="evenodd" stroke="none"/>
      <path d="M30.4 31.85 L36.5 31.85 33.75 35.2 32.85 36.45 Q30.8 37.35 27.6 39.0 L27.05 39.25 15.5 39.25 Q11.5 37.1 10.25 35.75 L7.05 31.85 15.5 31.85 15.5 22.0 14.8 22.0 14.8 27.0 14.25 27.0 12.65 27.0 12.65 20.1 12.65 18.2 15.5 17.65 15.5 17.2 14.45 16.45 14.3 16.3 14.25 16.3 Q13.15 15.2 13.15 13.65 13.15 12.15 14.25 11.0 L14.3 11.0 Q15.5 9.9 16.95 9.9 L17.2 9.9 17.5 9.9 Q19.1 9.9 20.1 11.0 L20.2 11.0 Q21.3 12.15 21.3 13.65 21.3 15.2 20.2 16.3 L20.1 16.3 19.2 17.1 Q19.1 17.1 19.05 17.2 L19.05 17.65 21.85 18.2 21.85 20.1 21.85 27.0 20.25 27.0 19.55 27.0 19.55 22.0 19.05 22.0 19.05 31.85 28.1 31.85 30.4 31.85 30.4 32.0 30.4 32.1 30.4 32.45 29.5 32.45 29.4 32.45 29.05 32.45 28.25 32.45 28.1 32.45 28.1 32.1 28.1 32.0 28.1 31.85 28.1 32.0 28.1 32.1 28.1 32.45 28.25 32.45 29.05 32.45 29.4 32.45 29.5 32.45 30.4 32.45 30.4 32.1 30.4 32.0 30.4 31.85" fill="#664411" fill-rule="evenodd" stroke="none"/>
      <path d="M29.15 16.2 L29.15 15.05 M28.1 31.85 L28.1 25.8 28.1 25.65 27.6 25.65 27.6 25.8 27.6 28.9 27.25 28.9 26.25 28.9 26.25 25.8 26.25 24.35 26.25 23.2 28.1 22.8 28.1 22.5 27.45 22.05 27.35 21.95 27.25 21.95 Q26.6 21.25 26.6 20.2 26.6 19.2 27.25 18.5 L27.35 18.5 Q28.1 17.75 29.05 17.75 L29.2 17.75 29.35 17.75 Q30.45 17.75 31.1 18.5 L31.15 18.5 Q31.85 19.2 31.85 20.2 31.85 21.25 31.15 21.95 L31.1 21.95 30.5 22.45 30.4 22.5 30.4 22.8 32.2 23.2 32.2 24.35 32.2 25.8 32.2 28.9 31.15 28.9 30.75 28.9 30.75 25.8 30.75 25.65 30.4 25.65 30.4 25.8 30.4 31.85 30.4 32.0 30.4 32.1 30.4 32.45 29.5 32.45 29.4 32.45 29.05 32.45 28.25 32.45 28.1 32.45 28.1 32.1 28.1 32.0 28.1 31.85 M24.5 19.95 L23.15 19.95 M25.95 17.1 L25.05 16.1 M32.4 17.1 L33.25 16.1 M35.15 19.95 L33.9 19.95" fill="none" stroke="#664411" stroke-linecap="round" stroke-linejoin="round" stroke-width="1.0"/>
    </g>
    <linearGradient gradientTransform="matrix(0.0, -0.0258, -0.0551, 0.0, 21.85, 21.95)" gradientUnits="userSpaceOnUse" id="gradient3" spreadMethod="pad" x1="-819.2" x2="819.2">
      <stop offset="0.011764705882352941" stop-color="#c79829"/>
      <stop offset="1.0" stop-color="#be7d1e"/>
    </linearGradient>
    <linearGradient gradientTransform="matrix(0.0, -0.0258, 0.0551, 0.0, 22.1, 21.95)" gradientUnits="userSpaceOnUse" id="gradient4" spreadMethod="pad" x1="-819.2" x2="819.2">
      <stop offset="0.011764705882352941" stop-color="#c79829"/>
      <stop offset="1.0" stop-color="#be7d1e"/>
    </linearGradient>
    <linearGradient gradientTransform="matrix(0.0056, 0.0, 0.0, 0.0043, -24.55, 41.8)" gradientUnits="userSpaceOnUse" id="gradient5" spreadMethod="pad" x1="-819.2" x2="819.2">
      <stop offset="0.011764705882352941" stop-color="#c79829"/>
      <stop offset="1.0" stop-color="#be7d1e"/>
    </linearGradient>
    <g id="shape5" transform="matrix(1.0, 0.0, 0.0, 1.0, 0.0, -0.05)">
      <path d="M40.85 22.1 Q40.85 14.15 35.25 8.65 29.75 3.1 21.85 3.1 13.9 3.1 8.4 8.65 2.85 14.15 2.85 22.1 2.85 30.0 8.4 35.5 13.9 41.15 21.85 41.15 29.75 41.15 35.25 35.5 40.85 30.0 40.85 22.1 M41.8 2.35 Q44.0 4.55 44.0 7.65 L44.0 36.45 Q44.0 39.65 41.8 41.85 39.6 44.05 36.4 44.05 L7.6 44.05 Q4.45 44.05 2.25 41.85 0.0 39.65 0.0 36.45 L0.0 7.65 Q0.0 4.55 2.25 2.35 4.45 0.05 7.6 0.05 L36.4 0.05 Q39.55 0.05 41.8 2.35" fill="url(#gradient6)" fill-rule="evenodd" stroke="none"/>
      <path d="M33.7 10.4 Q28.75 5.5 21.85 5.45 14.95 5.5 10.1 10.4 5.2 15.2 5.15 22.1 5.2 29.05 10.1 33.9 14.95 38.8 21.85 38.8 28.75 38.8 33.7 33.9 38.5 29.05 38.5 22.1 38.5 15.2 33.7 10.4 M40.85 22.1 Q40.85 30.0 35.25 35.5 29.75 41.15 21.85 41.15 13.9 41.15 8.4 35.5 2.85 30.0 2.85 22.1 2.85 14.15 8.4 8.65 13.9 3.1 21.85 3.1 29.75 3.1 35.25 8.65 40.85 14.15 40.85 22.1" fill="url(#gradient7)" fill-rule="evenodd" stroke="none"/>
    </g>
    <linearGradient gradientTransform="matrix(0.0, -0.0258, -0.0551, 0.0, 21.85, 21.9)" gradientUnits="userSpaceOnUse" id="gradient6" spreadMethod="pad" x1="-819.2" x2="819.2">
      <stop offset="0.011764705882352941" stop-color="#dad67d"/>
      <stop offset="1.0" stop-color="#cfa451"/>
    </linearGradient>
    <linearGradient gradientTransform="matrix(0.0, 0.0059, -0.0232, 0.0, 21.85, 18.45)" gradientUnits="userSpaceOnUse" id="gradient7" spreadMethod="pad" x1="-819.2" x2="819.2">
      <stop offset="0.011764705882352941" stop-color="#8d5910"/>
      <stop offset="1.0" stop-color="#d9d597"/>
    </linearGradient>
    <g id="shape6" transform="matrix(1.0, 0.0, 0.0, 1.0, -0.05, -26.1)">
      <path d="M39.7 29.2 L38.1 29.2 38.0 29.4 39.35 30.35 38.8 32.05 38.95 32.2 40.45 31.15 41.85 32.2 42.1 32.05 41.55 30.35 42.85 29.4 42.7 29.2 41.15 29.2 40.55 27.65 40.3 27.65 39.7 29.2 M38.9 28.0 L39.35 26.85 39.75 26.35 Q40.1 26.1 40.45 26.1 L41.1 26.35 41.55 26.9 41.95 28.0 43.1 28.0 Q43.55 28.0 43.8 28.25 L44.0 28.4 44.0 30.0 43.75 30.15 42.9 30.8 43.3 32.15 43.3 32.85 42.85 33.4 42.15 33.6 41.5 33.35 41.25 33.2 41.2 35.75 43.6 36.7 44.0 36.95 43.65 38.85 43.45 38.9 40.9 39.55 40.7 42.5 40.55 42.8 39.3 43.55 39.05 43.5 38.55 43.05 37.05 40.5 34.25 41.25 33.9 41.25 33.05 41.85 33.45 43.2 33.45 43.9 33.35 44.05 31.2 44.05 30.6 43.65 29.95 44.05 27.75 44.05 27.7 43.85 27.7 43.15 28.1 41.85 27.2 41.25 26.8 40.65 Q26.65 40.25 26.8 39.9 L27.2 39.3 27.9 39.1 29.05 39.1 29.5 37.95 29.9 37.4 30.6 37.2 31.25 37.4 31.7 38.0 32.1 39.1 33.25 39.1 34.9 37.1 33.6 34.9 33.45 34.2 33.75 33.5 Q33.95 33.25 34.3 33.2 L35.0 33.25 37.4 34.2 38.1 33.45 37.95 33.35 37.55 32.75 37.55 32.05 37.95 30.8 37.05 30.15 36.65 29.6 Q36.5 29.2 36.65 28.85 L37.05 28.25 Q37.35 28.0 37.75 28.0 L38.9 28.0 M37.75 35.55 L34.6 34.3 36.35 37.25 33.95 40.05 37.6 39.15 39.55 42.4 39.8 38.65 43.2 37.75 40.05 36.5 40.1 33.05 37.75 35.55 M30.7 38.75 L30.45 38.75 29.85 40.25 28.25 40.25 28.15 40.5 29.5 41.4 28.9 43.15 29.1 43.25 30.6 42.2 32.0 43.25 32.25 43.15 31.7 41.4 32.85 40.55 32.8 40.25 31.3 40.25 30.7 38.75" fill="#d1ae5a" fill-rule="evenodd" stroke="none"/>
      <path d="M38.6 29.8 L37.75 29.2 39.7 29.2 40.45 27.25 41.15 29.2 43.1 29.2 42.25 29.8 41.15 29.8 40.45 27.9 39.7 29.8 38.6 29.8 M41.55 30.35 L42.2 32.4 41.9 32.25 41.55 30.95 41.55 30.35 M38.95 32.25 L38.65 32.4 39.35 30.35 39.35 30.95 38.95 32.25 M40.05 36.5 L43.2 37.75 42.2 38.05 40.05 37.1 40.05 36.5 M34.6 39.9 L33.95 40.05 36.35 37.25 36.35 37.85 34.6 39.9 M35.05 35.15 L34.6 34.3 37.75 35.55 40.1 33.05 40.1 33.7 37.75 36.2 35.05 35.15 M32.4 40.9 L31.3 40.9 30.6 38.95 29.85 40.9 28.75 40.9 27.9 40.25 29.85 40.25 30.6 38.35 31.3 40.25 33.25 40.25 32.4 40.9 M29.5 41.4 L29.5 42.05 29.1 43.3 28.8 43.5 29.5 41.4 M32.05 43.3 L31.7 42.05 31.7 41.4 32.35 43.5 32.05 43.3" fill="#674512" fill-rule="evenodd" stroke="none"/>
      <path d="M42.25 29.8 L41.55 30.35 41.55 30.95 41.9 32.25 40.45 31.15 38.95 32.25 39.35 30.95 39.35 30.35 38.6 29.8 39.7 29.8 40.45 27.9 41.15 29.8 42.25 29.8 M40.05 36.5 L40.05 37.1 42.2 38.05 39.8 38.65 39.55 42.4 37.6 39.15 34.6 39.9 36.35 37.85 36.35 37.25 35.05 35.15 37.75 36.2 40.1 33.7 40.05 36.5 M28.75 40.9 L29.85 40.9 30.6 38.95 31.3 40.9 32.4 40.9 31.7 41.4 31.7 42.05 32.05 43.3 30.6 42.2 29.1 43.3 29.5 42.05 29.5 41.4 28.75 40.9" fill="#815815" fill-rule="evenodd" stroke="none"/>
      <path d="M10.3 33.5 L10.6 34.2 10.45 34.9 9.15 37.1 10.8 39.1 11.95 39.1 12.35 38.0 12.8 37.4 13.45 37.2 14.15 37.4 14.55 37.95 15.0 39.1 16.15 39.1 16.85 39.3 17.25 39.9 17.25 40.65 16.85 41.25 15.95 41.85 16.35 43.15 16.35 43.85 16.3 44.05 14.1 44.05 13.45 43.65 12.85 44.05 10.7 44.05 10.6 43.9 10.6 43.2 11.0 41.85 10.15 41.25 9.8 41.25 7.0 40.5 5.5 43.05 5.0 43.5 4.75 43.55 Q4.05 43.25 3.5 42.8 L3.35 42.5 3.15 39.55 0.6 38.9 0.4 38.85 0.05 36.95 Q0.25 36.75 0.45 36.7 L2.85 35.75 2.8 33.2 2.55 33.35 1.9 33.6 1.2 33.4 0.75 32.85 0.75 32.15 1.15 30.8 0.3 30.15 0.05 30.0 0.05 28.4 0.25 28.25 Q0.5 28.0 0.95 28.0 L2.1 28.0 2.5 26.9 2.95 26.35 Q3.25 26.1 3.6 26.1 L4.3 26.35 4.7 26.85 5.15 28.0 6.3 28.0 Q6.7 28.0 7.0 28.25 L7.4 28.85 7.4 29.6 7.0 30.15 6.1 30.8 6.5 32.05 6.5 32.75 6.1 33.35 5.95 33.45 6.65 34.2 9.05 33.25 9.75 33.2 10.3 33.5 M11.2 40.55 L12.35 41.4 11.8 43.15 12.05 43.25 13.45 42.2 14.95 43.25 15.15 43.15 14.55 41.4 15.9 40.5 15.8 40.25 14.2 40.25 13.6 38.75 13.35 38.75 12.75 40.25 11.25 40.25 11.2 40.55 M3.75 27.65 L3.5 27.65 2.9 29.2 1.35 29.2 1.2 29.4 2.5 30.35 1.95 32.05 2.2 32.2 3.6 31.15 5.1 32.2 5.25 32.05 4.7 30.35 6.05 29.4 5.95 29.2 4.35 29.2 3.75 27.65 M4.25 38.65 L4.5 42.4 6.45 39.15 10.1 40.05 7.7 37.25 9.45 34.3 6.3 35.55 3.95 33.05 4.0 36.5 0.85 37.75 4.25 38.65" fill="#d1ae5a" fill-rule="evenodd" stroke="none"/>
      <path d="M12.35 41.4 L12.35 42.05 12.0 43.3 11.7 43.5 12.35 41.4 M14.95 43.3 L14.55 42.05 14.55 41.4 15.25 43.5 14.95 43.3 M15.3 40.9 L14.2 40.9 13.45 38.95 12.75 40.9 11.65 40.9 10.8 40.25 12.75 40.25 13.45 38.35 14.2 40.25 16.15 40.25 15.3 40.9 M1.8 29.8 L0.95 29.2 2.9 29.2 3.6 27.25 4.35 29.2 6.3 29.2 5.45 29.8 4.35 29.8 3.6 27.9 2.9 29.8 1.8 29.8 M4.7 30.35 L5.4 32.4 5.1 32.25 4.7 30.95 4.7 30.35 M2.15 32.25 L1.85 32.4 2.5 30.35 2.5 30.95 2.15 32.25 M3.95 33.7 L3.95 33.05 6.3 35.55 9.45 34.3 9.0 35.15 6.3 36.2 3.95 33.7 M7.7 37.25 L10.1 40.05 9.45 39.9 7.7 37.85 7.7 37.25 M1.85 38.05 L0.85 37.75 4.0 36.5 4.0 37.1 1.85 38.05" fill="#674512" fill-rule="evenodd" stroke="none"/>
      <path d="M12.35 41.4 L11.65 40.9 12.75 40.9 13.45 38.95 14.2 40.9 15.3 40.9 14.55 41.4 14.55 42.05 14.95 43.3 13.45 42.2 12.0 43.3 12.35 42.05 12.35 41.4 M1.8 29.8 L2.9 29.8 3.6 27.9 4.35 29.8 5.45 29.8 4.7 30.35 4.7 30.95 5.1 32.25 3.6 31.15 2.15 32.25 2.5 30.95 2.5 30.35 1.8 29.8 M9.0 35.15 L7.7 37.25 7.7 37.85 9.45 39.9 6.45 39.15 4.5 42.4 4.25 38.65 1.85 38.05 4.0 37.1 4.0 36.5 3.95 33.7 6.3 36.2 9.0 35.15" fill="#815815" fill-rule="evenodd" stroke="none"/>
    </g>
  </defs>
</svg>
