<?xml version="1.0" encoding="UTF-8" standalone="no"?>
<svg xmlns:xlink="http://www.w3.org/1999/xlink" height="44.0px" width="44.0px" xmlns="http://www.w3.org/2000/svg">
  <g transform="matrix(1.0, 0.0, 0.0, 1.0, 0.0, 0.0)">
    <use height="40.35" transform="matrix(1.0, 0.0, 0.0, 1.0, 1.55, 3.0)" width="40.35" xlink:href="#shape0"/>
    <use height="0.0" transform="matrix(1.2077, 0.0, 0.0, 1.2077, 0.7, 1.5)" width="0.0" xlink:href="#sprite0"/>
    <use height="44.0" transform="matrix(1.0, 0.0, 0.0, 1.0, 0.05, 0.0)" width="44.0" xlink:href="#shape1"/>
    <use height="8.6" transform="matrix(1.2077, 0.0, 0.0, 1.2093, 0.5585, 0.75)" width="35.05" xlink:href="#sprite1"/>
    <use height="20.15" transform="matrix(1.1549, 0.0, 0.0, 1.1564, 6.35, 5.65)" width="28.2" xlink:href="#sprite2"/>
    <use height="39.85" transform="matrix(1.0, 0.0, 0.0, 1.0, 1.8, 4.1)" width="40.55" xlink:href="#shape4"/>
  </g>
  <defs>
    <g id="shape0" transform="matrix(1.0, 0.0, 0.0, 1.0, -1.55, -3.0)">
      <path d="M21.7 3.0 Q30.05 3.0 35.95 8.9 41.9 14.85 41.9 23.15 41.9 31.5 35.95 37.4 30.05 43.35 21.7 43.35 13.35 43.35 7.45 37.4 1.55 31.5 1.55 23.15 1.55 14.85 7.45 8.9 13.35 3.0 21.7 3.0" fill="url(#gradient0)" fill-rule="evenodd" stroke="none"/>
    </g>
    <linearGradient gradientTransform="matrix(0.0, -0.0189, -0.0189, 0.0, 21.7, 19.35)" gradientUnits="userSpaceOnUse" id="gradient0" spreadMethod="pad" x1="-819.2" x2="819.2">
      <stop offset="0.011764705882352941" stop-color="#b3f9e4"/>
      <stop offset="1.0" stop-color="#5bbbff"/>
    </linearGradient>
    <g id="shape1" transform="matrix(1.0, 0.0, 0.0, 1.0, -0.05, 0.0)">
      <path d="M20.35 18.7 L21.15 21.6 22.6 21.6 23.4 18.7 24.45 22.95 26.45 18.3 Q26.95 21.4 31.4 21.0 33.5 16.35 29.85 12.35 42.35 20.95 32.1 33.35 34.05 27.35 31.6 24.3 31.75 28.15 29.1 29.1 30.35 24.45 26.2 25.25 23.15 27.2 22.1 33.2 L21.2 33.2 Q21.1 28.5 17.55 25.25 13.4 24.45 14.7 29.1 12.05 28.15 12.2 24.3 9.7 27.35 11.65 33.35 1.4 20.95 13.95 12.35 10.3 16.35 12.35 21.0 16.8 21.4 17.35 18.3 L19.35 22.95 20.35 18.7" fill="#2e5d6b" fill-rule="evenodd" stroke="none"/>
      <path d="M34.25 9.8 Q29.2 4.7 22.05 4.7 14.85 4.7 9.8 9.8 4.7 14.8 4.7 22.05 4.7 29.2 9.8 34.3 14.85 39.4 22.05 39.4 29.25 39.4 34.25 34.3 39.3 29.2 39.3 22.05 39.3 14.8 34.25 9.8 M2.25 2.25 Q4.5 0.0 7.6 0.0 L36.4 0.0 Q39.6 0.0 41.8 2.25 44.05 4.55 44.05 7.65 L44.05 36.45 Q44.05 39.55 41.8 41.8 39.6 44.0 36.4 44.0 L7.6 44.0 Q4.5 44.0 2.25 41.8 0.05 39.55 0.05 36.45 L0.05 7.65 Q0.05 4.55 2.25 2.25" fill="url(#gradient1)" fill-rule="evenodd" stroke="none"/>
      <path d="M22.0 5.55 Q15.05 5.6 10.25 10.5 5.35 15.35 5.35 22.2 5.35 29.15 10.25 34.05 15.05 38.85 22.0 38.85 28.8 38.85 33.7 34.05 38.6 29.15 38.6 22.2 38.6 15.35 33.7 10.5 28.85 5.6 22.0 5.55 M8.45 8.8 Q14.05 3.2 22.0 3.2 29.85 3.2 35.35 8.8 40.95 14.35 40.95 22.2 40.95 30.15 35.35 35.7 29.85 41.25 22.0 41.25 14.05 41.25 8.45 35.7 2.9 30.15 2.9 22.2 2.9 14.35 8.45 8.8" fill="url(#gradient2)" fill-rule="evenodd" stroke="none"/>
    </g>
    <linearGradient gradientTransform="matrix(0.0, -0.0275, -0.044, 0.0, 20.95, 22.2)" gradientUnits="userSpaceOnUse" id="gradient1" spreadMethod="pad" x1="-819.2" x2="819.2">
      <stop offset="0.0196078431372549" stop-color="#905a3d"/>
      <stop offset="0.9764705882352941" stop-color="#6a412d"/>
    </linearGradient>
    <linearGradient gradientTransform="matrix(0.0, -0.0168, -0.0168, 0.0, 22.0, 26.85)" gradientUnits="userSpaceOnUse" id="gradient2" spreadMethod="pad" x1="-819.2" x2="819.2">
      <stop offset="0.0196078431372549" stop-color="#a3704d"/>
      <stop offset="0.9803921568627451" stop-color="#492d20"/>
    </linearGradient>
    <g id="sprite1" transform="matrix(1.0, 0.0, 0.0, 1.0, 0.2, 0.0)">
      <use height="8.6" transform="matrix(1.0, 0.0, 0.0, 1.0, -0.2, 0.0)" width="35.05" xlink:href="#shape2"/>
    </g>
    <g id="shape2" transform="matrix(1.0, 0.0, 0.0, 1.0, 0.2, 0.0)">
      <path d="M34.4 4.4 Q34.85 5.8 34.85 7.65 L34.85 8.6 Q34.8 6.95 34.4 5.7 33.0 1.3 27.2 1.3 L7.45 1.3 Q0.05 1.3 -0.2 8.5 L-0.2 7.65 Q-0.2 0.0 7.45 0.0 L27.2 0.0 Q33.0 0.0 34.4 4.4" fill="#e7deda" fill-rule="evenodd" stroke="none"/>
    </g>
    <g id="sprite2" transform="matrix(1.0, 0.0, 0.0, 1.0, 0.0, 0.0)">
      <use height="20.15" transform="matrix(1.0, 0.0, 0.0, 1.0, 0.0, 0.0)" width="28.2" xlink:href="#shape3"/>
    </g>
    <g id="shape3" transform="matrix(1.0, 0.0, 0.0, 1.0, 0.0, 0.0)">
      <path d="M27.65 18.45 L27.4 18.95 Q26.2 20.8 23.4 19.8 19.6 18.5 17.35 14.05 14.8 9.1 9.75 7.4 4.1 5.65 0.0 10.3 1.0 6.85 3.7 4.15 7.2 0.65 11.9 0.05 L14.8 0.05 18.4 0.65 Q21.55 1.65 24.05 4.15 28.2 8.3 28.2 14.25 28.2 16.45 27.65 18.45" fill="#ffffff" fill-opacity="0.19607843" fill-rule="evenodd" stroke="none"/>
    </g>
    <g id="shape4" transform="matrix(1.0, 0.0, 0.0, 1.0, -1.8, -4.1)">
      <path d="M16.3 40.5 Q12.85 39.5 9.6 37.85 10.9 34.6 13.25 34.05 14.0 37.7 16.3 40.5 M30.3 34.05 Q32.65 34.6 33.95 37.9 30.75 39.6 27.4 40.5 29.0 38.45 29.85 35.85 L30.3 34.05" fill="url(#gradient3)" fill-rule="evenodd" stroke="none"/>
      <path d="M13.25 34.05 Q14.75 37.1 17.95 38.5 L16.3 40.5 Q14.0 37.7 13.25 34.05 M27.4 40.5 L25.6 38.5 Q28.8 37.1 30.3 34.05 L29.85 35.85 Q29.0 38.45 27.4 40.5" fill="#6d4a34" fill-rule="evenodd" stroke="none"/>
      <path d="M31.1 5.85 L30.5 4.1 Q33.95 5.85 36.8 8.8 L36.85 8.9 Q36.05 12.95 32.25 14.2 32.3 10.95 31.55 7.45 L31.1 5.85 M13.2 5.3 Q11.65 9.9 11.8 14.2 8.0 12.95 7.2 9.0 L7.4 8.8 Q10.2 5.9 13.5 4.3 L13.2 5.3" fill="url(#gradient4)" fill-rule="evenodd" stroke="none"/>
      <path d="M32.25 14.2 Q31.75 9.8 29.15 7.05 L30.85 5.3 31.1 5.85 31.55 7.45 Q32.3 10.95 32.25 14.2 M11.8 14.2 Q11.65 9.9 13.2 5.3 L14.95 7.05 Q12.35 9.8 11.8 14.2" fill="#492d20" fill-rule="evenodd" stroke="none"/>
      <path d="M1.9 33.5 L1.9 36.2 Q1.9 37.2 2.45 37.85 3.0 38.45 3.85 38.45 4.65 38.45 5.3 37.85 5.85 37.2 5.85 36.2 L5.85 34.95 M42.25 33.5 L42.25 36.2 Q42.25 37.2 41.65 37.85 41.15 38.45 40.3 38.45 39.45 38.45 38.85 37.85 38.25 37.2 38.25 36.2 L38.25 34.95" fill="none" stroke="#6a402d" stroke-linecap="round" stroke-linejoin="round" stroke-width="0.25"/>
      <path d="M4.6 5.45 Q4.9 5.6 5.05 6.2 5.4 7.05 5.4 8.3 5.4 9.5 5.05 10.35 L4.6 11.1 4.05 10.35 Q3.8 9.5 3.8 8.3 3.8 7.05 4.05 6.2 L4.6 5.45 M39.45 11.1 L39.0 10.35 Q38.65 9.5 38.65 8.3 38.65 7.05 39.0 6.2 L39.45 5.45 40.0 6.2 40.3 8.3 40.0 10.35 39.45 11.1" fill="#331d16" fill-rule="evenodd" stroke="none"/>
      <path d="M4.6 5.45 L4.05 6.2 Q3.8 7.05 3.8 8.3 3.8 9.5 4.05 10.35 L4.6 11.1 4.25 11.25 Q3.75 11.25 3.4 10.35 3.1 9.5 3.1 8.3 3.1 7.05 3.4 6.2 3.75 5.35 4.25 5.35 L4.6 5.45 M39.45 5.45 L39.8 5.35 Q40.35 5.35 40.7 6.2 L40.95 8.3 40.7 10.35 Q40.35 11.25 39.8 11.25 L39.45 11.1 40.0 10.35 40.3 8.3 40.0 6.2 39.45 5.45" fill="#1a0d09" fill-rule="evenodd" stroke="none"/>
      <path d="M4.6 11.1 L5.05 10.35 Q5.4 9.5 5.4 8.3 5.4 7.05 5.05 6.2 4.9 5.6 4.6 5.45 M4.6 11.1 L4.25 11.25 Q3.75 11.25 3.4 10.35 3.1 9.5 3.1 8.3 3.1 7.05 3.4 6.2 3.75 5.35 4.25 5.35 L4.6 5.45 M39.45 5.45 L39.8 5.35 Q40.35 5.35 40.7 6.2 L40.95 8.3 40.7 10.35 Q40.35 11.25 39.8 11.25 L39.45 11.1 39.0 10.35 Q38.65 9.5 38.65 8.3 38.65 7.05 39.0 6.2 L39.45 5.45" fill="none" stroke="#6a402d" stroke-linecap="round" stroke-linejoin="round" stroke-width="0.05"/>
      <path d="M31.95 43.95 L12.15 43.95 14.55 43.2 22.05 42.65 29.55 43.2 31.95 43.95" fill="#6c432e" fill-rule="evenodd" stroke="none"/>
    </g>
    <linearGradient gradientTransform="matrix(0.0, -0.0275, -0.044, 0.0, 20.95, 22.2)" gradientUnits="userSpaceOnUse" id="gradient3" spreadMethod="pad" x1="-819.2" x2="819.2">
      <stop offset="0.0196078431372549" stop-color="#905a3d"/>
      <stop offset="0.9764705882352941" stop-color="#6a412d"/>
    </linearGradient>
    <linearGradient gradientTransform="matrix(0.0, -0.0275, -0.044, 0.0, 20.95, 22.2)" gradientUnits="userSpaceOnUse" id="gradient4" spreadMethod="pad" x1="-819.2" x2="819.2">
      <stop offset="0.0196078431372549" stop-color="#905a3d"/>
      <stop offset="0.9764705882352941" stop-color="#6a412d"/>
    </linearGradient>
  </defs>
</svg>
