<?xml version="1.0" encoding="UTF-8" standalone="no"?>
<svg xmlns:xlink="http://www.w3.org/1999/xlink" height="44.0px" width="44.0px" xmlns="http://www.w3.org/2000/svg">
  <g transform="matrix(1.0, 0.0, 0.0, 1.0, 0.0, 0.0)">
    <use height="44.0" transform="matrix(1.0, 0.0, 0.0, 1.0, 0.0, 0.0)" width="44.0" xlink:href="#shape0"/>
    <use height="0.0" transform="matrix(1.2125, 0.0, 0.0, 1.2125, 1.1, 0.9)" width="0.0" xlink:href="#sprite0"/>
    <use height="20.15" transform="matrix(1.1594, 0.0, 0.0, 1.1605, 5.75, 5.35)" width="28.2" xlink:href="#sprite1"/>
    <use height="8.6" transform="matrix(1.2077, 0.0, 0.0, 1.2066, 0.9585, 0.55)" width="35.05" xlink:href="#sprite2"/>
  </g>
  <defs>
    <g id="shape0" transform="matrix(1.0, 0.0, 0.0, 1.0, 0.0, 0.0)">
      <path d="M41.8 2.25 Q44.0 4.45 44.0 7.6 L44.0 36.4 Q44.0 39.6 41.8 41.8 39.6 44.0 36.4 44.0 L7.6 44.0 Q4.45 44.0 2.25 41.8 0.0 39.6 0.0 36.4 L0.0 7.6 Q0.0 4.45 2.25 2.25 4.45 0.0 7.6 0.0 L36.4 0.0 Q39.55 0.0 41.8 2.25" fill="url(#gradient0)" fill-rule="evenodd" stroke="none"/>
      <path d="M9.15 9.4 Q14.45 4.15 21.8 4.15 29.2 4.15 34.4 9.4 39.6 14.65 39.6 22.0 39.6 29.4 34.4 34.7 29.2 39.9 21.8 39.9 14.35 39.9 9.15 34.7 3.95 29.4 3.95 22.0 3.95 14.65 9.15 9.4" fill="url(#gradient1)" fill-rule="evenodd" stroke="none"/>
      <path d="M19.65 23.25 L19.65 23.5 Q19.65 25.4 21.6 25.1 L24.35 25.3 Q27.2 26.25 27.1 28.2 L27.1 28.5 27.1 28.7 27.1 28.75 27.05 28.9 25.65 30.25 Q24.1 30.9 22.65 30.55 L22.4 30.45 16.55 30.6 Q15.55 29.55 16.35 28.5 17.1 27.3 19.25 27.85 L20.55 28.05 22.95 28.25 Q20.85 28.15 19.45 27.0 17.25 25.3 19.65 23.25 M29.15 5.15 L29.15 8.75 32.45 15.9 Q33.25 18.3 31.6 19.5 31.45 20.4 27.6 19.5 L25.75 18.5 21.85 19.5 12.2 19.5 Q9.0 18.75 9.75 16.85 L12.05 16.05 14.2 16.85 19.7 14.4 21.65 10.55 Q20.2 5.55 18.25 4.05 23.9 2.95 29.15 5.15 M14.4 35.65 Q13.25 33.7 14.5 32.65 L16.0 31.55 Q17.1 30.95 18.55 30.85 L19.75 30.85 22.25 31.25 22.2 31.25 24.7 31.4 25.4 31.25 Q26.35 30.85 27.1 29.9 L27.5 29.45 Q30.8 31.5 28.2 34.3 22.9 36.65 17.15 34.3 15.65 33.55 14.4 35.65" fill="#4a3355" fill-rule="evenodd" stroke="none"/>
      <path d="M21.85 41.1 Q13.9 41.1 8.4 35.45 2.85 29.9 2.85 22.05 2.85 14.1 8.4 8.6 13.9 3.0 21.85 3.0 29.75 3.0 35.25 8.6 40.85 14.1 40.85 22.05 40.85 29.9 35.25 35.45 29.75 41.1 21.85 41.1 M21.85 5.4 Q14.95 5.45 10.1 10.35 5.2 15.15 5.15 22.05 5.2 29.0 10.1 33.85 14.95 38.75 21.85 38.75 28.75 38.75 33.7 33.85 38.5 29.0 38.5 22.05 38.5 15.15 33.7 10.35 28.75 5.45 21.85 5.4" fill="url(#gradient2)" fill-rule="evenodd" stroke="none"/>
      <path d="M0.95 36.15 L0.9 35.75 Q0.9 34.75 1.6 34.05 2.35 33.35 3.3 33.35 4.25 33.35 4.95 34.05 5.65 34.75 5.65 35.75 L5.65 36.05 Q3.15 33.2 0.95 36.15" fill="#494136" fill-rule="evenodd" stroke="none"/>
      <path d="M5.65 36.05 Q5.55 36.8 4.95 37.4 4.25 38.1 3.3 38.1 2.35 38.1 1.6 37.4 1.05 36.8 0.95 36.15 3.15 33.2 5.65 36.05" fill="#625748" fill-rule="evenodd" stroke="none"/>
      <path d="M6.0 38.0 L5.95 37.75 Q5.95 37.15 6.4 36.7 6.8 36.3 7.4 36.3 8.0 36.3 8.4 36.7 8.85 37.15 8.85 37.75 L8.85 37.95 6.0 38.0" fill="#494136" fill-rule="evenodd" stroke="none"/>
      <path d="M8.85 37.95 L8.4 38.75 Q8.0 39.15 7.4 39.15 6.8 39.15 6.4 38.75 L6.0 38.0 8.85 37.95" fill="#625748" fill-rule="evenodd" stroke="none"/>
      <path d="M3.0 40.9 L2.95 40.65 Q2.95 40.05 3.4 39.6 3.8 39.2 4.4 39.2 5.0 39.2 5.4 39.6 5.85 40.05 5.85 40.65 L5.85 40.85 3.0 40.9" fill="#494136" fill-rule="evenodd" stroke="none"/>
      <path d="M5.85 40.85 L5.4 41.65 Q5.0 42.05 4.4 42.05 3.8 42.05 3.4 41.65 3.05 41.3 3.0 40.9 L5.85 40.85" fill="#625748" fill-rule="evenodd" stroke="none"/>
      <path d="M7.7 41.55 L7.7 41.4 Q7.7 40.95 8.0 40.6 8.35 40.3 8.8 40.3 9.2 40.3 9.55 40.6 L9.9 41.4 9.9 41.55 Q8.7 40.2 7.7 41.55" fill="#494136" fill-rule="evenodd" stroke="none"/>
      <path d="M9.9 41.55 L9.55 42.15 Q9.2 42.5 8.8 42.5 8.35 42.5 8.0 42.15 L7.7 41.55 Q8.7 40.2 9.9 41.55" fill="#625748" fill-rule="evenodd" stroke="none"/>
      <path d="M42.35 36.15 L42.4 35.75 Q42.4 34.75 41.7 34.05 40.95 33.35 40.0 33.35 39.05 33.35 38.35 34.05 37.65 34.75 37.65 35.75 L37.65 36.05 Q40.15 33.2 42.35 36.15" fill="#494136" fill-rule="evenodd" stroke="none"/>
      <path d="M37.65 36.05 Q37.75 36.8 38.35 37.4 39.05 38.1 40.0 38.1 40.95 38.1 41.7 37.4 L42.35 36.15 Q40.15 33.2 37.65 36.05" fill="#625748" fill-rule="evenodd" stroke="none"/>
      <path d="M37.3 38.0 L37.35 37.75 Q37.35 37.15 36.9 36.7 36.5 36.3 35.9 36.3 35.3 36.3 34.9 36.7 34.45 37.15 34.45 37.75 L34.45 37.95 37.3 38.0" fill="#494136" fill-rule="evenodd" stroke="none"/>
      <path d="M34.45 37.95 L34.9 38.75 Q35.3 39.15 35.9 39.15 36.5 39.15 36.9 38.75 L37.3 38.0 34.45 37.95" fill="#625748" fill-rule="evenodd" stroke="none"/>
      <path d="M40.3 40.9 L40.35 40.65 Q40.35 40.05 39.9 39.6 39.5 39.2 38.9 39.2 38.3 39.2 37.9 39.6 37.45 40.05 37.45 40.65 L37.45 40.85 40.3 40.9" fill="#494136" fill-rule="evenodd" stroke="none"/>
      <path d="M37.45 40.85 L37.9 41.65 Q38.3 42.05 38.9 42.05 39.5 42.05 39.9 41.65 L40.3 40.9 37.45 40.85" fill="#625748" fill-rule="evenodd" stroke="none"/>
      <path d="M35.6 41.55 L35.6 41.4 35.3 40.6 Q34.95 40.3 34.5 40.3 34.1 40.3 33.75 40.6 33.4 40.95 33.4 41.4 L33.4 41.55 Q34.6 40.2 35.6 41.55" fill="#494136" fill-rule="evenodd" stroke="none"/>
      <path d="M33.4 41.55 L33.75 42.15 Q34.1 42.5 34.5 42.5 34.95 42.5 35.3 42.15 L35.6 41.55 Q34.6 40.2 33.4 41.55" fill="#625748" fill-rule="evenodd" stroke="none"/>
    </g>
    <linearGradient gradientTransform="matrix(0.0, -0.0551, -0.0551, 0.0, 22.05, 18.45)" gradientUnits="userSpaceOnUse" id="gradient0" spreadMethod="pad" x1="-819.2" x2="819.2">
      <stop offset="0.011764705882352941" stop-color="#bcb0a0"/>
      <stop offset="1.0" stop-color="#453e3a"/>
    </linearGradient>
    <linearGradient gradientTransform="matrix(0.0, -0.0167, -0.0167, 0.0, 21.8, 18.65)" gradientUnits="userSpaceOnUse" id="gradient1" spreadMethod="pad" x1="-819.2" x2="819.2">
      <stop offset="0.011764705882352941" stop-color="#bcb9ae"/>
      <stop offset="1.0" stop-color="#9b5b79"/>
    </linearGradient>
    <linearGradient gradientTransform="matrix(1.0E-4, 0.0223, -0.0232, 1.0E-4, 21.9, 22.35)" gradientUnits="userSpaceOnUse" id="gradient2" spreadMethod="pad" x1="-819.2" x2="819.2">
      <stop offset="0.011764705882352941" stop-color="#494136"/>
      <stop offset="1.0" stop-color="#dbccbd"/>
    </linearGradient>
    <g id="sprite1" transform="matrix(1.0, 0.0, 0.0, 1.0, 0.0, 0.0)">
      <use height="20.15" transform="matrix(1.0, 0.0, 0.0, 1.0, 0.0, 0.0)" width="28.2" xlink:href="#shape1"/>
    </g>
    <g id="shape1" transform="matrix(1.0, 0.0, 0.0, 1.0, 0.0, 0.0)">
      <path d="M27.65 18.45 L27.4 18.95 Q26.2 20.8 23.4 19.8 19.6 18.5 17.35 14.05 14.8 9.1 9.75 7.4 4.1 5.65 0.0 10.3 1.0 6.85 3.7 4.15 7.2 0.65 11.9 0.05 L14.8 0.05 18.4 0.65 Q21.55 1.65 24.05 4.15 28.2 8.3 28.2 14.25 28.2 16.45 27.65 18.45" fill="#ffffff" fill-opacity="0.19607843" fill-rule="evenodd" stroke="none"/>
    </g>
    <g id="sprite2" transform="matrix(1.0, 0.0, 0.0, 1.0, 0.2, 0.0)">
      <use height="8.6" transform="matrix(1.0, 0.0, 0.0, 1.0, -0.2, 0.0)" width="35.05" xlink:href="#shape2"/>
    </g>
    <g id="shape2" transform="matrix(1.0, 0.0, 0.0, 1.0, 0.2, 0.0)">
      <path d="M34.4 4.4 Q34.85 5.8 34.85 7.65 L34.85 8.6 Q34.8 6.95 34.4 5.7 33.0 1.3 27.2 1.3 L7.45 1.3 Q0.05 1.3 -0.2 8.5 L-0.2 7.65 Q-0.2 0.0 7.45 0.0 L27.2 0.0 Q33.0 0.0 34.4 4.4" fill="#e7deda" fill-rule="evenodd" stroke="none"/>
    </g>
  </defs>
</svg>
