<svg id="svg" version="1.1" xmlns="http://www.w3.org/2000/svg" xmlns:xlink="http://www.w3.org/1999/xlink" width="400" height="223.74821173104434" viewBox="0, 0, 400,223.74821173104434"><g id="svgg"><path id="path0" d="M0.000 111.919 L 0.000 223.839 200.000 223.839 L 400.000 223.839 400.000 111.919 L 400.000 0.000 200.000 0.000 L 0.000 0.000 0.000 111.919 M398.825 112.199 L 398.881 222.720 200.000 222.720 L 1.119 222.720 1.119 112.292 C 1.119 51.558,1.186 1.798,1.269 1.716 C 1.351 1.634,90.822 1.592,200.093 1.623 L 398.769 1.679 398.825 112.199 " stroke="none" fill="#ec1c24" fill-rule="evenodd"></path><path id="path1" d="M1.343 112.143 L 1.343 222.496 200.000 222.496 L 398.657 222.496 398.657 112.143 L 398.657 1.791 200.000 1.791 L 1.343 1.791 1.343 112.143 M96.989 83.859 C 97.838 84.294,98.033 84.549,98.038 85.234 C 98.043 85.989,97.568 86.041,96.457 85.406 C 95.221 84.700,94.898 84.697,94.157 85.384 C 92.994 86.462,93.570 87.376,96.208 88.635 C 98.612 89.784,99.403 91.647,98.273 93.500 C 96.979 95.622,91.932 95.723,91.408 93.637 C 91.163 92.662,91.634 92.528,92.985 93.190 C 94.616 93.988,95.757 93.858,96.527 92.786 C 97.131 91.946,96.000 89.983,94.912 89.983 C 93.699 89.983,91.550 87.692,91.550 86.398 C 91.550 84.261,94.807 82.741,96.989 83.859 M107.502 83.939 C 108.476 84.370,108.786 84.727,108.786 85.420 C 108.786 86.013,108.146 86.002,106.840 85.384 C 104.161 84.116,102.406 85.701,102.406 89.388 C 102.406 93.311,104.641 94.840,107.629 92.963 C 108.344 92.514,108.833 92.745,108.745 93.491 C 108.474 95.779,102.640 95.604,101.105 93.262 C 97.868 88.321,102.417 81.690,107.502 83.939 M116.190 83.949 C 118.367 85.059,118.538 87.890,116.508 89.220 L 115.927 89.601 116.486 90.184 C 116.793 90.504,117.210 91.170,117.413 91.662 C 117.616 92.154,117.921 92.860,118.092 93.229 C 118.700 94.546,118.615 95.011,117.753 95.093 C 116.967 95.168,116.189 94.540,116.177 93.822 C 116.173 93.545,115.827 92.669,115.212 91.375 C 114.892 90.702,113.626 89.932,112.986 90.023 C 112.502 90.092,112.474 90.208,112.367 92.557 L 112.255 95.020 111.472 95.020 L 110.688 95.020 110.628 89.439 C 110.582 85.124,110.633 83.818,110.852 83.679 C 111.481 83.279,115.252 83.470,116.190 83.949 M126.799 83.854 C 127.477 84.532,127.068 84.719,124.660 84.835 L 122.328 84.947 122.328 86.738 L 122.328 88.528 123.895 88.585 C 126.008 88.662,126.469 88.789,126.469 89.292 C 126.469 89.867,126.050 89.983,123.979 89.983 L 122.198 89.983 122.263 91.830 L 122.328 93.677 124.676 93.788 C 127.053 93.902,127.854 94.318,126.883 94.933 C 126.399 95.240,120.785 95.178,120.470 94.863 C 120.276 94.669,120.201 93.122,120.201 89.312 C 120.201 85.501,120.276 83.954,120.470 83.760 C 120.915 83.315,126.340 83.395,126.799 83.854 M135.836 83.690 C 136.788 84.293,136.005 84.722,133.741 84.835 L 131.505 84.947 131.505 86.738 L 131.505 88.528 133.385 88.640 C 136.699 88.838,136.569 89.974,133.231 89.980 L 131.375 89.983 131.440 91.830 L 131.505 93.677 133.810 93.740 C 136.216 93.807,136.720 94.041,136.092 94.799 C 135.806 95.142,130.540 95.305,129.733 94.996 C 129.272 94.819,129.191 84.217,129.647 83.760 C 129.962 83.446,135.354 83.384,135.836 83.690 M141.167 83.996 C 141.562 84.437,143.368 87.490,143.781 88.416 C 143.864 88.601,144.186 89.155,144.497 89.647 C 144.808 90.140,145.203 90.845,145.374 91.214 C 145.843 92.225,145.932 91.680,145.997 87.409 L 146.055 83.604 146.838 83.604 L 147.622 83.604 147.682 89.184 C 147.747 95.297,147.786 95.122,146.387 95.128 C 145.679 95.131,144.152 93.539,144.152 92.799 C 144.152 92.732,143.749 92.019,143.257 91.214 C 142.764 90.410,142.361 89.720,142.361 89.682 C 142.361 89.643,141.910 88.820,141.359 87.853 L 140.357 86.094 140.296 90.557 L 140.235 95.020 139.452 95.020 L 138.668 95.020 138.608 89.439 C 138.562 85.124,138.613 83.818,138.832 83.679 C 139.422 83.304,140.704 83.478,141.167 83.996 M156.351 89.312 L 156.351 95.020 155.456 95.020 L 154.561 95.020 154.501 89.563 C 154.435 83.599,154.470 83.420,155.661 83.536 L 156.351 83.604 156.351 89.312 M161.760 83.996 C 162.160 84.442,162.776 85.476,164.796 89.088 C 166.594 92.304,166.513 92.372,166.587 87.577 L 166.648 83.604 167.431 83.604 L 168.215 83.604 168.275 89.184 C 168.321 93.499,168.270 94.805,168.051 94.945 C 167.605 95.227,166.151 95.162,165.998 94.852 C 165.922 94.698,165.665 94.270,165.427 93.900 C 165.189 93.531,164.854 92.977,164.681 92.669 C 164.509 92.361,164.144 91.707,163.870 91.214 C 163.595 90.722,163.077 89.815,162.717 89.200 C 162.358 88.584,161.836 87.637,161.558 87.095 L 161.052 86.110 160.940 90.565 L 160.828 95.020 160.045 95.020 L 159.261 95.020 159.201 89.563 C 159.159 85.726,159.217 84.016,159.397 83.799 C 159.814 83.297,161.241 83.415,161.760 83.996 M178.621 83.825 C 179.188 84.508,178.726 84.812,177.011 84.881 L 175.378 84.947 175.266 89.983 L 175.154 95.020 174.259 95.020 L 173.363 95.020 173.303 89.927 L 173.243 84.835 171.568 84.835 C 169.912 84.835,169.316 84.368,170.043 83.641 C 170.378 83.306,178.332 83.476,178.621 83.825 M186.903 83.825 C 187.532 84.582,187.027 84.816,184.621 84.883 L 182.317 84.947 182.317 86.738 L 182.317 88.528 184.331 88.640 C 186.301 88.750,186.346 88.765,186.346 89.312 C 186.346 89.864,186.318 89.872,184.266 89.936 L 182.187 90.000 182.252 91.838 L 182.317 93.677 184.667 93.788 C 186.995 93.899,187.017 93.906,187.017 94.460 L 187.017 95.020 183.885 95.082 C 181.136 95.137,180.719 95.098,180.472 94.760 C 180.012 94.130,180.075 84.311,180.542 83.844 C 181.044 83.342,186.489 83.326,186.903 83.825 M195.162 83.927 C 197.243 84.988,197.541 87.561,195.748 88.991 L 194.990 89.595 195.617 90.405 C 196.237 91.206,197.352 93.708,197.474 94.572 C 197.528 94.952,197.410 95.020,196.684 95.020 C 195.763 95.020,195.584 94.823,194.846 93.005 C 194.110 91.192,193.783 90.692,193.085 90.316 C 191.684 89.562,191.508 89.793,191.382 92.560 L 191.270 95.020 190.375 95.020 L 189.480 95.020 189.420 89.696 C 189.381 86.280,189.444 84.215,189.595 83.932 C 189.941 83.286,193.899 83.282,195.162 83.927 M205.596 84.163 C 205.596 84.716,205.571 84.724,203.477 84.788 C 201.034 84.863,201.014 84.878,201.014 86.738 C 201.014 88.585,201.045 88.611,203.365 88.687 C 205.339 88.751,205.372 88.761,205.372 89.312 C 205.372 89.861,205.335 89.873,203.246 89.983 L 201.119 90.095 201.007 92.557 L 200.895 95.020 200.112 95.020 L 199.328 95.020 199.269 89.439 C 199.198 82.865,198.845 83.474,202.686 83.548 L 205.596 83.604 205.596 84.163 M212.817 83.772 C 212.941 83.926,213.296 84.757,213.605 85.618 C 213.915 86.480,214.272 87.437,214.399 87.745 C 214.526 88.053,214.896 89.060,215.221 89.983 C 215.546 90.907,216.068 92.291,216.381 93.059 C 217.058 94.725,216.969 95.132,215.927 95.132 C 215.081 95.132,214.797 94.881,214.570 93.933 C 214.205 92.406,213.902 92.222,211.760 92.222 C 209.537 92.222,209.274 92.376,208.860 93.933 C 208.606 94.886,208.303 95.132,207.382 95.132 C 206.558 95.132,206.524 94.792,207.173 93.054 C 207.505 92.166,207.981 90.884,208.230 90.207 C 208.479 89.530,208.810 88.674,208.964 88.304 C 209.118 87.935,209.426 87.079,209.648 86.402 C 209.870 85.725,210.132 85.075,210.230 84.958 C 210.328 84.841,210.409 84.584,210.409 84.387 C 210.409 83.564,212.268 83.089,212.817 83.772 M225.203 83.860 C 226.264 84.373,226.749 84.833,226.749 85.324 C 226.749 85.972,226.171 86.048,225.094 85.541 C 222.525 84.334,220.937 85.109,220.273 87.896 C 219.282 92.054,222.650 95.346,225.445 92.951 C 226.236 92.274,227.166 93.128,226.505 93.925 C 224.419 96.437,219.313 95.072,218.315 91.734 C 216.793 86.645,221.005 81.830,225.203 83.860 M235.028 83.825 C 235.657 84.582,235.153 84.816,232.747 84.883 L 230.442 84.947 230.442 86.738 L 230.442 88.528 232.009 88.585 C 234.260 88.667,234.626 88.781,234.542 89.376 C 234.475 89.841,234.345 89.875,232.392 89.936 L 230.312 90.000 230.377 91.838 L 230.442 93.677 232.792 93.788 C 235.120 93.899,235.143 93.906,235.143 94.460 L 235.143 95.020 232.011 95.082 C 229.261 95.137,228.845 95.098,228.597 94.760 C 228.239 94.269,228.194 84.585,228.547 83.925 C 228.858 83.345,234.557 83.257,235.028 83.825 M247.230 83.917 C 249.082 84.998,249.469 87.929,247.877 88.820 C 247.576 88.988,247.642 89.099,248.286 89.497 C 250.357 90.777,249.988 93.556,247.587 94.752 C 246.818 95.135,242.698 95.311,241.876 94.996 C 241.415 94.819,241.335 84.217,241.791 83.760 C 242.235 83.316,246.406 83.436,247.230 83.917 M257.964 83.699 C 258.034 83.812,258.388 83.970,258.751 84.050 C 262.391 84.849,262.213 92.776,258.513 94.615 C 253.373 97.169,249.094 92.236,251.293 86.290 C 251.937 84.548,253.705 83.528,256.114 83.507 C 257.061 83.499,257.893 83.585,257.964 83.699 M270.733 84.163 C 270.733 84.703,270.674 84.725,269.114 84.789 L 267.496 84.854 267.436 89.937 L 267.375 95.020 266.480 95.020 L 265.585 95.020 265.473 89.983 L 265.361 84.947 263.738 84.881 L 262.115 84.815 262.115 84.149 L 262.115 83.482 266.424 83.543 L 270.733 83.604 270.733 84.163 M112.461 85.137 C 112.397 85.303,112.375 86.134,112.412 86.984 L 112.479 88.528 113.610 88.594 C 116.002 88.734,116.895 86.239,114.834 85.173 C 114.016 84.750,112.618 84.729,112.461 85.137 M191.531 84.984 C 191.449 85.066,191.382 85.922,191.382 86.887 L 191.382 88.640 192.593 88.640 C 195.047 88.640,195.810 86.168,193.691 85.085 C 193.156 84.811,191.769 84.747,191.531 84.984 M243.686 84.984 C 243.604 85.066,243.537 85.922,243.537 86.887 L 243.537 88.640 244.552 88.640 C 246.280 88.640,247.116 87.695,246.771 86.128 C 246.568 85.203,244.306 84.364,243.686 84.984 M254.691 85.289 C 251.991 86.715,252.023 92.344,254.737 93.430 C 255.757 93.838,256.355 93.880,256.914 93.581 C 257.128 93.467,257.474 93.321,257.684 93.256 C 259.134 92.811,259.890 88.398,258.828 86.580 C 257.940 85.061,256.169 84.508,254.691 85.289 M211.296 86.982 C 211.164 87.328,210.847 88.271,210.590 89.077 C 210.334 89.883,210.081 90.618,210.029 90.711 C 209.977 90.803,210.696 90.879,211.626 90.879 C 213.591 90.879,213.602 90.860,212.759 88.954 C 212.451 88.259,212.199 87.513,212.199 87.297 C 212.199 86.510,211.560 86.288,211.296 86.982 M243.584 91.830 L 243.649 93.677 244.776 93.743 C 247.098 93.878,248.439 91.930,246.965 90.563 C 246.429 90.067,246.136 89.983,244.929 89.983 L 243.519 89.983 243.584 91.830 " stroke="none" fill="#fcfbfb" fill-rule="evenodd"></path><path id="path2" d="M93.742 84.083 C 91.301 85.370,91.834 88.153,94.790 89.549 C 97.938 91.037,98.341 92.737,95.797 93.791 C 95.024 94.111,92.998 93.629,92.623 93.036 C 92.507 92.853,92.390 92.859,92.192 93.057 C 91.804 93.445,92.298 94.460,92.875 94.460 C 93.117 94.460,93.377 94.561,93.453 94.684 C 93.851 95.329,97.024 94.837,97.861 94.001 C 99.647 92.215,98.884 89.973,96.044 88.664 C 93.655 87.562,93.018 86.480,94.114 85.384 C 94.683 84.815,96.356 84.598,96.821 85.034 C 97.349 85.526,98.041 85.547,98.041 85.071 C 98.041 83.946,95.228 83.299,93.742 84.083 M104.197 83.940 C 104.121 84.063,103.875 84.163,103.651 84.163 C 100.923 84.163,99.781 91.235,102.128 93.587 C 103.865 95.327,108.271 95.359,108.704 93.634 C 108.897 92.866,108.762 92.835,107.649 93.388 C 104.643 94.882,102.406 93.239,102.406 89.536 C 102.406 85.539,104.749 83.670,107.689 85.322 C 108.657 85.866,108.904 85.785,108.704 84.989 C 108.469 84.050,104.674 83.167,104.197 83.940 M111.160 84.070 C 111.085 84.265,111.024 86.783,111.024 89.666 L 111.024 94.908 111.688 94.908 L 112.352 94.908 112.415 92.501 L 112.479 90.095 113.449 90.025 C 114.053 89.982,114.618 90.086,114.948 90.303 C 115.432 90.620,115.642 90.984,116.509 93.005 C 117.289 94.824,117.355 94.908,118.005 94.908 C 118.755 94.908,118.724 94.521,117.822 92.653 C 117.530 92.048,117.292 91.455,117.292 91.335 C 117.292 91.216,116.985 90.768,116.610 90.341 L 115.928 89.564 116.631 89.046 C 118.534 87.646,118.333 84.922,116.264 84.057 C 115.092 83.568,111.349 83.577,111.160 84.070 M120.873 89.318 L 120.873 94.920 123.948 94.858 C 126.670 94.803,127.032 94.751,127.098 94.404 C 127.165 94.053,126.952 94.012,125.049 94.012 C 122.109 94.012,122.216 94.092,122.216 91.886 C 122.216 89.705,122.153 89.759,124.697 89.759 C 126.320 89.759,126.469 89.722,126.469 89.312 C 126.469 88.902,126.320 88.864,124.697 88.864 C 122.150 88.864,122.216 88.921,122.216 86.714 L 122.216 84.835 124.410 84.835 C 126.612 84.835,127.224 84.642,126.987 84.024 C 126.895 83.783,126.211 83.716,123.871 83.716 L 120.873 83.716 120.873 89.318 M130.050 89.318 L 130.050 94.920 133.128 94.858 C 135.687 94.806,136.206 94.739,136.206 94.460 C 136.206 94.192,135.820 94.113,134.303 94.068 C 131.239 93.978,131.393 94.093,131.393 91.906 C 131.393 89.701,131.326 89.759,133.890 89.759 C 136.405 89.759,136.472 89.010,133.965 88.919 C 131.275 88.821,131.393 88.922,131.393 86.741 L 131.393 84.851 133.688 84.787 C 135.874 84.726,135.985 84.699,136.054 84.219 C 136.125 83.718,136.110 83.716,133.088 83.716 L 130.050 83.716 130.050 89.318 M139.228 89.312 L 139.228 94.908 139.787 94.908 L 140.347 94.908 140.347 90.317 C 140.347 85.774,140.352 85.729,140.797 86.008 C 141.045 86.162,141.311 86.490,141.388 86.737 C 141.465 86.984,141.867 87.716,142.281 88.365 C 142.694 89.013,143.033 89.600,143.033 89.669 C 143.033 89.921,145.747 94.428,146.050 94.680 C 146.223 94.823,146.647 94.908,146.993 94.868 L 147.622 94.796 147.682 89.256 L 147.741 83.716 147.178 83.716 L 146.614 83.716 146.599 87.801 C 146.578 93.083,146.439 93.444,145.324 91.102 C 145.178 90.795,144.804 90.140,144.495 89.647 C 144.185 89.155,143.864 88.601,143.781 88.416 C 143.447 87.669,141.594 84.473,141.283 84.107 C 141.072 83.860,140.632 83.716,140.088 83.716 L 139.228 83.716 139.228 89.312 M155.120 89.312 L 155.120 94.908 155.792 94.908 L 156.463 94.908 156.463 89.312 L 156.463 83.716 155.792 83.716 L 155.120 83.716 155.120 89.312 M159.821 89.312 L 159.821 94.908 160.381 94.908 L 160.940 94.908 160.940 90.317 C 160.940 85.774,160.945 85.729,161.390 86.008 C 161.638 86.162,161.904 86.490,161.983 86.737 C 162.061 86.984,162.364 87.564,162.656 88.027 C 162.948 88.490,163.550 89.548,163.994 90.377 C 164.437 91.207,164.919 92.037,165.064 92.222 C 165.209 92.406,165.524 92.941,165.764 93.411 C 166.360 94.577,166.830 94.954,167.580 94.868 L 168.215 94.796 168.275 89.256 L 168.335 83.716 167.771 83.716 L 167.208 83.716 167.204 87.913 C 167.200 92.814,167.087 93.202,166.157 91.516 C 165.503 90.332,165.193 89.780,163.221 86.290 C 161.856 83.873,161.701 83.716,160.682 83.716 L 159.821 83.716 159.821 89.312 M170.606 84.219 C 170.671 84.682,170.811 84.728,172.300 84.789 L 173.923 84.855 173.923 89.881 L 173.923 94.908 174.594 94.908 L 175.266 94.908 175.266 89.871 L 175.266 84.835 176.777 84.831 C 178.437 84.828,178.984 84.620,178.775 84.074 C 178.656 83.764,178.094 83.716,174.586 83.716 L 170.534 83.716 170.606 84.219 M180.965 83.994 C 180.904 84.154,180.880 86.650,180.913 89.540 L 180.974 94.796 184.051 94.858 C 187.015 94.918,187.129 94.903,187.129 94.466 C 187.129 94.044,186.989 94.012,185.100 94.012 C 182.283 94.012,182.205 93.952,182.205 91.790 C 182.205 89.718,182.155 89.759,184.685 89.759 C 186.309 89.759,186.458 89.722,186.458 89.312 C 186.458 88.902,186.309 88.864,184.710 88.864 C 182.317 88.864,182.166 88.726,182.250 86.621 L 182.317 84.947 184.667 84.835 C 186.831 84.732,187.017 84.687,187.017 84.275 C 187.017 83.713,181.177 83.441,180.965 83.994 M190.188 83.865 C 190.106 83.947,190.039 86.465,190.039 89.461 L 190.039 94.908 190.703 94.908 L 191.367 94.908 191.431 92.501 L 191.494 90.095 192.434 90.027 C 193.917 89.919,194.358 90.337,195.499 92.927 C 195.697 93.376,195.859 93.885,195.859 94.057 C 195.859 94.526,196.331 94.908,196.911 94.908 C 197.784 94.908,197.009 92.224,195.610 90.402 L 194.986 89.589 195.844 88.819 C 197.445 87.381,197.222 85.087,195.389 84.152 C 194.532 83.715,190.558 83.495,190.188 83.865 M199.888 89.312 L 199.888 94.908 200.448 94.908 L 201.007 94.908 201.007 92.565 C 201.007 89.761,201.009 89.759,203.679 89.759 C 205.335 89.759,205.484 89.722,205.484 89.312 C 205.484 88.899,205.335 88.864,203.597 88.864 C 201.245 88.864,201.007 88.680,201.007 86.852 C 201.007 84.828,201.000 84.835,203.139 84.835 C 205.293 84.835,205.708 84.722,205.708 84.139 C 205.708 83.745,205.504 83.716,202.798 83.716 L 199.888 83.716 199.888 89.312 M211.014 84.430 C 210.845 84.837,210.529 85.674,210.310 86.290 C 210.092 86.905,209.831 87.611,209.731 87.857 C 209.630 88.103,209.372 88.808,209.158 89.424 C 208.943 90.039,208.684 90.639,208.581 90.755 C 208.478 90.872,208.394 91.137,208.394 91.343 C 208.394 91.549,208.142 92.288,207.834 92.984 C 207.101 94.642,207.115 94.908,207.938 94.908 C 208.525 94.908,208.629 94.802,208.850 93.983 C 209.323 92.224,209.328 92.222,212.086 92.222 L 214.552 92.222 215.073 93.565 C 215.544 94.780,215.655 94.908,216.247 94.908 C 216.957 94.908,217.084 94.550,216.656 93.750 C 216.394 93.262,215.572 91.099,214.884 89.088 C 213.255 84.331,212.997 83.832,212.131 83.759 C 211.399 83.696,211.291 83.761,211.014 84.430 M221.668 84.066 C 217.842 85.741,217.564 92.693,221.251 94.480 C 222.253 94.966,224.447 95.059,225.241 94.649 C 225.516 94.507,225.886 94.324,226.062 94.242 C 226.627 93.982,226.883 93.386,226.567 93.069 C 226.368 92.870,226.235 92.858,226.124 93.027 C 225.097 94.598,221.586 93.902,220.549 91.922 C 218.524 88.056,222.054 83.337,225.518 85.283 C 226.508 85.839,226.749 85.844,226.749 85.310 C 226.749 84.063,223.495 83.266,221.668 84.066 M229.143 83.859 C 229.057 83.944,228.987 86.465,228.987 89.461 L 228.987 94.908 232.121 94.908 C 235.105 94.908,235.255 94.886,235.255 94.460 C 235.255 94.044,235.105 94.012,233.146 94.012 C 230.226 94.012,230.330 94.091,230.330 91.886 C 230.330 89.705,230.267 89.759,232.811 89.759 C 234.434 89.759,234.583 89.722,234.583 89.312 C 234.583 88.902,234.434 88.864,232.811 88.864 C 230.265 88.864,230.330 88.920,230.330 86.721 L 230.330 84.850 232.736 84.787 C 234.972 84.727,235.143 84.691,235.143 84.275 C 235.143 83.818,229.570 83.431,229.143 83.859 M242.194 89.312 L 242.194 94.908 244.546 94.908 C 248.106 94.908,249.580 94.029,249.580 91.907 C 249.580 90.815,249.238 90.176,248.316 89.544 C 247.677 89.107,247.584 88.955,247.835 88.765 C 250.594 86.670,248.583 83.716,244.398 83.716 L 242.194 83.716 242.194 89.312 M254.617 83.940 C 254.541 84.063,254.298 84.163,254.078 84.163 C 253.523 84.163,252.077 85.619,251.902 86.355 C 251.822 86.688,251.656 87.090,251.532 87.247 C 250.737 88.255,251.559 92.658,252.751 93.779 C 253.809 94.774,257.739 95.427,258.198 94.684 C 258.274 94.561,258.524 94.460,258.753 94.460 C 261.235 94.460,262.278 87.490,260.151 85.117 C 259.092 83.936,255.139 83.095,254.617 83.940 M262.640 84.061 C 262.434 84.598,262.702 84.715,264.428 84.835 L 266.032 84.947 266.093 89.942 L 266.153 94.937 266.764 94.866 L 267.375 94.796 267.436 89.815 L 267.496 84.835 268.816 84.835 C 270.425 84.835,270.845 84.691,270.845 84.139 C 270.845 83.550,262.865 83.474,262.640 84.061 M115.876 85.339 C 117.307 86.928,116.215 88.864,113.888 88.864 C 112.550 88.864,112.367 88.608,112.367 86.730 C 112.367 84.797,112.334 84.835,114.044 84.835 C 115.190 84.835,115.499 84.920,115.876 85.339 M194.528 85.065 C 197.023 86.401,194.454 89.771,191.736 88.728 C 191.370 88.588,191.192 85.324,191.531 84.984 C 191.767 84.748,194.052 84.810,194.528 85.065 M246.857 85.247 C 248.315 86.368,247.186 88.864,245.221 88.864 C 243.568 88.864,243.537 88.824,243.537 86.714 L 243.537 84.835 244.936 84.840 C 245.932 84.843,246.485 84.960,246.857 85.247 M258.245 85.275 C 260.724 86.786,260.478 92.192,257.870 93.509 C 254.995 94.960,252.820 93.142,252.834 89.302 C 252.848 85.594,255.515 83.610,258.245 85.275 M212.809 87.310 C 214.290 91.337,214.341 91.102,211.975 91.102 C 209.811 91.102,209.843 91.156,210.641 88.876 C 211.930 85.194,212.009 85.137,212.809 87.310 M247.018 90.116 C 249.880 91.474,246.917 95.038,243.891 93.876 C 243.432 93.701,243.365 90.090,243.816 89.908 C 244.434 89.658,246.311 89.780,247.018 90.116 " stroke="none" fill="#2fb968" fill-rule="evenodd"></path><path id="path3" d="M100.690 1.735 C 155.392 1.766,244.838 1.766,299.459 1.735 C 354.079 1.704,309.323 1.678,200.000 1.678 C 90.677 1.678,45.988 1.704,100.690 1.735 M94.852 83.650 C 95.129 83.703,95.582 83.703,95.859 83.650 C 96.136 83.597,95.909 83.553,95.355 83.553 C 94.801 83.553,94.575 83.597,94.852 83.650 M103.861 83.828 C 103.506 84.031,103.428 84.150,103.649 84.155 C 103.839 84.160,104.091 84.069,104.208 83.953 C 104.325 83.837,104.924 83.704,105.540 83.658 L 106.659 83.573 105.540 83.540 C 104.921 83.522,104.171 83.651,103.861 83.828 M111.047 83.799 C 110.868 84.016,110.810 85.726,110.852 89.563 L 110.912 95.020 111.530 95.047 C 112.097 95.072,112.101 95.066,111.586 94.976 L 111.024 94.878 111.027 89.577 C 111.032 83.282,110.835 83.753,113.494 83.659 L 115.613 83.585 113.458 83.538 C 111.858 83.504,111.237 83.571,111.047 83.799 M122.384 83.658 C 123.153 83.701,124.412 83.701,125.182 83.658 C 125.951 83.614,125.322 83.578,123.783 83.578 C 122.244 83.578,121.614 83.614,122.384 83.658 M129.927 83.776 C 129.867 83.932,129.845 86.526,129.878 89.540 L 129.938 95.020 132.960 95.030 L 135.982 95.041 133.016 94.968 L 130.050 94.895 130.050 89.312 L 130.050 83.729 132.904 83.659 L 135.758 83.589 132.897 83.541 C 130.756 83.504,130.009 83.563,129.927 83.776 M138.998 84.066 C 138.878 84.382,138.780 86.888,138.780 89.635 C 138.780 94.916,138.858 95.317,139.833 95.064 C 140.149 94.982,140.127 94.954,139.731 94.934 L 139.228 94.908 139.228 89.325 L 139.228 83.743 140.067 83.655 L 140.907 83.567 140.062 83.530 C 139.344 83.498,139.184 83.578,138.998 84.066 M146.447 83.640 C 146.238 83.724,146.167 84.740,146.167 87.638 C 146.167 89.994,146.078 91.578,145.942 91.662 C 145.795 91.753,145.808 91.969,145.977 92.286 C 146.442 93.155,146.582 92.151,146.599 87.816 C 146.614 83.780,146.619 83.746,147.118 83.650 C 147.540 83.569,147.549 83.551,147.174 83.540 C 146.928 83.533,146.600 83.578,146.447 83.640 M154.997 83.776 C 154.937 83.932,154.915 86.526,154.948 89.540 L 155.008 95.020 155.627 95.047 C 156.193 95.072,156.198 95.066,155.683 94.976 L 155.120 94.878 155.120 89.312 L 155.120 83.747 155.624 83.650 L 156.128 83.553 155.617 83.522 C 155.336 83.506,155.057 83.620,154.997 83.776 M159.592 84.066 C 159.471 84.382,159.373 86.888,159.373 89.635 C 159.373 94.916,159.451 95.317,160.426 95.064 C 160.742 94.982,160.720 94.954,160.325 94.934 L 159.821 94.908 159.821 89.325 L 159.821 83.743 160.660 83.655 L 161.500 83.567 160.655 83.530 C 159.937 83.498,159.777 83.578,159.592 84.066 M167.040 83.640 C 166.831 83.724,166.760 84.740,166.760 87.638 C 166.760 89.994,166.672 91.578,166.535 91.662 C 166.388 91.754,166.396 91.960,166.560 92.265 C 167.047 93.177,167.201 92.143,167.204 87.928 C 167.208 83.771,167.211 83.746,167.711 83.650 C 168.133 83.569,168.142 83.551,167.767 83.540 C 167.521 83.533,167.194 83.578,167.040 83.640 M170.375 83.690 C 170.032 83.908,170.103 84.644,170.480 84.769 C 170.638 84.822,170.690 84.644,170.623 84.289 L 170.515 83.726 174.513 83.660 L 178.511 83.593 174.594 83.546 C 172.440 83.520,170.541 83.585,170.375 83.690 M180.907 83.760 C 180.623 84.044,180.502 94.069,180.774 94.777 C 180.890 95.080,181.357 95.125,183.964 95.085 L 187.017 95.039 183.996 94.918 L 180.974 94.796 180.974 89.312 L 180.974 83.828 183.884 83.705 L 186.794 83.583 183.984 83.538 C 182.043 83.506,181.092 83.575,180.907 83.760 M190.063 83.799 C 189.883 84.016,189.825 85.726,189.867 89.563 L 189.927 95.020 190.546 95.047 C 191.120 95.072,191.123 95.067,190.598 94.976 L 190.031 94.877 190.091 89.352 L 190.151 83.828 192.389 83.703 L 194.628 83.579 192.473 83.535 C 190.876 83.503,190.252 83.572,190.063 83.799 M199.659 84.066 C 199.539 84.382,199.440 86.888,199.440 89.635 C 199.440 94.916,199.518 95.317,200.493 95.064 C 200.809 94.982,200.787 94.954,200.392 94.934 L 199.888 94.908 199.888 89.319 L 199.888 83.730 202.630 83.659 L 205.372 83.589 202.625 83.540 L 199.877 83.492 199.659 84.066 M211.161 83.663 C 210.868 83.852,210.323 85.076,209.741 86.849 C 209.519 87.527,209.237 88.332,209.114 88.640 C 208.827 89.360,208.164 91.085,207.953 91.662 C 207.863 91.908,207.660 92.462,207.501 92.893 C 207.037 94.154,207.081 95.016,207.611 95.042 C 207.951 95.058,207.965 95.041,207.666 94.970 C 207.141 94.845,207.172 94.482,207.834 92.984 C 208.142 92.288,208.394 91.549,208.394 91.343 C 208.394 91.137,208.478 90.872,208.581 90.755 C 208.684 90.639,208.943 90.039,209.158 89.424 C 209.372 88.808,209.629 88.103,209.728 87.857 C 209.828 87.611,210.209 86.603,210.577 85.618 C 211.203 83.940,211.292 83.819,212.002 83.689 L 212.759 83.551 212.087 83.525 C 211.718 83.510,211.301 83.573,211.161 83.663 M221.824 83.851 C 221.473 84.067,221.431 84.133,221.712 84.029 C 221.959 83.939,222.714 83.795,223.391 83.711 L 224.622 83.558 223.503 83.533 C 222.848 83.518,222.152 83.650,221.824 83.851 M229.039 83.679 C 228.820 83.818,228.769 85.124,228.815 89.439 L 228.875 95.020 231.953 95.029 L 235.031 95.039 232.005 94.967 L 228.979 94.895 229.039 89.361 L 229.099 83.828 232.009 83.705 L 234.919 83.583 232.121 83.541 C 230.582 83.518,229.195 83.580,229.039 83.679 M243.369 83.656 C 243.954 83.703,244.910 83.703,245.495 83.656 C 246.080 83.610,245.602 83.573,244.432 83.573 C 243.262 83.573,242.784 83.610,243.369 83.656 M255.568 83.654 C 255.968 83.703,256.623 83.703,257.023 83.654 C 257.423 83.604,257.096 83.564,256.295 83.564 C 255.495 83.564,255.168 83.604,255.568 83.654 M262.446 83.803 C 261.997 84.132,262.288 84.839,262.870 84.831 C 263.014 84.830,262.988 84.743,262.810 84.630 C 261.761 83.966,262.731 83.727,266.751 83.659 L 270.733 83.593 266.803 83.542 C 263.736 83.503,262.779 83.560,262.446 83.803 M93.453 83.977 C 91.737 84.924,91.413 87.185,92.800 88.532 C 93.913 89.613,94.135 89.514,93.082 88.407 C 91.799 87.058,92.203 84.163,93.675 84.163 C 93.846 84.163,94.048 84.063,94.124 83.940 C 94.304 83.649,94.017 83.665,93.453 83.977 M120.755 89.312 L 120.761 95.020 123.783 95.030 L 126.805 95.041 123.843 94.968 L 120.881 94.895 120.815 89.249 L 120.749 83.604 120.755 89.312 M242.076 89.312 L 242.082 95.020 244.544 95.032 L 247.006 95.045 244.604 94.969 L 242.201 94.893 242.135 89.248 L 242.070 83.604 242.076 89.312 M102.382 84.573 C 98.444 87.864,100.613 95.235,105.475 95.089 L 106.883 95.047 105.540 94.970 C 100.886 94.702,98.912 88.500,102.377 85.030 C 103.251 84.155,103.254 83.844,102.382 84.573 M220.085 84.787 C 216.326 88.298,218.585 95.235,223.438 95.089 L 224.846 95.047 223.503 94.969 C 220.273 94.783,218.702 93.002,218.694 89.519 C 218.689 87.556,219.217 86.094,220.316 85.028 C 221.325 84.048,221.113 83.827,220.085 84.787 M252.633 84.838 C 250.533 86.682,250.429 91.689,252.446 93.844 C 252.762 94.183,253.128 94.460,253.257 94.460 C 253.387 94.460,253.208 94.196,252.860 93.873 C 251.570 92.677,250.694 88.309,251.532 87.247 C 251.656 87.090,251.822 86.688,251.902 86.355 C 251.981 86.021,252.414 85.391,252.862 84.956 C 253.857 83.989,253.695 83.906,252.633 84.838 M96.027 84.944 C 96.027 85.089,97.579 85.733,97.901 85.721 C 98.040 85.716,97.758 85.515,97.274 85.274 C 96.396 84.836,96.027 84.738,96.027 84.944 M106.547 84.924 C 106.547 85.042,108.305 85.956,108.513 85.947 C 108.601 85.943,108.271 85.692,107.778 85.389 C 106.932 84.867,106.547 84.722,106.547 84.924 M115.283 85.214 C 117.082 86.445,116.188 88.599,113.845 88.679 L 112.703 88.718 113.710 88.809 C 116.105 89.025,117.370 86.998,115.876 85.339 C 115.627 85.062,115.267 84.835,115.076 84.835 C 114.845 84.835,114.914 84.961,115.283 85.214 M173.649 89.703 C 173.719 95.259,173.700 95.143,174.531 95.098 L 175.154 95.064 174.538 94.971 L 173.923 94.878 173.923 89.856 C 173.923 87.095,173.847 84.835,173.755 84.835 C 173.663 84.835,173.615 87.025,173.649 89.703 M194.492 85.484 C 195.949 86.846,195.051 88.604,192.860 88.679 L 191.718 88.718 192.725 88.809 C 195.250 89.036,196.622 86.186,194.528 85.065 C 193.785 84.667,193.772 84.812,194.492 85.484 M225.260 85.420 C 225.857 85.731,226.384 85.946,226.432 85.898 C 226.552 85.778,224.755 84.832,224.433 84.845 C 224.291 84.851,224.663 85.110,225.260 85.420 M246.503 85.308 C 248.002 86.427,247.061 88.539,244.992 88.698 L 243.872 88.783 245.035 88.824 C 245.958 88.856,246.319 88.759,246.788 88.356 C 247.898 87.402,247.402 84.835,246.111 84.847 C 245.988 84.848,246.164 85.056,246.503 85.308 M257.191 84.958 C 257.191 85.026,257.490 85.186,257.855 85.314 C 259.304 85.819,260.119 89.182,259.329 91.397 C 258.798 92.884,258.050 93.454,256.184 93.793 L 255.288 93.956 256.080 93.984 C 259.116 94.092,261.054 89.811,259.420 86.608 C 258.927 85.641,257.191 84.356,257.191 84.958 M265.649 89.691 C 265.690 92.754,265.804 94.655,265.957 94.839 C 266.225 95.162,267.172 95.236,267.350 94.948 C 267.413 94.847,267.169 94.808,266.808 94.861 L 266.153 94.957 266.093 89.971 C 266.056 86.900,265.946 84.955,265.809 84.909 C 265.663 84.860,265.607 86.524,265.649 89.691 M140.347 85.925 C 140.347 86.034,140.509 86.257,140.706 86.421 C 140.904 86.585,141.155 86.925,141.265 87.176 C 141.375 87.427,141.565 87.784,141.688 87.969 C 141.810 88.153,142.675 89.664,143.610 91.326 C 145.646 94.944,145.807 95.141,146.705 95.101 C 147.317 95.074,147.332 95.059,146.838 94.968 C 146.530 94.911,146.157 94.765,146.008 94.642 C 145.735 94.418,143.033 89.902,143.033 89.669 C 143.033 89.600,142.694 89.013,142.281 88.365 C 141.867 87.716,141.465 86.984,141.388 86.737 C 141.242 86.273,140.347 85.574,140.347 85.925 M160.940 85.925 C 160.940 86.034,161.102 86.257,161.299 86.421 C 161.497 86.585,161.750 86.925,161.862 87.176 C 161.973 87.427,162.249 87.935,162.473 88.304 C 162.697 88.674,163.216 89.580,163.625 90.319 C 164.034 91.058,164.604 92.038,164.893 92.497 C 165.181 92.956,165.417 93.400,165.417 93.483 C 165.417 94.083,166.618 95.129,167.275 95.101 C 167.887 95.075,167.910 95.056,167.431 94.969 C 166.704 94.836,166.300 94.458,165.764 93.411 C 165.524 92.941,165.209 92.406,165.064 92.222 C 164.919 92.037,164.437 91.207,163.994 90.377 C 163.550 89.548,162.948 88.490,162.656 88.027 C 162.364 87.564,162.061 86.984,161.983 86.737 C 161.835 86.272,160.940 85.575,160.940 85.925 M211.752 85.973 C 211.752 86.127,211.818 86.186,211.899 86.105 C 211.980 86.024,212.235 86.536,212.466 87.243 C 212.697 87.950,212.975 88.730,213.084 88.976 C 213.193 89.222,213.385 89.751,213.512 90.151 L 213.743 90.879 211.908 90.924 L 210.073 90.969 211.842 91.046 C 214.347 91.154,214.296 91.353,212.809 87.310 C 212.327 86.001,211.752 85.273,211.752 85.973 M123.509 88.804 C 124.035 88.852,124.841 88.851,125.300 88.803 C 125.758 88.755,125.327 88.716,124.342 88.717 C 123.358 88.718,122.983 88.757,123.509 88.804 M132.686 88.804 C 133.213 88.852,134.019 88.851,134.477 88.803 C 134.936 88.755,134.505 88.716,133.520 88.717 C 132.535 88.718,132.160 88.757,132.686 88.804 M183.722 88.804 C 184.248 88.852,185.054 88.851,185.512 88.803 C 185.971 88.755,185.540 88.716,184.555 88.717 C 183.570 88.718,183.195 88.757,183.722 88.804 M202.518 88.804 C 203.041 88.851,203.898 88.851,204.421 88.804 C 204.944 88.757,204.516 88.718,203.470 88.718 C 202.423 88.718,201.995 88.757,202.518 88.804 M231.623 88.804 C 232.150 88.852,232.955 88.851,233.414 88.803 C 233.872 88.755,233.442 88.716,232.457 88.717 C 231.472 88.718,231.097 88.757,231.623 88.804 M94.559 89.655 C 94.798 89.835,95.094 89.983,95.217 89.983 C 95.340 89.983,95.245 89.835,95.006 89.655 C 94.767 89.474,94.471 89.326,94.348 89.326 C 94.225 89.326,94.320 89.474,94.559 89.655 M123.509 89.924 C 124.035 89.971,124.841 89.970,125.300 89.922 C 125.758 89.874,125.327 89.835,124.342 89.836 C 123.358 89.837,122.983 89.876,123.509 89.924 M132.686 89.924 C 133.213 89.971,134.019 89.970,134.477 89.922 C 134.936 89.874,134.505 89.835,133.520 89.836 C 132.535 89.837,132.160 89.876,132.686 89.924 M183.492 89.923 C 184.015 89.970,184.871 89.970,185.395 89.923 C 185.918 89.876,185.490 89.838,184.443 89.838 C 183.397 89.838,182.969 89.876,183.492 89.923 M202.518 89.923 C 203.041 89.970,203.898 89.970,204.421 89.923 C 204.944 89.876,204.516 89.838,203.470 89.838 C 202.423 89.838,201.995 89.876,202.518 89.923 M231.617 89.923 C 232.140 89.970,232.997 89.970,233.520 89.923 C 234.043 89.876,233.615 89.838,232.569 89.838 C 231.522 89.838,231.094 89.876,231.617 89.923 M244.604 89.922 C 245.006 89.971,245.611 89.970,245.947 89.919 C 246.283 89.868,245.954 89.827,245.215 89.829 C 244.477 89.830,244.202 89.872,244.604 89.922 M95.915 90.318 C 96.750 90.917,96.917 91.114,97.056 91.668 C 97.307 92.668,96.592 93.433,95.070 93.795 C 94.520 93.926,94.471 93.972,94.863 93.989 C 96.107 94.045,97.351 92.976,97.363 91.841 C 97.370 91.157,96.283 89.969,95.670 89.990 C 95.558 89.994,95.669 90.142,95.915 90.318 M114.761 90.599 C 115.207 90.992,115.726 91.884,116.199 93.069 C 116.938 94.921,117.414 95.388,118.233 95.059 C 118.392 94.995,118.263 94.935,117.945 94.925 C 117.367 94.908,117.267 94.774,116.509 93.005 C 115.652 91.006,115.446 90.641,114.997 90.327 C 114.179 89.754,114.016 89.942,114.761 90.599 M193.644 90.433 C 193.988 90.690,194.525 91.583,194.952 92.608 C 195.350 93.565,195.753 94.499,195.846 94.684 C 196.045 95.077,197.161 95.262,197.470 94.953 C 197.606 94.817,197.472 94.780,197.106 94.850 C 196.471 94.971,195.859 94.591,195.859 94.075 C 195.859 93.735,195.413 92.623,194.801 91.438 C 194.434 90.728,193.660 89.992,193.285 89.995 C 193.162 89.996,193.323 90.193,193.644 90.433 M247.197 90.532 C 248.282 91.538,247.820 93.348,246.396 93.668 C 246.116 93.731,245.434 93.816,244.880 93.858 C 243.889 93.933,243.892 93.935,245.070 93.973 C 247.783 94.062,249.263 91.712,247.389 90.288 C 246.722 89.781,246.581 89.961,247.197 90.532 M214.141 92.364 C 214.286 92.423,214.577 93.021,214.788 93.693 C 215.173 94.916,215.735 95.365,216.499 95.059 C 216.658 94.995,216.519 94.935,216.191 94.925 C 215.673 94.910,215.524 94.729,215.073 93.565 C 214.746 92.722,214.426 92.228,214.215 92.239 C 214.011 92.250,213.982 92.299,214.141 92.364 M107.443 93.229 C 106.889 93.526,106.499 93.773,106.576 93.778 C 106.862 93.799,108.312 93.116,108.448 92.897 C 108.634 92.596,108.611 92.603,107.443 93.229 M91.550 93.244 C 91.550 93.725,91.965 94.460,92.237 94.460 C 92.379 94.460,92.369 94.288,92.212 93.995 C 92.075 93.739,92.018 93.386,92.085 93.211 C 92.157 93.025,92.071 92.893,91.879 92.893 C 91.698 92.893,91.550 93.051,91.550 93.244 M225.811 93.011 C 225.746 93.075,225.150 93.323,224.486 93.562 C 223.822 93.801,223.430 94.000,223.615 94.005 C 224.121 94.019,226.077 93.278,226.077 93.073 C 226.077 92.865,225.979 92.842,225.811 93.011 M123.734 93.954 C 124.385 93.999,125.392 93.999,125.973 93.953 C 126.553 93.907,126.021 93.870,124.790 93.870 C 123.559 93.871,123.084 93.908,123.734 93.954 M132.401 93.931 C 133.966 94.096,136.269 94.111,136.172 93.956 C 136.115 93.864,135.091 93.805,133.898 93.824 C 132.705 93.844,132.031 93.892,132.401 93.931 M183.828 93.953 C 184.412 93.999,185.369 93.999,185.954 93.953 C 186.539 93.907,186.060 93.869,184.891 93.869 C 183.721 93.869,183.243 93.907,183.828 93.953 M231.849 93.954 C 232.499 93.999,233.506 93.999,234.087 93.953 C 234.668 93.907,234.135 93.870,232.904 93.870 C 231.673 93.871,231.198 93.908,231.849 93.954 M92.852 94.733 C 93.006 94.886,93.785 95.019,94.632 95.035 C 95.887 95.060,95.933 95.050,94.908 94.974 C 94.231 94.924,93.581 94.788,93.464 94.672 C 93.347 94.555,93.100 94.460,92.916 94.460 C 92.652 94.460,92.638 94.518,92.852 94.733 M254.057 94.772 C 254.435 95.004,255.124 95.106,256.184 95.087 L 257.750 95.057 256.072 94.913 C 255.148 94.834,254.191 94.692,253.945 94.599 C 253.673 94.496,253.717 94.564,254.057 94.772 " stroke="none" fill="#c2d160" fill-rule="evenodd"></path><path id="path4" d="M1.231 112.255 L 1.231 222.608 200.056 222.664 L 398.881 222.720 398.825 112.199 L 398.769 1.679 398.713 112.087 L 398.657 222.496 200.000 222.496 L 1.343 222.496 1.287 112.199 L 1.230 1.903 1.231 112.255 M110.856 83.640 C 110.543 83.767,110.434 94.793,110.744 94.985 C 110.837 95.042,110.883 92.620,110.848 89.603 C 110.803 85.693,110.859 84.026,111.044 83.804 C 111.318 83.474,111.302 83.460,110.856 83.640 M120.470 83.760 C 120.078 84.152,120.089 94.536,120.481 94.862 C 120.704 95.047,120.748 93.951,120.697 89.479 C 120.648 85.095,120.697 83.824,120.921 83.681 C 121.079 83.581,121.103 83.497,120.974 83.495 C 120.844 83.493,120.618 83.613,120.470 83.760 M129.647 83.760 C 129.254 84.154,129.265 94.816,129.659 94.967 C 129.878 95.051,129.938 93.824,129.938 89.283 C 129.938 86.098,129.933 83.492,129.927 83.492 C 129.921 83.492,129.795 83.613,129.647 83.760 M138.832 83.679 C 138.378 83.967,138.543 94.944,139.004 95.085 C 139.275 95.168,139.286 95.130,139.060 94.891 C 138.715 94.525,138.660 84.955,138.998 84.066 C 139.240 83.431,139.236 83.422,138.832 83.679 M146.052 83.772 C 145.875 84.265,145.825 91.736,145.999 91.628 C 146.091 91.571,146.167 89.775,146.167 87.638 C 146.167 84.740,146.238 83.724,146.447 83.640 C 146.666 83.552,146.664 83.523,146.440 83.510 C 146.282 83.500,146.108 83.618,146.052 83.772 M154.696 83.799 C 154.366 84.197,154.451 94.946,154.785 95.057 C 154.930 95.105,155.008 93.092,155.008 89.312 C 155.008 86.111,154.996 83.492,154.980 83.492 C 154.964 83.492,154.836 83.630,154.696 83.799 M159.397 83.799 C 158.972 84.311,159.161 94.952,159.597 95.085 C 159.868 95.168,159.879 95.130,159.653 94.891 C 159.308 94.525,159.253 84.955,159.592 84.066 C 159.836 83.424,159.776 83.342,159.397 83.799 M166.646 83.772 C 166.469 84.265,166.418 91.736,166.592 91.628 C 166.684 91.571,166.760 89.775,166.760 87.638 C 166.760 84.740,166.831 83.724,167.040 83.640 C 167.259 83.552,167.257 83.523,167.033 83.510 C 166.875 83.500,166.701 83.618,166.646 83.772 M170.043 83.641 C 169.819 83.865,169.863 84.835,170.097 84.835 C 170.208 84.835,170.244 84.623,170.176 84.364 C 170.104 84.089,170.182 83.812,170.365 83.696 C 170.537 83.588,170.568 83.497,170.435 83.495 C 170.301 83.493,170.125 83.559,170.043 83.641 M180.542 83.844 C 180.076 84.309,180.012 94.130,180.470 94.758 C 180.696 95.067,180.737 94.082,180.683 89.633 C 180.634 85.661,180.689 84.036,180.878 83.808 C 181.234 83.379,180.980 83.406,180.542 83.844 M189.595 83.932 C 189.286 84.511,189.387 94.952,189.703 95.057 C 189.850 95.106,189.905 93.224,189.864 89.624 C 189.818 85.699,189.874 84.026,190.059 83.804 C 190.237 83.589,190.242 83.492,190.074 83.492 C 189.941 83.492,189.725 83.690,189.595 83.932 M199.492 83.679 C 199.038 83.967,199.203 94.944,199.664 95.085 C 199.935 95.168,199.946 95.130,199.720 94.891 C 199.375 94.525,199.321 84.955,199.659 84.066 C 199.900 83.431,199.897 83.422,199.492 83.679 M210.677 83.760 C 210.529 83.908,210.409 84.204,210.409 84.419 C 210.409 84.633,210.308 84.871,210.185 84.947 C 210.062 85.023,209.969 85.256,209.980 85.464 C 209.990 85.672,210.205 85.389,210.457 84.835 C 210.710 84.281,211.029 83.754,211.166 83.663 C 211.327 83.557,211.332 83.498,211.181 83.495 C 211.051 83.493,210.825 83.613,210.677 83.760 M221.153 83.866 C 218.670 84.938,217.412 88.378,218.295 91.679 C 218.569 92.704,219.844 94.460,220.315 94.460 C 220.451 94.460,220.260 94.183,219.892 93.844 C 218.218 92.307,217.807 88.803,219.011 86.341 C 219.720 84.892,219.830 84.782,221.300 84.053 C 222.494 83.461,222.392 83.332,221.153 83.866 M228.547 83.925 C 228.196 84.582,228.239 94.269,228.595 94.758 C 228.821 95.067,228.863 94.056,228.812 89.502 C 228.762 85.100,228.811 83.824,229.035 83.681 C 229.248 83.546,229.252 83.498,229.051 83.495 C 228.901 83.493,228.675 83.687,228.547 83.925 M241.791 83.760 C 241.398 84.154,241.408 94.816,241.802 94.967 C 242.022 95.052,242.068 93.882,242.018 89.469 C 241.968 85.094,242.018 83.823,242.242 83.681 C 242.400 83.581,242.424 83.497,242.294 83.495 C 242.165 83.493,241.938 83.613,241.791 83.760 M252.654 84.507 C 252.195 84.819,251.819 85.191,251.819 85.333 C 251.819 85.474,252.096 85.333,252.434 85.019 C 252.773 84.704,253.251 84.336,253.497 84.200 C 253.744 84.064,253.843 83.950,253.717 83.946 C 253.592 83.943,253.114 84.195,252.654 84.507 M92.233 84.759 C 91.338 85.897,91.434 87.613,92.444 88.527 C 93.022 89.050,93.023 88.858,92.445 88.193 C 92.121 87.819,91.998 87.355,91.998 86.514 C 91.998 85.672,92.121 85.208,92.445 84.835 C 92.692 84.551,92.893 84.284,92.893 84.241 C 92.893 84.034,92.659 84.218,92.233 84.759 M102.163 84.560 C 101.558 85.060,100.643 86.392,100.798 86.547 C 100.864 86.613,101.078 86.359,101.273 85.982 C 101.467 85.605,101.902 85.042,102.238 84.730 C 102.929 84.090,102.876 83.970,102.163 84.560 M114.991 85.276 C 115.837 85.792,116.120 86.647,115.766 87.616 C 115.537 88.244,115.543 88.266,115.843 87.870 C 116.189 87.413,116.281 86.232,116.001 85.829 C 115.767 85.493,114.773 84.835,114.500 84.836 C 114.373 84.836,114.594 85.035,114.991 85.276 M173.303 89.867 C 173.340 93.024,173.449 95.011,173.587 95.057 C 173.853 95.146,173.684 85.191,173.415 84.923 C 173.320 84.829,173.270 87.054,173.303 89.867 M224.256 85.179 C 224.670 85.359,225.073 85.503,225.152 85.499 C 225.443 85.482,224.161 84.851,223.839 84.852 C 223.654 84.852,223.842 85.000,224.256 85.179 M265.473 89.930 C 265.567 94.160,265.639 95.000,265.921 95.085 C 266.192 95.168,266.202 95.130,265.976 94.891 C 265.771 94.673,265.697 93.336,265.697 89.840 C 265.697 87.225,265.621 85.038,265.529 84.981 C 265.436 84.924,265.411 87.151,265.473 89.930 M96.823 85.611 C 97.062 85.792,97.409 85.940,97.594 85.939 C 97.788 85.939,97.694 85.804,97.370 85.618 C 96.634 85.198,96.271 85.193,96.823 85.611 M194.604 85.778 C 195.112 86.637,195.054 87.153,194.350 88.007 C 193.939 88.507,193.884 88.645,194.183 88.427 C 195.315 87.602,195.512 86.591,194.715 85.699 L 194.243 85.171 194.604 85.778 M246.678 85.862 C 247.005 86.723,246.761 87.904,246.194 88.208 C 245.942 88.342,245.796 88.512,245.869 88.585 C 245.941 88.657,246.252 88.480,246.559 88.192 C 247.221 87.570,247.349 85.977,246.775 85.501 C 246.473 85.250,246.461 85.292,246.678 85.862 M257.934 85.533 C 258.157 85.663,258.535 86.088,258.772 86.477 C 259.009 86.867,259.204 87.082,259.205 86.955 C 259.206 86.427,258.208 85.286,257.750 85.293 C 257.627 85.295,257.710 85.403,257.934 85.533 M251.380 86.055 C 251.232 86.234,251.144 86.547,251.185 86.750 C 251.234 86.997,251.346 86.889,251.519 86.425 C 251.809 85.653,251.779 85.574,251.380 86.055 M209.520 86.779 C 209.376 87.248,209.169 87.834,209.059 88.081 C 208.588 89.141,207.722 91.420,207.722 91.602 C 207.722 91.981,208.117 91.554,208.233 91.050 C 208.297 90.771,208.566 89.989,208.831 89.312 C 209.652 87.211,209.997 86.140,209.887 86.030 C 209.829 85.972,209.664 86.309,209.520 86.779 M211.883 86.146 C 211.802 86.277,211.827 86.564,211.938 86.784 C 212.131 87.169,212.232 87.443,213.060 89.813 C 213.264 90.397,213.501 90.875,213.587 90.876 C 213.741 90.879,213.468 89.846,213.084 88.976 C 212.975 88.730,212.694 87.939,212.458 87.219 C 212.222 86.498,211.964 86.016,211.883 86.146 M141.233 87.648 C 141.645 88.379,142.235 89.429,142.544 89.983 C 142.852 90.537,143.340 91.366,143.628 91.825 C 143.916 92.285,144.152 92.719,144.152 92.790 C 144.152 93.066,145.611 95.132,145.806 95.132 C 145.920 95.132,145.854 94.955,145.661 94.740 C 145.468 94.524,144.545 92.988,143.610 91.326 C 142.675 89.664,141.810 88.153,141.688 87.969 C 141.565 87.784,141.371 87.416,141.256 87.151 C 141.140 86.886,140.919 86.591,140.764 86.495 C 140.609 86.399,140.820 86.918,141.233 87.648 M100.306 87.844 C 99.699 90.256,100.489 93.146,102.030 94.147 C 102.535 94.475,102.499 94.391,101.803 93.616 C 100.727 92.418,100.425 91.249,100.562 88.808 C 100.687 86.575,100.655 86.458,100.306 87.844 M250.835 87.651 C 250.629 88.190,250.680 91.173,250.902 91.523 C 251.021 91.711,251.091 90.939,251.079 89.565 C 251.060 87.170,251.050 87.092,250.835 87.651 M259.259 89.309 C 259.259 91.258,259.219 91.431,258.550 92.413 L 257.841 93.453 258.509 92.737 C 259.509 91.667,260.078 88.538,259.452 87.551 C 259.335 87.366,259.259 88.060,259.259 89.309 M161.835 87.610 C 161.835 87.689,162.087 88.153,162.395 88.640 C 162.703 89.128,162.955 89.617,162.955 89.728 C 162.955 89.838,163.106 90.054,163.290 90.207 C 163.776 90.610,163.704 90.322,163.067 89.312 C 162.759 88.824,162.507 88.335,162.507 88.224 C 162.507 88.114,162.356 87.898,162.171 87.745 C 161.987 87.592,161.835 87.531,161.835 87.610 M95.973 90.594 C 96.517 91.057,96.702 91.397,96.700 91.933 C 96.698 92.636,96.606 92.777,95.691 93.473 C 95.268 93.794,95.275 93.798,95.803 93.548 C 97.521 92.735,97.593 91.267,95.959 90.367 L 95.243 89.973 95.973 90.594 M114.217 90.394 C 114.558 90.619,114.983 90.996,115.161 91.232 C 115.340 91.469,115.490 91.541,115.494 91.394 C 115.501 91.110,114.146 89.982,113.801 89.985 C 113.689 89.985,113.877 90.170,114.217 90.394 M193.218 90.370 C 193.860 90.768,194.349 91.636,195.210 93.900 C 195.350 94.270,195.507 94.460,195.558 94.323 C 195.865 93.506,193.601 89.962,192.789 89.989 C 192.692 89.992,192.885 90.164,193.218 90.370 M246.962 90.524 C 247.862 91.412,247.749 92.568,246.693 93.278 C 245.833 93.856,245.929 93.952,246.878 93.461 C 248.197 92.779,248.150 91.155,246.782 90.212 C 246.536 90.043,246.617 90.183,246.962 90.524 M163.626 90.771 C 163.626 90.835,163.878 91.286,164.186 91.774 C 164.494 92.261,164.745 92.751,164.745 92.861 C 164.745 92.972,164.896 93.188,165.081 93.341 C 165.587 93.761,165.496 93.505,164.607 92.014 C 163.862 90.763,163.626 90.464,163.626 90.771 M115.501 92.096 C 115.501 92.274,115.594 92.476,115.707 92.547 C 115.821 92.617,115.985 92.999,116.073 93.396 C 116.264 94.269,116.802 95.133,117.149 95.128 C 117.335 95.126,117.334 95.080,117.145 94.960 C 117.003 94.870,116.615 94.116,116.282 93.285 C 115.673 91.764,115.501 91.502,115.501 92.096 M207.090 93.334 C 206.605 94.585,206.591 95.132,207.043 95.132 C 207.147 95.132,207.179 94.925,207.113 94.673 C 207.047 94.420,207.168 93.825,207.383 93.349 C 207.597 92.874,207.736 92.374,207.691 92.240 C 207.646 92.105,207.376 92.597,207.090 93.334 M251.156 92.160 C 251.142 92.602,251.946 93.792,252.520 94.177 C 253.019 94.512,253.016 94.495,252.461 93.881 C 252.137 93.522,251.713 92.927,251.518 92.557 C 251.324 92.188,251.161 92.009,251.156 92.160 M214.218 93.066 C 214.462 93.521,214.661 94.059,214.661 94.261 C 214.661 94.683,215.272 95.267,215.488 95.051 C 215.567 94.972,215.528 94.908,215.401 94.908 C 215.274 94.908,214.999 94.362,214.789 93.695 C 214.579 93.028,214.265 92.427,214.091 92.360 C 213.858 92.271,213.892 92.458,214.218 93.066 M91.475 92.819 C 91.219 93.075,91.311 93.684,91.674 94.137 C 92.011 94.557,92.014 94.555,91.786 94.083 C 91.443 93.372,91.496 92.940,91.942 92.824 C 92.256 92.742,92.263 92.716,91.979 92.695 C 91.784 92.681,91.558 92.736,91.475 92.819 M225.377 93.042 C 225.096 93.382,225.118 93.389,225.630 93.123 C 226.380 92.733,226.436 92.669,226.030 92.669 C 225.840 92.669,225.546 92.837,225.377 93.042 M165.425 93.900 C 165.433 94.177,166.291 95.228,166.410 95.107 C 166.457 95.059,166.254 94.717,165.958 94.348 C 165.661 93.979,165.422 93.777,165.425 93.900 M92.571 94.789 C 92.810 94.969,93.156 95.120,93.341 95.123 C 93.525 95.126,93.388 94.978,93.035 94.794 C 92.219 94.369,92.012 94.366,92.571 94.789 M253.609 94.796 C 253.917 94.972,254.270 95.116,254.393 95.116 C 254.516 95.116,254.365 94.972,254.057 94.796 C 253.749 94.620,253.397 94.476,253.274 94.476 C 253.151 94.476,253.302 94.620,253.609 94.796 " stroke="none" fill="#f9e48f" fill-rule="evenodd"></path></g></svg>